<svg width="210" height="260" viewBox="0 0 210 260" fill="none" xmlns="http://www.w3.org/2000/svg">
<g clip-path="url(#clip0_1203_15583)">
<g style="mix-blend-mode:multiply">
<path d="M206.074 230.769C207.199 212.67 169.315 195.566 121.495 193.122C73.6743 190.679 34.028 203.62 32.9511 222.036C31.8743 240.453 69.7097 257.24 117.53 259.683C165.35 262.127 205.046 249.276 206.074 230.769Z" fill="#B8B5AA"/>
</g>
<path d="M36.6709 219.547C36.6709 232.443 67.2622 250.135 105.195 250.135C143.129 250.135 173.72 232.443 173.72 219.547C173.72 206.651 143.129 157.737 105.195 157.737C67.2622 157.737 36.6709 206.606 36.6709 219.547Z" fill="#9C5723"/>
<path d="M209.5 35.7918C209.5 21.4932 162.414 0.542969 105 0.542969C47.5862 0.542969 0.5 21.4932 0.5 35.7918C0.5 69.1403 0.5 220.452 105 220.452C209.5 220.452 209.5 69.1403 209.5 35.7918Z" fill="#B4703D"/>
<g style="mix-blend-mode:screen" opacity="0.5">
<path d="M21.645 36.1993C15.6246 49.5025 17.3378 40.0907 14.1073 53.3034C5.39489 89.5025 32.1684 192.987 66.5286 202.263C135.689 220.86 124.677 60.0455 119.537 27.8283C118.558 21.7197 128.445 12.5341 125.802 7.78301C118.836 6.81178 111.801 6.32775 104.756 6.33504C69.3185 6.33504 38.3356 18.3712 21.645 36.1993Z" fill="#B4703D"/>
</g>
<path d="M209.5 35.7919C209.5 16.0181 162.707 0 105 0C47.2925 0 0.5 16.0181 0.5 35.7919C0.5 55.5656 47.2925 71.5837 105 71.5837C162.707 71.5837 209.5 55.5656 209.5 35.7919Z" fill="#E6BE8A"/>
<path d="M105 63.3489C54.3411 63.3489 11.2686 50.1814 11.2686 34.6611C11.2686 19.1407 54.3411 6.01855 105 6.01855C155.66 6.01855 198.732 19.1407 198.732 34.6611C198.732 50.1814 155.806 63.3489 105 63.3489Z" fill="#B4703D"/>
<path d="M105 63.348C142.248 63.348 175.287 56.2892 190.216 46.3797C187.083 33.0313 149.346 22.0811 105 22.0811C60.6552 22.0811 22.9177 32.986 19.7852 46.3344C34.7627 56.244 67.7524 63.348 105 63.348Z" fill="#ECE2AC"/>
<path style="mix-blend-mode:screen" opacity="0.6" d="M33.6367 52.9407C56.5777 60.2614 80.7355 63.7844 105 63.348C139.262 63.348 169.462 57.4204 185.908 48.8683C174.895 36.9679 145.185 28.1896 111.265 28.1896C73.5278 28.1443 40.9786 39.0041 33.6367 52.9407Z" fill="url(#paint0_linear_1203_15583)"/>
<path d="M19.7361 50.3169C18.9529 52.6246 28.7911 57.4662 41.7129 61.2218C54.6347 64.9775 65.6965 66.1087 66.4796 63.8463C67.2628 61.5838 56.0052 60.8146 43.0834 57.1042C30.1616 53.3938 20.4703 48.0544 19.7361 50.3169Z" fill="white"/>
<path d="M31.6297 92.1724C29.8676 82.3082 26.0988 74.7064 23.0152 75.1588C19.9315 75.6113 18.7568 83.9824 20.421 93.8014C22.0852 103.62 26.0009 111.222 29.0845 110.77C32.1681 110.317 33.3428 101.991 31.6297 92.1724Z" fill="white"/>
<path d="M36.6224 124.479C34.6156 120.633 31.7278 118.235 29.6721 119.049C27.6163 119.864 27.959 123.574 29.6721 127.466C31.3852 131.357 34.5667 133.71 36.6714 132.895C38.7761 132.081 38.6292 128.28 36.6224 124.479Z" fill="white"/>
<path d="M53.1656 223.168C49.3478 220.815 45.3342 220.136 44.2085 221.72C43.0827 223.304 45.1874 226.245 49.1031 228.869C53.0188 231.494 56.8855 231.901 58.0602 230.317C59.2349 228.733 56.9345 225.566 53.1656 223.168Z" fill="white"/>
<path d="M114.691 55.5205H113.076L113.81 55.249L114.691 55.5205Z" fill="#93B010"/>
<path d="M130.942 38.9591L130.061 38.5066L128.788 37.6016C127.063 35.6829 124.864 34.1756 122.376 33.207C119.889 32.2384 117.186 31.8368 114.496 32.036C111.111 32.0018 107.763 32.6828 104.707 34.027H103.434C102.439 33.9802 101.443 33.9802 100.448 34.027C104.351 30.9426 109.365 29.3275 114.496 29.5021C123.159 29.5021 130.256 33.2577 130.893 38.0089C130.893 38.2351 130.893 38.4613 130.893 38.6876L130.942 38.9591Z" fill="#ADCC21"/>
<path d="M113.076 33.7105C111.774 33.7039 110.476 33.8406 109.209 34.1178C108.345 34.0695 107.479 34.0695 106.615 34.1178H104.706C107.763 32.7736 111.111 32.0926 114.495 32.1268C117.186 31.9276 119.888 32.3293 122.376 33.2979C124.863 34.2665 127.062 35.7737 128.788 37.6925C125.938 36.1119 122.709 35.2101 119.39 35.068C117.427 34.1698 115.266 33.7051 113.076 33.7105V33.7105Z" fill="#93B010"/>
<path d="M132.899 43.3935C132.899 47.9184 126.096 51.9003 117.677 51.9003C116.165 51.9059 114.656 51.7695 113.174 51.4931C114.408 50.7975 115.487 49.8916 116.355 48.8234C117.959 49.2209 119.647 49.2209 121.25 48.8234C122.084 48.7181 122.875 48.4157 123.546 47.9454C124.217 47.475 124.745 46.8527 125.08 46.1384C125.414 45.4242 125.544 44.6422 125.456 43.868C125.368 43.0939 125.066 42.3538 124.578 41.7193C124.598 41.5237 124.598 41.3267 124.578 41.1311C124.556 40.4517 124.368 39.7856 124.029 39.1824C123.69 38.5793 123.209 38.0544 122.62 37.6469C121.864 36.4011 120.673 35.4283 119.243 34.8867C122.562 35.0288 125.792 35.9306 128.641 37.5112L129.913 38.4161C130.791 38.978 131.517 39.7193 132.035 40.5825C132.553 41.4457 132.848 42.4076 132.899 43.3935V43.3935Z" fill="#93B010"/>
<path d="M124.627 41.8096C125.115 42.4441 125.417 43.1842 125.505 43.9583C125.593 44.7325 125.463 45.5144 125.129 46.2287C124.794 46.9429 124.266 47.5653 123.595 48.0357C122.924 48.506 122.133 48.8084 121.299 48.9136C119.696 49.3112 118.007 49.3112 116.404 48.9136C116.817 48.3539 117.147 47.7451 117.383 47.1037C119.013 46.9586 120.564 46.382 121.849 45.443C123.134 44.5041 124.098 43.2425 124.627 41.8096V41.8096Z" fill="#799400"/>
<path d="M96.9235 37.195L95.7488 37.5118C95.0193 37.7875 94.3726 38.2219 93.8637 38.7782C93.3548 39.3345 92.9987 39.9961 92.8257 40.7069C92.6527 41.4177 92.6679 42.1566 92.8701 42.8608C93.0722 43.565 93.4553 44.2136 93.9868 44.7516C95.2851 46.1183 96.9823 47.1099 98.8748 47.6075C100.767 48.1051 102.775 48.0876 104.657 47.557C105.15 47.3805 105.612 47.1364 106.028 46.833H107.496C108.066 46.8793 108.639 46.8793 109.209 46.833C110.375 47.1347 111.573 47.3168 112.782 47.376C109.18 49.9221 104.734 51.2335 100.203 51.0864C92.3715 51.0864 85.8617 47.738 85.0786 43.4846C85.0545 43.1834 85.0545 42.8809 85.0786 42.5796C85.2768 41.1618 85.8866 39.8201 86.8431 38.6968C87.7997 37.5735 89.0673 36.7106 90.5116 36.1996C93.5687 34.8617 96.9191 34.1958 100.301 34.2538H100.546C101.54 34.2071 102.537 34.2071 103.531 34.2538C101.045 34.5541 98.7282 35.5852 96.9235 37.195V37.195Z" fill="#93B010"/>
<path d="M99.5673 44.7509C101.481 45.9668 103.712 46.6856 106.028 46.8323C105.613 47.1357 105.151 47.3798 104.658 47.5563C102.776 48.0869 100.768 48.1044 98.8755 47.6068C96.983 47.1092 95.2858 46.1176 93.9875 44.7509C93.456 44.2129 93.0729 43.5643 92.8708 42.8601C92.6686 42.1559 92.6534 41.417 92.8264 40.7062C92.9994 39.9954 93.3555 39.3338 93.8644 38.7775C94.3733 38.2212 95.02 37.7868 95.7495 37.5111L96.9242 37.1943C96.1235 37.9827 95.6547 39.01 95.6027 40.0903C95.7376 41.1285 96.1788 42.1125 96.8781 42.9345C97.5773 43.7565 98.5077 44.3849 99.5673 44.7509V44.7509Z" fill="#799400"/>
<path d="M115.083 44.9771C119.733 44.4341 123.257 42.1264 123.257 39.4115C123.239 38.8255 123.072 38.2518 122.768 37.7373C123.356 38.1448 123.838 38.6697 124.177 39.2728C124.516 39.876 124.703 40.5421 124.726 41.2215C124.746 41.4171 124.746 41.6141 124.726 41.8097C124.178 43.2323 123.199 44.4792 121.906 45.4018C120.613 46.3244 119.06 46.8838 117.433 47.0133C116.239 47.2305 115.027 47.3517 113.811 47.3753H112.881C111.672 47.3161 110.473 47.134 109.308 46.8323C111.371 46.6738 113.358 46.0356 115.083 44.9771V44.9771Z" fill="#ADCC21"/>
<path d="M123.257 39.4122C123.257 42.1271 119.733 44.4348 115.083 44.9778C115.83 44.6119 116.461 44.0737 116.915 43.4156C117.37 42.7575 117.632 42.0018 117.678 41.2221C117.701 40.9813 117.701 40.739 117.678 40.4981C117.7 40.3632 117.7 40.2258 117.678 40.0909C117.678 37.195 114.104 34.7968 109.259 34.118C110.51 33.8444 111.791 33.7077 113.077 33.7108C115.259 33.6772 117.42 34.1108 119.391 34.9778C120.821 35.5194 122.011 36.4921 122.768 37.738C123.072 38.2524 123.24 38.8262 123.257 39.4122V39.4122Z" fill="#93B010"/>
<path d="M109.209 34.1173C114.104 34.796 117.628 37.1942 117.628 40.0901C117.651 40.225 117.651 40.3624 117.628 40.4973C117.041 37.6919 112.733 35.52 107.594 35.52C102.455 35.52 97.3644 38.0539 97.3644 41.2213C97.4182 41.936 97.6549 42.6286 98.0548 43.2422C98.4547 43.8558 99.0065 44.3728 99.6648 44.7507C98.6251 44.3955 97.7082 43.7878 97.0105 42.9915C96.3128 42.1952 95.8602 41.2398 95.7002 40.2259C95.7523 39.1456 96.2211 38.1182 97.0217 37.3299C98.7086 35.7129 100.898 34.6216 103.287 34.2078H104.559H106.468C107.379 34.1237 108.295 34.0934 109.209 34.1173V34.1173Z" fill="#ADCC21"/>
<path d="M106.028 46.8324H107.496C108.066 46.8787 108.639 46.8787 109.209 46.8324C111.302 46.7025 113.324 46.0794 115.083 45.0224C115.829 44.6566 116.46 44.1184 116.914 43.4603C117.369 42.8022 117.632 42.0465 117.677 41.2668C117.7 41.0259 117.7 40.7837 117.677 40.5428C117.089 37.7374 112.782 35.5654 107.643 35.5654C102.503 35.5654 97.4131 38.0994 97.4131 41.2668C97.4669 41.9814 97.7036 42.674 98.1035 43.2876C98.5035 43.9012 99.0553 44.4183 99.7136 44.7962C101.59 45.9734 103.767 46.6755 106.028 46.8324V46.8324ZM105.147 41.8098C104.949 41.5808 104.815 41.311 104.755 41.0235C104.695 40.736 104.712 40.4394 104.803 40.159C104.895 39.8787 105.058 39.6231 105.28 39.4141C105.502 39.2051 105.775 39.049 106.077 38.9591C106.814 38.8568 107.567 38.9618 108.24 39.2603C108.912 39.5589 109.471 40.0372 109.845 40.6333C110.031 40.8686 110.154 41.141 110.205 41.4284C110.255 41.7158 110.232 42.0102 110.137 42.2878C110.041 42.5653 109.877 42.8183 109.656 43.0261C109.435 43.2339 109.165 43.3907 108.866 43.484C108.136 43.583 107.391 43.4761 106.727 43.1775C106.064 42.8788 105.513 42.4022 105.147 41.8098V41.8098Z" fill="#93B010"/>
<path d="M105.147 41.8096C104.949 41.5807 104.815 41.3109 104.755 41.0234C104.695 40.7358 104.712 40.4392 104.803 40.1589C104.895 39.8786 105.058 39.623 105.28 39.414C105.502 39.205 105.775 39.0488 106.077 38.9589C106.814 38.8567 107.567 38.9617 108.239 39.2602C108.912 39.5587 109.471 40.0371 109.845 40.6332C110.031 40.8684 110.154 41.1408 110.205 41.4282C110.255 41.7157 110.232 42.0101 110.137 42.2876C110.041 42.5652 109.877 42.8181 109.656 43.0259C109.435 43.2337 109.165 43.3906 108.866 43.4838C108.136 43.5828 107.391 43.476 106.727 43.1773C106.063 42.8787 105.513 42.402 105.147 41.8096V41.8096Z" fill="#799400"/>
<path d="M104.462 37.2846C104.462 36.5607 106.028 35.4747 108.524 34.8865C111.021 34.2982 113.174 34.3887 113.419 34.8865C113.664 35.3842 111.216 34.8865 108.524 35.4747C105.832 36.0629 104.707 37.9634 104.462 37.2846Z" fill="white"/>
</g>
<defs>
<linearGradient id="paint0_linear_1203_15583" x1="80.8208" y1="20.995" x2="145.765" y2="99.3739" gradientUnits="userSpaceOnUse">
<stop stop-color="white"/>
<stop offset="1"/>
</linearGradient>
<clipPath id="clip0_1203_15583">
<rect width="209" height="260" fill="white" transform="translate(0.5)"/>
</clipPath>
</defs>
</svg>
