<svg width="254" height="260" viewBox="0 0 254 260" fill="none" xmlns="http://www.w3.org/2000/svg">
<g style="mix-blend-mode:multiply">
<path d="M253.949 214.206C255.569 185.239 200.041 158.791 129.935 154.71C59.8298 150.629 1.67 171.284 -0.000389851 200.05C-1.67078 228.816 53.8569 255.466 124.013 259.546C194.169 263.627 252.329 243.123 253.949 214.206Z" fill="#B8B5AA"/>
</g>
<path d="M114.75 0C52.2875 0 1.61914 19.3955 1.61914 43.3249V188.413C1.61914 222.922 52.2369 250.882 114.75 250.882C177.263 250.882 227.779 222.922 227.779 188.413V43.3249C227.779 19.3955 177.162 0 114.75 0Z" fill="#030800"/>
<path d="M222.971 43.3249C222.971 21.8135 174.53 4.38281 114.75 4.38281C54.9705 4.38281 6.5293 21.8135 6.5293 43.3249C6.5293 64.8362 55.0211 82.2669 114.75 82.2669C174.479 82.2669 222.971 64.8362 222.971 43.3249Z" fill="#FCFBE6"/>
<path d="M75.2678 168.766C97.7927 166.398 84.784 152.796 81.0383 146.549C64.3344 137.582 67.3208 133.501 73.5975 126.851C75.9259 114.408 80.279 114.257 71.4209 113.199C64.4356 106.549 61.2973 112.897 68.7888 105.491C68.7888 105.038 76.179 107.154 58.2096 102.065C56.0331 101.813 56.1343 101.209 61.1455 96.7253C66.7641 91.0326 64.2332 94.9117 51.0219 92.6447C60.4874 89.4709 26.6748 81.6624 22.0179 78.9923C8.09805 70.9319 3.79554 73.1989 8.24991 150.579C8.79142 163.075 10.11 175.525 12.1981 187.859C13.2168 194.849 15.2992 201.644 18.3735 208.01C22.1192 209.924 38.6206 224.282 43.6823 225.239C62.2591 239.949 59.8294 230.831 72.2814 231.436C70.5098 239.899 86.0494 233.048 103.259 232.997C104.12 229.773 76.9888 219.798 74.3061 217.531C71.6234 215.264 93.389 220.756 109.739 215.919C96.0642 208.48 83.0581 199.884 70.8641 190.227C90.0988 181.36 83.7716 175.466 75.2678 168.766Z" fill="#1B2118"/>
<path d="M78.6087 31.9901C92.3261 26.1463 94.9076 11.5367 132.77 23.2244C170.632 34.912 167.038 34.912 146.791 50.9322C126.544 66.9523 137.022 58.2874 102.703 56.776C36.5453 53.8541 78.6087 31.9901 78.6087 31.9901Z" fill="#E61300"/>
<path d="M131.099 53.4004C129.39 53.2881 127.696 53.0183 126.037 52.5944C118.418 50.9007 110.657 49.9225 102.854 49.6725C69.5982 48.2115 68.2821 41.9646 68.2821 41.8639C68.029 40.1007 73.3439 35.0629 79.6711 31.7883C82.9177 30.3063 85.9762 28.4461 88.7823 26.2468C94.3091 21.3883 101.454 18.7487 108.827 18.8412C116.74 19.1305 124.568 20.5732 132.061 23.1233C142.791 26.4483 156.003 30.4785 158.685 33.1989C155.752 36.365 152.495 39.2184 148.967 41.7128L145.322 44.5339C136.667 51.3853 133.933 53.4004 131.099 53.4004Z" fill="#F4493A"/>
<g style="mix-blend-mode:color-dodge" opacity="0.3">
<g style="mix-blend-mode:color-dodge">
<path d="M94.5519 47.5064C103.559 37.206 114.11 28.3525 125.834 21.2595C121.941 20.2654 117.983 19.5416 113.989 19.0933C102.359 27.5646 92.4772 38.1863 84.8839 50.3779C83.9222 51.8389 83.0617 53.3502 82.2012 54.8615L87.921 55.7179C90.0469 52.796 92.2741 50.0756 94.5519 47.5064Z" fill="white"/>
</g>
<g style="mix-blend-mode:color-dodge">
<path d="M80.9871 38.3878C85.195 33.0793 89.7253 28.0321 94.5527 23.2744L97.2354 20.957C91.988 23.5654 87.0046 26.6695 82.3538 30.2266C80.8859 31.9898 79.418 33.753 78.0513 35.5666C74.4334 40.2475 71.0546 45.1067 67.9277 50.1258C68.9658 50.8725 70.0868 51.498 71.2685 51.9898C74.4574 47.1535 77.6463 42.6699 80.9871 38.3878Z" fill="white"/>
</g>
<g style="mix-blend-mode:color-dodge">
<path d="M146.791 50.9321C152.106 46.7003 156.206 43.6273 158.787 41.1084C146.267 44.6579 134.699 50.9394 124.924 59.4963C133.579 61.3099 133.478 61.6122 146.791 50.9321Z" fill="white"/>
</g>
<g style="mix-blend-mode:color-dodge">
<path d="M145.271 27.1538C129.809 33.8207 116.131 44.0003 105.334 56.8767L110.041 57.2294C122.029 45.0842 136.541 35.696 152.56 29.7231L145.271 27.1538Z" fill="white"/>
</g>
</g>
<g style="mix-blend-mode:multiply">
<g style="mix-blend-mode:multiply">
<path d="M132.011 76.0708C132.011 75.0633 130.948 74.0053 129.277 73.7031C127.607 73.4008 126.038 74.0053 125.886 75.0129C125.734 76.0205 126.949 77.0784 128.619 77.3807C130.29 77.6829 131.606 77.0784 132.011 76.0708Z" fill="#E3E1BA"/>
</g>
<g style="mix-blend-mode:multiply">
<path d="M141.728 15.1137C141.728 14.1061 140.665 13.0482 138.995 12.7459C137.324 12.4436 135.806 12.7459 135.603 14.0557C135.401 15.3656 136.666 16.1212 138.337 16.4235C140.007 16.7258 141.728 16.1716 141.728 15.1137Z" fill="#E3E1BA"/>
</g>
<g style="mix-blend-mode:multiply">
<path d="M97.2358 74.2071C97.2358 73.1491 96.1222 71.9904 94.3 71.6882C92.4777 71.3859 90.9086 71.9904 90.7061 73.0484C90.5036 74.1063 91.8197 75.265 93.6419 75.5673C95.4642 75.8695 97.0333 75.265 97.2358 74.2071Z" fill="#E3E1BA"/>
</g>
<g style="mix-blend-mode:multiply">
<path d="M93.9448 13.1488C93.9448 12.0909 92.8312 10.9826 91.0089 10.63C89.1867 10.2773 87.6176 10.9322 87.4151 12.0405C87.2126 13.1488 88.5287 14.2068 90.3509 14.5594C92.1732 14.9121 93.7423 14.2572 93.9448 13.1488Z" fill="#E3E1BA"/>
</g>
<g style="mix-blend-mode:multiply">
<path d="M201.457 29.7233C201.457 28.9172 200.647 28.0608 199.331 27.8593C198.015 27.6578 196.8 27.8593 196.699 28.8668C196.598 29.8744 197.509 30.4789 198.825 30.7308C200.141 30.9827 201.356 30.4789 201.457 29.7233Z" fill="#E3E1BA"/>
</g>
<g style="mix-blend-mode:multiply">
<path d="M170.379 24.3329C170.632 22.9727 168.911 21.4614 166.582 21.0583C164.254 20.6553 162.128 21.4614 161.875 22.8719C161.622 24.2825 163.292 25.7435 165.671 26.1465C168.05 26.5495 170.126 25.7435 170.379 24.3329Z" fill="#E3E1BA"/>
</g>
<g style="mix-blend-mode:multiply">
<path d="M56.8429 61.2096C56.8429 59.799 55.4256 58.3381 53.0466 57.9351C50.6676 57.532 48.5922 58.3381 48.3391 59.6983C48.0861 61.0585 49.8071 62.6202 52.1861 63.0232C54.5651 63.4263 56.6405 62.6202 56.8429 61.2096Z" fill="#E3E1BA"/>
</g>
<g style="mix-blend-mode:multiply">
<path d="M65.4482 27.0026C65.7013 25.592 63.9803 24.1311 61.6013 23.728C59.2223 23.325 57.1469 24.1311 56.8938 25.4913C56.6407 26.8515 58.3618 28.4132 60.7408 28.8162C63.1198 29.2192 65.1952 28.4132 65.4482 27.0026Z" fill="#E3E1BA"/>
</g>
<g style="mix-blend-mode:multiply">
<path d="M164.557 63.4764C164.811 61.814 162.836 60.1011 160.053 59.5973C157.269 59.0936 154.991 60.0507 154.535 61.7132C154.08 63.3757 156.256 65.0885 158.99 65.5419C161.723 65.9953 164.254 65.0885 164.557 63.4764Z" fill="#E3E1BA"/>
</g>
<g style="mix-blend-mode:multiply">
<path d="M191.587 45.5918C191.587 44.2316 190.17 42.7707 187.842 42.3173C185.513 41.8639 183.387 42.7203 183.134 44.1309C182.881 45.5415 184.602 46.952 186.93 47.355C189.259 47.7581 191.334 47.0024 191.587 45.5918Z" fill="#E3E1BA"/>
</g>
<g style="mix-blend-mode:multiply">
<path d="M34.2678 31.7384C34.2678 30.9324 33.4579 30.0759 32.0913 29.8744C30.7246 29.6729 29.611 29.8744 29.4591 30.882C29.3073 31.8895 30.269 32.4941 31.5851 32.746C32.9011 32.9978 34.116 32.4941 34.2678 31.7384Z" fill="#E3E1BA"/>
</g>
<g style="mix-blend-mode:multiply">
<path d="M24.3459 47.6075C24.599 46.2473 22.9286 44.7864 20.6002 44.3833C18.2717 43.9803 16.1964 44.736 15.9433 46.1466C15.6902 47.5571 17.3606 48.9677 19.689 49.3707C22.0174 49.7738 24.1434 49.0181 24.3459 47.6075Z" fill="#E3E1BA"/>
</g>
</g>
<g style="mix-blend-mode:color-dodge" opacity="0.3">
<path d="M20.8535 197.581C13.9188 198.236 12.6028 149.521 10.4768 127.808C8.35087 106.095 5.06071 78.8409 11.9447 78.186C18.8288 77.5311 9.76817 105.743 14.6781 128.564C22.4732 165.289 27.7881 196.876 20.8535 197.581Z" fill="#A5A5A5"/>
</g>
</svg>
