<svg width="614" height="647" viewBox="0 0 614 647" fill="none" xmlns="http://www.w3.org/2000/svg">
<path d="M487.912 486.349C491.231 482.689 272.334 279.593 -0.937352 32.9206L-12.7977 46.0939C260.48 292.873 484.541 490.013 487.912 486.349Z" fill="#B4703D"/>
<path d="M-0.937299 32.9206L-12.7977 46.0939C39.7698 93.6205 90.5774 139.267 138.339 181.984L149.647 169.43C102.237 126.319 51.6834 80.4442 -0.937299 32.9206Z" fill="#030800"/>
<path d="M482.211 477.954C482.814 477.279 265.732 278.946 -2.74885 34.8929L-5.17485 37.3274C263.519 281.369 481.609 478.629 482.211 477.954Z" fill="#FCFBE6"/>
<path d="M489.227 414.425C523.423 429.352 546.475 452.12 540.752 465.271L505.985 545.108C497.704 564.069 463.354 567.38 429.157 552.453C394.96 537.526 374.047 510.04 382.265 490.923L417.041 411.245C422.764 398.094 455.083 399.494 489.227 414.425Z" fill="#030800"/>
<g clip-path="url(#clip0_1203_15625)">
<g style="mix-blend-mode:multiply">
<path d="M327.11 599.375C327.355 598.733 327.726 598.148 328.201 597.652C325.752 596.46 325.006 593.524 326.708 589.79C327.482 588.017 328.568 586.399 329.915 585.012C328.381 584.368 327.072 583.282 326.154 581.892C325.685 581.033 325.392 580.089 325.291 579.115C325.191 578.142 325.286 577.158 325.571 576.221C325.856 575.285 326.324 574.415 326.949 573.662C327.574 572.91 328.343 572.29 329.21 571.839C325.304 570.688 323.779 568.137 325.468 565.826C327.4 564.062 329.663 562.699 332.125 561.816C334.587 560.933 337.199 560.547 339.811 560.681L340.226 560.129C339.892 559.861 339.52 559.647 339.231 559.371C338.368 558.643 337.709 557.703 337.319 556.643C336.928 555.583 336.82 554.439 337.004 553.325C337.188 552.21 337.659 551.162 338.369 550.285C339.08 549.408 340.007 548.731 341.058 548.32C342.004 547.809 343.008 547.411 344.048 547.136C346.421 542.974 350.15 539.756 354.611 538.022C357.217 536.713 359.954 535.684 362.776 534.953C362.766 534.416 362.824 533.88 362.946 533.358C363.609 530.776 364.969 528.428 366.876 526.57C368.783 524.711 371.165 523.415 373.76 522.823L375.037 522.579C378.918 518.928 383.868 516.625 389.157 516.009C390.939 515.696 392.746 515.543 394.555 515.55C394.498 515.372 394.464 515.188 394.451 515.002C394.033 512.509 394.538 509.948 395.872 507.802C397.206 505.656 399.277 504.072 401.695 503.347C402.909 502.901 404.189 502.657 405.482 502.626C409.792 498.766 415.23 496.402 420.989 495.886C423.476 495.467 426.01 495.4 428.516 495.685C429.447 493.175 430.996 490.941 433.02 489.19C435.043 487.439 437.475 486.228 440.09 485.669C441.418 485.295 442.838 485.45 444.055 486.101C445.271 486.752 446.189 487.849 446.616 489.163C446.573 488.934 446.749 488.616 446.88 488.307C447.959 485.769 449.646 483.537 451.792 481.807C453.937 480.077 456.475 478.903 459.182 478.389C460.368 478.243 461.571 478.441 462.647 478.961C466.64 476.356 471.222 474.8 475.973 474.436C478.42 474.136 480.9 474.24 483.314 474.744C484.442 472.45 486.081 470.446 488.105 468.886C490.129 467.327 492.484 466.254 494.987 465.75C495.87 465.519 496.798 465.519 497.681 465.753C498.564 465.986 499.371 466.444 500.025 467.082C500.68 467.72 501.158 468.516 501.414 469.394C501.67 470.272 501.695 471.201 501.487 472.091C503.07 469.613 505.171 467.509 507.647 465.926C510.122 464.343 512.912 463.318 515.823 462.922C516.638 462.765 517.48 462.83 518.262 463.11C519.043 463.389 519.736 463.874 520.267 464.512C520.799 465.151 521.15 465.92 521.284 466.741C521.418 467.561 521.33 468.402 521.03 469.177C522.848 466.81 525.141 464.85 527.76 463.421C530.38 461.993 533.268 461.129 536.241 460.884C540.565 461.245 541.163 465.393 538.02 470.254L539.658 469.421C547.1 465.779 554.579 464.829 556.369 467.283C557.117 468.23 556.803 469.568 555.714 471.054C557.661 469.981 559.84 469.404 562.062 469.372C566.825 469.555 567.641 473.852 563.902 479.062C565.223 479.191 566.504 479.589 567.667 480.231C568.829 480.873 569.849 481.745 570.663 482.796C571.538 483.99 571.993 485.44 571.958 486.921C571.923 488.401 571.398 489.828 570.467 490.978C574.04 490.867 576.501 491.63 576.868 493.312C577.235 494.995 573.818 498.913 568.491 501.489C571.008 501.294 572.926 501.687 573.745 502.763C575.626 505.199 571.005 510.246 563.435 513.959L561.999 514.612C563.352 515.017 564.23 515.655 564.467 516.652C565.04 519.669 558.882 524.345 550.694 527.04L550.465 527.083C552.347 527.53 553.496 528.353 553.548 529.622C553.665 532.726 547.283 536.971 539.328 539.148C538.05 539.391 536.818 539.625 535.677 539.842C538.577 541.422 539.42 543.866 537.394 546.146C533.417 549.413 528.33 551.009 523.203 550.599C520.351 554.865 516.043 557.941 511.086 559.25C508.509 560.224 505.832 560.909 503.104 561.29C503.099 561.644 503.071 561.997 503.021 562.348C502.4 565.07 501.03 567.562 499.066 569.543C497.102 571.524 494.623 572.914 491.91 573.555C489.977 574.01 487.944 573.682 486.251 572.643L485.619 574.042C484.184 576.551 482.185 578.691 479.78 580.291C477.375 581.891 474.631 582.908 471.765 583.261C470.798 583.305 469.838 583.077 468.993 582.604C468.799 583.458 468.426 584.259 467.897 584.956C467.369 585.653 466.698 586.229 465.93 586.645C464.129 587.689 462.121 588.325 460.047 588.507C457.974 588.688 455.886 588.412 453.93 587.697C453.854 588.227 453.659 588.733 453.361 589.178C451.115 592.542 443.557 595.07 436.416 594.818C434.9 594.783 433.391 594.594 431.912 594.255C431.658 596.693 430.682 598.999 429.109 600.876C427.536 602.754 425.438 604.117 423.084 604.79C421.615 605.311 420.03 605.413 418.507 605.084C416.983 604.755 415.581 604.009 414.456 602.928C413.868 604.259 412.896 605.384 411.665 606.158C409.327 607.499 406.673 608.186 403.98 608.149C401.286 608.112 398.652 607.351 396.352 605.947V605.947C395.753 607.114 394.842 608.091 393.72 608.768C391.29 610.161 388.532 610.878 385.732 610.845C382.933 610.811 380.193 610.029 377.796 608.578V608.578C377.23 609.459 376.488 610.213 375.616 610.792C373.251 612.183 370.563 612.928 367.821 612.951C365.079 612.974 362.378 612.275 359.99 610.924C359.198 610.491 358.5 609.904 357.936 609.199C357.372 608.493 356.953 607.683 356.704 606.814C351.361 610.056 345.553 611.588 343.169 610.242C340.786 608.896 341.845 605.758 345.451 602.088C343.63 602.603 341.767 602.958 339.884 603.148C331.771 604.502 326.14 602.732 327.11 599.375Z" fill="#B8B5AA"/>
</g>
<path d="M309.512 536.327C309.733 535.4 310.148 534.53 310.73 533.775C309.414 531.658 308.601 529.267 308.351 526.786C308.101 524.305 308.422 521.8 309.289 519.463C310.021 517.019 311.188 514.727 312.733 512.698C310.983 510.521 309.686 508.013 308.921 505.325C306.711 498.168 308.326 491.231 312.457 488.835C310.583 487.465 309.209 485.518 308.547 483.291C307.885 481.064 307.972 478.681 308.793 476.509C311.199 472.499 317.701 471.877 324.032 474.84L324.478 473.95C324.128 473.353 323.787 472.803 323.475 472.152C319.731 464.387 320.774 456.185 325.753 453.77C326.74 453.321 327.819 453.115 328.902 453.17C329.84 450.635 331.355 448.353 333.327 446.506C335.299 444.659 337.674 443.298 340.263 442.531C342.991 441.437 345.904 440.883 348.842 440.899C348.857 439.994 348.938 439.092 349.087 438.2C350.284 430.063 355.497 424.146 360.746 424.899C361.21 425.02 361.665 425.17 362.109 425.351C363.889 423.231 366.23 421.658 368.864 420.814C371.498 419.969 374.316 419.887 376.995 420.576C378.94 420.887 380.833 421.467 382.618 422.3L382.445 421.386C381.332 412.789 384.948 405.187 390.548 404.547C391.918 404.356 393.314 404.586 394.551 405.206C396.56 402.996 399.153 401.399 402.03 400.6C404.907 399.801 407.95 399.833 410.81 400.691C413.655 401.237 416.367 402.329 418.797 403.907C420.692 396.206 426.109 390.866 431.208 392.074C433.132 392.793 434.788 394.086 435.955 395.778C437.122 397.47 437.742 399.479 437.733 401.535C437.655 401.124 437.896 400.652 438.046 400.197C440.252 392.389 446.186 387.282 451.183 388.699C452.626 389.17 453.879 390.094 454.757 391.334C456.838 389.989 459.197 389.136 461.656 388.84C464.115 388.545 466.609 388.814 468.949 389.628C471.777 390.465 474.39 391.907 476.608 393.854C479.041 386.997 484.303 382.586 488.875 383.752C493.447 384.919 496.15 390.94 495.446 397.941C499.169 390.65 505.758 386.507 510.675 388.744C512.696 390.084 514.232 392.04 515.057 394.322C515.882 396.605 515.952 399.092 515.257 401.417C519.793 394.681 526.839 391.446 531.378 394.181C535.916 396.917 536.292 404.375 532.709 411.403C533.255 411.107 533.824 410.856 534.411 410.653C542.254 407.882 550.089 409.801 551.863 414.909C552.255 415.942 552.418 417.048 552.342 418.15C552.265 419.252 551.951 420.324 551.42 421.292C552.469 420.813 553.611 420.569 554.765 420.578C555.918 420.588 557.056 420.85 558.098 421.348C562.793 423.911 563.438 431.792 559.67 439.092C562.927 441.554 565.342 444.966 566.584 448.858C567.487 451.146 567.913 453.594 567.835 456.052C567.757 458.511 567.176 460.927 566.13 463.152C567.772 463.623 569.252 464.538 570.409 465.797C571.565 467.055 572.353 468.609 572.686 470.287C573.111 474.516 569.511 478.468 563.661 480.529C564.896 480.811 566.047 481.38 567.022 482.19C567.997 483 568.769 484.028 569.274 485.191C571.157 490.373 566.166 496.959 558.157 499.856L556.606 500.151C557.97 501.363 558.843 503.034 559.058 504.847C559.597 510.427 552.99 515.473 544.38 516.449C545.283 517.156 546.024 518.049 546.552 519.068C547.08 520.087 547.383 521.208 547.44 522.354C547.471 527.747 540.688 532.116 532.324 532.145C531.047 532.155 529.772 532.032 528.52 531.78C529.945 533.412 530.826 535.449 531.041 537.607C531.256 539.765 530.793 541.936 529.718 543.818C527.022 547.551 521.007 547.748 514.822 544.805C513.712 547.365 511.915 549.566 509.63 551.163C507.346 552.76 504.663 553.691 501.881 553.851C499.102 554.32 496.257 554.233 493.511 553.597C493.624 554.191 493.463 554.837 493.384 555.42C492.319 564.005 486.774 570.412 481.433 569.676C480.197 569.46 479.028 568.96 478.017 568.216C477.007 567.471 476.181 566.503 475.606 565.386C475.363 566.095 475.165 566.796 474.876 567.514C471.764 574.784 465.385 578.792 460.746 577.023C459.566 576.517 458.565 575.668 457.872 574.586C457.765 575.709 457.411 576.795 456.835 577.764C456.258 578.734 455.474 579.563 454.539 580.193C451.012 582.285 445.991 580.493 442.022 576.276C441.936 577.075 441.717 577.853 441.372 578.578C438.921 583.354 430.942 584.162 423.561 580.405C421.881 579.538 420.312 578.468 418.89 577.221C418.571 585.001 414.503 591.221 409.336 591.399C407.292 591.203 405.352 590.406 403.759 589.108C402.166 587.81 400.992 586.069 400.385 584.105C399.953 585.844 398.894 587.361 397.411 588.364C392.921 591.113 385.801 587.732 381.503 580.783C380.983 582.288 379.981 583.577 378.653 584.451C373.998 587.326 366.561 583.769 362.11 576.518C361.586 577.671 360.762 578.662 359.724 579.387C355.268 582.319 348.029 579.055 343.511 572.196C341.802 569.585 340.719 566.614 340.35 563.515C334.653 566.635 328.541 566.567 326.06 562.966C323.58 559.366 324.446 554.465 328.315 549.94L328.263 549.666C326.315 549.783 324.361 549.629 322.455 549.208C314.181 547.468 308.359 541.709 309.512 536.327Z" fill="#ECE2AC"/>
<path d="M356.057 485.368C355.67 484.826 355.292 484.33 354.943 483.733C350.716 476.913 350.899 469.159 355.343 466.419C356.572 465.77 357.946 465.447 359.335 465.481C360.724 465.515 362.081 465.905 363.277 466.614C359.937 460.477 360.145 453.855 364.014 451.319C364.976 450.752 366.055 450.412 367.168 450.323C368.282 450.234 369.401 450.399 370.441 450.806C371.35 446.777 373.73 443.233 377.113 440.87C378.909 439.522 380.917 438.483 383.055 437.798C382.497 436.545 382.347 435.148 382.628 433.806C383.722 428.862 390.883 425.984 398.712 427.62C400.337 427.973 401.916 428.515 403.416 429.235C403.529 427.772 403.793 426.325 404.204 424.917C406.451 417.575 412.117 412.803 416.886 414.264C416.843 414.035 416.808 413.852 416.765 413.624C417.214 411.814 418.337 410.245 419.904 409.238C420.254 408.208 420.832 407.27 421.593 406.494C422.354 405.718 423.28 405.124 424.301 404.754C425.684 404.457 427.12 404.519 428.473 404.933C429.825 405.346 431.05 406.099 432.032 407.119L433.625 407.29C436.299 407.893 438.828 409.021 441.064 410.61C442.846 403.309 448.178 398.269 452.823 399.327C454.68 399.968 456.294 401.168 457.444 402.764C458.593 404.36 459.222 406.272 459.244 408.239C459.166 407.828 459.407 407.356 459.52 406.956C461.578 399.366 467.216 394.693 471.933 395.88C472.767 396.14 473.541 396.565 474.208 397.129C474.875 397.694 475.423 398.386 475.82 399.165C477.76 398.105 479.898 397.458 482.1 397.268C484.302 397.077 486.519 397.346 488.613 398.057C491.921 398.931 494.925 400.703 497.292 403.178C498.102 401.146 499.544 399.43 501.404 398.282C503.264 397.135 505.444 396.618 507.62 396.808C512.129 397.892 514.632 403.856 513.711 410.709C517.077 403.533 523.612 399.353 528.338 401.579C533.064 403.806 534.27 411.154 531.258 418.451C532.638 417.063 534.404 416.124 536.326 415.759C538.248 415.393 540.235 415.617 542.028 416.402C546.566 419.138 546.784 427.005 542.536 434.017C542.322 434.389 542.046 434.679 541.833 435.051C548.987 432.884 555.94 434.639 557.482 439.271C558.75 442.961 556.321 447.354 551.792 450.394C555.6 453.269 556.007 460.39 552.4 467.043C551.123 469.451 549.37 471.573 547.248 473.28C547.859 474.367 548.376 475.505 548.792 476.68C551.363 484.242 549.479 491.752 544.598 493.438C544.289 493.544 543.966 493.606 543.64 493.621C544.012 498.57 538.439 503.087 530.977 504.129C532.17 508.921 527.597 514.717 520.347 517.375C518.857 517.812 517.329 518.103 515.783 518.244C514.73 522.659 509.156 526.419 502.098 527.099C501.192 527.18 500.282 527.21 499.373 527.192C499.008 531.997 492.821 536.016 485.167 536.051C483.656 536.017 482.151 535.844 480.672 535.534C481.061 536.625 481.193 537.791 481.059 538.942C480.925 540.093 480.528 541.197 479.898 542.169C476.916 546.383 469.23 545.999 462.76 541.31L462.146 540.811C459.411 543.89 455.653 545.867 451.57 546.376C448.011 547.135 444.305 546.8 440.938 545.415C439.217 552.041 434.755 556.679 430.15 556.087C425.546 555.495 422.356 549.899 422.366 542.982L421.973 544.146C419.02 551.007 413.023 555.037 408.595 553.133C407.406 552.52 406.397 551.606 405.669 550.481C404.941 549.357 404.52 548.062 404.447 546.724C404.003 547.303 403.454 547.792 402.83 548.168C398.579 550.682 392.15 547.454 388.312 540.938C387.82 540.104 387.387 539.237 387.015 538.343C383.262 538.815 379.456 538.099 376.129 536.295C372.812 534.673 370.051 532.099 368.2 528.9C363.146 528.678 358.878 522.387 358.598 514.436C358.471 511.785 358.867 509.135 359.765 506.637C358.2 505.317 356.863 503.747 355.809 501.991C351.634 495.445 351.778 487.982 356.057 485.368Z" fill="#FCFBE6"/>
<path d="M445.157 501.895C438.766 488.904 451.392 469.737 473.268 458.943C495.145 448.15 518.069 449.85 524.534 462.732C531 475.615 518.337 494.837 496.415 505.638C474.493 516.44 451.531 514.795 445.157 501.895Z" fill="white"/>
<path d="M578.688 422.214C560.362 405.385 494.657 355.186 437.261 372.407C379.866 389.627 291.297 443.137 297.186 540.142C301.414 609.475 317.274 572.975 354.734 544.393C392.193 515.812 479.501 451.176 542.259 443.022C605.017 434.869 578.688 422.214 578.688 422.214Z" fill="#E61300"/>
<path d="M309.616 572.49C313.906 571.674 320.974 565.072 329.128 557.459C336.336 550.51 343.894 543.935 351.771 537.758C428.362 479.188 489.67 445.216 533.799 436.818C536.263 436.349 538.727 435.88 541.189 435.648C546.955 434.883 552.237 434.067 556.801 433.199C578.478 429.074 579.848 424.835 579.839 424.789C579.024 423.503 577.844 422.491 576.45 421.882L575.979 421.64L575.572 421.244C572.681 418.716 506.274 358.847 445.534 370.406C442.882 370.91 440.257 371.551 437.672 372.328C422.816 376.766 293.09 419.211 300.192 536.303C301.47 557.228 303.944 569.26 307.552 572.078C307.838 572.308 308.174 572.466 308.534 572.538C308.893 572.609 309.265 572.593 309.616 572.49Z" fill="#F4493A"/>
<path d="M437.262 372.407C494.657 355.186 560.362 405.385 578.689 422.214C579.262 422.494 579.813 422.817 580.338 423.179C572.455 424.354 564.501 424.981 556.532 425.057C495.912 425.795 410.59 464.527 372.24 490.91C333.89 517.293 300.261 524.213 303.328 489.816C323.947 424.09 390.921 386.34 437.262 372.407Z" fill="#FF685A"/>
<g style="mix-blend-mode:color-dodge" opacity="0.3">
<g style="mix-blend-mode:color-dodge">
<path d="M457.439 380.312C451.564 377.262 445.322 374.52 439.106 371.914C441.114 371.532 443.076 371.158 445.084 370.776C482.245 387.294 515.185 412.033 541.428 443.133L538.097 443.767C515.605 417.544 488.203 395.986 457.439 380.312V380.312Z" fill="white"/>
</g>
<g style="mix-blend-mode:color-dodge">
<path d="M481.465 463.021C471.977 453.89 461.8 445.503 451.027 437.936C442.915 432.124 434.428 426.857 425.621 422.169C408.84 413.935 391.283 407.392 373.21 402.639C376.024 400.777 378.81 399.016 381.66 397.337C388.964 399.398 396.118 401.96 403.07 405.007C412.348 408.431 421.381 412.487 430.105 417.149C438.775 421.787 447.094 427.058 454.992 432.919C465.672 440.629 475.651 449.268 484.813 458.737L486.536 460.588L481.548 462.958L481.465 463.021Z" fill="white"/>
</g>
<g style="mix-blend-mode:color-dodge">
<path d="M505.515 452.714C489.441 436.492 471.569 422.16 452.248 409.999C441.873 403.402 431.044 397.55 419.843 392.486C413.999 390.094 408.015 387.965 401.975 386.036C405.643 384.438 409.485 382.76 413.18 381.299C416.03 382.367 418.918 383.38 421.669 384.42C433.116 389.351 444.164 395.165 454.713 401.811C475.954 415.159 495.115 431.572 511.576 450.519L505.515 452.714Z" fill="white"/>
</g>
<g style="mix-blend-mode:color-dodge">
<path d="M491.592 372.913C503.322 376.128 514.695 380.533 525.532 386.061C544.28 400.499 561.258 417.107 576.111 435.539C574.08 436.361 572.005 437.072 569.896 437.669L567.932 435.296C545.202 411.374 519.553 390.415 491.592 372.913V372.913Z" fill="white"/>
</g>
<g style="mix-blend-mode:color-dodge">
<path d="M297.617 517.518C311.73 517.659 325.717 520.185 338.991 524.989C347.78 528.342 356.303 532.356 364.487 536.997L362.084 538.78C342.877 529.269 320.638 526.445 297.045 526.956C297.103 523.773 297.314 520.654 297.617 517.518Z" fill="white"/>
</g>
<g style="mix-blend-mode:color-dodge">
<path d="M298.888 507.52C299.804 502.179 301.044 496.898 302.599 491.707C334.494 492.836 364.466 500.771 389.102 518.957L386.066 521.145C361.033 507.345 330.79 504.954 298.888 507.52Z" fill="white"/>
</g>
<g style="mix-blend-mode:color-dodge">
<path d="M297.93 550.041C297.678 548.716 297.7 547.338 297.56 545.849C312.321 547.128 326.811 550.595 340.556 556.137L338.102 558.404C325.221 553.558 311.671 550.738 297.93 550.041Z" fill="white"/>
</g>
<g style="mix-blend-mode:color-dodge">
<path d="M431.583 453.57C405.767 437.593 376.88 427.244 346.805 423.197C350.352 419.965 354.014 417.09 357.67 413.931C391.001 418.264 422.32 432.334 447.72 454.383C453.857 459.568 459.543 465.267 464.714 471.418L459.394 474.278C450.696 466.636 441.396 459.711 431.583 453.57V453.57Z" fill="white"/>
</g>
<g style="mix-blend-mode:color-dodge">
<path d="M309.145 473.886C310.587 470.77 312.1 467.783 313.713 464.824C351.813 464.014 387.897 473.013 417.565 499.523L411.139 503.777C380.528 482.513 345.667 474.229 309.145 473.886Z" fill="white"/>
</g>
<g style="mix-blend-mode:color-dodge">
<path d="M325.131 447.26C326.755 445.104 328.424 442.939 330.157 440.857C370.349 444.101 408.509 458.056 438.506 486.54L434.95 488.732C404.062 463.022 365.482 450.094 325.131 447.26Z" fill="white"/>
</g>
</g>
<path d="M374.75 410.254C372.612 404.221 391.083 392.181 416.047 383.453C441.011 374.724 462.88 372.362 465.019 378.396C467.157 384.43 444.817 385.555 419.87 394.375C394.924 403.195 376.889 416.288 374.75 410.254Z" fill="white"/>
<path d="M309.52 515.206C303.919 512.104 307.349 495.302 317.108 477.722C326.868 460.142 339.342 448.391 344.943 451.493C350.544 454.595 329.37 463.36 327.333 483.259C323.527 517.75 315.084 518.362 309.52 515.206Z" fill="white"/>
</g>
<g style="mix-blend-mode:color-dodge" opacity="0.3">
<path d="M493.305 545.55C496.94 547.538 509.285 521.08 515.692 509.655C522.098 498.23 530.272 484.033 526.741 481.985C523.21 479.938 521.321 497.685 513.152 509.102C500.138 527.418 489.668 543.508 493.305 545.55Z" fill="white"/>
</g>
<path d="M467.191 504.295C470.119 500.336 232.212 320.008 -64.0901 101.515L-74.6049 115.843C221.751 334.333 464.21 508.258 467.191 504.295Z" fill="#B4703D"/>
<path d="M-64.0903 101.515L-74.6051 115.843C-17.5377 157.932 37.5127 198.317 89.2302 236.375L99.1452 222.776C47.8295 184.267 -7.07616 143.608 -64.0903 101.515Z" fill="#030800"/>
<path d="M460.725 496.531C461.269 495.752 225.587 319.898 -65.6796 103.636L-67.6118 106.31C223.655 322.572 460.179 497.257 460.725 496.531Z" fill="#FCFBE6"/>
<defs>
<clipPath id="clip0_1203_15625">
<rect width="304.739" height="226.15" fill="white" transform="matrix(-0.982371 0.18694 0.186545 0.982446 568.749 346.958)"/>
</clipPath>
</defs>
</svg>
