<svg width="641" height="589" viewBox="0 0 641 589" fill="none" xmlns="http://www.w3.org/2000/svg">
<g style="mix-blend-mode:color-dodge" opacity="0.3">
<path d="M527.451 539.976C530.968 542.165 544.772 516.437 551.807 505.388C558.842 494.338 567.795 480.62 564.384 478.378C560.973 476.137 558.095 493.751 549.302 504.694C535.285 522.255 523.933 537.734 527.451 539.976Z" fill="white"/>
</g>
<path d="M520.118 510.672C523.263 506.882 295.799 313.549 12.1619 78.8477L0.863262 92.5657C284.553 327.267 516.92 514.461 520.118 510.672Z" fill="#B4703D"/>
<path d="M12.1619 78.8477L0.863355 92.5657C55.4909 137.776 108.2 181.172 157.711 222.06L168.37 209.035C119.285 167.721 66.7362 124.058 12.1619 78.8477Z" fill="#030800"/>
<path d="M514.096 502.558C514.682 501.811 289.19 313.068 10.4561 80.876L8.37759 83.4381C287.111 315.63 513.509 503.252 514.096 502.558Z" fill="#FCFBE6"/>
<path d="M343.724 514.525C343.997 513.612 344.46 512.766 345.082 512.045C343.888 509.857 343.209 507.425 343.098 504.934C342.987 502.443 343.447 499.96 344.443 497.675C345.311 495.275 346.604 493.053 348.26 491.113C346.634 488.841 345.48 486.265 344.866 483.539C343.059 476.27 345.058 469.433 349.317 467.271C347.522 465.8 346.26 463.778 345.723 461.518C345.187 459.258 345.406 456.883 346.347 454.76C348.974 450.891 355.5 450.633 361.656 453.945L362.151 453.081C361.835 452.466 361.525 451.897 361.249 451.23C357.945 443.268 359.445 435.137 364.551 433.004C365.561 432.61 366.65 432.466 367.728 432.581C368.806 430.102 370.446 427.908 372.519 426.174C374.591 424.441 377.038 423.214 379.666 422.593C382.45 421.653 385.39 421.263 388.323 421.442C388.388 420.54 388.52 419.644 388.718 418.762C390.368 410.704 395.902 405.088 401.102 406.133C401.558 406.279 402.004 406.455 402.437 406.659C404.333 404.643 406.758 403.203 409.435 402.507C412.112 401.811 414.931 401.886 417.567 402.724C419.491 403.143 421.349 403.828 423.085 404.759L422.963 403.837C422.332 395.191 426.367 387.803 431.994 387.477C433.372 387.362 434.753 387.67 435.953 388.359C438.083 386.264 440.761 384.814 443.678 384.177C446.595 383.54 449.632 383.742 452.44 384.759C455.249 385.463 457.896 386.705 460.235 388.416C462.557 380.833 468.263 375.803 473.287 377.294C475.167 378.12 476.749 379.503 477.82 381.257C478.89 383.012 479.398 385.053 479.274 387.105C479.219 386.69 479.486 386.232 479.661 385.786C482.299 378.114 488.509 373.346 493.42 375.04C494.834 375.591 496.034 376.583 496.841 377.871C498.993 376.644 501.397 375.924 503.868 375.766C506.34 375.608 508.815 376.016 511.106 376.96C513.883 377.954 516.411 379.539 518.517 381.607C521.329 374.897 526.829 370.786 531.329 372.206C535.828 373.626 538.191 379.789 537.097 386.739C541.221 379.668 548.032 375.899 552.816 378.408C554.759 379.859 556.183 381.897 556.88 384.222C557.576 386.547 557.507 389.034 556.682 391.316C561.589 384.845 568.804 382.008 573.183 384.993C577.561 387.978 577.52 395.445 573.55 402.262C574.112 401.997 574.694 401.779 575.291 401.608C583.277 399.28 590.993 401.633 592.478 406.833C592.812 407.886 592.913 408.999 592.775 410.095C592.637 411.191 592.264 412.244 591.679 413.181C592.754 412.76 593.908 412.581 595.059 412.655C596.21 412.729 597.331 413.054 598.344 413.609C602.888 416.431 603.092 424.335 598.922 431.413C602.037 434.053 604.258 437.595 605.28 441.551C606.054 443.885 606.342 446.353 606.127 448.803C605.912 451.254 605.198 453.634 604.028 455.797C605.641 456.359 607.069 457.355 608.153 458.676C609.238 459.998 609.937 461.593 610.176 463.287C610.364 467.532 606.549 471.278 600.593 473.008C601.81 473.359 602.928 473.992 603.856 474.855C604.784 475.718 605.497 476.787 605.937 477.977C607.527 483.257 602.176 489.553 594.018 491.998L592.453 492.207C593.748 493.492 594.526 495.209 594.639 497.032C594.866 502.633 587.987 507.302 579.336 507.795C580.198 508.552 580.888 509.485 581.358 510.532C581.828 511.579 582.068 512.715 582.061 513.863C581.791 519.249 574.775 523.233 566.422 522.794C565.146 522.732 563.88 522.539 562.644 522.217C563.976 523.927 564.742 526.01 564.836 528.176C564.93 530.342 564.347 532.484 563.168 534.303C560.268 537.88 554.251 537.741 548.24 534.457C546.989 536.951 545.072 539.048 542.702 540.515C540.331 541.982 537.601 542.761 534.814 542.766C532.013 543.079 529.178 542.833 526.471 542.044C526.551 542.644 526.354 543.28 526.243 543.858C524.7 552.37 518.806 558.457 513.514 557.424C512.293 557.139 511.153 556.575 510.186 555.775C509.218 554.976 508.448 553.963 507.936 552.815C507.654 553.51 507.417 554.199 507.088 554.899C503.575 561.984 496.982 565.629 492.45 563.604C491.3 563.033 490.347 562.129 489.716 561.01C489.546 562.126 489.132 563.19 488.502 564.126C487.873 565.062 487.044 565.846 486.075 566.422C482.437 568.314 477.523 566.245 473.796 561.813C473.666 562.605 473.403 563.37 473.018 564.075C470.305 568.707 462.293 569.068 455.134 564.904C453.504 563.944 451.998 562.789 450.648 561.464C449.894 569.214 445.486 575.197 440.316 575.087C438.287 574.777 436.394 573.873 434.876 572.488C433.358 571.103 432.284 569.299 431.787 567.303C431.259 569.016 430.116 570.472 428.58 571.391C423.943 573.884 417.023 570.111 413.12 562.933C412.517 564.406 411.445 565.638 410.07 566.436C405.261 569.046 398.034 565.079 393.996 557.591C393.408 558.713 392.529 559.657 391.453 560.322C386.84 563.001 379.794 559.338 375.667 552.237C374.106 549.535 373.191 546.508 372.995 543.393C367.134 546.19 361.034 545.781 358.759 542.047C356.483 538.313 357.622 533.469 361.738 529.167L361.701 528.89C359.75 528.898 357.807 528.635 355.928 528.109C347.763 525.909 342.272 519.834 343.724 514.525Z" fill="#ECE2AC"/>
<path d="M393.044 466.246C392.688 465.683 392.338 465.166 392.022 464.551C388.183 457.505 388.799 449.773 393.389 447.286C394.652 446.706 396.043 446.461 397.427 446.572C398.812 446.684 400.145 447.149 401.3 447.924C398.307 441.61 398.885 435.01 402.889 432.694C403.882 432.182 404.978 431.902 406.095 431.876C407.212 431.849 408.32 432.077 409.336 432.541C410.468 428.568 413.042 425.163 416.552 422.993C418.421 421.747 420.484 420.822 422.656 420.257C422.169 418.976 422.098 417.573 422.453 416.248C423.822 411.373 431.132 408.899 438.857 410.97C440.46 411.413 442.006 412.043 443.464 412.845C443.658 411.391 444.002 409.961 444.492 408.578C447.145 401.373 453.069 396.925 457.749 398.649C457.719 398.419 457.694 398.234 457.664 398.003C458.213 396.222 459.422 394.718 461.043 393.8C461.45 392.791 462.079 391.887 462.882 391.155C463.686 390.423 464.643 389.881 465.684 389.569C467.081 389.35 468.511 389.491 469.839 389.98C471.166 390.469 472.347 391.289 473.27 392.362L474.851 392.621C477.488 393.372 479.949 394.64 482.093 396.352C484.28 389.162 489.885 384.427 494.464 385.743C496.283 386.487 497.827 387.776 498.886 389.433C499.944 391.09 500.465 393.035 500.377 395C500.322 394.585 500.589 394.127 500.725 393.734C503.203 386.271 509.094 381.921 513.737 383.368C514.555 383.675 515.304 384.143 515.938 384.743C516.573 385.344 517.082 386.066 517.434 386.866C519.43 385.915 521.601 385.39 523.81 385.322C526.019 385.255 528.219 385.647 530.269 386.474C533.523 387.531 536.423 389.468 538.649 392.071C539.571 390.088 541.107 388.455 543.028 387.413C544.949 386.372 547.154 385.977 549.316 386.288C553.757 387.622 555.924 393.717 554.622 400.508C558.383 393.531 565.142 389.723 569.735 392.21C574.329 394.696 575.123 402.1 571.708 409.218C573.164 407.909 574.98 407.071 576.919 406.813C578.858 406.555 580.83 406.89 582.576 407.774C586.955 410.758 586.732 418.626 582.099 425.39C581.866 425.749 581.574 426.023 581.34 426.382C588.604 424.619 595.448 426.76 596.729 431.47C597.789 435.225 595.119 439.475 590.426 442.258C594.068 445.341 594.076 452.473 590.104 458.915C588.694 461.248 586.825 463.268 584.612 464.855C585.161 465.974 585.613 467.139 585.963 468.336C588.107 476.029 585.807 483.422 580.839 484.833C580.525 484.922 580.199 484.965 579.872 484.962C579.968 489.924 574.151 494.123 566.642 494.746C567.567 499.598 562.676 505.129 555.289 507.378C553.778 507.731 552.236 507.936 550.685 507.991C549.387 512.34 543.611 515.783 536.526 516.068C535.616 516.098 534.707 516.078 533.8 516.008C533.168 520.785 526.765 524.452 519.122 524.061C517.615 523.942 516.122 523.685 514.662 523.292C514.989 524.404 515.057 525.576 514.859 526.717C514.66 527.858 514.202 528.939 513.519 529.874C510.306 533.915 502.654 533.102 496.456 528.059L495.87 527.527C492.968 530.448 489.105 532.213 485 532.492C481.404 533.052 477.723 532.511 474.438 530.94C472.35 537.459 467.636 541.841 463.072 540.992C458.508 540.144 455.635 534.378 456.032 527.473L455.574 528.613C452.242 535.298 446.03 538.987 441.715 536.839C440.562 536.16 439.605 535.191 438.941 534.028C438.278 532.865 437.929 531.548 437.931 530.208C437.456 530.761 436.881 531.22 436.236 531.56C431.851 533.832 425.612 530.25 422.144 523.53C421.7 522.67 421.316 521.78 420.995 520.867C417.221 521.129 413.461 520.201 410.24 518.214C407.018 516.409 404.406 513.685 402.736 510.388C397.702 509.884 393.792 503.364 393.957 495.41C393.978 492.756 394.522 490.132 395.557 487.688C394.069 486.283 392.822 484.641 391.867 482.828C388.065 476.059 388.625 468.616 393.044 466.246Z" fill="#FCFBE6"/>
<path d="M481.081 487.723C475.425 474.395 489.102 455.963 511.547 446.408C533.992 436.854 556.786 439.831 562.522 453.054C568.257 466.278 554.54 484.762 532.049 494.323C509.558 503.883 486.724 500.959 481.081 487.723Z" fill="white"/>
<path d="M618.855 415.624C601.497 397.798 538.698 344.007 480.43 357.996C422.162 371.984 330.743 420.463 331.205 517.646C331.554 587.107 349.428 551.549 388.425 525.105C427.423 498.66 518.204 439.002 581.32 434.365C644.435 429.729 618.855 415.624 618.855 415.624Z" fill="#E61300"/>
<path d="M341.81 550.638C346.139 550.063 353.565 543.866 362.131 536.72C369.716 530.185 377.629 524.042 385.839 518.315C465.582 464.114 528.691 433.618 573.22 427.699C575.707 427.368 578.194 427.037 580.665 426.944C586.464 426.501 591.784 425.982 596.389 425.37C618.262 422.462 619.867 418.306 619.861 418.26C619.119 416.93 617.997 415.854 616.639 415.168L616.182 414.9L615.799 414.482C613.053 411.796 550.094 348.312 488.803 356.461C486.126 356.815 483.47 357.309 480.845 357.941C465.765 361.541 333.87 396.675 334.422 513.981C334.529 534.945 336.327 547.096 339.772 550.111C340.045 550.357 340.372 550.533 340.727 550.625C341.082 550.717 341.453 550.721 341.81 550.638Z" fill="#F4493A"/>
<path d="M480.429 357.996C538.697 344.007 601.496 397.798 618.854 415.624C619.41 415.936 619.943 416.289 620.446 416.68C612.511 417.413 604.534 417.595 596.573 417.225C536.007 414.576 448.654 448.482 408.89 472.682C369.127 496.882 335.164 501.914 340.148 467.741C364.405 403.269 433.383 369.319 480.429 357.996Z" fill="#FF685A"/>
<g style="mix-blend-mode:color-dodge" opacity="0.3">
<g style="mix-blend-mode:color-dodge">
<path d="M500.135 367.016C494.44 363.643 488.36 360.555 482.299 357.607C484.326 357.337 486.306 357.074 488.332 356.805C524.512 375.372 556.019 401.912 580.484 434.43L577.123 434.877C556.131 407.438 529.976 384.384 500.135 367.016V367.016Z" fill="white"/>
</g>
<g style="mix-blend-mode:color-dodge">
<path d="M519.505 450.937C510.541 441.29 500.849 432.348 490.515 424.191C482.741 417.935 474.561 412.202 466.029 407.031C449.735 397.871 432.571 390.358 414.791 384.603C417.705 382.902 420.585 381.299 423.524 379.782C430.702 382.247 437.701 385.205 444.472 388.636C453.545 392.572 462.337 397.127 470.787 402.268C479.185 407.383 487.195 413.111 494.754 419.404C504.987 427.698 514.468 436.882 523.087 446.847L524.703 448.791L519.591 450.879L519.505 450.937Z" fill="white"/>
</g>
<g style="mix-blend-mode:color-dodge">
<path d="M544.092 441.99C528.949 424.895 511.906 409.588 493.294 396.366C483.304 389.2 472.819 382.753 461.918 377.071C456.216 374.356 450.361 371.896 444.437 369.633C448.189 368.243 452.119 366.781 455.89 365.529C458.676 366.755 461.503 367.928 464.191 369.119C475.345 374.682 486.051 381.104 496.212 388.328C516.675 402.842 534.89 420.3 550.267 440.137L544.092 441.99Z" fill="white"/>
</g>
<g style="mix-blend-mode:color-dodge">
<path d="M534.648 361.535C546.18 365.4 557.289 370.434 567.801 376.558C585.713 392.021 601.737 409.551 615.538 428.784C613.463 429.492 611.352 430.086 609.213 430.563L607.385 428.084C586.026 402.93 561.587 380.571 534.648 361.535V361.535Z" fill="white"/>
</g>
<g style="mix-blend-mode:color-dodge">
<path d="M332.9 495.081C346.983 496.01 360.808 499.313 373.792 504.851C382.38 508.69 390.666 513.174 398.578 518.264L396.079 519.91C377.433 509.342 355.386 505.28 331.802 504.473C332.037 501.297 332.423 498.195 332.9 495.081Z" fill="white"/>
</g>
<g style="mix-blend-mode:color-dodge">
<path d="M334.726 485.17C335.94 479.888 337.473 474.685 339.315 469.589C371.097 472.497 400.579 482.094 424.161 501.628L421.007 503.643C396.784 488.466 366.722 484.39 334.726 485.17Z" fill="white"/>
</g>
<g style="mix-blend-mode:color-dodge">
<path d="M331.396 527.571C331.218 526.233 331.317 524.859 331.26 523.365C345.927 525.466 360.201 529.737 373.614 536.038L371.038 538.164C358.448 532.607 345.076 529.034 331.396 527.571Z" fill="white"/>
</g>
<g style="mix-blend-mode:color-dodge">
<path d="M470.228 438.715C445.345 421.322 417.081 409.375 387.278 403.655C391 400.626 394.818 397.959 398.644 395.01C431.681 401.198 462.166 416.995 486.294 440.428C492.133 445.947 497.491 451.955 502.31 458.386L496.839 460.944C488.581 452.828 479.682 445.394 470.228 438.715V438.715Z" fill="white"/>
</g>
<g style="mix-blend-mode:color-dodge">
<path d="M346.846 452.161C348.459 449.13 350.137 446.232 351.913 443.368C389.998 444.688 425.523 455.687 453.665 483.813L447.011 487.702C417.635 464.762 383.291 454.543 346.846 452.161Z" fill="white"/>
</g>
<g style="mix-blend-mode:color-dodge">
<path d="M364.295 426.469C366.036 424.407 367.824 422.339 369.67 420.357C409.619 425.841 446.94 441.905 475.299 472.02L471.626 474.01C442.222 446.615 404.425 431.553 364.295 426.469Z" fill="white"/>
</g>
</g>
<path d="M415.903 392.293C414.105 386.149 433.22 375.16 458.633 367.84C484.045 360.519 506.012 359.382 507.81 365.526C509.609 371.67 487.24 371.546 461.84 378.959C436.44 386.372 417.702 398.437 415.903 392.293Z" fill="white"/>
<path d="M344.912 493.437C339.493 490.027 343.856 473.443 354.582 456.436C365.308 439.428 378.419 428.393 383.838 431.802C389.257 435.212 367.627 442.781 364.481 462.535C358.755 496.76 350.291 496.899 344.912 493.437Z" fill="white"/>
<path d="M525.372 480.567C528.889 477.097 321.678 262.093 62.6098 0.542969L50.0321 13.0333C309.1 274.69 521.801 484.036 525.372 480.567Z" fill="#B4703D"/>
<path d="M62.6094 0.542969L50.0318 13.0333C99.8628 63.4217 148.042 111.835 193.343 157.153L205.334 145.249C160.406 99.5582 112.494 50.9313 62.6094 0.542969Z" fill="#030800"/>
<path d="M520.149 471.866C520.788 471.226 315.122 261.079 60.6912 2.41113L58.133 4.70637C312.777 263.374 519.509 472.507 520.149 471.866Z" fill="#FCFBE6"/>
</svg>
