<svg width="111" height="84" viewBox="0 0 111 84" fill="none" xmlns="http://www.w3.org/2000/svg">
<g style="mix-blend-mode:multiply">
<path d="M107.317 74.8806C107.177 74.6469 106.993 74.4431 106.774 74.2811C107.606 73.6635 107.697 72.4645 106.774 71.1566C106.347 70.5339 105.807 69.9977 105.182 69.5761C105.732 69.223 106.161 68.7096 106.412 68.1047C106.547 67.7357 106.603 67.3428 106.579 66.9507C106.555 66.5586 106.451 66.1758 106.272 65.8261C106.094 65.4765 105.846 65.1676 105.543 64.9189C105.24 64.6701 104.889 64.4869 104.513 64.3806C105.924 63.6358 106.322 62.564 105.49 61.7829C103.71 60.7359 101.588 60.4418 99.5919 60.9654L99.3928 60.7837C99.5109 60.6651 99.6198 60.5376 99.7185 60.4022C99.991 60.0649 100.173 59.6631 100.247 59.2352C100.321 58.8072 100.285 58.3674 100.141 57.9576C99.9979 57.5478 99.7525 57.1816 99.4283 56.8941C99.1041 56.6065 98.7119 56.4071 98.2892 56.3149C97.8913 56.1823 97.4776 56.1029 97.059 56.0787C95.8507 54.6531 94.1891 53.6905 92.3552 53.3538C91.2652 53.0329 90.1422 52.8379 89.0082 52.7725C88.9729 52.5659 88.9121 52.3645 88.8273 52.173C88.384 51.2277 87.6906 50.4228 86.8228 49.8462C85.955 49.2695 84.9462 48.9433 83.9064 48.9031C83.7316 48.8942 83.5565 48.8942 83.3817 48.9031C81.64 47.7823 79.583 47.2596 77.52 47.4135C76.8154 47.4235 76.1131 47.4965 75.4214 47.6315C75.4301 47.5591 75.4301 47.4859 75.4214 47.4135C75.4001 46.4266 75.0207 45.4814 74.3545 44.7555C73.6882 44.0296 72.7809 43.573 71.803 43.4714C71.3014 43.3711 70.785 43.3711 70.2833 43.4714C68.3609 42.304 66.1156 41.7882 63.8789 42C62.8967 42.035 61.9234 42.1999 60.9842 42.4905C60.4451 41.5918 59.6875 40.8453 58.7825 40.321C57.8774 39.7967 56.8546 39.5118 55.81 39.4931C55.2768 39.4468 54.7466 39.6105 54.3314 39.9494C53.9162 40.2884 53.6484 40.7762 53.5847 41.3097C53.5375 41.2031 53.4831 41.0999 53.4219 41.0009C52.8304 40.1003 52.024 39.3626 51.076 38.8549C50.1281 38.3473 49.0687 38.0858 47.9944 38.0943C47.5281 38.116 47.0798 38.2808 46.7099 38.5666C44.9925 37.8609 43.128 37.5925 41.2823 37.7855C40.3231 37.854 39.3818 38.0811 38.4962 38.4576C37.8979 37.6599 37.125 37.0108 36.2374 36.5604C35.3497 36.11 34.3708 35.8703 33.3763 35.8598C33.0216 35.8354 32.6666 35.9034 32.3458 36.0573C32.025 36.2113 31.7492 36.4458 31.5453 36.7383C31.3414 37.0308 31.2163 37.3712 31.1821 37.7266C31.1479 38.0819 31.2057 38.4401 31.35 38.7664V38.7664C30.5645 37.9314 29.6074 37.2779 28.5453 36.8513C27.4831 36.4246 26.3412 36.2351 25.1988 36.2958C24.9129 36.3399 24.6417 36.4522 24.408 36.6233C24.1742 36.7943 23.9847 37.0192 23.8553 37.279C23.726 37.5388 23.6605 37.8259 23.6645 38.1163C23.6685 38.4067 23.7417 38.692 23.8781 38.9481C22.9764 38.1752 21.9213 37.6038 20.7828 37.2718C19.6442 36.9398 18.4484 36.8548 17.2747 37.0225C15.6645 37.4766 15.7369 39.0934 17.3651 40.7465L16.6777 40.5285C13.6563 39.6929 10.6531 39.9654 10.1285 40.9282C9.92945 41.3642 10.1285 41.8547 10.6531 42.3451C9.8306 42.075 8.95445 42.0126 8.10219 42.1635C6.29302 42.5813 6.40157 44.2889 8.10219 46.0147C7.60602 46.1606 7.14473 46.4066 6.74654 46.7377C6.34836 47.0688 6.02166 47.478 5.78646 47.9403C5.53733 48.459 5.46437 49.0454 5.57873 49.6097C5.69309 50.174 5.98847 50.6852 6.41966 51.0649C5.06279 51.2829 4.1582 51.7552 4.1582 52.4273C4.1582 53.0995 5.71409 54.3348 7.95746 54.9524C6.98051 55.0614 6.25684 55.3521 6.02165 55.8244C5.4789 56.8962 7.61372 58.4948 10.7979 59.3668L11.3949 59.5121C10.9064 59.7664 10.5988 60.0752 10.5988 60.4567C10.5988 61.6739 13.2945 63.0182 16.6234 63.4541C15.9359 63.763 15.556 64.1626 15.6283 64.6531C15.8092 65.8339 18.5592 67.0147 21.7614 67.2509C22.2435 67.2774 22.7267 67.2774 23.2087 67.2509C22.2137 68.0683 22.069 69.0675 23.0097 69.7941C24.7681 70.7589 26.8309 70.9999 28.7629 70.4663C30.1593 71.8905 32.0243 72.7558 34.0095 72.9005C35.0723 73.0862 36.1523 73.1532 37.2298 73.1003C37.2298 73.2275 37.2298 73.3547 37.3384 73.5C37.7799 74.539 38.5124 75.427 39.4471 76.0558C40.3817 76.6847 41.4781 77.0274 42.603 77.0424C43.337 77.0599 44.0496 76.7933 44.5931 76.2976C44.7022 76.4636 44.8231 76.6214 44.955 76.7699C45.6564 77.6014 46.5377 78.2611 47.5315 78.6987C48.5254 79.1363 49.6057 79.3402 50.69 79.295C51.0688 79.2416 51.4256 79.0845 51.7212 78.8408C51.8592 79.1496 52.0588 79.4267 52.3078 79.6548C52.5568 79.8829 52.8497 80.0572 53.1686 80.1669C53.938 80.428 54.7542 80.521 55.5623 80.4395C56.3705 80.3581 57.1519 80.1041 57.8543 79.6946C57.9111 79.8925 58.0243 80.0693 58.18 80.2033C59.2655 81.3296 62.3592 81.7656 65.0729 81.1479C65.6456 81.0183 66.2033 80.8295 66.7373 80.5848C67.0082 81.5067 67.5507 82.3246 68.2934 82.931C69.0362 83.5374 69.9444 83.9037 70.8984 83.9818C71.4968 84.0785 72.1101 84.0056 72.6695 83.7713C73.2288 83.537 73.7119 83.1507 74.0645 82.6557C74.3784 83.1267 74.8352 83.4834 75.3671 83.673C76.3543 84.0193 77.4161 84.0924 78.4411 83.8846C79.4661 83.6769 80.4165 83.1959 81.1926 82.4922C81.5167 82.8855 81.9333 83.1914 82.4047 83.3823C83.4367 83.7409 84.5458 83.8137 85.6154 83.5932C86.6851 83.3726 87.6759 82.8668 88.4836 82.1289V82.1289C88.7698 82.4318 89.1145 82.6728 89.4967 82.8374C90.503 83.1946 91.5848 83.282 92.635 83.0908C93.6853 82.8997 94.6676 82.4366 95.485 81.7474C95.7532 81.5216 95.9743 81.2449 96.1357 80.9332C96.2971 80.6215 96.3957 80.2808 96.4258 79.9308C98.7235 80.7846 101.039 80.9481 101.962 80.2578C102.885 79.5675 102.143 78.4412 100.496 77.2967C101.237 77.3517 101.981 77.3517 102.722 77.2967C105.924 77.1877 107.932 76.0977 107.317 74.8806Z" fill="#B8B5AA"/>
</g>
<path d="M109.543 49.4118C109.391 49.0722 109.169 48.7688 108.891 48.5217C109.249 47.6059 109.392 46.6194 109.307 45.6393C109.222 44.6592 108.913 43.7121 108.403 42.872C107.949 41.9856 107.335 41.191 106.594 40.5286C107.109 39.5904 107.434 38.5595 107.552 37.4948C107.878 34.5883 106.756 32.045 105.002 31.4274C105.619 30.7653 106.003 29.9179 106.095 29.0154C106.186 28.1129 105.98 27.2052 105.508 26.4317C104.296 25.0511 101.745 25.3054 99.5559 26.904L99.3207 26.6315C99.4112 26.3772 99.5017 26.1229 99.574 25.8686C100.442 22.6168 99.4474 19.5468 97.3668 18.9836C96.9567 18.8835 96.5286 18.8835 96.1185 18.9836C95.5756 18.0427 94.8158 17.2464 93.9028 16.6616C92.9899 16.0768 91.9505 15.7206 90.8719 15.6229C89.7558 15.3933 88.6049 15.3933 87.4888 15.6229C87.42 15.2764 87.3232 14.9362 87.1993 14.6056C86.15 11.5718 83.7076 9.68257 81.7718 10.3547C81.5977 10.4235 81.4334 10.5151 81.2833 10.6272C80.4339 9.94154 79.4069 9.51398 78.3235 9.39489C77.2401 9.27581 76.1454 9.47016 75.1683 9.95506C74.4523 10.2162 73.7763 10.577 73.1602 11.0269C73.1511 10.8938 73.1511 10.7603 73.1602 10.6272C73.0154 7.26648 71.0796 4.61423 68.9086 4.74139C68.37 4.77979 67.8543 4.97555 67.4251 5.30454C66.4902 4.60418 65.3758 4.18604 64.2126 4.09916C63.0494 4.01229 61.8856 4.26028 60.8578 4.81406C59.8261 5.23271 58.8858 5.84981 58.0898 6.63066C56.8053 3.81492 54.3267 2.16181 52.4633 2.99745C51.7759 3.4099 51.2328 4.02621 50.9088 4.76148C50.5848 5.49675 50.4958 6.31481 50.6541 7.10298C50.6541 6.93949 50.5275 6.77599 50.437 6.6125C49.0078 3.77859 46.3845 2.23447 44.5572 3.16094C44.0444 3.44791 43.6382 3.8941 43.3993 4.43257C42.5001 4.07926 41.5324 3.93652 40.57 4.01522C39.6075 4.09392 38.6756 4.39197 37.8452 4.88672C36.8179 5.37239 35.9099 6.07948 35.1857 6.95765C33.7384 4.50523 31.4226 3.19727 29.7582 3.97842C28.0938 4.75956 27.4063 7.26648 28.1299 9.90056C26.1941 7.37547 23.3537 6.26734 21.6531 7.48447C20.2962 8.44727 20.043 10.5364 20.8933 12.7163C18.668 10.4637 15.7371 9.7189 14.1993 11.1177C12.6616 12.5165 13.0596 15.3867 14.9411 17.8028L14.2355 17.6575C11.0333 17.167 8.17481 18.475 7.84916 20.5459C7.80049 20.9726 7.84486 21.4049 7.97919 21.8127C8.11353 22.2205 8.33461 22.5941 8.6271 22.9075C8.18916 22.8063 7.73465 22.8009 7.29448 22.8918C6.8543 22.9827 6.43878 23.1677 6.07617 23.4343C4.46601 24.7604 4.79167 27.8305 6.76366 30.3556C5.68681 31.5037 4.98599 32.9555 4.75548 34.5156C4.57171 35.4588 4.58454 36.43 4.79316 37.368C5.00178 38.306 5.40168 39.1904 5.96762 39.9654C5.37363 40.266 4.87363 40.7251 4.52255 41.2923C4.17147 41.8596 3.98289 42.513 3.97754 43.1808C4.12227 44.834 5.78671 46.0874 8.17481 46.4326C7.72312 46.6364 7.32466 46.9426 7.01075 47.3271C6.69683 47.7117 6.47601 48.1641 6.36564 48.6488C6.09427 50.8651 8.48237 52.9542 11.8474 53.481H12.4625C12.0183 54.0617 11.7996 54.7849 11.8474 55.5156C12.0645 57.6955 14.9592 59.1488 18.3242 58.8945C18.0283 59.2274 17.8073 59.6203 17.6762 60.0466C17.545 60.473 17.5069 60.9226 17.5644 61.3651C17.9624 63.4542 20.8752 64.635 24.0774 64.0355C24.5642 63.9348 25.0421 63.7951 25.5067 63.6177C25.0646 64.3249 24.8532 65.153 24.9019 65.9865C24.9505 66.8201 25.2568 67.6176 25.778 68.2682C27.0625 69.5217 29.3964 69.1583 31.5493 67.5779C32.1498 68.4985 32.9953 69.2316 33.9899 69.694C34.9844 70.1564 36.0882 70.3295 37.1758 70.1938C38.2794 70.1727 39.3678 69.9319 40.378 69.4853C40.378 69.7033 40.4866 69.9395 40.5589 70.1756C41.5902 73.391 44.1773 75.4438 46.1674 74.7717C46.6162 74.5844 47.017 74.2975 47.3397 73.9326C47.6624 73.5676 47.8987 73.1341 48.0308 72.6644C48.1618 72.9264 48.3067 73.1811 48.465 73.4274C50.2742 75.9888 52.9156 77.1514 54.5619 76.0433C54.973 75.7591 55.2934 75.3617 55.4846 74.8988C55.6186 75.3052 55.8382 75.6779 56.1286 75.9913C56.4189 76.3048 56.7731 76.5518 57.1671 76.7154C58.6506 77.2604 60.4598 76.2068 61.6719 74.2993C61.7588 74.601 61.8998 74.8842 62.088 75.135C63.3726 76.7881 66.4843 76.5156 69.0353 74.5355C69.6099 74.0802 70.1264 73.5555 70.573 72.9732C71.2786 75.9343 73.2687 78.0234 75.2769 77.7146C76.0122 77.5046 76.673 77.0892 77.1823 76.5167C77.6915 75.9443 78.0284 75.2383 78.1535 74.481C78.4565 75.1148 78.9767 75.6178 79.6189 75.898C81.5366 76.6246 84.0152 74.808 85.0464 71.8288C85.345 72.3714 85.8259 72.7898 86.4033 73.0095C88.3934 73.7725 90.9624 71.8833 92.1383 68.7769C92.4241 69.1798 92.8111 69.4995 93.26 69.7033C95.0692 70.4845 97.7106 68.7224 98.9408 65.7613C99.4142 64.6436 99.6247 63.4315 99.5559 62.2189C101.962 63 104.278 62.5459 104.983 60.9836C105.689 59.4213 104.821 57.5865 103.011 56.1514V56.0424C103.764 55.9404 104.5 55.7389 105.201 55.4429C108.493 54.0078 110.302 51.3737 109.543 49.4118Z" fill="#ECE2AC"/>
<path d="M87.9586 33.2621C88.0753 33.0386 88.1781 32.8081 88.2662 32.5718C89.3698 29.647 88.7366 26.6678 86.855 25.9593C86.3359 25.8012 85.7856 25.7766 85.2545 25.8876C84.7234 25.9987 84.2287 26.242 83.8156 26.5951C84.6659 24.0155 84.1051 21.4904 82.4226 20.782C82.0144 20.6391 81.5793 20.591 81.15 20.6414C80.7207 20.6917 80.3084 20.8392 79.944 21.0726C79.3036 19.5932 78.1357 18.4075 76.6694 17.7482C75.8856 17.3589 75.0412 17.107 74.1728 17.0034C74.2954 16.4823 74.2511 15.9355 74.0461 15.4411C73.2682 13.6245 70.3192 13.0432 67.4427 14.2422C66.8465 14.4964 66.2818 14.8195 65.7601 15.205C65.6128 14.6488 65.4003 14.1122 65.1269 13.6064C63.6434 10.8996 61.1287 9.50083 59.428 10.4091C59.4365 10.3246 59.4365 10.2394 59.428 10.1548C59.1295 9.49001 58.5842 8.96854 57.9083 8.70152C57.6974 8.33381 57.4079 8.01763 57.0606 7.77575C56.7134 7.53388 56.3171 7.37233 55.9002 7.30274C55.3489 7.28632 54.8027 7.41316 54.3146 7.67096C53.8265 7.92875 53.4129 8.30877 53.114 8.77419L52.6979 8.91952C51.7229 9.32342 50.8328 9.90899 50.0746 10.6453C48.8625 7.97488 46.4563 6.4126 44.7738 7.15741C44.1082 7.54198 43.5773 8.12358 43.2534 8.82268C42.9296 9.52179 42.8287 10.3043 42.9646 11.0631C42.9646 10.8996 42.838 10.7361 42.7656 10.5908C41.4087 7.92038 38.9302 6.44893 37.2115 7.3209C36.6085 7.66295 36.1562 8.22087 35.945 8.88319C35.1205 8.61262 34.2488 8.5181 33.3858 8.60569C32.5228 8.69329 31.6875 8.96106 30.9336 9.39184C29.744 9.97469 28.7411 10.881 28.039 12.0078C27.5798 11.2886 26.9042 10.7352 26.1103 10.4281C25.3164 10.121 24.4456 10.0762 23.6246 10.3001C21.9783 11.0631 21.4536 13.5337 22.2858 16.0951C20.4766 13.5882 17.6905 12.4619 16.0261 13.6609C14.3617 14.8598 14.4702 17.7664 16.1527 20.346C15.5258 19.9092 14.781 19.6752 14.0179 19.6752C13.2549 19.6752 12.51 19.9092 11.8831 20.346C10.3453 21.7266 10.8338 24.7603 12.9686 27.1401L13.3123 27.4853C10.4177 27.1583 7.88483 28.3572 7.63155 30.2465C7.39636 31.7543 8.66277 33.2621 10.6167 34.0977C9.35026 35.4783 9.73018 38.2396 11.5755 40.5103C12.2492 41.3425 13.079 42.0338 14.0179 42.5449C13.861 43.0059 13.746 43.4802 13.6742 43.9619C13.24 47.0501 14.5064 49.7932 16.4965 50.0657C16.623 50.0748 16.7499 50.0748 16.8764 50.0657C17.0935 51.9731 19.554 53.3174 22.4848 53.1539C22.3763 55.0977 24.5473 56.987 27.5143 57.4593C28.1122 57.5566 28.7189 57.5871 29.3235 57.5501C30.0471 59.1669 32.4533 60.2024 35.2033 59.9481C35.5561 59.9067 35.9064 59.8461 36.2526 59.7664C36.723 61.583 39.4005 62.6911 42.3314 62.128C42.9034 62.0215 43.4617 61.8508 43.9958 61.6193C43.9343 62.0661 43.9721 62.521 44.1067 62.9514C44.2412 63.3817 44.469 63.7768 44.7738 64.1081C46.2392 65.4887 49.152 64.7802 51.2868 62.5276L51.4858 62.2915C52.7601 63.2639 54.3385 63.7471 55.9363 63.6539C57.3681 63.6562 58.7652 63.2118 59.9346 62.3823C61.0563 64.8166 63.1187 66.2699 64.8375 65.7067C66.5562 65.1436 67.3703 62.7638 66.8637 60.1116L67.0989 60.5294C68.7272 62.9455 71.3143 64.0536 72.8702 63C73.2809 62.678 73.6005 62.2538 73.7973 61.7693C73.994 61.2849 74.0611 60.7572 73.9918 60.2387C74.2002 60.4239 74.4389 60.5714 74.6974 60.6747C76.5066 61.3287 78.7319 59.6029 79.745 56.8417C79.8725 56.4859 79.9753 56.1217 80.0526 55.7517C81.4775 55.6282 82.8389 55.1044 83.9812 54.2402C85.1234 53.3759 86.0002 52.2063 86.5113 50.865C88.4471 50.4109 89.6231 47.686 89.1527 44.5977C88.9967 43.6029 88.6529 42.6472 88.1395 41.782C88.6336 41.1553 89.0301 40.4571 89.3155 39.711C90.3829 36.8045 89.7859 33.9524 87.9586 33.2621Z" fill="#FCFBE6"/>
<path d="M55.0687 46.1054C56.5703 40.6555 50.3468 34.2248 41.1924 31.6815C32.038 29.1382 23.3902 31.4453 21.8886 36.8588C20.387 42.2723 26.6105 48.7395 35.7649 51.2827C44.9193 53.826 53.5671 51.5189 55.0687 46.1054Z" fill="white"/>
<path d="M0.992188 22.2896C4.37533 13.2066 16.7862 4.12354 24.5114 1.61662C39.5275 1.07164 86.9639 -0.199989 110.284 19.3286C110.935 29.1746 110.519 29.7741 110.284 32.0448C105.635 33.2619 90.1842 35.5872 79.8177 49.7204C65.6338 43.9436 22.467 30.3917 2.43952 34.9877C1.48066 28.9384 0.992188 22.2896 0.992188 22.2896Z" fill="#FDE471"/>
<path d="M79.8719 49.7567C82.0241 46.8283 84.562 44.2067 87.4162 41.9635C86.0231 39.5292 82.9294 36.8225 77.2125 33.7706C54.5436 21.672 11.8472 20.4367 0.992188 22.2896C0.992188 22.2896 1.48066 28.9384 2.43952 35.0059C22.467 30.3917 65.6338 43.9436 79.8719 49.7567Z" fill="#FDD459"/>
<path d="M110.339 32.0811C110.574 29.774 110.99 29.1746 110.339 19.3649C96.173 17.5483 81.0845 29.7014 77.2129 33.8977C80.1076 39.2386 79.8724 49.8839 79.8724 49.8839C90.2389 35.6235 105.689 33.2983 110.339 32.0811Z" fill="#FDBB42"/>
<path d="M96.0463 16.2405C100.37 14.8962 85.6617 6.63067 71.5501 4.83223C57.4386 3.03378 45.5705 5.21371 45.0096 9.70074C44.4488 14.1878 49.4964 15.5502 61.7806 22.744C82.8574 35.0606 70.5189 24.0883 96.0463 16.2405Z" fill="#FFEE99"/>
<path d="M110.338 19.329C91.6677 3.63345 57.5649 1.39903 36.9946 1.38086C60.3148 1.39903 91.4506 4.43276 108.927 18.6023C109.347 22.2217 109.378 25.876 109.018 29.502L108.384 29.6655C102.541 31.0098 89.0444 34.1343 79.4377 46.5963C66.5022 41.4916 33.702 31.2096 12.1909 31.2096C9.34318 31.1833 6.49841 31.4021 3.68785 31.8636C3.01846 27.1404 2.62044 22.3627 2.51189 21.1092C5.87694 12.3713 17.6365 3.96044 24.8189 1.59885L30.0836 1.45352C27.9669 1.45352 26.0854 1.56252 24.6561 1.61702C16.7862 4.08761 4.37533 13.1888 0.992188 22.29C0.992188 22.29 1.48066 28.9388 2.43952 35.0063C22.467 30.4103 65.6338 43.9622 79.8719 49.7753C90.2385 35.6421 105.689 33.3168 110.338 32.0997C110.574 29.7745 110.99 29.175 110.338 19.329Z" fill="#FDBB42"/>
<g style="mix-blend-mode:multiply">
<path d="M91.7401 29.738C91.7224 29.3831 91.6015 29.0412 91.3922 28.7547C91.183 28.4681 90.8946 28.2495 90.5629 28.1258C90.2311 28.0021 89.8706 27.9789 89.5258 28.0589C89.181 28.1389 88.8672 28.3187 88.6231 28.576C88.3791 28.8333 88.2155 29.1568 88.1527 29.5065C88.0899 29.8562 88.1307 30.2167 88.2699 30.5434C88.4091 30.8701 88.6406 31.1486 88.9358 31.3445C89.2311 31.5403 89.5771 31.645 89.9309 31.6454C90.1763 31.6457 90.4192 31.5959 90.6448 31.499C90.8704 31.4021 91.074 31.2601 91.2433 31.0816C91.4125 30.9032 91.5438 30.6921 91.6292 30.4611C91.7147 30.2301 91.7524 29.9841 91.7401 29.738Z" fill="#FDE471"/>
</g>
<g style="mix-blend-mode:multiply">
<path d="M58.0895 34.5158C58.0895 34.1785 57.9561 33.8551 57.7186 33.6166C57.4811 33.3781 57.1589 33.2441 56.8231 33.2441C56.4872 33.2441 56.1651 33.3781 55.9276 33.6166C55.6901 33.8551 55.5566 34.1785 55.5566 34.5158C55.5566 34.853 55.6901 35.1765 55.9276 35.4149C56.1651 35.6534 56.4872 35.7874 56.8231 35.7874C57.1589 35.7874 57.4811 35.6534 57.7186 35.4149C57.9561 35.1765 58.0895 34.853 58.0895 34.5158V34.5158Z" fill="#FDE471"/>
</g>
<g style="mix-blend-mode:multiply">
<path d="M19.3192 25.9228C19.3192 25.5887 19.2205 25.2621 19.0356 24.9842C18.8507 24.7064 18.5879 24.4899 18.2805 24.362C17.9731 24.2341 17.6348 24.2007 17.3084 24.2659C16.982 24.331 16.6822 24.492 16.4469 24.7282C16.2116 24.9645 16.0514 25.2655 15.9864 25.5932C15.9215 25.921 15.9548 26.2607 16.0822 26.5694C16.2095 26.8781 16.4252 27.1419 16.7019 27.3276C16.9786 27.5132 17.3039 27.6123 17.6366 27.6123C17.8576 27.6123 18.0764 27.5686 18.2805 27.4837C18.4846 27.3988 18.6701 27.2743 18.8264 27.1175C18.9826 26.9606 19.1065 26.7743 19.1911 26.5694C19.2756 26.3644 19.3192 26.1447 19.3192 25.9228V25.9228Z" fill="#FDE471"/>
</g>
<g style="mix-blend-mode:multiply">
<path d="M67.624 33.553C67.624 33.1398 67.502 32.7359 67.2733 32.3923C67.0447 32.0488 66.7198 31.781 66.3396 31.6229C65.9595 31.4648 65.5411 31.4234 65.1375 31.504C64.734 31.5846 64.3632 31.7836 64.0723 32.0758C63.7813 32.3679 63.5831 32.7402 63.5029 33.1454C63.4226 33.5507 63.4638 33.9707 63.6213 34.3524C63.7787 34.7342 64.0454 35.0604 64.3875 35.29C64.7297 35.5195 65.1319 35.6421 65.5434 35.6421C65.8173 35.6445 66.089 35.5921 66.3425 35.488C66.596 35.3839 66.8263 35.2301 67.02 35.0356C67.2137 34.8411 67.3668 34.6098 67.4705 34.3553C67.5742 34.1007 67.6264 33.828 67.624 33.553V33.553Z" fill="#FDE471"/>
</g>
<g style="mix-blend-mode:multiply">
<path d="M7.88516 27.3763C7.88873 27.0622 7.79901 26.7542 7.62744 26.4915C7.45588 26.2289 7.21025 26.0235 6.92192 25.9016C6.63358 25.7798 6.31562 25.7469 6.00863 25.8073C5.70163 25.8677 5.41952 26.0186 5.19831 26.2407C4.9771 26.4629 4.82683 26.7461 4.76668 27.0544C4.70652 27.3626 4.73922 27.6819 4.86058 27.9714C4.98195 28.2609 5.18648 28.5076 5.44808 28.6799C5.70967 28.8521 6.01646 28.9422 6.32927 28.9386C6.74192 28.9386 7.13766 28.774 7.42945 28.481C7.72123 28.1881 7.88516 27.7907 7.88516 27.3763V27.3763Z" fill="#FDE471"/>
</g>
<g style="mix-blend-mode:multiply">
<path d="M14.543 15.2959C14.543 14.7509 13.9822 14.2059 13.0957 14.0424C12.2092 13.8789 11.4312 14.1877 11.2865 14.7145C11.1418 15.2414 11.8473 15.8227 12.7338 15.968C13.6203 16.1133 14.4344 15.8227 14.543 15.2959Z" fill="#FDE471"/>
</g>
<g style="mix-blend-mode:multiply">
<path d="M28.4011 4.43251C28.4011 3.97836 27.9307 3.50604 27.1889 3.37888C26.4472 3.25171 25.7778 3.50604 25.6873 3.96019C25.5969 4.41434 26.1577 4.8685 26.8995 5.01383C27.6412 5.15915 28.3106 4.88666 28.4011 4.43251Z" fill="#FDE471"/>
</g>
<g style="mix-blend-mode:multiply">
<path d="M28.4912 12.8978C28.5816 12.4254 28.0027 11.9168 27.2067 11.7715C26.4106 11.6261 25.6689 11.8986 25.5784 12.3891C25.4879 12.8796 26.085 13.3701 26.881 13.5154C27.677 13.6607 28.4188 13.3882 28.4912 12.8978Z" fill="#FDE471"/>
</g>
<g style="mix-blend-mode:multiply">
<path d="M74.2095 17.0035C74.2095 16.6402 73.8295 16.2587 73.2325 16.1497C72.6355 16.0407 72.0747 16.2587 72.0204 16.6221C71.9661 16.9854 72.3822 17.3669 72.9973 17.4759C73.6124 17.5849 74.1371 17.3669 74.2095 17.0035Z" fill="#FDE471"/>
</g>
<g style="mix-blend-mode:multiply">
<path d="M34.2811 6.17648C34.2811 5.90399 34.0097 5.61333 33.5393 5.54067C33.0689 5.468 32.6709 5.54067 32.6347 5.88582C32.5985 6.23098 32.9061 6.44897 33.3765 6.5398C33.8469 6.63063 34.2449 6.44897 34.2811 6.17648Z" fill="#FDE471"/>
</g>
<g style="mix-blend-mode:multiply">
<path d="M64.6566 23.2528C64.6566 22.8713 64.2586 22.4535 63.6073 22.3445C62.956 22.2355 62.3951 22.4535 62.3228 22.8349C62.2504 23.2164 62.7208 23.6343 63.3721 23.7433C64.0234 23.8522 64.5842 23.6161 64.6566 23.2528Z" fill="#FDE471"/>
</g>
<g style="mix-blend-mode:multiply">
<path d="M90.6906 13.7152C90.6906 13.4245 90.4012 13.1338 89.9308 13.043C89.4604 12.9522 89.0443 13.043 88.99 13.4063C88.9357 13.7697 89.2795 13.9877 89.7499 14.0785C90.2203 14.1693 90.6545 13.9877 90.6906 13.7152Z" fill="#FDE471"/>
</g>
<g style="mix-blend-mode:multiply">
<path d="M79.5824 11.7898C79.6729 11.2812 79.0578 10.7543 78.2255 10.5909C77.3933 10.4274 76.6335 10.7362 76.543 11.2448C76.4526 11.7535 77.0677 12.2803 77.8999 12.4256C78.7321 12.571 79.492 12.2985 79.5824 11.7898Z" fill="#FDE471"/>
</g>
<g style="mix-blend-mode:multiply">
<path d="M77.5022 25.8867C77.5927 25.2872 76.8871 24.6696 75.8921 24.4879C74.897 24.3063 74.0829 24.6514 73.9201 25.2509C73.7572 25.8504 74.5352 26.468 75.5302 26.6497C76.5253 26.8314 77.3937 26.4862 77.5022 25.8867Z" fill="#FDE471"/>
</g>
<g style="mix-blend-mode:multiply">
<path d="M87.1627 19.4379C87.1627 18.9474 86.6561 18.4206 85.8239 18.2753C84.9917 18.1299 84.2499 18.4024 84.1595 18.9111C84.069 19.4197 84.666 19.9465 85.4982 20.0919C86.3304 20.2372 87.0722 19.9829 87.1627 19.4379Z" fill="#FDE471"/>
</g>
<g style="mix-blend-mode:multiply">
<path d="M75.5295 40.3108C75.5295 39.8796 75.4022 39.4582 75.1636 39.0997C74.9251 38.7412 74.586 38.4618 74.1893 38.2968C73.7926 38.1318 73.3561 38.0886 72.935 38.1727C72.5138 38.2569 72.127 38.4645 71.8234 38.7693C71.5197 39.0742 71.313 39.4626 71.2292 39.8855C71.1454 40.3084 71.1884 40.7467 71.3528 41.145C71.5171 41.5433 71.7953 41.8838 72.1524 42.1233C72.5094 42.3629 72.9291 42.4907 73.3585 42.4907C73.6443 42.4931 73.9277 42.4384 74.1922 42.3297C74.4566 42.221 74.6969 42.0605 74.899 41.8576C75.1011 41.6547 75.2609 41.4134 75.3692 41.1479C75.4774 40.8823 75.5319 40.5977 75.5295 40.3108V40.3108Z" fill="#FDE471"/>
</g>
<g style="mix-blend-mode:multiply">
<path d="M106.72 25.5778C106.72 25.2545 106.625 24.9384 106.446 24.6695C106.267 24.4006 106.013 24.1911 105.715 24.0673C105.418 23.9436 105.09 23.9112 104.774 23.9743C104.459 24.0374 104.168 24.1931 103.941 24.4217C103.713 24.6504 103.558 24.9417 103.495 25.2589C103.432 25.576 103.465 25.9047 103.588 26.2035C103.711 26.5022 103.92 26.7576 104.188 26.9372C104.455 27.1169 104.77 27.2128 105.092 27.2128C105.524 27.2128 105.938 27.0405 106.243 26.7339C106.549 26.4273 106.72 26.0114 106.72 25.5778V25.5778Z" fill="#FDE471"/>
</g>
<g style="mix-blend-mode:multiply">
<path d="M86.313 39.13C86.3166 38.877 86.2449 38.6286 86.1071 38.4168C85.9693 38.2049 85.7717 38.0391 85.5396 37.9406C85.3075 37.8421 85.0514 37.8154 84.804 37.8639C84.5567 37.9124 84.3294 38.0339 84.1512 38.2128C83.973 38.3917 83.852 38.6199 83.8037 38.8683C83.7555 39.1167 83.7821 39.3738 83.8801 39.6069C83.9782 39.84 84.1433 40.0384 84.3544 40.1767C84.5654 40.3151 84.8127 40.387 85.0647 40.3835C85.2286 40.3835 85.3909 40.351 85.5424 40.288C85.6938 40.2251 85.8314 40.1327 85.9474 40.0163C86.0633 39.8999 86.1552 39.7618 86.218 39.6097C86.2807 39.4576 86.313 39.2946 86.313 39.13Z" fill="#FDE471"/>
</g>
<path d="M54.8689 0C45.4612 1.61678 30.427 16.0225 27.0439 22.1081C26.8087 24.8149 24.3663 54.6799 31.9467 69.5761C33.3036 71.1021 49.7128 77.4602 55.9182 76.9516C53.2768 71.1566 49.568 39.9472 54.4709 25.9593C58.0892 20.6367 69.686 8.19291 81.2647 5.97664C92.8433 3.76038 54.8689 0 54.8689 0Z" fill="#030800"/>
<path d="M55.8461 14.0241C49.5321 24.7965 48.8627 25.4324 41.8431 23.6157C35.2034 21.9263 26.1938 23.1979 36.4156 13.4791C47.9219 2.76108 59.1749 -0.27266 64.8738 2.12526C67.6238 3.26973 61.3821 4.54135 55.8461 14.0241Z" fill="#113000"/>
<path d="M70.175 5.72239C70.3379 4.54159 66.5567 3.07014 61.6538 2.41616C56.751 1.76218 52.7346 2.19817 52.608 3.37896C52.4814 4.55976 57.1309 2.50699 61.4187 4.54159C68.7277 8.04765 70.0303 6.90319 70.175 5.72239Z" fill="white"/>
</svg>
