<svg width="112" height="85" viewBox="0 0 112 85" fill="none" xmlns="http://www.w3.org/2000/svg">
<g clip-path="url(#clip0_1203_16192)">
<g style="mix-blend-mode:multiply">
<path d="M87.5527 73.5716C87.8926 67.0476 76.081 60.9233 61.1131 60.0465C46.1452 59.1698 33.7631 63.7727 33.4232 70.3612C33.0833 76.9497 44.907 82.9966 59.8628 83.8863C74.8185 84.7759 87.2007 80.1601 87.5527 73.5716Z" fill="#B8B5AA"/>
</g>
<path d="M34.5879 69.4716C34.5879 74.1132 44.1537 77.8652 55.9411 77.8652C67.7284 77.8652 77.2943 74.1132 77.2943 69.4716C77.2943 64.83 67.7284 47.2822 55.9411 47.2822C44.1537 47.2822 34.5879 64.83 34.5879 69.4716Z" fill="#9C5723"/>
<path d="M111.066 41.8798C111.066 34.1438 86.387 27.9292 55.9414 27.9292C25.4958 27.9292 0.816406 34.1696 0.816406 41.8798C0.816406 49.59 25.4958 74.2549 55.9414 74.2549C86.387 74.2549 111.066 49.5771 111.066 41.8798Z" fill="#B4703D"/>
<path d="M55.9414 67.3442C86.3861 67.3442 111.066 55.9434 111.066 41.8798C111.066 27.8163 86.3861 16.4155 55.9414 16.4155C25.4967 16.4155 0.816406 27.8163 0.816406 41.8798C0.816406 55.9434 25.4967 67.3442 55.9414 67.3442Z" fill="#E6BE8A"/>
<path d="M55.9419 63.2567C27.9121 63.2567 4.24023 53.0967 4.24023 41.0544C4.24023 29.012 27.9121 18.8521 55.9419 18.8521C83.9718 18.8521 107.644 29.0249 107.644 41.0544C107.644 53.0838 83.9718 63.2567 55.9419 63.2567Z" fill="#B4703D"/>
<path d="M47.1525 29.9278C27.5231 27.2202 10.0424 35.5751 8.88914 48.159C8.84685 48.7856 8.84685 49.4147 8.88914 50.0414C17.1075 57.7774 35.3652 63.257 55.99 63.257C64.3209 63.2885 72.6298 62.3459 80.7665 60.4463C80.9707 59.6877 81.1088 58.9109 81.1792 58.1255C82.2839 45.5416 66.7334 32.6225 47.1525 29.9278Z" fill="#9C5723"/>
<g style="mix-blend-mode:multiply">
<path d="M64.7417 29.9276C119.709 20.6316 66.7204 73.2363 103.041 50.0412C94.8231 57.7772 76.5654 63.2569 55.9406 63.2569C47.6097 63.2884 39.3008 62.3458 31.1641 60.4461C30.966 59.6861 30.8279 58.9098 30.7514 58.1253C29.5981 45.5415 45.2337 33.2154 64.7417 29.9276Z" fill="#B4703D"/>
</g>
<path d="M8.96279 52.71C8.53792 54.3991 13.9642 58.0221 21.1022 60.7812C28.2402 63.5404 34.2977 64.4687 34.7105 62.7281C35.1232 60.9875 28.5315 61.5806 21.3571 58.8601C14.1827 56.1397 9.38767 51.021 8.96279 52.71Z" fill="white"/>
<path d="M71.2972 9.32411C79.7947 1.26578 78.3744 1.47207 77.7068 0.659793C77.0391 -0.152486 77.3911 -1.64811 68.8572 6.4489C60.3232 14.5459 53.95 21.6759 54.6298 22.4882C55.3096 23.3005 62.7268 17.3953 71.2972 9.32411Z" fill="#FFC554"/>
<path d="M70.1197 7.9187C78.6173 -0.139627 77.5612 0.492146 77.3305 0.182707C77.0999 -0.126733 77.8161 -1.10663 69.2821 6.90013C60.7481 14.9069 54.0229 21.7661 54.2292 22.0369C54.4356 22.3076 61.5857 15.9899 70.1197 7.9187Z" fill="white"/>
<path d="M33.9076 41.9957C42.4051 33.9245 41.1912 34.4016 40.827 33.9374C40.4628 33.4733 41.0212 32.2355 32.4873 40.2938C23.9533 48.3521 17.3616 55.2888 17.8107 55.7529C18.2599 56.2171 25.3736 50.067 33.9076 41.9957Z" fill="#FFC554"/>
<path d="M33.2279 41.1705C41.7254 33.0993 40.7421 33.8342 40.6086 33.6795C40.4751 33.5248 41.2763 32.532 32.7423 40.6032C24.2083 48.6744 17.6166 55.5981 17.8108 55.7528C18.0051 55.9076 24.6939 49.2417 33.2279 41.1705Z" fill="white"/>
<path d="M97.106 10.9614C104.936 2.11662 103.503 2.45185 102.787 1.71693C102.071 0.982007 102.289 -0.552299 94.4596 8.29252C86.6297 17.1373 80.9363 24.8991 81.604 25.634C82.2716 26.369 89.2882 19.7934 97.106 10.9614Z" fill="#FFC554"/>
<path d="M95.8196 9.67205C103.637 0.827227 102.606 1.56215 102.363 1.29139C102.12 1.02063 102.788 -0.0753052 94.9091 8.75662C87.0307 17.5885 80.9367 24.9764 81.2038 25.2214C81.4708 25.4664 87.9897 18.504 95.8196 9.67205Z" fill="white"/>
<path d="M67.5827 42.7304C67.0122 42.1631 67.3763 40.7707 59.5586 49.6155C54.8363 54.9404 50.8303 59.827 48.5117 62.9987H49.6407H50.8546C53.6467 60.2783 57.4585 56.2426 61.5616 51.601C69.3915 42.8207 68.1047 43.3106 67.5827 42.7304Z" fill="#FFC554"/>
<path d="M67.219 42.4212C67.0248 42.2278 67.6924 41.1319 59.8747 49.9767C55.286 55.134 51.3771 59.9174 48.9492 63.0247H49.5805H49.714C52.2997 60.085 56.1722 55.6111 60.5545 50.6471C68.3965 41.8281 67.4132 42.6146 67.219 42.4212Z" fill="white"/>
<path d="M65.8953 13.7722C64.7659 11.9879 63.0578 10.7074 61.0967 10.1748C59.1355 9.64214 57.0583 9.89463 55.2612 10.8841C53.61 11.4575 52.1565 12.539 51.0852 13.9914C49.7965 14.6539 48.6766 15.6355 47.8197 16.8537C47.112 17.9926 46.7449 19.3321 46.7665 20.6966C46.7882 22.061 47.1976 23.3866 47.9411 24.4995C48.1939 24.9299 48.4824 25.3355 48.803 25.7114C48.803 25.9177 48.9001 26.1111 48.973 26.3045C51.1216 31.565 57.8833 32.5449 62.3263 30.1725C62.792 29.9123 63.2384 29.6149 63.6616 29.2829C64.807 28.8144 65.8325 28.066 66.655 27.0984C67.4775 26.1307 68.0739 24.971 68.396 23.713C69.3307 20.3607 67.704 16.4411 65.8953 13.7722Z" fill="#E39B0E"/>
<path d="M64.1715 13.7338C63.1936 12.1693 61.7077 11.0417 59.9973 10.5661C58.2868 10.0906 56.4713 10.3002 54.8971 11.1551C53.4614 11.663 52.1959 12.6038 51.2552 13.8627C50.1322 14.4408 49.1576 15.299 48.4146 16.364C47.7937 17.3556 47.4716 18.5244 47.4911 19.7151C47.5106 20.9057 47.8708 22.0619 48.5239 23.0299C48.7379 23.4069 48.9859 23.761 49.2644 24.0871C49.3059 24.2627 49.3586 24.435 49.4222 24.6029C51.2795 29.18 57.1793 30.031 61.0517 27.9551C61.4751 27.7369 61.8811 27.4825 62.2657 27.1944C63.255 26.7877 64.1412 26.141 64.8536 25.306C65.5659 24.4711 66.0848 23.4709 66.3688 22.3852C67.17 19.4713 65.7375 16.0546 64.1715 13.7338Z" fill="#FFC554"/>
<g style="mix-blend-mode:screen">
<path d="M57.4107 20.8894C60.2756 17.9626 61.3803 14.2235 59.8386 12.5474C58.2969 10.8713 54.7644 11.877 51.8873 14.8037C49.0103 17.7305 47.9177 21.4567 49.4594 23.1328C51.0011 24.809 54.5337 23.8033 57.4107 20.8894Z" fill="#FFC554"/>
</g>
<g style="mix-blend-mode:multiply">
<path d="M63.6143 10.3169C57.6902 6.12657 49.569 12.2638 47.0076 16.7636C46.899 17.085 46.8058 17.412 46.7284 17.7435C46.17 18.7878 47.2625 19.858 48.4522 19.8451C50.4066 19.9611 51.2806 20.7734 51.0743 22.3077C51.1818 22.7188 51.4249 23.0751 51.7591 23.3118C52.0934 23.5485 52.4965 23.6497 52.8952 23.597C53.8792 23.3884 54.8903 23.3666 55.8815 23.5326C56.2649 23.6139 56.6632 23.54 56.9979 23.3252C57.3326 23.1105 57.5796 22.7705 57.6902 22.3722C57.8578 23.3375 58.0725 24.2929 58.3336 25.2345C58.4981 25.5458 58.7436 25.8002 59.0407 25.9671C59.3379 26.1341 59.674 26.2065 60.0089 26.1757C61.7934 26.1757 62.8252 23.9194 63.4929 22.7203C63.7666 22.1923 63.9747 21.6289 64.112 21.0441C64.6825 21.4954 65.2045 22.024 65.7265 22.4882C66.0012 22.6936 66.3254 22.8112 66.661 22.8272C66.9965 22.8432 67.3294 22.7569 67.6203 22.5785C72.124 19.3422 67.2318 12.8956 63.6143 10.3169Z" fill="#9C5723"/>
</g>
<path d="M48.5003 17.7564C48.7309 17.3954 48.743 16.9828 48.5003 16.8281C48.2575 16.6733 47.9297 16.8281 47.6991 17.202C47.4684 17.5759 47.4563 17.9756 47.6991 18.1303C47.9418 18.285 48.2696 18.1174 48.5003 17.7564Z" fill="white"/>
<path d="M52.6876 21.637C52.9182 21.276 52.9303 20.8634 52.6876 20.7087C52.4448 20.554 52.117 20.7087 51.8985 21.0955C51.68 21.4823 51.6436 21.8562 51.8985 22.0109C52.1534 22.1656 52.4569 21.998 52.6876 21.637Z" fill="white"/>
<path d="M52.3481 20.2832C52.4453 20.1285 52.4453 19.9609 52.3481 19.8964C52.251 19.8319 52.1054 19.8964 52.0204 20.0511C51.9354 20.2058 51.9111 20.3735 52.0204 20.4379C52.1296 20.5024 52.251 20.425 52.3481 20.2832Z" fill="white"/>
<path d="M66.8789 20.9926C66.7332 20.7605 66.5147 20.6316 66.369 20.7218C66.2233 20.8121 66.2233 21.0958 66.369 21.3278C66.5147 21.5599 66.7332 21.7017 66.8789 21.5986C67.0245 21.4954 67.0124 21.2376 66.8789 20.9926Z" fill="white"/>
<path d="M59.7038 24.2673C59.7038 23.7387 59.5096 23.3003 59.2547 23.3003C58.9998 23.3003 58.7812 23.7258 58.7812 24.2544C58.7812 24.783 58.9755 25.2085 59.2304 25.2214C59.4853 25.2343 59.6917 24.7959 59.7038 24.2673Z" fill="white"/>
<path d="M60.5781 10.1233C60.3111 9.51732 57.9075 9.87833 55.2125 10.9227C52.5176 11.967 50.5874 13.308 50.8059 13.901C51.0244 14.4941 52.8575 12.6117 55.5646 11.5802C58.2716 10.5488 60.8452 10.7164 60.5781 10.1233Z" fill="white"/>
<path d="M55.1166 23.7519C53.8576 21.7759 51.9615 20.3573 49.7858 19.7635C47.61 19.1698 45.3049 19.4419 43.305 20.5286C41.4679 21.1673 39.85 22.3696 38.6556 23.984C37.2207 24.729 35.9726 25.8248 35.0138 27.1815C33.2414 29.9149 33.6056 32.9706 35.1595 35.704C35.4412 36.1607 35.7579 36.5919 36.1063 36.9933C36.1792 37.1996 36.2156 37.4317 36.3006 37.6509C38.7284 43.5045 46.2185 44.5875 51.1835 41.9444C51.7044 41.6545 52.2035 41.3226 52.6766 40.9516C53.9316 40.4269 55.0544 39.5992 55.9561 38.534C56.8579 37.4688 57.5139 36.1953 57.8723 34.8144C58.9405 31.0882 57.1196 26.7174 55.1166 23.7519Z" fill="#E39B0E"/>
<path d="M53.1854 23.7003C52.0865 21.9691 50.4276 20.7266 48.5233 20.2085C46.6191 19.6904 44.602 19.9327 42.8548 20.8895C41.2587 21.454 39.8533 22.5029 38.8124 23.9066C37.5666 24.5549 36.4846 25.5097 35.6561 26.6915C34.9643 27.7956 34.6043 29.0968 34.6238 30.4228C34.6433 31.7489 35.0414 33.0375 35.7654 34.1181C36.012 34.531 36.2879 34.9232 36.5909 35.2914C36.6637 35.4848 36.7001 35.6782 36.773 35.8587C38.8488 41.016 45.4162 41.9185 49.7257 39.6106C50.1815 39.3561 50.6196 39.0674 51.0367 38.7468C52.1474 38.2925 53.1417 37.5666 53.9389 36.628C54.7362 35.6894 55.3139 34.5645 55.6254 33.3445C56.5238 30.0954 54.9335 26.2918 53.1854 23.7003Z" fill="#FFC554"/>
<g style="mix-blend-mode:screen">
<path d="M45.648 31.6683C48.8528 28.4063 50.0789 24.2547 48.3915 22.3851C46.7042 20.5156 42.7467 21.6373 39.5419 24.8864C36.3371 28.1356 35.111 32.3001 36.7984 34.1825C38.4858 36.065 42.4432 34.9303 45.648 31.6683Z" fill="#FFC554"/>
</g>
<g style="mix-blend-mode:multiply">
<path d="M52.5552 19.9611C45.9635 15.2937 36.9196 22.1272 34.0669 27.0782C33.9455 27.2974 33.8484 27.9937 33.7512 28.1613C33.1321 29.3346 34.3582 30.5208 35.6693 30.5079C37.8544 30.6239 38.8255 31.5393 38.5949 33.2413C38.6914 33.725 38.9533 34.1535 39.33 34.444C39.7066 34.7345 40.1714 34.8665 40.6343 34.8142C41.7302 34.5818 42.856 34.5556 43.9605 34.7369C44.3872 34.8268 44.8302 34.7446 45.2028 34.5061C45.5755 34.2677 45.851 33.8903 45.9756 33.4475C46.1554 34.5231 46.3946 35.5865 46.6918 36.6322C46.8737 36.9817 47.1471 37.2676 47.4789 37.4553C47.8108 37.6429 48.1868 37.7243 48.5613 37.6895C50.54 37.6895 51.6933 35.1108 52.4338 33.8215C52.7382 33.2334 52.9668 32.6046 53.1136 31.9519C53.7448 32.4677 54.3275 33.0479 54.9223 33.5636C55.2262 33.793 55.5857 33.9248 55.9581 33.943C56.3305 33.9613 56.7 33.8654 57.0225 33.6667C62.036 29.9277 56.5854 22.8106 52.5552 19.9611Z" fill="#9C5723"/>
</g>
<path d="M35.7291 28.1872C35.984 27.7875 36.0083 27.3234 35.7291 27.1429C35.4498 26.9624 35.1099 27.1429 34.8429 27.5683C34.5758 27.9938 34.5758 28.4322 34.8429 28.5998C35.1099 28.7674 35.4741 28.5869 35.7291 28.1872Z" fill="white"/>
<path d="M40.4023 32.5062C40.6572 32.1065 40.6693 31.6424 40.4023 31.4748C40.1352 31.3072 39.771 31.4748 39.5161 31.9002C39.2612 32.3257 39.249 32.7641 39.5161 32.9317C39.7832 33.0993 40.1473 32.9059 40.4023 32.5062Z" fill="white"/>
<path d="M40.0145 30.9462C40.1237 30.7786 40.1237 30.5852 40.0145 30.5207C39.9052 30.4562 39.7596 30.5207 39.6503 30.6883C39.541 30.8559 39.541 31.0493 39.6503 31.1138C39.7596 31.1782 39.9052 31.1654 40.0145 30.9462Z" fill="white"/>
<path d="M56.1963 31.797C56.0506 31.5263 55.7957 31.3973 55.6379 31.4876C55.4801 31.5778 55.4801 31.9002 55.6379 32.1709C55.7957 32.4417 56.0506 32.5706 56.2084 32.4675C56.3663 32.3643 56.3541 32.0678 56.1963 31.797Z" fill="white"/>
<path d="M48.1603 35.4329C48.1603 34.8398 47.9418 34.3628 47.6626 34.3628C47.3834 34.3628 47.1406 34.827 47.1406 35.42C47.1406 36.0131 47.3591 36.4902 47.6383 36.4902C47.9175 36.4902 48.1603 36.026 48.1603 35.4329Z" fill="white"/>
<path d="M49.192 19.6773C48.8885 19.0069 46.2178 19.4066 43.2073 20.5799C40.1967 21.7532 37.9995 23.223 38.3515 23.8935C38.7035 24.5639 40.6459 22.4752 43.6443 21.3148C46.6427 20.1544 49.4833 20.3478 49.192 19.6773Z" fill="white"/>
<path d="M42.5762 35.3171C41.2466 33.2214 39.2388 31.717 36.9339 31.0896C34.6291 30.4621 32.1875 30.7552 30.0727 31.9132C28.1503 32.5934 26.4607 33.8631 25.2169 35.562C23.7016 36.339 22.3855 37.4935 21.3809 38.9272C19.5114 41.8153 19.8877 45.0386 21.5265 47.9525C21.8198 48.4545 22.1528 48.9289 22.522 49.3708C22.6069 49.6029 22.6434 49.8478 22.7405 50.067C25.2533 56.2558 33.2046 57.4033 38.4367 54.6055C38.99 54.3061 39.518 53.9567 40.0148 53.5611C41.3621 53.0121 42.568 52.1326 43.5342 50.9943C44.5005 49.856 45.1996 48.4912 45.5747 47.0113C46.6187 43.0531 44.7006 38.4501 42.5762 35.3171Z" fill="#E39B0E"/>
<path d="M40.5488 35.2528C39.3822 33.4274 37.6265 32.1191 35.6135 31.5751C33.6004 31.0311 31.4695 31.289 29.6234 32.3002C27.9368 32.889 26.4507 33.9921 25.3503 35.4719C24.0339 36.157 22.8897 37.1646 22.012 38.4116C21.284 39.5788 20.9069 40.9534 20.9308 42.3533C20.9546 43.7531 21.3782 45.1123 22.1455 46.2508C22.3946 46.708 22.6831 47.1396 23.0074 47.5401C23.0802 47.7464 23.1167 47.9527 23.2016 48.1461C25.3867 53.5355 32.3183 54.5927 36.8706 52.1043C37.3549 51.8403 37.8178 51.5341 38.2545 51.1889C39.4304 50.7107 40.4833 49.9441 41.3272 48.9514C42.1711 47.9588 42.782 46.7683 43.1102 45.4772C44.0693 42.0089 42.394 37.9861 40.5488 35.2528Z" fill="#FFC554"/>
<g style="mix-blend-mode:screen">
<path d="M32.5979 43.6719C36.0212 40.2293 37.2351 35.8456 35.487 33.86C33.739 31.8745 29.5266 33.0736 26.1397 36.5161C22.7528 39.9586 21.466 44.3423 23.2505 46.315C25.035 48.2877 29.211 47.1015 32.5979 43.6719Z" fill="#FFC554"/>
</g>
<g style="mix-blend-mode:multiply">
<path d="M39.8817 31.3072C32.9259 26.382 23.3722 33.6022 20.3737 38.8627C20.2402 39.0948 20.1309 39.8168 20.0338 40.0102C19.3904 41.2609 20.6772 42.5502 22.0611 42.5502C24.3676 42.6662 25.3873 43.6332 25.1566 45.4383C25.2764 45.9279 25.5584 46.3552 25.9508 46.6418C26.3433 46.9284 26.8199 47.055 27.2932 46.9984C28.4533 46.7531 29.645 46.7269 30.8136 46.921C31.263 47.0175 31.7302 46.9304 32.1217 46.677C32.5133 46.4237 32.8005 46.0227 32.9259 45.5543C33.1255 46.6894 33.3807 47.8127 33.6906 48.9195C33.882 49.2869 34.1698 49.5872 34.5189 49.7841C34.868 49.981 35.2635 50.0658 35.6572 50.0283C37.7452 50.0283 38.9713 47.3723 39.7603 45.9669C40.0738 45.3428 40.3143 44.6803 40.4766 43.9942C41.1442 44.5358 41.7633 45.1546 42.3825 45.6962C42.7054 45.9353 43.0858 46.072 43.4791 46.0903C43.8724 46.1086 44.2626 46.0076 44.604 45.7993C49.8967 41.8282 44.1427 34.3243 39.8817 31.3072Z" fill="#9C5723"/>
</g>
<path d="M22.1208 39.9713C22.4 39.5587 22.4121 39.0687 22.1208 38.8882C21.8295 38.7077 21.4531 38.8882 21.1861 39.3266C20.919 39.765 20.8947 40.242 21.1861 40.4225C21.4774 40.6031 21.8537 40.4097 22.1208 39.9713Z" fill="white"/>
<path d="M27.0489 44.5484C27.3281 44.123 27.3402 43.6459 27.0489 43.4654C26.7575 43.2849 26.3812 43.4654 26.102 43.9038C25.8228 44.3421 25.8228 44.8192 26.102 44.9997C26.3812 45.1802 26.7818 44.9739 27.0489 44.5484Z" fill="white"/>
<path d="M26.6488 42.9626C26.7581 42.782 26.7702 42.5758 26.6488 42.4984C26.5274 42.421 26.3696 42.4984 26.2604 42.6918C26.1511 42.8852 26.139 43.0657 26.2604 43.1431C26.3818 43.2204 26.5274 43.1302 26.6488 42.9626Z" fill="white"/>
<path d="M43.7295 43.8393C43.5717 43.5557 43.2925 43.4139 43.1347 43.517C42.9769 43.6202 42.9647 43.9554 43.1347 44.239C43.3046 44.5227 43.5717 44.6645 43.7416 44.5485C43.9116 44.4324 43.8995 44.0843 43.7295 43.8393Z" fill="white"/>
<path d="M35.2918 47.7074C35.2918 47.0756 35.0611 46.5728 34.7698 46.5728C34.4784 46.5728 34.2235 47.0756 34.2114 47.6945C34.1992 48.3134 34.442 48.8162 34.7455 48.8291C35.049 48.842 35.2918 48.2618 35.2918 47.7074Z" fill="white"/>
<path d="M36.3233 31.0106C36.0198 30.3143 33.1913 30.7269 30.0108 31.9647C26.8303 33.2024 24.5238 34.8141 24.8394 35.4588C25.1551 36.1034 27.2673 33.9631 30.4236 32.7383C33.5798 31.5134 36.6389 31.7197 36.3233 31.0106Z" fill="white"/>
<path d="M91.6918 14.4557C90.2814 12.7346 88.3244 11.6246 86.1933 11.3369C84.0622 11.0492 81.9059 11.604 80.135 12.8956C78.453 13.7305 77.042 15.0766 76.0805 16.7636C74.8109 17.6375 73.7576 18.8226 73.0092 20.219C72.4042 21.5171 72.1836 22.9794 72.3764 24.4133C72.5693 25.8471 73.1666 27.1853 74.0896 28.2515C74.4069 28.6724 74.7605 29.0609 75.1458 29.4119C75.2206 29.6144 75.3057 29.8124 75.4007 30.005C78.302 35.2397 85.5371 35.3171 89.968 32.1969C90.4329 31.8613 90.8713 31.4862 91.279 31.0752C92.4199 30.4085 93.3968 29.4657 94.1308 28.3233C94.8647 27.1809 95.335 25.871 95.5035 24.4996C96.1226 20.9024 93.9133 17.0086 91.6918 14.4557Z" fill="#E39B0E"/>
<path d="M89.8701 14.649C88.6315 13.1639 86.9233 12.2125 85.0688 11.9749C83.2143 11.7373 81.3421 12.23 79.8065 13.3596C78.3557 14.088 77.1426 15.2597 76.3225 16.7248C75.2242 17.4698 74.3087 18.4819 73.6518 19.6774C73.1225 20.8086 72.9295 22.0841 73.0986 23.3345C73.2678 24.585 73.7909 25.7512 74.5987 26.6784C74.8736 27.0416 75.1783 27.3782 75.5092 27.6841C75.5761 27.8609 75.6531 28.0331 75.7398 28.1999C78.2648 32.7512 84.5651 32.8286 88.3891 30.1081C88.7883 29.8125 89.1657 29.4849 89.518 29.1282C90.5174 28.5598 91.3761 27.7484 92.0238 26.7602C92.6715 25.772 93.0899 24.635 93.2448 23.4422C93.7304 20.2705 91.8609 16.8795 89.8701 14.649Z" fill="#FFC554"/>
<g style="mix-blend-mode:screen">
<path d="M83.6437 23.1198C86.3023 19.6386 86.9942 15.5643 85.1854 14.0042C83.3767 12.4441 79.7713 14.0042 77.1127 17.4854C74.4542 20.9666 73.7501 25.0538 75.5589 26.601C77.3677 28.1482 80.9367 26.601 83.6437 23.1198Z" fill="#FFC554"/>
</g>
<g style="mix-blend-mode:multiply">
<path d="M88.8507 11.2066C82.1133 7.62223 74.2834 15.2164 72.1954 20.2319C72.0983 20.464 72.0862 21.1215 72.0133 21.2892C71.5642 22.4753 72.851 23.4423 74.0892 23.2618C76.165 23.1071 77.1847 23.842 77.1604 25.4795C77.3183 25.9036 77.6158 26.2524 77.9976 26.4611C78.3794 26.6698 78.8196 26.7241 79.2363 26.6141C80.2499 26.2604 81.3141 26.0989 82.3804 26.137C82.7926 26.1715 83.2018 26.0391 83.526 25.7665C83.8502 25.4939 84.0654 25.1012 84.1285 24.6672C84.4253 25.6583 84.7738 26.6311 85.1724 27.5811C85.3742 27.8858 85.6546 28.122 85.9797 28.2616C86.3049 28.4011 86.6611 28.4379 87.0055 28.3676C88.875 28.0968 89.6883 25.5955 90.2467 24.2417C90.459 23.6471 90.6056 23.0284 90.6837 22.398C91.3271 22.7977 91.8977 23.2747 92.5653 23.6873C92.8782 23.8621 93.2312 23.9392 93.5836 23.9095C93.936 23.8799 94.2732 23.7447 94.5562 23.5197C98.9142 19.4196 92.9781 13.3855 88.8507 11.2066Z" fill="#9C5723"/>
</g>
<path d="M73.884 21.0698C74.0782 20.6701 74.0539 20.2317 73.8111 20.1028C73.5683 19.9738 73.2163 20.193 73.0221 20.6056C72.8278 21.0182 72.8521 21.4566 73.0949 21.5855C73.3377 21.7144 73.6533 21.4824 73.884 21.0698Z" fill="white"/>
<path d="M78.7752 24.5767C78.9694 24.1641 78.933 23.7257 78.7023 23.5968C78.4717 23.4678 78.1075 23.6999 77.9011 24.0996C77.6948 24.4993 77.7433 24.9506 77.9861 25.0795C78.2289 25.2084 78.5809 24.9892 78.7752 24.5767Z" fill="white"/>
<path d="M78.2405 23.2103C78.3255 23.0427 78.3134 22.8493 78.2405 22.7977C78.1677 22.7462 77.9977 22.7977 77.9128 23.0169C77.8278 23.2361 77.9128 23.365 77.9128 23.4166C77.9128 23.4682 78.1556 23.365 78.2405 23.2103Z" fill="white"/>
<path d="M93.6099 21.9207C93.44 21.6757 93.1851 21.5855 93.0394 21.7015C92.8937 21.8176 92.9423 22.1012 93.1122 22.3333C93.2822 22.5654 93.5492 22.6685 93.6828 22.5525C93.8163 22.4365 93.792 22.1528 93.6099 21.9207Z" fill="white"/>
<path d="M86.472 26.3561C86.472 25.7888 86.1442 25.3762 85.8771 25.402C85.6101 25.4278 85.4523 25.9178 85.513 26.4722C85.5737 27.0266 85.8286 27.4521 86.0956 27.4263C86.3627 27.4005 86.5327 26.9105 86.472 26.3561Z" fill="white"/>
<path d="M85.646 11.3612C85.2818 10.7681 82.8054 11.4772 80.0983 12.9599C77.3912 14.4427 75.4732 16.1188 75.8373 16.7635C76.2015 17.4081 77.8403 15.1389 80.5474 13.6562C83.2545 12.1734 85.998 11.9543 85.646 11.3612Z" fill="white"/>
<path d="M81.5788 26.4592C80.0115 24.5375 77.8312 23.2983 75.4563 22.9794C73.0814 22.6606 70.6793 23.2845 68.7111 24.7315C66.8616 25.6674 65.3122 27.1606 64.2559 29.025C62.8437 30.0057 61.6738 31.3322 60.8448 32.893C59.3152 36.0132 60.0678 39.1849 62.0587 41.841C62.4244 42.3102 62.8308 42.7419 63.2726 43.1303C63.3697 43.3495 63.4426 43.5687 63.564 43.7879C66.7931 49.6156 74.8536 49.7059 79.7337 46.2247C80.25 45.841 80.7334 45.4095 81.1782 44.9354C82.4564 44.2112 83.5551 43.176 84.3843 41.9143C85.2135 40.6527 85.7497 39.2004 85.949 37.6764C86.5196 33.6408 84.0553 29.2958 81.5788 26.4592Z" fill="#E39B0E"/>
<path d="M79.5532 26.6785C78.1838 25.0128 76.2864 23.9391 74.221 23.661C72.1556 23.383 70.0659 23.9199 68.3485 25.17C66.7349 25.9823 65.3834 27.2831 64.4639 28.909C63.2449 29.752 62.2334 30.8926 61.5141 32.2355C60.9327 33.4862 60.7213 34.8945 60.9076 36.2753C61.094 37.656 61.6693 38.9446 62.5581 39.9715C62.8622 40.3761 63.1994 40.7515 63.5656 41.0932C63.6627 41.2866 63.7234 41.4929 63.8206 41.6734C66.6369 46.7534 73.6656 46.8307 77.9144 43.8008C78.3466 43.4714 78.7526 43.1049 79.1283 42.7049C80.2463 42.0912 81.2125 41.2064 81.9486 40.1222C82.6846 39.0381 83.1699 37.785 83.365 36.4645C83.8506 32.9317 81.714 29.154 79.5532 26.6785Z" fill="#FFC554"/>
<g style="mix-blend-mode:screen">
<path d="M72.6215 36.1034C75.5836 32.2354 76.3605 27.6969 74.3453 25.9564C72.3302 24.2158 68.2756 25.9564 65.35 29.8243C62.4245 33.6923 61.6111 38.2566 63.6141 39.9714C65.6171 41.6862 69.6595 39.9714 72.6215 36.1034Z" fill="#FFC554"/>
</g>
<g style="mix-blend-mode:multiply">
<path d="M78.4229 22.8363C70.9086 18.8522 62.2532 27.2974 59.8739 32.9446C59.7646 33.2025 59.7525 33.9374 59.6796 34.1308C59.1698 35.4202 60.6022 36.5161 61.9861 36.3227C64.2926 36.1422 65.4337 36.9674 65.4094 38.7853C65.5772 39.2639 65.9052 39.6601 66.3308 39.898C66.7563 40.1358 67.2494 40.1987 67.7159 40.0746C68.8445 39.6677 70.0329 39.4799 71.2242 39.5202C71.6848 39.5618 72.143 39.4157 72.506 39.1116C72.8689 38.8075 73.1094 38.3682 73.1786 37.8828C73.5028 38.9889 73.8879 40.0738 74.3319 41.1319C74.5656 41.472 74.8875 41.7324 75.2583 41.8813C75.6292 42.0301 76.0328 42.0609 76.4198 41.97C78.5078 41.6863 79.4061 38.9013 80.0617 37.3799C80.3085 36.7225 80.4718 36.0331 80.5472 35.3299C81.2756 35.7812 81.9676 36.2969 82.6474 36.7611C82.9951 36.9599 83.3893 37.0486 83.783 37.0166C84.1768 36.9846 84.5537 36.8333 84.8689 36.5806C89.6397 31.9905 83.0237 25.2602 78.4229 22.8363Z" fill="#9C5723"/>
</g>
<path d="M61.7562 33.8341C61.9747 33.37 61.9383 32.88 61.6712 32.7382C61.4041 32.5964 61.0035 32.8542 60.785 33.3055C60.5665 33.7568 60.6029 34.2596 60.87 34.4014C61.1371 34.5433 61.5134 34.2854 61.7562 33.8341Z" fill="white"/>
<path d="M67.2073 37.7281C67.4259 37.264 67.3773 36.7869 67.1102 36.6322C66.8432 36.4775 66.4547 36.7482 66.2362 37.1995C66.0177 37.6508 66.0541 38.1536 66.3212 38.2954C66.5882 38.4372 66.9888 38.1794 67.2073 37.7281Z" fill="white"/>
<path d="M66.6115 36.1937C66.6965 36.0003 66.6843 35.794 66.6115 35.7424C66.5387 35.6908 66.3323 35.7424 66.2473 35.9745C66.1623 36.2066 66.1623 36.3613 66.2473 36.4257C66.3323 36.4902 66.5144 36.3871 66.6115 36.1937Z" fill="white"/>
<path d="M83.7288 34.814C83.5346 34.5561 83.2432 34.4529 83.0976 34.5819C82.9519 34.7108 82.9762 35.0331 83.1704 35.291C83.3646 35.5489 83.656 35.652 83.8138 35.5231C83.9716 35.3942 83.923 35.0331 83.7288 34.814Z" fill="white"/>
<path d="M75.7771 39.7138C75.7771 39.082 75.4129 38.6179 75.1215 38.6565C74.8302 38.6952 74.636 39.2239 74.6967 39.8427C74.7574 40.4616 75.0608 40.9387 75.3643 40.9C75.6678 40.8613 75.8499 40.3327 75.7771 39.7138Z" fill="white"/>
<path d="M74.8669 23.0037C74.4663 22.3461 71.6985 23.1455 68.6879 24.783C65.6774 26.4204 63.5287 28.3673 63.9414 28.9604C64.3542 29.5535 66.1751 27.1553 69.1857 25.505C72.1962 23.8547 75.2432 23.6741 74.8669 23.0037Z" fill="white"/>
<path d="M69.842 40.3713C68.1816 38.3525 65.8814 37.051 63.3776 36.7136C60.8739 36.3761 58.3406 37.0262 56.258 38.5405C54.3035 39.5259 52.6684 41.1054 51.5601 43.0789C50.0574 44.1089 48.8086 45.5059 47.9182 47.1532C46.3158 50.441 47.117 53.7933 49.1322 56.5911C49.5018 57.0565 49.9079 57.4879 50.3461 57.8804C50.439 58.1186 50.5444 58.351 50.6617 58.5767C54.0729 64.7268 62.5826 64.8299 67.7297 61.1553C68.2741 60.7739 68.7859 60.3425 69.2593 59.866C70.6163 59.0931 71.7809 57.9885 72.6568 56.6434C73.5328 55.2984 74.095 53.7513 74.2971 52.13C75.0498 47.9526 72.4398 43.3755 69.842 40.3713Z" fill="#E39B0E"/>
<path d="M67.7047 40.6033C66.2595 38.8419 64.2554 37.7059 62.0733 37.4111C59.8912 37.1164 57.6831 37.6834 55.8688 39.0045C54.1832 39.8752 52.7708 41.2454 51.8021 42.9498C50.5069 43.859 49.4301 45.0777 48.658 46.5084C48.0392 47.8378 47.8136 49.335 48.0107 50.8031C48.2079 52.2712 48.8186 53.6417 49.7627 54.7343C50.0915 55.1566 50.4529 55.5491 50.8431 55.9076C50.922 56.1187 51.0112 56.3252 51.1102 56.5265C54.0358 61.8901 61.5136 61.9675 65.9445 58.77C66.4148 58.4217 66.861 58.0382 67.2799 57.6224C68.4533 56.9504 69.4615 55.9945 70.2228 54.832C70.9841 53.6695 71.4772 52.3331 71.6622 50.9308C72.2327 47.2046 70.0112 43.2206 67.7047 40.6033Z" fill="#FFC554"/>
<g style="mix-blend-mode:screen">
<path d="M60.3716 50.5567C63.5035 46.4695 64.3169 41.6732 62.2046 39.8424C60.0924 38.0115 55.8314 39.8424 52.6995 43.9424C49.5675 48.0425 48.7542 52.8259 50.8786 54.6568C53.003 56.4876 57.2517 54.6439 60.3716 50.5567Z" fill="#FFC554"/>
</g>
<g style="mix-blend-mode:multiply">
<path d="M66.5155 36.5419C58.5763 32.3387 49.4353 41.2608 46.9468 47.2176C46.8375 47.4883 46.8254 48.2619 46.7404 48.5069C46.2063 49.9123 47.7237 51.0856 49.1683 50.8277C51.5962 50.6472 52.8101 51.511 52.8101 53.4064C53.0017 53.895 53.3524 54.2942 53.7981 54.5309C54.2439 54.7676 54.755 54.8261 55.238 54.6957C56.4122 54.2857 57.6442 54.0938 58.8798 54.1284C59.3656 54.1704 59.8484 54.0156 60.2312 53.6951C60.614 53.3746 60.8685 52.9122 60.9435 52.4007C61.2911 53.57 61.6963 54.719 62.1574 55.8432C62.4031 56.2012 62.7421 56.4749 63.1325 56.6307C63.523 56.7865 63.9478 56.8175 64.3547 56.7199C66.5519 56.4105 67.5109 53.4708 68.1664 51.8721C68.4214 51.1756 68.5927 50.4479 68.6763 49.706C69.4411 50.183 70.1816 50.7374 70.8857 51.2145C71.2544 51.4253 71.6724 51.5192 72.0899 51.4849C72.5074 51.4506 72.9069 51.2896 73.2407 51.0211C78.3392 46.199 71.3591 39.1077 66.5155 36.5419Z" fill="#9C5723"/>
</g>
<path d="M48.9133 48.1456C49.144 47.6686 49.1075 47.1528 48.8162 46.9981C48.5249 46.8434 48.1242 47.1142 47.8936 47.6041C47.663 48.094 47.6994 48.5969 47.9786 48.7516C48.2578 48.9063 48.6827 48.6356 48.9133 48.1456Z" fill="white"/>
<path d="M54.6667 52.259C54.8973 51.7819 54.8487 51.2662 54.5695 51.1115C54.2903 50.9568 53.8655 51.2275 53.6348 51.7046C53.4042 52.1816 53.4527 52.7103 53.7319 52.865C54.0111 53.0197 54.436 52.7489 54.6667 52.259Z" fill="white"/>
<path d="M54.0349 50.647C54.1321 50.4407 54.1078 50.2215 54.0349 50.157C53.9621 50.0926 53.7436 50.157 53.6465 50.4149C53.5494 50.6728 53.5615 50.8275 53.6465 50.892C53.7315 50.9564 53.9378 50.8404 54.0349 50.647Z" fill="white"/>
<path d="M72.0988 49.1384C71.8925 48.8548 71.6011 48.7516 71.4312 48.8806C71.2612 49.0095 71.3098 49.3576 71.5161 49.6284C71.7225 49.8991 72.026 50.0281 72.1838 49.8862C72.3416 49.7444 72.3173 49.4092 72.0988 49.1384Z" fill="white"/>
<path d="M63.7104 54.3477C63.6376 53.7031 63.3341 53.2002 63.0185 53.2389C62.7029 53.2776 62.4965 53.832 62.5693 54.5282C62.6422 55.2245 62.9578 55.6886 63.2734 55.65C63.5891 55.6113 63.7833 55.0053 63.7104 54.3477Z" fill="white"/>
<path d="M62.7268 36.7224C62.302 36.0262 59.3885 36.8643 56.1958 38.6049C53.0032 40.3455 50.7695 42.3181 51.1944 43.0144C51.6193 43.7106 53.5495 41.1062 56.73 39.3656C59.9105 37.625 63.1517 37.3929 62.7268 36.7224Z" fill="white"/>
</g>
<defs>
<clipPath id="clip0_1203_16192">
<rect width="110.25" height="84" fill="white" transform="translate(0.816406 0.00244141)"/>
</clipPath>
</defs>
</svg>
