<svg width="83" height="85" viewBox="0 0 83 85" fill="none" xmlns="http://www.w3.org/2000/svg">
<g clip-path="url(#clip0_1203_16936)">
<g style="mix-blend-mode:multiply">
<path d="M82.9837 70.0291C83.513 60.559 65.3682 51.9124 42.4596 50.5784C19.5511 49.2444 0.546115 55.9969 0.000280151 65.4011C-0.545555 74.8053 17.5993 83.5178 40.5244 84.8518C63.4495 86.1858 82.4545 79.4827 82.9837 70.0291Z" fill="#B8B5AA"/>
</g>
<path d="M37.4972 0C17.0863 0 0.529297 6.34083 0.529297 14.1639V61.5966C0.529297 72.8783 17.0698 82.019 37.4972 82.019C57.9247 82.019 74.432 72.8783 74.432 61.5966V14.1639C74.432 6.34083 57.8916 0 37.4972 0Z" fill="#030800"/>
<path d="M72.8608 14.1642C72.8608 7.13161 57.0316 1.43311 37.4973 1.43311C17.963 1.43311 2.13379 7.13161 2.13379 14.1642C2.13379 21.1967 17.9795 26.8952 37.4973 26.8952C57.015 26.8952 72.8608 21.1967 72.8608 14.1642Z" fill="#FCFBE6"/>
<path d="M24.5958 55.1736C31.9563 54.3996 27.7054 49.9528 26.4814 47.9105C21.0231 44.9789 21.999 43.6449 24.05 41.4709C24.8109 37.4029 26.2333 37.3534 23.3388 37.0076C21.0562 34.8336 20.0307 36.9088 22.4786 34.4877C22.4786 34.3395 24.8936 35.0312 19.0217 33.3678C18.3105 33.2854 18.3435 33.0878 19.981 31.622C21.817 29.7609 20.99 31.0291 16.6729 30.288C19.766 29.2504 8.71699 26.6976 7.19527 25.8247C2.64665 23.1895 1.24071 23.9307 2.69627 49.2281C2.87322 53.3132 3.3041 57.3835 3.98642 61.4156C4.31932 63.7009 4.99976 65.9223 6.00436 68.0035C7.22835 68.6294 12.6205 73.3232 14.2746 73.6361C20.3449 78.4453 19.551 75.4643 23.6199 75.6619C23.041 78.4288 28.1189 76.1889 33.7427 76.1725C34.0239 75.1184 25.1582 71.8574 24.2816 71.1163C23.4049 70.3751 30.5173 72.1703 35.8599 70.5893C31.3915 68.1572 27.1415 65.347 23.1568 62.1897C29.4422 59.2911 27.3746 57.3641 24.5958 55.1736Z" fill="#1B2118"/>
<path d="M25.688 10.458C30.1705 8.54753 31.014 3.77132 43.3863 7.59229C55.7586 11.4133 54.5842 11.4133 47.968 16.6506C41.3518 21.888 44.7757 19.0552 33.5613 18.5611C11.9429 17.6059 25.688 10.458 25.688 10.458Z" fill="#E61300"/>
<path d="M42.8401 17.4577C42.2817 17.4209 41.728 17.3327 41.186 17.1941C38.6964 16.6405 36.1601 16.3206 33.6105 16.2389C22.7434 15.7613 22.3134 13.719 22.3134 13.6861C22.2307 13.1097 23.9674 11.4627 26.035 10.3922C27.0959 9.90766 28.0953 9.29952 29.0123 8.5805C30.8183 6.99215 33.1529 6.12921 35.5623 6.15946C38.1481 6.25403 40.706 6.72569 43.1544 7.55938C46.6609 8.64638 50.978 9.96396 51.8546 10.8533C50.896 11.8884 49.8317 12.8212 48.6789 13.6367L47.488 14.559C44.6595 16.7989 43.7664 17.4577 42.8401 17.4577Z" fill="#F4493A"/>
<g style="mix-blend-mode:color-dodge" opacity="0.3">
<g style="mix-blend-mode:color-dodge">
<path d="M30.8972 15.5311C33.8403 12.1636 37.2883 9.26926 41.1192 6.95038C39.8471 6.62539 38.5538 6.38875 37.2487 6.24219C33.4483 9.01167 30.2192 12.4842 27.738 16.4699C27.4237 16.9475 27.1425 17.4416 26.8613 17.9357L28.7304 18.2156C29.4251 17.2604 30.1529 16.371 30.8972 15.5311Z" fill="white"/>
</g>
<g style="mix-blend-mode:color-dodge">
<path d="M26.4647 12.5501C27.8397 10.8146 29.3201 9.16456 30.8975 7.60917L31.7742 6.85156C30.0595 7.70429 28.431 8.71909 26.9113 9.88198C26.4316 10.4584 25.9519 11.0349 25.5054 11.6278C24.3231 13.1581 23.2191 14.7467 22.1973 16.3875C22.5365 16.6316 22.9028 16.8361 23.2889 16.9969C24.331 15.4158 25.373 13.95 26.4647 12.5501Z" fill="white"/>
</g>
<g style="mix-blend-mode:color-dodge">
<path d="M47.9677 16.651C49.7045 15.2676 51.0443 14.2629 51.8878 13.4395C47.7966 14.5999 44.0165 16.6534 40.8223 19.4509C43.6507 20.0438 43.6176 20.1426 47.9677 16.651Z" fill="white"/>
</g>
<g style="mix-blend-mode:color-dodge">
<path d="M47.4713 8.87744C42.4186 11.057 37.949 14.385 34.4209 18.5946L35.9592 18.7098C39.8764 14.7393 44.6186 11.6701 49.8531 9.7174L47.4713 8.87744Z" fill="white"/>
</g>
</g>
<g style="mix-blend-mode:multiply">
<g style="mix-blend-mode:multiply">
<path d="M43.1374 24.8694C43.1374 24.54 42.7901 24.1942 42.2442 24.0953C41.6984 23.9965 41.1856 24.1942 41.136 24.5236C41.0864 24.853 41.4834 25.1988 42.0292 25.2976C42.575 25.3965 43.0051 25.1988 43.1374 24.8694Z" fill="#E3E1BA"/>
</g>
<g style="mix-blend-mode:multiply">
<path d="M46.313 4.94113C46.313 4.61174 45.9657 4.26587 45.4199 4.16706C44.874 4.06824 44.3778 4.16706 44.3117 4.59527C44.2455 5.02348 44.659 5.27052 45.2048 5.36934C45.7507 5.46816 46.313 5.28699 46.313 4.94113Z" fill="#E3E1BA"/>
</g>
<g style="mix-blend-mode:multiply">
<path d="M31.7742 24.2601C31.7742 23.9142 31.4103 23.5354 30.8149 23.4366C30.2194 23.3378 29.7067 23.5354 29.6405 23.8813C29.5743 24.2271 30.0044 24.6059 30.5999 24.7047C31.1953 24.8036 31.7081 24.6059 31.7742 24.2601Z" fill="#E3E1BA"/>
</g>
<g style="mix-blend-mode:multiply">
<path d="M30.699 4.29864C30.699 3.95278 30.3351 3.59045 29.7397 3.47516C29.1442 3.35987 28.6315 3.57398 28.5653 3.93631C28.4991 4.29864 28.9292 4.64451 29.5247 4.75979C30.1201 4.87508 30.6329 4.66098 30.699 4.29864Z" fill="#E3E1BA"/>
</g>
<g style="mix-blend-mode:multiply">
<path d="M65.8307 9.7173C65.8307 9.45378 65.5661 9.1738 65.136 9.10792C64.706 9.04204 64.309 9.10792 64.2759 9.43731C64.2429 9.7667 64.5406 9.96434 64.9706 10.0467C65.4007 10.129 65.7977 9.96434 65.8307 9.7173Z" fill="#E3E1BA"/>
</g>
<g style="mix-blend-mode:multiply">
<path d="M55.6757 7.95503C55.7584 7.51035 55.1961 7.01626 54.4352 6.8845C53.6744 6.75275 52.9797 7.01626 52.8969 7.47741C52.8142 7.93856 53.3601 8.41618 54.1375 8.54794C54.9149 8.6797 55.593 8.41618 55.6757 7.95503Z" fill="#E3E1BA"/>
</g>
<g style="mix-blend-mode:multiply">
<path d="M18.575 20.0108C18.575 19.5496 18.1118 19.072 17.3344 18.9403C16.557 18.8085 15.8789 19.072 15.7962 19.5167C15.7135 19.9614 16.2758 20.4719 17.0532 20.6037C17.8306 20.7354 18.5088 20.4719 18.575 20.0108Z" fill="#E3E1BA"/>
</g>
<g style="mix-blend-mode:multiply">
<path d="M21.3874 8.82768C21.4701 8.36653 20.9077 7.88891 20.1303 7.75715C19.3529 7.62539 18.6748 7.88891 18.5921 8.33359C18.5094 8.77827 19.0717 9.28883 19.8491 9.42059C20.6265 9.55234 21.3047 9.28883 21.3874 8.82768Z" fill="#E3E1BA"/>
</g>
<g style="mix-blend-mode:multiply">
<path d="M53.7733 20.7521C53.856 20.2086 53.2109 19.6486 52.3012 19.4839C51.3915 19.3192 50.6472 19.6321 50.4983 20.1756C50.3494 20.7191 51.0607 21.2791 51.9539 21.4273C52.847 21.5755 53.6741 21.2791 53.7733 20.7521Z" fill="#E3E1BA"/>
</g>
<g style="mix-blend-mode:multiply">
<path d="M62.6063 14.9053C62.6063 14.4606 62.1431 13.983 61.3823 13.8348C60.6214 13.6866 59.9267 13.9665 59.844 14.4277C59.7613 14.8889 60.3237 15.35 61.0845 15.4818C61.8454 15.6135 62.5236 15.3665 62.6063 14.9053Z" fill="#E3E1BA"/>
</g>
<g style="mix-blend-mode:multiply">
<path d="M11.1976 10.376C11.1976 10.1125 10.9329 9.83249 10.4864 9.76661C10.0398 9.70073 9.67587 9.76661 9.62625 10.096C9.57663 10.4254 9.8909 10.623 10.3209 10.7054C10.751 10.7877 11.148 10.623 11.1976 10.376Z" fill="#E3E1BA"/>
</g>
<g style="mix-blend-mode:multiply">
<path d="M7.95615 15.564C8.03885 15.1193 7.49301 14.6417 6.73215 14.5099C5.97129 14.3781 5.29313 14.6252 5.21043 15.0863C5.12773 15.5475 5.67356 16.0086 6.43442 16.1404C7.19529 16.2722 7.88998 16.0251 7.95615 15.564Z" fill="#E3E1BA"/>
</g>
</g>
<g style="mix-blend-mode:color-dodge" opacity="0.3">
<path d="M6.81471 64.5939C4.54867 64.808 4.11862 48.8818 3.42392 41.7834C2.72922 34.685 1.65409 25.7749 3.90359 25.5608C6.15309 25.3467 3.19235 34.5697 4.79678 42.0305C7.34401 54.0369 9.08075 64.3633 6.81471 64.5939Z" fill="#A5A5A5"/>
</g>
</g>
<defs>
<clipPath id="clip0_1203_16936">
<rect width="83" height="85" fill="white"/>
</clipPath>
</defs>
</svg>
