<svg width="103" height="84" viewBox="0 0 103 84" fill="none" xmlns="http://www.w3.org/2000/svg">
<g clip-path="url(#clip0_32400_1801)">
<path d="M97.9087 37.0072C102.388 58.5572 84.9527 83.9976 48.9899 83.9976C19.1758 84.2465 -3.47669 61.4353 0.44144 37.1376C3.34844 14.6986 22.43 3.62485 49.1128 3.8074C75.6799 3.98757 93.5509 15.085 97.914 36.9977" fill="#E6E6E6"/>
<path d="M98.1474 37.0072C102.619 58.5572 83.1121 83.1631 49.1414 83.1631C20.6286 83.3267 -3.24337 61.4353 0.674757 37.1376C3.57998 14.6986 22.6615 3.62485 49.3461 3.8074C75.9132 3.98757 93.7842 15.085 98.1474 36.9977" fill="#F7F8F8"/>
<path d="M98.7986 39.4041C99.8186 64.5529 76.7389 82.5326 49.4508 82.3856C22.1627 82.2386 -0.423923 64.0551 0.0442593 39.0153C0.467937 16.3914 22.1182 0.0451423 49.2692 9.82665e-05C77.645 -0.0473165 97.8925 17.0694 98.7986 39.4041Z" fill="#EFEFEF"/>
<path d="M89.8088 39.7478C91.0051 60.6222 71.8666 73.116 49.3618 73.0804C25.7604 73.0804 8.5196 58.306 9.26549 39.7787C9.95619 22.6193 28.0355 9.34549 49.7125 9.48299C71.3129 9.62524 88.7692 22.5695 89.8088 39.7431" fill="#FBFBFB"/>
<path d="M50.7154 10.8507C71.319 11.3605 87.4419 23.9183 87.846 40.274C88.3711 60.155 69.699 71.7811 48.2855 71.4184C25.8252 71.122 9.87678 56.8051 11.1514 39.1597C12.3708 22.8206 30.0424 10.4098 50.7154 10.8507Z" fill="#F9F9F9"/>
<path d="M51.7169 12.2162C71.3218 13.091 86.1131 25.2553 85.8835 40.8026C85.7357 59.6902 67.53 70.4487 47.2059 69.754C25.8885 69.1424 11.1898 55.2925 13.0269 38.5433C14.7376 23.0149 32.0426 11.4765 51.7097 12.2281" fill="#F8F8F8"/>
<path d="M52.7175 13.5818C71.3255 14.8217 84.7853 26.6208 83.9201 41.3194C83.103 59.2138 65.3602 69.1045 46.1291 68.0827C25.9528 67.1723 12.525 53.7824 14.9194 37.9316C17.1392 23.2094 34.0561 12.541 52.7175 13.5818Z" fill="#F6F6F6"/>
<path d="M53.7203 14.9473C71.3314 16.5523 83.4596 27.9556 81.959 41.8576C80.4636 58.7562 63.1961 67.7816 45.0527 66.4303C26.0175 65.1951 13.8643 52.2699 16.8034 37.3081C19.5377 23.4014 36.0647 13.6007 53.7203 14.9473Z" fill="#F5F5F5"/>
<path d="M54.7217 16.313C71.336 18.2855 82.1362 29.3023 80 42.3912C77.8353 58.2893 61.0235 66.447 43.9696 64.7686C26.0807 63.2371 15.2022 50.7527 18.6913 36.6919C21.9383 23.5888 38.0737 14.6725 54.7253 16.3035" fill="#F3F3F3"/>
<path d="M55.7189 17.6784C71.3345 20.016 80.7978 30.6464 78.0279 42.9102C75.201 57.8221 58.8555 65.1145 42.9018 63.1041C26.1505 61.2668 16.5554 49.233 20.5768 36.0777C24.3365 23.776 40.0766 15.7368 55.7189 17.6784Z" fill="#F2F2F2"/>
<path d="M56.7245 19.0439C71.3432 21.7466 79.4768 31.9929 76.0695 43.4388C72.568 57.3551 56.6854 63.7798 41.8193 61.4422C26.2108 59.3086 17.8904 47.7133 22.4565 35.4566C26.7395 23.9585 42.0845 16.8036 56.7245 19.0439Z" fill="#F0F0F0"/>
<path d="M57.7267 20.4095C71.3485 23.4702 78.1487 33.3396 74.1077 43.9652C69.9333 56.8881 54.526 62.457 40.7404 59.7804C26.2749 57.3291 19.2397 46.189 24.3416 34.8497C29.148 24.1529 44.0907 17.88 57.7267 20.4214" fill="#EEEFEF"/>
<path d="M58.7289 21.7729C71.352 25.2081 76.8207 34.6839 72.1442 44.4917C67.2986 56.4212 52.3488 61.1153 39.6634 58.1187C26.3389 55.3615 20.5944 44.6671 26.225 34.2217C31.5655 24.3238 46.0987 18.9328 58.7289 21.7729Z" fill="#EDEDED"/>
<path d="M59.7311 23.1382C71.3556 26.9314 75.4944 36.0303 70.1825 45.0201C64.664 55.954 50.1806 59.7804 38.5864 56.4542C26.403 53.3912 21.9544 43.1449 28.1102 33.6027C33.9847 24.5062 48.1049 19.9994 59.7311 23.1382Z" fill="#EBEBEC"/>
<path d="M60.7318 24.5039C71.3612 28.6716 74.1667 37.3746 68.2192 45.5465C62.0313 55.487 48.0108 58.4481 37.5079 54.7924C26.4709 51.4236 23.32 41.6277 29.9938 32.9816C36.4024 24.684 50.1096 21.0592 60.7318 24.4991" fill="#E9EAEA"/>
<path d="M61.7338 25.8697C71.3644 30.4026 72.8402 38.7215 66.2572 46.0755C59.3982 55.0203 45.8423 57.1137 36.4306 53.1308C26.5311 49.4538 24.6816 40.1155 31.8787 32.3703C38.8214 24.8858 52.1191 22.1287 61.7338 25.8697Z" fill="#E8E8E8"/>
<path d="M62.7362 27.2349C71.37 32.1329 71.5124 40.0677 64.2939 46.6015C56.7638 54.5529 43.6743 55.781 35.3538 51.4686C26.5954 47.4858 26.0596 38.6097 33.7623 31.7512C41.2533 25.0823 54.1256 23.1952 62.7362 27.2349Z" fill="#E6E7E7"/>
<path d="M63.739 28.6006C71.3741 33.8637 70.185 41.4026 62.3309 47.1279C54.1315 54.0884 41.5031 54.4464 34.2756 49.8045C26.6601 45.5158 27.4327 37.1116 35.6481 31.1349C43.682 25.2887 56.1342 24.2598 63.739 28.6006Z" fill="#E4E5E5"/>
<path d="M64.7393 29.966C71.3793 35.5965 68.8568 42.7679 60.369 47.6564C51.4967 53.6212 39.3364 53.1091 33.1984 48.1306C26.724 43.5361 28.805 35.6059 37.5314 30.5041C46.1117 25.4876 58.1403 25.3146 64.7393 29.9541" fill="#E3E3E4"/>
<path d="M65.7417 31.3293C71.383 37.3272 67.5307 44.1052 58.4056 48.1828C48.864 53.1614 37.1683 51.7816 32.1198 46.4806C26.7793 41.578 30.1759 34.1338 39.4185 29.8997C48.5418 25.7177 60.1502 26.391 65.7434 31.3221" fill="#E1E2E2"/>
<path d="M66.744 32.6947C71.3884 39.0578 66.2099 45.4493 56.444 48.7114C46.2294 52.6872 35.0002 50.4468 31.0429 44.8187C26.8524 39.6031 31.5449 32.6521 41.3002 29.2809C50.9664 25.9429 62.1547 27.4554 66.744 32.6947Z" fill="#DFE0E0"/>
<path d="M67.7459 34.0606C71.3917 40.7887 64.8745 46.7962 54.4802 49.2333C43.5945 52.2157 32.8317 49.11 29.9656 43.15C26.9162 37.638 32.91 31.1706 43.1851 28.66C53.389 26.166 64.1607 28.5178 67.7513 34.0558" fill="#DEDEDF"/>
<path d="M68.7483 35.4259C71.3954 42.5191 63.552 48.1401 52.515 49.7641C40.9618 51.7531 30.6618 47.7798 28.887 41.4878C26.9804 35.6677 34.2737 29.6982 45.0686 28.041C55.8101 26.3957 66.1689 29.582 68.7447 35.4211" fill="#DCDDDD"/>
<path d="M69.7487 36.7914C71.4007 44.2498 62.2204 49.4867 50.555 50.2928C38.3271 51.2861 28.4935 46.4475 27.8099 39.8284C27.0462 33.7024 35.6337 28.2283 46.9538 27.427C58.2275 26.6305 68.175 30.6512 69.7487 36.7891" fill="#DADBDB"/>
<path d="M70.7505 38.1686C71.4056 45.9921 60.892 50.845 48.5929 50.8308C35.6939 50.8308 26.3249 45.1244 26.7325 38.1805C27.1099 31.7463 36.9898 26.7701 48.8385 26.8247C60.6428 26.8768 70.1827 31.7297 70.7505 38.1686Z" fill="#D9D9DA"/>
<path d="M63.6211 58.7681C65.0559 59.5386 83.4076 64.5029 85.145 64.2801C86.2309 64.2801 84.7712 62.8932 83.4681 62.4191C81.3177 62.5471 65.7893 57.9597 64.3652 57.1157C64.1516 57.5093 63.7083 58.3011 63.6211 58.7752" fill="#E0E1E1"/>
<path d="M72.192 46.7034C75.1061 47.82 88.7955 51.3714 89.901 50.9707C90.257 51.4449 93.0501 52.4121 92.7226 53.0759C89.901 53.2277 71.6953 48.517 71.6953 48.517C71.9653 47.97 72.1354 47.3465 72.192 46.6963" fill="#E0E1E1"/>
<path d="M72.1607 34.658C73.7522 36.0022 90.4091 40.2126 91.6517 40.2885C92.216 40.7389 93.8537 40.9665 93.9659 41.6422C90.2952 41.4928 74.8808 37.8063 71.6641 36.3104C72.0023 35.3265 71.6445 35.4166 72.1607 34.6509" fill="#E0E1E1"/>
<path d="M46.6402 25.6039C40.6108 25.6039 34.6348 24.5798 29.3549 29.5014C27.0549 31.6351 17.9797 34.7763 17.3797 38.7473C16.7567 42.8842 22.042 44.0696 24.4612 46.5707C27.1154 49.3066 28.0393 53.0144 30.455 56.6203C32.5912 59.8066 35.4911 59.6572 38.0332 61.9142C40.269 63.9008 43.4662 67.1748 46.8521 67.3669C51.76 67.6561 53.5383 64.5884 55.1138 65.0506C57.5045 65.7619 58.9304 65.494 60.3314 64.8136C63.5909 63.1991 64.9189 62.5874 66.8521 60.2214C67.9202 58.9057 67.8312 56.8503 68.3973 55.1481C69.0756 53.1092 70.3395 52.0519 71.7316 50.921C73.4245 49.546 73.8321 48.6949 74.4694 46.2578C74.9786 44.3067 75.3809 42.1635 76.8299 41.0801C78.6795 39.7003 80.166 38.4723 79.8829 35.1793C79.6693 32.6877 77.2963 32.4127 75.6675 31.967C74.1419 31.5474 72.5789 31.4928 71.0248 31.5047C69.6452 31.5047 68.5326 31.8271 67.372 30.829C65.031 28.8163 62.5887 26.8249 59.8045 26.161C55.5125 25.1298 50.9945 25.6039 46.6402 25.6039Z" fill="#CFA166"/>
<path d="M46.6403 25.6042C40.6109 25.6042 34.6349 24.58 29.3549 29.5016C27.055 31.6353 17.9797 34.7765 17.3798 38.7475C17.0807 40.7366 18.2396 42.0073 19.3682 42.9603C20.5342 43.9442 21.7198 45.3998 23.1261 45.6938C24.1569 45.9119 25.1128 45.4686 26.0776 46.0684C27.2454 46.7938 28.0483 48.3158 29.3496 49.0128C30.528 49.6434 31.4858 49.5676 32.8191 49.8355C33.7804 50.0299 35.5712 49.8734 36.3047 50.7079C36.9188 51.4191 36.7746 52.6448 37.2855 53.3679C37.8641 54.1881 39.0479 54.2213 39.8561 54.2972C41.9923 54.4987 44.1463 54.4608 46.2504 55.0084C48.2353 55.5229 49.0898 57.557 50.9536 58.2753C52.424 58.8395 53.8535 58.0216 55.3239 58.7115C56.7569 59.3801 57.3123 60.7835 58.4659 61.9547C60.3564 63.8726 62.9358 63.2847 64.8477 61.7627C65.5028 61.2435 66.5602 60.5773 67.0889 59.8661C68.2674 58.2421 67.6141 55.8903 67.7031 53.9131C67.8135 51.3907 68.91 50.12 70.6368 49.321C72.052 48.6762 72.919 48.4936 73.5438 46.4524C74.1918 44.3425 73.9693 41.9622 74.5176 39.8357C74.9804 38.0316 76.1482 35.9453 75.8224 33.942C75.34 30.9644 72.7837 31.4954 71.0249 31.5073C69.6453 31.5073 68.5327 31.8297 67.372 30.8316C65.0311 28.8189 62.5887 26.8275 59.8045 26.1636C55.5126 25.13 50.9945 25.6042 46.6403 25.6042Z" fill="#BB8D54"/>
<path d="M29.2054 49.8449C28.8355 49.1622 28.4183 48.5273 27.9593 47.9483C27.6638 47.5761 24.6357 45.9024 24.7461 46.5496C25.022 48.1546 26.8485 49.9042 27.573 51.329C28.4916 53.1355 29.3532 54.9823 30.448 56.6157C32.5841 59.802 35.484 59.6527 38.0261 61.9096C40.262 63.8963 43.4591 67.1703 46.845 67.3623C51.7529 67.6515 53.5313 64.5838 55.1067 65.0461C57.2162 65.6672 60.5647 65.2286 62.3217 63.3747C60.7908 64.2898 58.6955 63.5739 57.0649 63.6355C55.4343 63.6971 53.5776 63.6971 52.0271 64.2519C50.635 64.7498 49.4707 65.9659 47.9629 65.8735C46.3715 65.7763 45.4796 64.3847 44.2371 63.3202C42.9518 62.2202 41.3105 62.1799 40.0377 61.0324C38.7008 59.8305 37.9834 57.7395 36.2869 57.4763C34.9055 57.2582 33.7591 58.0738 32.5646 56.9192C31.525 55.9116 30.9624 54.0364 30.4177 52.5523C30.07 51.6034 29.6626 50.6954 29.2001 49.8378" fill="#DAAA6C"/>
<path d="M72.2494 9.26506C72.495 10.1185 71.9521 11.6358 71.256 12.8212C69.2658 16.1876 66.7309 15.5238 65.4794 14.144C65.4171 12.9041 66.3784 10.3295 67.9805 8.76957C69.3335 7.45381 70.3695 7.47041 71.1848 7.70274C71.149 8.25527 71.083 8.80357 70.9872 9.34329C71.8577 9.27217 71.6512 9.34329 72.2494 9.26506Z" fill="#EFEFEF"/>
<path d="M82.3119 15.8434C82.3457 16.7443 82.0182 18.2521 80.9447 18.6883C78.6305 19.6556 74.7961 20.4996 73.8027 16.5665C74.0306 15.3811 76.5495 14.1223 78.4311 13.3091C80.0226 12.6216 81.0035 13.0554 81.7262 13.6054C81.5641 14.1097 81.3749 14.5978 81.1601 15.0658C82.0021 15.3527 81.7173 15.6727 82.3083 15.8316" fill="#EFEFEF"/>
<path d="M67.4903 39.7524C67.4903 40.3688 67.0595 40.8572 66.9224 41.4546C66.7853 42.0521 66.9224 42.7135 66.8494 43.3512C66.7764 43.989 66.7088 44.923 66.2887 43.9724C66.0395 43.4034 66.0395 42.1184 66.1943 41.5115C66.3083 41.0611 67.4903 39.8141 67.4903 39.7619" fill="#C3A06A"/>
<path d="M71.3106 38.6266C71.0151 38.0174 72.4143 38.7144 72.2773 38.7001C72.6564 38.7357 72.9092 38.629 73.3098 38.5792C74.2105 38.4631 74.5897 38.8021 74.3672 40.1084C73.4362 40.1984 71.8589 39.7551 71.3106 38.6266Z" fill="#C3A06A"/>
<path d="M37.6668 16.626C37.6668 16.626 101.993 43.688 102.506 43.9701C103.317 44.4158 103.056 46.0824 102.246 45.6296C101.436 45.1768 37.4941 17.8493 37.4941 17.8493L37.6722 16.626" fill="#F5D6BA"/>
<path d="M41.7949 24.0723C36.4153 29.7454 29.2252 22.344 32.3957 15.0634C36.9742 4.55871 48.7482 16.7372 41.7949 24.0723Z" fill="#ECCA82"/>
<path d="M41.7947 24.0723C39.5891 26.398 35.5979 26.9931 33.8748 23.4488C33.2214 22.1023 32.294 20.905 31.5605 19.6201C31.6442 19.7671 32.8672 19.9022 33.095 20.0018C34.1311 20.4641 34.7791 21.6305 35.8401 22.1212C37.6665 22.9628 39.4467 22.2066 40.4026 19.9662C41.1147 18.3067 41.4333 15.9976 43.1672 15.7368C44.2655 19.1459 44.1285 21.6115 41.7929 24.0723" fill="#D8AD6A"/>
<path d="M37.6465 17.1407C37.6415 17.1569 37.6374 17.1735 37.634 17.1905C36.6656 16.4034 36.9344 17.3161 36.0425 17.3849C34.7715 17.4821 36.5392 15.5831 36.8792 15.4053C38.3478 14.6419 38.0559 15.621 37.6465 17.1407Z" fill="#CFA970"/>
<path d="M39.5763 11.6284C38.5901 11.4743 39.3075 12.7521 39.1082 13.3211C38.8678 14.0109 38.0134 14.0987 37.5345 14.0512C37.5238 13.4799 38.0472 13.3708 38.3106 12.9607C38.4157 12.8019 37.2283 12.2969 37.1357 12.2637C37.3992 12.3609 37.7855 11.2135 38.0258 11.0902C38.5848 10.7939 39.0939 11.268 39.5835 11.6284" fill="#C3A06A"/>
<path d="M42.1186 18.0509C42.8876 17.6692 42.3731 19.343 41.8355 19.6275C41.2516 19.9357 40.2654 19.6132 40.3028 18.627C40.3509 17.361 40.9294 19.0182 41.1501 19.1012C41.8106 19.3596 41.5471 18.3899 42.0402 18.0936L42.1203 18.0486" fill="#C3A06A"/>
<path d="M35.1811 20.1752C33.7695 21.1661 33.3191 17.2355 33.8193 16.2113C34.7236 15.9742 34.3658 17.5342 34.4975 18.1932C34.6399 18.9045 35.3253 19.4142 35.1811 20.1752Z" fill="white"/>
<path d="M37.5617 20.898C36.8959 21.026 36.1963 20.9905 36.1073 20.7724C35.7869 19.9734 37.9604 19.1792 38.3984 19.5159C39.3383 20.239 38.4838 20.7226 37.5617 20.898Z" fill="white"/>
<path d="M50.5297 27.7377C45.264 33.4109 38.3819 25.156 41.3316 18.7289C46.3873 7.72631 57.3335 20.4026 50.5297 27.7377Z" fill="#ECCA82"/>
<path d="M47.078 21.2587C47.0922 20.9789 45.2391 21.0737 45.0806 20.9671C44.4932 20.5664 42.9231 16.6452 44.422 17.7903C44.8617 18.1269 44.8706 19.1463 45.2942 19.3834C45.8799 19.7106 46.7504 18.4351 47.3681 19.1819C47.701 19.5849 47.1029 20.7916 47.078 21.2587Z" fill="#C3A06A"/>
<path d="M48.3583 15.0757C47.2529 15.5143 47.4255 15.9576 47.9008 16.766C48.2159 17.2995 45.6703 17.7286 45.7024 17.3872C45.7522 16.8538 46.0584 16.5669 46.0228 15.9647C45.6151 16.0169 45.1736 16.1283 44.7464 16.043C44.5684 15.3009 45.932 14.7533 46.3361 14.6205C47.2493 14.3052 47.7727 14.6205 48.3583 15.0733" fill="#A78859"/>
<path d="M43.6996 25.2767C42.3182 26.2701 41.8785 22.337 42.368 21.3129C43.2581 21.0758 42.9021 22.6357 43.032 23.2948C43.1709 24.006 43.8402 24.5157 43.6996 25.2767Z" fill="white"/>
<path d="M46.2557 23.6765C45.6113 23.8022 44.383 23.6765 44.6536 22.4248C44.6536 22.4414 46.0937 22.7733 46.2771 22.7069C46.788 22.5267 47.1333 21.569 47.8418 21.7586C48.1801 21.8487 47.6941 22.8681 47.5926 23.0104C47.29 23.4347 46.6687 23.5959 46.2522 23.6765" fill="white"/>
<path d="M50.7433 27.6311C48.454 30.0421 44.5234 30.4238 42.3391 27.4319C41.8816 26.8037 41.7161 25.9834 41.3725 25.2674C41.0289 24.5515 40.5483 24.0607 40.1709 23.3709C41.3654 23.4088 42.6418 23.2689 43.628 24.2575C44.2902 24.9213 44.5074 25.8222 45.3796 26.1328C46.1825 26.4172 47.377 26.4362 48.1211 25.8767C48.988 25.2248 49.2212 23.6316 49.6342 22.5435C50.1772 21.121 50.7397 19.5065 52.1175 19.3003C53.2159 22.7118 53.077 25.1774 50.7433 27.6382" fill="#D8AD6A"/>
<path d="M50.4983 20.2747C51.2513 19.8907 50.7493 21.5644 50.2223 21.8513C49.6509 22.1595 48.6861 21.837 48.7217 20.8484C48.7697 19.5848 49.3358 21.2396 49.5512 21.3226C50.1992 21.581 49.9393 20.6114 50.4217 20.315L50.4983 20.27" fill="#C3A06A"/>
<path d="M48.3063 19.8311C48.8581 19.9235 48.7478 16.8131 48.8403 16.6282C48.8848 16.5429 49.4848 15.9644 49.4937 16.1967C49.5132 16.6709 49.4937 17.145 49.5204 17.6192C51.2756 18.1218 49.0807 19.9733 48.3027 19.8429" fill="#C3A06A"/>
<path d="M59.5656 31.41C54.2981 37.1922 47.416 28.7761 50.3675 22.2305C55.4231 11.0121 66.3693 23.9374 59.5656 31.41Z" fill="#ECCA82"/>
<path d="M53.6578 22.394C53.5545 22.4784 53.4328 22.5135 53.3125 22.4936C52.8408 22.4011 52.9244 21.4362 52.9565 21.166C53.001 20.7084 53.6845 19.5396 54.3005 20.1774C54.5711 20.4571 54.2061 21.9767 53.6632 22.394" fill="#C3A06A"/>
<path d="M57.4062 18.729C57.3579 18.8051 57.327 18.8981 57.3172 18.9969C57.3065 19.1012 56.9985 19.3146 56.9505 19.471C56.7956 20.0021 56.8935 21.4625 56.0301 21.453C55.5228 21.453 55.6438 21.1495 55.8076 20.4051C55.9856 19.573 55.9429 19.7413 55.683 19.0419C55.5637 18.7219 54.9282 18.8049 55.3964 18.2501C55.8112 17.7475 56.7796 17.8092 57.2015 18.2051C57.5575 18.5346 57.4917 18.5868 57.4062 18.729Z" fill="#C3A06A"/>
<path d="M52.3881 27.7091C51.0049 28.4203 50.5652 25.5944 51.0565 24.8642C51.9466 24.6911 51.5906 25.8125 51.7188 26.2866C51.8576 26.8034 52.527 27.1685 52.3881 27.7091Z" fill="white"/>
<path d="M55.3173 25.9523C54.8029 26.4691 53.6814 27.1187 53.4375 25.8385C53.4375 25.8551 54.826 25.2482 54.9613 25.0751C55.3369 24.6009 55.2622 23.527 55.9546 23.252C56.2858 23.1216 56.2608 24.3307 56.227 24.5227C56.1291 25.0893 55.6502 25.6204 55.3173 25.9452" fill="white"/>
<path d="M59.7774 31.2939C58.8197 32.371 57.6478 33.0545 56.404 33.2616C54.8374 33.4702 53.6519 32.8135 52.3096 31.8392C51.2736 31.0781 50.5989 28.7809 50.7164 27.2091C52.2598 28.0792 53.6608 29.5087 55.4053 29.5917C56.08 29.6225 56.8294 29.4921 57.4133 29.0298C58.1254 28.4751 58.1699 27.7686 58.4138 26.8369C58.8464 25.1774 59.6599 23.0437 61.1463 22.8066C62.2447 26.2869 62.1076 28.7999 59.772 31.3081" fill="#D8AD6A"/>
<path d="M59.5335 23.7977C60.2865 23.4065 59.7827 25.1135 59.2576 25.4027C58.6844 25.718 57.7195 25.3908 57.7569 24.3833C57.805 23.0936 58.3693 24.7815 58.5847 24.8693C59.2327 25.1348 58.9745 24.158 59.4552 23.8427L59.5335 23.7977Z" fill="#C3A06A"/>
<path d="M56.9059 23.5724C57.4578 23.6649 57.3474 20.4905 57.44 20.3079C57.4845 20.2178 58.0844 19.6299 58.0951 19.8669C58.1129 20.3411 58.0951 20.8318 58.1218 21.3036C59.877 21.8181 57.6821 23.7028 56.9023 23.5724" fill="#B59462"/>
<path d="M68.9483 34.9661C63.6826 40.7483 56.7987 32.3346 59.7502 25.7866C64.8041 14.5706 75.7503 27.4935 68.9483 34.9661Z" fill="#ECCA82"/>
<path d="M63.8514 26.9885C63.7486 27.0724 63.6275 27.1075 63.5078 27.0881C63.0361 26.9956 63.1197 26.0307 63.1518 25.7604C63.1945 25.3053 63.8781 24.1341 64.4958 24.7718C64.7646 25.0516 64.3997 26.5712 63.8567 26.9885" fill="#CBA66E"/>
<path d="M62.3805 30.63C60.9973 31.3412 60.5594 28.5129 61.0489 27.7851C61.939 27.612 61.583 28.7334 61.7112 29.2075C61.8518 29.7243 62.5211 30.0894 62.3805 30.63Z" fill="white"/>
<path d="M64.7 29.5108C64.1855 30.0252 63.0622 30.6748 62.8184 29.3946C62.8184 29.4136 64.2087 28.8043 64.344 28.6312C64.7178 28.1571 64.6448 27.0832 65.3373 26.8082C65.6684 26.6778 65.6417 27.8868 65.6096 28.0789C65.5117 28.6455 65.0311 29.1765 64.7 29.5013" fill="white"/>
<path d="M69.1604 34.8497C68.1739 35.9136 66.98 36.5808 65.7188 36.7731C64.4576 36.9654 63.1814 36.6749 62.0398 35.9355C61.5556 35.6297 61.3972 35.421 61.2886 34.7027C61.164 33.8706 60.9806 32.3936 61.2281 31.5804C62.5614 32.4007 63.5316 34.0507 65.1693 33.8824C68.3861 33.5576 67.407 26.8318 70.5401 26.3506C71.6384 29.8285 71.5014 32.3414 69.1658 34.8497" fill="#D8AD6A"/>
<path d="M69.3791 26.3153C70.1321 25.9241 69.6266 27.631 69.1032 27.9203C68.5318 28.2356 67.5669 27.9203 67.6025 26.9008C67.6488 25.6112 68.2149 27.2991 68.4321 27.375C69.0783 27.6405 68.8201 26.6638 69.3008 26.3485L69.3791 26.3034" fill="#C3A06A"/>
<path d="M66.6874 25.0328C66.3562 24.5824 66.2512 22.8304 66.4791 22.38C66.5236 22.2922 66.5983 21.8133 67.1324 21.9437C67.6664 22.0741 66.9544 23.269 66.9722 23.7408C68.3304 24.139 67.3781 25.6753 66.7372 25.0873C66.7187 25.0725 66.7019 25.0542 66.6874 25.0328Z" fill="#C3A06A"/>
<path d="M80.2654 34.5229C79.9468 36.6044 79.0834 37.1473 77.9245 38.5531C72.8991 44.6744 65.7767 35.9216 68.7282 29.3736C72.5787 20.8271 81.5988 25.8009 80.2654 34.5158" fill="#ECCA82"/>
<path d="M72.2989 31.1869C70.7306 31.0019 72.0373 27.0997 72.7191 27.645C72.9505 27.8299 72.7191 28.5577 72.7938 28.8517C72.9362 29.4159 73.5718 29.6435 73.643 30.1011C73.7551 30.8241 72.979 31.1442 72.5339 31.1869C72.4557 31.194 72.3772 31.194 72.2989 31.1869Z" fill="#A28557"/>
<path d="M71.3839 33.9014C70.0007 34.6127 69.561 31.7844 70.0506 31.0566C70.9407 30.8835 70.5846 32.0049 70.7146 32.479C70.8534 32.9934 71.5246 33.3585 71.3839 33.9014Z" fill="white"/>
<path d="M75.3269 33.105C74.8143 33.6195 73.691 34.2691 73.4453 32.9889C73.4453 33.0055 74.8356 32.3985 74.9709 32.2255C75.3465 31.7513 75.2718 30.6774 75.9642 30.4024C76.2954 30.272 76.2704 31.4811 76.2366 31.6731C76.1387 32.2397 75.6581 32.7708 75.3269 33.0955" fill="white"/>
<path d="M75.058 28.9065C74.6183 27.6311 75.7825 27.4841 75.8341 27.074C75.9249 26.3627 75.7469 25.9621 75.487 25.2959C76.2738 25.3623 77.3117 26.1849 77.495 26.7421C77.0393 27.1877 76.7741 27.3063 76.4269 27.8255C76.1172 28.2783 76.0211 28.9113 75.4407 28.9563C75.2627 28.9705 75.1007 29.0085 75.0651 28.9065" fill="#C3A06A"/>
<path d="M65.4253 32.9223C65.2651 32.7563 65.306 32.4481 65.7564 31.974C66.1748 31.5378 66.9474 30.1343 67.1467 31.4169C67.3675 32.8393 65.8116 33.3301 65.4253 32.9294" fill="white"/>
<path d="M57.8551 27.7377C58.067 28.667 57.0932 29.5181 56.4648 29.1601C56.5129 28.5248 57.5329 26.3508 57.8551 27.7377Z" fill="white"/>
<path d="M78.0646 38.9299C75.9978 41.3718 71.7415 41.4856 70.4989 37.7446C70.1731 36.7654 69.5002 35.6299 69.3418 34.6626C70.4918 34.8214 71.4637 35.0467 72.4215 35.9618C74.2016 37.664 74.6378 40.2741 77.2528 38.489C78.9903 37.3036 79.567 36.7109 79.9231 35.3762C79.3427 37.7469 79.5759 37.1542 78.0699 38.9323" fill="#D8AD6A"/>
<path d="M79.0507 30.9123C79.8073 30.5188 79.1629 32.1569 78.9172 32.4059C78.6716 32.6548 76.368 33.3281 76.368 33.1716C76.336 32.3419 77.2314 32.0668 77.7049 31.9199C77.9292 31.8511 78.3066 31.9957 78.4935 31.8535C78.741 31.6662 78.6716 31.1423 78.9742 30.955L79.0507 30.9123Z" fill="#C3A06A"/>
<path d="M102.548 43.9702C103.315 44.1172 102.952 46.0588 102.279 45.7008C101.697 45.3902 101.866 43.8398 102.548 43.9702Z" fill="#EDCEAB"/>
<path d="M27.0672 48.8018C28.2795 49.0507 28.7299 51.0089 29.3031 52.4005C29.6431 53.2208 31.0993 56.0918 30.9818 55.9993C29.3974 54.7571 27.9057 50.2906 27.0654 48.8018" fill="white"/>
<path d="M38.9004 62.0776C38.1947 61.3107 37.45 60.6097 36.6716 59.9795C36.0308 59.4461 34.2827 59.4153 33.7842 58.4907C33.5937 58.1398 35.5982 58.4599 35.8332 58.6163C36.385 58.9791 38.9075 60.8496 38.9075 62.0895" fill="white"/>
<path d="M51.2509 64.036C50.7272 64.3102 50.182 64.5051 49.6256 64.6168C48.9794 64.7424 48.3456 65.0459 47.6799 64.9345C47.1618 64.8491 44.148 63.9435 44.9847 62.4879C45.2215 62.0754 45.5187 62.5116 45.7484 62.7249C46.7097 63.614 47.5001 63.3176 48.6536 63.1351C49.5348 62.9952 51.8704 62.9312 51.5392 61.0014C51.3612 59.9464 50.2931 59.8753 49.6808 59.4059C48.9188 58.8132 48.1053 58.2869 47.4057 57.5615C47.3238 57.4738 46.2682 55.6649 46.5655 55.7313C47.0995 55.8403 47.4057 56.9735 47.8899 57.3197C48.6343 57.8365 49.4341 58.1972 50.2611 58.3889C51.5268 58.7042 52.3546 59.7876 53.622 59.1997C54.2078 58.96 54.8396 59.0198 55.394 59.3675C55.9483 59.7152 56.3854 60.3257 56.6198 61.0797C57.0898 62.6941 54.5993 62.7392 53.9941 63.2133C53.3888 63.6875 51.8668 63.7373 51.2509 64.0549" fill="white"/>
<path d="M35.5502 50.2597C34.7705 49.5224 33.8894 50.7457 33.0723 50.2217C33.3607 49.8092 34.3789 49.7333 34.8061 49.6765C35.4132 49.6006 35.8155 49.8543 36.1181 50.5892C36.2178 50.8263 36.5649 51.5375 36.0558 51.2364C35.8778 51.1321 35.7585 50.4564 35.5502 50.2597Z" fill="white"/>
<path d="M37.3267 52.8056C36.8746 52.616 36.8407 51.753 37.3712 51.8573C37.8074 51.9522 38.0975 53.1186 37.3267 52.8056Z" fill="white"/>
<path d="M40.0164 54.2233C40.1197 54.3514 40.1945 54.4604 40.1802 54.6287C39.5999 54.8516 38.3146 54.1546 38.4125 53.1565C38.7686 53.0356 39.7601 53.9009 40.0147 54.2233" fill="white"/>
<path d="M44.8154 54.29C45.3299 55.2383 42.1897 55.1411 41.9529 55.1245C41.9467 55.0235 41.9467 54.922 41.9529 54.821C42.4531 54.5057 43.0335 54.4702 43.5551 54.2212C43.8541 54.0814 44.5715 53.8443 44.8101 54.29" fill="#F7F8F8"/>
<path d="M46.2311 53.7875C46.4536 53.9606 46.7651 54.641 46.4376 54.9184C46.1955 55.1222 45.503 54.3826 45.6134 53.9867C45.7238 53.5907 46.0068 53.6097 46.2311 53.7875Z" fill="#F7F8F8"/>
<path d="M43.8092 64.0668C44.0122 64.2873 44.5213 65.0151 44.3184 65.3968C44.0033 66.0132 43.414 64.6168 43.2503 64.3845C42.9697 63.9981 42.6377 63.6846 42.2712 63.4599C42.0113 63.2915 41.5324 63.3437 41.3259 63.0924C40.6619 62.284 41.9988 62.6183 42.216 62.7178C42.8027 63.0456 43.3442 63.5015 43.8181 64.0668" fill="white"/>
<path d="M62.4834 56.6036C61.693 56.331 61.2088 55.7644 62.0437 55.1812C62.7985 54.662 62.8145 55.7122 63.4144 55.7241C64.0606 55.7383 64.6516 54.6051 65.3334 55.1598C65.6218 55.3969 66.0847 56.3025 65.8337 56.7435C65.6468 57.0636 63.0388 56.7435 62.6632 56.651L62.4852 56.5965" fill="#C3A06A"/>
<path d="M29.7816 25.3667C29.7816 25.3667 98.5403 54.2304 99.0868 54.5268C99.9537 55.0009 99.676 56.779 98.8091 56.3072C97.9422 55.8354 29.5947 26.673 29.5947 26.673L29.7816 25.3691" fill="#F5D6BA"/>
<path d="M34.1954 33.3111C28.2034 38.9535 21.5189 30.5445 24.1482 23.712C28.5131 12.3633 42.7509 25.253 34.1954 33.3111Z" fill="#ECCA82"/>
<path d="M34.1951 33.3112C32.3313 35.2718 28.8546 36.6018 26.8964 34.0343C26.3446 33.3112 25.9476 32.2705 25.5132 31.4502C25.2533 30.9595 25.0824 30.3549 24.7887 29.9069C24.495 29.4588 24.1194 29.2525 23.8203 28.8732C25.6201 29.0249 27.0442 29.9661 28.5075 31.1965C28.9849 31.6072 29.5345 31.845 30.102 31.8866C30.6695 31.9282 31.2354 31.7721 31.7438 31.4336C32.7567 30.7414 32.5164 29.5892 32.8671 28.3351C33.305 26.7704 34.0758 24.6604 35.653 24.4233C36.8279 28.0601 36.6802 30.6892 34.1862 33.3112" fill="#D8AD6A"/>
<path d="M29.7591 25.9195C29.7591 25.9385 29.7591 25.9551 29.7466 25.9717C28.7106 25.1324 29.0007 26.1092 28.043 26.1803C27.201 26.2443 27.6745 25.4691 27.6532 24.8645C27.6193 23.8665 26.845 23.2572 26.9304 22.4156C27.0087 21.6403 28.5058 20.9528 28.4934 21.2515C28.4702 21.8276 28.0893 23.7005 28.5575 24.0609C29.0257 24.4212 29.46 23.3307 29.9442 23.5867C30.5085 23.8736 29.9033 25.3979 29.7662 25.9314" fill="#CFA970"/>
<path d="M31.8218 20.0423C30.7697 19.8788 31.5352 21.2419 31.3234 21.8465C31.0652 22.5838 30.152 22.6762 29.6411 22.6264C29.6269 22.0172 30.1876 21.901 30.4707 21.4648C30.581 21.2941 29.3136 20.7536 29.2139 20.7204C29.4969 20.8247 29.9081 19.6014 30.1591 19.4686C30.7555 19.1509 31.3056 19.6583 31.8218 20.0423Z" fill="#C3A06A"/>
<path d="M34.535 26.8939C35.3574 26.4838 34.8074 28.2689 34.2324 28.5724C33.6076 28.9019 32.5537 28.5581 32.5929 27.5055C32.6445 26.1566 33.264 27.9204 33.499 28.0129C34.211 28.2903 33.9244 27.2614 34.4496 26.9389L34.535 26.8939Z" fill="#C3A06A"/>
<path d="M26.7344 28.4301C25.223 29.4875 24.7442 25.296 25.2782 24.2031C26.2448 23.9471 25.8621 25.6255 26.0027 26.3154C26.1558 27.0788 26.8928 27.6193 26.7344 28.4301Z" fill="white"/>
<path d="M29.6642 29.9284C28.9521 30.0635 28.2045 30.0279 28.1101 29.7932C27.7701 28.9421 30.0843 28.0958 30.5578 28.449C31.5636 29.2195 30.6504 29.7363 29.6678 29.9236" fill="white"/>
<path d="M43.5321 37.2205C37.9032 43.2706 30.5459 34.468 33.7003 27.619C39.1031 15.8909 50.8041 29.4065 43.5321 37.2205Z" fill="#ECCA82"/>
<path d="M39.8421 30.3124C39.8581 30.0113 37.875 30.1156 37.7059 29.9995C37.0775 29.5727 35.4006 25.3907 37.0028 26.6117C37.4727 26.972 37.4816 28.0578 37.9356 28.3115C38.5622 28.66 39.4914 27.3039 40.1519 28.0981C40.5079 28.5272 39.8688 29.8122 39.8421 30.3124Z" fill="#C3A06A"/>
<path d="M41.2085 23.7073C40.0265 24.1814 40.2116 24.6556 40.7207 25.5114C41.0554 26.0804 38.3353 26.538 38.3691 26.1729C38.4225 25.6039 38.759 25.2981 38.7127 24.6674C38.2766 24.722 37.8048 24.8429 37.3491 24.7504C37.1711 23.9586 38.6148 23.3754 39.0456 23.226C40.0229 22.8894 40.5837 23.226 41.2085 23.7002" fill="#A78859"/>
<path d="M36.2293 32.5002C34.7518 33.5599 34.2818 29.3661 34.8052 28.2756C35.7505 28.0195 35.3766 29.6838 35.5173 30.3879C35.6668 31.1513 36.3842 31.6894 36.2293 32.5002Z" fill="white"/>
<path d="M38.9627 32.8914C38.272 33.0242 36.96 32.8914 37.2556 31.5543C37.2556 31.5709 38.7936 31.9265 38.9894 31.8554C39.5342 31.6633 39.9027 30.6416 40.661 30.8431C41.017 30.9426 40.5043 32.0284 40.3958 32.1802C40.0718 32.633 39.4078 32.8037 38.9716 32.8914" fill="white"/>
<path d="M43.7603 37.1045C41.4122 39.5725 36.3263 40.6014 35.2422 35.7674C34.9627 34.5181 34.6619 34.0795 34.0264 33.1596C34.8595 33.0838 35.7371 33.0127 36.3299 33.7334C36.9227 34.4541 37.293 35.0776 38.1101 35.3929C38.8951 35.7034 40.4741 35.9666 41.2787 35.6299C42.3789 35.1819 42.1368 33.2142 42.4465 32.107C42.8844 30.54 43.6552 28.4324 45.2325 28.1953C46.4074 31.832 46.2596 34.4612 43.7656 37.0832" fill="#D8AD6A"/>
<path d="M43.4984 29.2619C44.3031 28.8541 43.7637 30.6393 43.2029 30.9427C42.5906 31.2723 41.5598 30.9285 41.6008 29.8759C41.6524 28.527 42.2577 30.2932 42.4909 30.3833C43.1834 30.6606 42.9074 29.6317 43.4219 29.3093L43.5056 29.2619" fill="#C3A06A"/>
<path d="M41.1533 28.7904C41.7426 28.8876 41.6251 25.5709 41.7283 25.3765C41.7764 25.2841 42.4172 24.6653 42.4261 24.9024C42.4475 25.3978 42.4261 25.9123 42.4546 26.4054C44.3309 26.9436 41.9847 28.916 41.1533 28.7761" fill="#C3A06A"/>
<path d="M53.1895 41.1369C47.5606 47.3009 40.1943 38.33 43.3577 31.3482C48.7605 19.3854 60.4614 33.1689 53.1895 41.1369Z" fill="#ECCA82"/>
<path d="M46.7486 33.7782C46.6392 33.8688 46.5097 33.9065 46.3819 33.8849C45.8763 33.7853 45.9671 32.7564 45.9956 32.4624C46.0419 31.9883 46.7718 30.7294 47.4304 31.4098C47.7206 31.7085 47.3289 33.3278 46.7486 33.7806" fill="#C3A06A"/>
<path d="M50.882 27.619C50.8303 27.6997 50.7969 27.7984 50.7859 27.9035C50.7752 28.0149 50.4441 28.2449 50.3942 28.4108C50.2287 28.9751 50.3337 30.5445 49.4098 30.5255C48.8668 30.5255 48.9968 30.2007 49.173 29.4065C49.3706 28.5199 49.3155 28.6953 49.0395 27.9533C48.9114 27.6119 48.2331 27.7162 48.7333 27.1069C49.1766 26.5735 50.2109 26.6328 50.6612 27.0595C51.0404 27.4127 50.9728 27.4696 50.882 27.619Z" fill="#C3A06A"/>
<path d="M45.5164 35.7414C44.0389 36.5048 43.5689 33.4845 44.0923 32.6974C45.0376 32.5125 44.6637 33.7121 44.8044 34.2194C44.9539 34.7694 45.6695 35.1677 45.5164 35.7414Z" fill="white"/>
<path d="M48.6483 35.3241C48.0982 35.8717 46.8984 36.564 46.6367 35.2008C46.6367 35.2174 48.1232 34.5702 48.2673 34.3876C48.6679 33.8755 48.5896 32.7281 49.3354 32.4412C49.6915 32.3014 49.663 33.5911 49.6274 33.7973C49.5224 34.4018 49.0097 34.9685 48.6554 35.3241" fill="white"/>
<path d="M53.4172 41.0138C52.4878 42.0457 51.3754 42.7436 50.1862 43.0408C49.524 43.1901 48.6214 43.2779 47.9788 42.9649C47.418 42.6828 46.8644 42.064 46.3197 41.6847C45.5008 41.111 45.2747 41.1371 44.8955 39.9327C44.7175 39.3756 43.9556 37.7517 44.0838 37.1898C44.2707 36.3624 45.4972 37.4553 45.9049 37.7967C46.3837 38.1997 46.6971 38.8446 47.1403 39.3069C47.3675 39.5456 47.6279 39.722 47.9066 39.8257C48.1853 39.9295 48.4766 39.9586 48.7638 39.9114C49.4901 39.8261 50.9392 39.4894 51.4341 38.726C51.9289 37.9627 51.8506 36.8152 52.0927 35.9333C52.5306 34.3378 53.3014 32.1852 54.8805 31.9434C56.0536 35.6536 55.9076 38.3325 53.4118 41.0091" fill="#D8AD6A"/>
<path d="M53.1548 33.0198C53.9594 32.6026 53.42 34.4233 52.8593 34.7315C52.2469 35.0681 51.2144 34.7173 51.2571 33.6433C51.307 32.2683 51.9122 34.0677 52.1472 34.1625C52.8379 34.4446 52.562 33.3944 53.0765 33.0672C53.1035 33.0489 53.1315 33.033 53.1601 33.0198" fill="#C3A06A"/>
<path d="M50.3467 32.7802C50.9359 32.8774 50.8202 29.4967 50.9217 29.2976C50.9697 29.2027 51.6106 28.5863 51.6213 28.8234C51.6409 29.326 51.6213 29.8523 51.648 30.3549C53.5243 30.9025 51.1798 32.9153 50.3467 32.7754" fill="#B59462"/>
<path d="M63.2169 44.9281C57.5898 51.092 50.2324 42.1235 53.3868 35.1417C58.7896 23.1789 70.4906 36.9624 63.2169 44.9281Z" fill="#ECCA82"/>
<path d="M57.7693 36.4218C57.6598 36.512 57.5304 36.5497 57.4026 36.5284C56.5997 36.372 57.4969 32.0904 58.4547 32.209C58.7876 33.3564 58.7039 35.6987 57.7693 36.4218Z" fill="#CBA66E"/>
<path d="M55.6688 39.6955C53.6376 40.7457 53.7711 35.5752 54.5099 34.4182C54.6398 34.2144 54.7983 37.1849 54.8125 37.2631C54.898 37.8179 55.7542 39.3517 55.6688 39.6836" fill="white"/>
<path d="M58.6758 39.1171C58.1257 39.6671 56.9277 40.3594 56.666 38.9962C56.666 39.0128 58.1524 38.3656 58.2966 38.183C58.6954 37.6709 58.6189 36.5235 59.3647 36.2367C59.7208 36.0968 59.6905 37.3865 59.6567 37.5903C59.5517 38.1973 59.039 38.7639 58.6829 39.1171" fill="white"/>
<path d="M63.4451 44.8069C62.021 46.3242 60.0522 45.9401 58.3735 46.0373C57.6009 46.0824 57.0401 46.3929 56.2622 45.9923C55.5128 45.6059 54.8844 44.833 54.7135 43.778C54.4963 42.4362 54.4642 40.3476 53.1113 40.2361C53.7486 40.1579 54.8559 40.817 55.4255 41.2224C55.9258 41.5803 56.2035 42.026 56.5826 42.5523C58.6619 45.4233 61.3463 42.6211 62.1385 39.7312C62.5764 38.1357 63.3472 35.983 64.9245 35.7412C66.0994 39.4514 65.9516 42.1422 63.4558 44.8069" fill="#D8AD6A"/>
<path d="M63.6801 35.7058C64.4829 35.2886 63.9453 37.1093 63.3846 37.4175C62.7722 37.7542 61.7415 37.4057 61.7824 36.3317C61.8323 34.9543 62.4375 36.7561 62.6725 36.8485C63.365 37.1307 63.0891 36.0804 63.6035 35.7533L63.6872 35.7058" fill="#C3A06A"/>
<path d="M60.6865 34.2879L60.6366 34.2713C60.1756 34.0342 60.3269 32.8489 60.5476 32.4553C60.704 32.2088 60.9041 32.0183 61.1298 31.9011C61.3555 31.784 61.5997 31.7438 61.84 31.7844C62.1533 31.846 63.0327 33.0717 62.8583 33.0859C62.3011 33.1333 61.1582 34.3969 60.6865 34.2879Z" fill="#C3A06A"/>
<path d="M75.038 42.5593C75.2641 45.6602 74.0536 47.2557 72.8146 48.7611C67.4421 55.2878 59.8283 45.9542 62.9828 38.9724C67.1003 29.8711 75.038 35.5609 75.038 42.5593Z" fill="#ECCA82"/>
<path d="M64.7694 44.4608C63.2918 45.2241 62.8219 42.2038 63.3452 41.4191C64.2905 41.2342 63.9167 42.4338 64.0573 42.9387C64.2068 43.4911 64.9224 43.887 64.7694 44.4608Z" fill="white"/>
<path d="M70.037 42.9438C69.4869 43.4914 68.2871 44.186 68.0254 42.8205C68.0254 42.8394 69.5118 42.1922 69.656 42.0073C70.0566 41.4952 69.98 40.3478 70.7241 40.0633C71.0801 39.9234 71.0499 41.2131 71.0143 41.417C70.9092 42.0239 70.3966 42.5881 70.0423 42.9438" fill="white"/>
<path d="M69.8521 38.7212C69.482 38.9819 69.0601 39.0822 68.6451 39.0081C68.6451 38.771 68.5045 38.598 68.5205 38.3253C67.796 37.9081 67.1142 38.5624 66.3398 38.4059C67.1445 36.5615 71.6412 37.9816 70.2455 34.6602C70.9042 34.6602 72.0666 35.2884 72.355 36.1585C71.869 36.6326 71.5824 36.7606 71.205 37.313C70.8227 37.889 70.3641 38.3663 69.8521 38.7212Z" fill="#C3A06A"/>
<path d="M59.4573 42.7493C59.2793 42.5739 59.3309 42.2325 59.8133 41.7299C60.2584 41.2557 61.0844 39.7669 61.298 41.1372C61.5348 42.6497 59.8739 43.176 59.4573 42.7493Z" fill="white"/>
<path d="M51.3614 37.2206C51.5875 38.214 50.5443 39.1172 49.875 38.7379C49.9266 38.0599 51.025 35.7413 51.3614 37.2206Z" fill="white"/>
<path d="M72.9631 48.6948C72.2101 49.5838 69.7108 51.4353 67.701 50.9517C66.0063 50.5439 64.7121 48.0025 64.543 44.9087C65.9048 46.3311 67.142 48.5644 68.5038 49.0978C69.928 49.6549 71.4767 49.0409 72.9631 48.6948Z" fill="#D8AD6A"/>
<path d="M99.286 54.5981C100.053 54.7451 99.6901 56.6891 99.0172 56.3311C98.4351 56.0205 98.6059 54.4677 99.286 54.5981Z" fill="#EDCEAB"/>
<path d="M22.3461 34.5059C22.3461 34.5059 92.0037 65.994 92.568 66.3188C93.4456 66.838 93.1644 68.7773 92.2868 68.2604C91.4091 67.7436 22.1592 35.9283 22.1592 35.9283L22.3372 34.5059" fill="#F5D6BA"/>
<path d="M26.8178 43.171C20.9896 49.7688 12.1137 40.7102 16.1956 32.7563C22.6238 20.2246 34.3532 34.6529 26.8178 43.171Z" fill="#ECCA82"/>
<path d="M26.8161 43.1713C25.2923 44.8972 22.9425 46.405 20.1191 44.7242C25.6697 44.205 25.011 39.5512 25.4828 37.74C25.926 36.0331 26.7057 33.7311 28.3043 33.4727C29.4935 37.4389 29.3439 40.3075 26.8161 43.1713Z" fill="#D8AD6A"/>
<path d="M22.3247 35.1035C22.3247 35.1249 22.3247 35.1438 22.3104 35.1604C21.2619 34.2477 21.5539 35.3098 20.5855 35.3975C19.731 35.4639 20.2116 34.6104 20.1903 33.9608C20.1582 32.9533 20.1547 32.7565 19.5352 31.9576C20.2223 31.8082 20.4252 33.0695 21.0572 33.2212C21.5592 33.3421 22.0648 32.3132 22.5098 32.5526C23.0848 32.8632 22.4706 34.5298 22.3318 35.1107" fill="#CFA970"/>
<path d="M24.4152 28.6862C23.3471 28.506 24.125 29.9924 23.9096 30.6539C23.6462 31.4576 22.7223 31.5595 22.2042 31.505C22.1918 30.8388 22.7579 30.7131 23.0445 30.2366C23.1566 30.0493 21.8731 29.4638 21.7734 29.4235C22.0583 29.5396 22.4748 28.2025 22.7294 28.0579C23.3346 27.7142 23.89 28.2665 24.4152 28.6862Z" fill="#C3A06A"/>
<path d="M27.1673 36.1656C28.0005 35.7199 27.4433 37.6663 26.8612 37.9982C26.2292 38.3585 25.1611 37.9839 25.2003 36.8341C25.2537 35.3619 25.8803 37.2893 26.1188 37.3889C26.8309 37.69 26.5478 36.5686 27.0819 36.2177C27.1097 36.1983 27.1382 36.1809 27.1673 36.1656Z" fill="#C3A06A"/>
<path d="M19.2596 40.3028C17.7286 41.4597 17.2427 36.8842 17.7838 35.6941C18.7629 35.4143 18.3766 37.2303 18.519 37.9984C18.6739 38.8305 19.4091 39.4209 19.2596 40.3028Z" fill="white"/>
<path d="M22.2274 39.4777C21.5153 39.6247 20.7499 39.5867 20.6555 39.3331C20.2995 38.4014 22.6618 37.4768 23.1353 37.868C24.1535 38.7096 23.2279 39.2738 22.2274 39.4777Z" fill="white"/>
<path d="M36.2762 47.4383C30.5796 54.0384 23.1208 44.4346 26.3162 36.962C31.7902 24.16 43.6442 38.9107 36.2762 47.4383Z" fill="#ECCA82"/>
<path d="M32.5379 39.8973C32.5539 39.5701 30.5459 39.6815 30.375 39.5559C29.7395 39.0817 28.0395 34.5276 29.663 35.8599C30.14 36.2511 30.1489 37.4388 30.6082 37.7138C31.2437 38.0955 32.1854 36.6138 32.8548 37.4768C33.2108 37.9509 32.5664 39.3473 32.5397 39.8925" fill="#C3A06A"/>
<path d="M33.9249 32.7018C32.7268 33.2116 32.9155 33.7307 33.43 34.6696C33.77 35.2907 31.0143 35.7885 31.0482 35.3808C31.1016 34.7596 31.4434 34.4325 31.4042 33.7379C30.9609 33.7971 30.4838 33.9275 30.0228 33.8279C29.8448 32.9626 31.3045 32.3273 31.7424 32.1684C32.7304 31.8033 33.3001 32.1684 33.9338 32.6947" fill="#A78859"/>
<path d="M28.88 44.5699C27.3829 45.7268 26.9076 41.1513 27.4381 39.9611C28.3958 39.6814 28.0166 41.4974 28.1501 42.2655C28.3014 43.0976 29.026 43.6879 28.8747 44.5699" fill="white"/>
<path d="M31.648 42.7112C30.9484 42.8558 29.6204 42.7112 29.9177 41.2532C29.9177 41.2721 31.4753 41.6586 31.6747 41.5827C32.2266 41.3717 32.6004 40.2575 33.3676 40.4779C33.7344 40.5846 33.2092 41.7676 33.0988 41.936C32.7713 42.4291 32.0984 42.6164 31.648 42.7112Z" fill="white"/>
<path d="M36.5075 47.3081C34.9819 49.0364 32.6321 50.5442 29.8105 48.8633C35.3611 48.3441 34.7024 43.688 35.1724 41.8791C35.6156 40.1698 36.3954 37.8679 37.9939 37.6118C39.1849 41.5804 39.0353 44.4514 36.5075 47.3105" fill="#D8AD6A"/>
<path d="M36.2418 38.7519C37.0571 38.3062 36.5106 40.255 35.9428 40.5845C35.3233 40.9449 34.2783 40.5703 34.3175 39.4205C34.3673 37.9483 34.9815 39.8757 35.2076 39.9752C35.9089 40.2763 35.6295 39.1526 36.1493 38.8041C36.177 38.7847 36.2055 38.7673 36.2347 38.7519" fill="#C3A06A"/>
<path d="M33.8672 38.2374C34.4653 38.3417 34.3461 34.724 34.4493 34.5106C34.4974 34.4087 35.1471 33.7378 35.1614 34.008C35.1827 34.5462 35.1614 35.1081 35.1898 35.6462C37.0911 36.2342 34.7128 38.3868 33.8707 38.2374" fill="#C3A06A"/>
<path d="M46.0596 51.7058C40.3631 58.434 32.9043 48.6452 36.0907 41.0375C41.5647 27.9984 53.4188 43.0242 46.0596 51.7058Z" fill="#ECCA82"/>
<path d="M39.6615 41.2176C39.5521 41.3151 39.4199 41.3564 39.2894 41.3338C38.7785 41.2247 38.8693 40.1034 38.8978 39.7857C38.9458 39.257 39.6864 37.8891 40.3522 38.6382C40.6459 38.9654 40.2489 40.7316 39.6615 41.2176Z" fill="#C3A06A"/>
<path d="M43.7247 36.9597C43.6709 37.049 43.637 37.1566 43.6268 37.2703C43.6143 37.3912 43.2815 37.6401 43.2316 37.8226C43.0536 38.439 43.1675 40.1388 42.2329 40.1294C41.6829 40.1294 41.8146 39.7761 41.9926 38.9108C42.1938 37.9412 42.1386 38.1356 41.8573 37.3224C41.7274 36.9502 41.0402 37.0616 41.5476 36.4002C41.9962 35.817 43.0429 35.8881 43.5058 36.348C43.8885 36.7321 43.8208 36.7937 43.7301 36.9597" fill="#C3A06A"/>
<path d="M38.2877 47.4147C36.7906 48.2468 36.3135 44.9515 36.844 44.0956C37.8017 43.8965 37.4226 45.2051 37.5561 45.7551C37.7074 46.3526 38.4319 46.7793 38.2806 47.4147" fill="white"/>
<path d="M41.4602 45.3593C40.903 45.9591 39.68 46.7129 39.4219 45.2241C39.4219 45.2455 40.9279 44.539 41.0739 44.3375C41.4797 43.778 41.4014 42.5357 42.1509 42.2038C42.5069 42.0521 42.4802 43.4579 42.4446 43.6808C42.3378 44.3398 41.818 44.9586 41.4602 45.3403" fill="white"/>
<path d="M46.2839 51.5756C44.7601 53.3347 42.4085 54.8733 39.5869 53.1592C45.1375 52.6306 44.4788 47.8843 44.9488 46.047C45.392 44.3069 46.1717 41.9575 47.7721 41.6943C48.9612 45.7412 48.8117 48.6667 46.2839 51.5851" fill="#D8AD6A"/>
<path d="M46.026 42.8511C46.8413 42.3959 46.2948 44.3826 45.7269 44.7192C45.1074 45.0867 44.0625 44.7027 44.1017 43.5339C44.1533 42.0332 44.7657 44.008 44.9917 44.1005C45.6931 44.4087 45.4136 43.2612 45.9352 42.9151C45.9637 42.8961 45.9922 42.8772 46.0189 42.863" fill="#C3A06A"/>
<path d="M43.1816 42.588C43.778 42.6971 43.6587 39.0058 43.7638 38.7948C43.8118 38.6929 44.4616 38.0054 44.4758 38.2827C44.4954 38.8304 44.4758 39.4041 44.5043 39.9423C46.4055 40.5397 44.0272 42.735 43.1852 42.5809" fill="#B59462"/>
<path d="M56.2211 55.8454C50.5246 62.5735 43.0639 52.7824 46.2611 45.1652C51.7351 32.1261 63.5874 47.1519 56.2211 55.8454Z" fill="#ECCA82"/>
<path d="M50.7003 46.5638C50.591 46.6613 50.4588 46.7026 50.3283 46.68C49.8174 46.5709 49.9064 45.4472 49.9366 45.1343C49.9847 44.6032 50.7235 43.2377 51.391 43.9845C51.6848 44.3093 51.2878 46.0778 50.7003 46.5638Z" fill="#CBA66E"/>
<path d="M48.4474 51.5421C46.9503 52.3742 46.475 49.0789 47.0055 48.223C47.9632 48.0215 47.584 49.3302 47.7175 49.8826C47.8688 50.48 48.5951 50.9044 48.442 51.5421" fill="white"/>
<path d="M51.6244 49.4964C51.069 50.0962 49.8442 50.8525 49.5879 49.3636C49.5879 49.3826 51.0921 48.6761 51.2381 48.4746C51.644 47.9175 51.5656 46.6729 52.3151 46.3552C52.6711 46.2034 52.6462 47.6093 52.6106 47.8298C52.5038 48.4912 51.984 49.11 51.6244 49.4893" fill="white"/>
<path d="M56.4509 55.7123C54.927 57.4737 52.5772 59.01 49.7539 57.2959C55.3044 56.7673 54.6458 52.021 55.1175 50.1837C55.5608 48.4412 56.3405 46.0942 57.9391 45.8311C59.1282 49.8779 58.9805 52.8034 56.4509 55.7194" fill="#DAB477"/>
<path d="M56.6871 45.7813C57.5025 45.3261 56.9577 47.3128 56.3881 47.6494C55.7686 48.0169 54.7236 47.6352 54.7628 46.4641C54.8144 44.961 55.4268 46.9263 55.6529 47.0307C56.3543 47.3365 56.0748 46.1914 56.5964 45.8453L56.68 45.7931" fill="#C3A06A"/>
<path d="M53.7713 44.2878C53.4153 43.7615 53.3013 41.725 53.547 41.2058C53.5969 41.1015 53.677 40.5444 54.2591 40.6937C54.8412 40.8431 54.0633 42.2371 54.0811 42.7847C55.5533 43.2589 54.5208 45.0369 53.8247 44.3541C53.806 44.3341 53.7882 44.3128 53.7713 44.2901" fill="#C3A06A"/>
<path d="M68.5565 53.4767C68.0385 58.7373 67.1983 58.3841 65.9433 60.027C60.4995 67.1392 52.7861 56.964 55.9833 49.3587C60.1524 39.4158 69.29 46.0136 68.5565 53.4885" fill="#ECCA82"/>
<path d="M59.8485 51.4449C58.1502 51.2315 59.5654 46.6892 60.3042 47.3246C60.5552 47.5403 60.3042 48.3866 60.3843 48.7304C60.5392 49.3847 61.2263 49.6479 61.3029 50.1813C61.4257 51.0253 60.5908 51.3951 60.103 51.4449C60.0183 51.4544 59.9332 51.4544 59.8485 51.4449Z" fill="#A28557"/>
<path d="M57.7929 55.3355C56.2958 56.1677 55.8187 52.8723 56.3509 52.0165C57.3069 51.815 56.9277 53.1236 57.063 53.676C57.2143 54.2758 57.9388 54.7025 57.7875 55.3355" fill="white"/>
<path d="M63.6244 53.5149C63.069 54.1123 61.8442 54.8685 61.5879 53.3797C61.5879 53.3987 63.0921 52.6922 63.2399 52.4907C63.9644 51.495 64.397 50.0512 65.4829 49.5249C66.2288 50.1863 64.5768 52.4907 63.6244 53.5149Z" fill="white"/>
<path d="M62.8392 48.7946C62.3639 47.3082 63.626 47.1351 63.6795 46.661C63.7791 45.8288 63.5869 45.3665 63.3038 44.5913C64.1583 44.6672 65.2798 45.6273 65.4792 46.2722C64.9879 46.7937 64.6977 46.9312 64.315 47.5334C63.9785 48.0597 63.8771 48.7994 63.2469 48.8492C63.0546 48.8658 62.8748 48.9108 62.8374 48.7923" fill="#C3A06A"/>
<path d="M52.4069 53.4673C52.2289 53.2752 52.2788 52.9054 52.763 52.3554C53.2151 51.8504 54.05 50.2217 54.2672 51.7058C54.5075 53.3653 52.8217 53.9343 52.4034 53.4673" fill="white"/>
<path d="M44.2082 47.434C44.4378 48.5174 43.3822 49.5084 42.7021 49.0935C42.7538 48.3562 43.8664 45.8266 44.2082 47.434Z" fill="white"/>
<path d="M66.0916 60.4538C64.6853 62.2389 60.4485 63.7301 58.1895 60.4538C62.3283 62.3504 63.9589 60.8568 65.214 59.9346C67.0956 58.5572 67.7222 57.8673 68.0996 56.3145C67.473 59.074 67.7222 58.3841 66.0916 60.4538Z" fill="#DAB477"/>
<path d="M67.1762 51.189C67.2738 51.1462 67.3738 51.1137 67.4753 51.0918C67.7886 53.0974 64.9831 54.0031 65.0062 54.297C64.9421 52.9433 66.2345 51.5873 67.1762 51.189Z" fill="#C3A06A"/>
<path d="M92.7347 66.4824C93.5091 66.6365 93.1459 68.6517 92.4677 68.2771C91.882 67.9547 92.0511 66.3449 92.7347 66.4824Z" fill="#EDCEAB"/>
<path d="M66.9341 15.0329C67.5595 14.9187 68.1674 14.6738 68.7356 14.3075C69.8518 13.5963 71.2812 11.6689 71.4201 9.988C71.4948 9.09898 71.5251 7.33278 70.6777 6.87522C70.1962 6.70405 69.6836 6.78907 69.2483 7.1123C69.2946 6.24935 69.1789 5.68986 68.91 5.45278C68.3297 4.92411 66.6742 5.75861 65.9835 6.77328C64.9154 8.3356 64.3244 11.0951 65.2162 13.4113C65.6969 14.6584 65.9959 15.2463 66.9376 15.0543" fill="#FEFBFC"/>
<path d="M67.889 14.8053C68.8627 14.3619 70.0697 13.6199 70.6838 11.6593C70.9419 10.8319 70.9241 8.89263 70.3029 8.26676C69.6816 7.64088 69.2722 8.12688 68.7007 8.5228C68.8912 5.03781 66.5182 6.82535 65.6015 8.17193C64.5334 9.73424 64.5173 12.4962 65.8044 14.4425C66.536 15.5497 67.4368 15.0162 67.8943 14.8053" fill="#FEFBFC"/>
<path d="M68.5677 8.60106C68.6603 5.37685 66.4155 7.07193 65.5539 8.38058C64.5677 9.88125 64.5499 12.4488 65.7444 14.3454C66.4564 15.4691 67.3287 15.0566 67.8289 14.8195C68.8223 14.3738 69.974 13.665 70.6006 11.7826C70.8855 10.9291 70.7893 9.09417 70.1663 8.46355C69.5432 7.83294 69.1534 8.25019 68.5641 8.58683" fill="#FEFAFC"/>
<path d="M68.4424 8.68173C68.4424 5.71357 66.3187 7.31856 65.5123 8.59165C64.6026 10.0283 64.5884 12.4062 65.6903 14.2506C66.3721 15.3886 67.2266 15.0898 67.7677 14.8551C68.7824 14.4118 69.8826 13.7338 70.5181 11.9273C70.8278 11.043 70.6534 9.31946 70.0303 8.68885C69.4073 8.05823 69.0334 8.40199 68.4406 8.68885" fill="#FEFAFC"/>
<path d="M68.313 8.77176C68.2115 6.06438 66.2195 7.57454 65.4647 8.81443C64.6316 10.1871 64.6174 12.3705 65.6428 14.1676C66.2979 15.3221 67.131 15.1396 67.7131 14.8788C68.7491 14.4378 69.8012 13.7977 70.4403 12.0647C70.7785 11.152 70.524 9.52565 69.9062 8.90215C69.2885 8.27865 68.9147 8.53469 68.313 8.77176Z" fill="#FEF9FB"/>
<path d="M68.1804 8.84069C67.981 6.38935 66.1136 7.80942 65.4194 9.01138C64.6628 10.32 64.6485 12.3304 65.5778 14.0587C66.2062 15.2441 67.0162 15.1635 67.641 14.9003C68.6966 14.4593 69.7024 13.8572 70.3468 12.1977C70.7118 11.2494 70.3771 9.73446 69.754 9.1157C69.131 8.49694 68.7892 8.68185 68.1804 8.84543" fill="#FEF8FB"/>
<path d="M68.0589 8.91874C67.7616 6.72817 66.0224 8.05342 65.3886 9.22219C64.7068 10.4645 64.6908 12.2876 65.5364 13.9637C66.1363 15.149 66.9267 15.1988 67.5942 14.9238C68.6623 14.4829 69.629 13.921 70.2752 12.3302C70.6686 11.3653 70.252 9.94527 69.629 9.32176C69.0059 8.69826 68.6819 8.81442 68.0642 8.91874" fill="#FEF8FB"/>
<path d="M67.9307 9.00861C67.5372 7.07409 65.9226 8.29739 65.3405 9.44245C64.7335 10.6278 64.7157 12.2613 65.4758 13.8781C66.0472 15.0896 66.8198 15.246 67.5283 14.9592C68.6231 14.5135 69.5417 13.9943 70.1879 12.4746C70.6098 11.4813 70.1113 10.1655 69.4883 9.54203C68.8652 8.91852 68.5573 8.96119 67.9307 9.00861Z" fill="#FEF7FA"/>
<path d="M67.8047 9.0776C67.3134 7.40149 65.8234 8.54182 65.2964 9.64184C64.7695 10.7419 64.7428 12.2188 65.4228 13.7717C65.9569 15.0068 66.717 15.2723 67.4682 14.9736C68.5826 14.5279 69.4602 14.0514 70.1046 12.6029C70.5586 11.5835 69.9765 10.3697 69.3534 9.758C68.7304 9.14635 68.4366 9.10368 67.8047 9.09183" fill="#FEF6FA"/>
<path d="M67.6758 9.15803C67.0883 7.73559 65.7176 8.78346 65.253 9.85266C64.7883 10.9219 64.767 12.1878 65.3687 13.6767C65.876 14.9355 66.6148 15.3077 67.4069 14.9972C68.5409 14.5515 69.3794 14.1176 70.022 12.7355C70.5062 11.69 69.844 10.5781 69.2174 9.95223C68.5908 9.32635 68.3166 9.22678 67.6758 9.15803Z" fill="#FEF6F9"/>
<path d="M67.5501 9.24568C66.8647 8.08639 65.6222 9.03468 65.211 10.0707C64.8265 11.0451 64.7909 12.1664 65.316 13.5912C65.7878 14.8738 66.5123 15.3503 67.3489 15.0303C68.5007 14.5798 69.3071 14.1958 69.9391 12.8776C70.4571 11.8108 69.7059 10.7985 69.0828 10.1726C68.4598 9.54676 68.1927 9.3737 67.5501 9.24568Z" fill="#FEF5F9"/>
<path d="M67.4212 9.31715C66.6397 8.41627 65.5182 9.26736 65.1675 10.2654C64.8542 11.1687 64.8114 12.1217 65.26 13.4778C65.6944 14.7864 66.4082 15.3744 67.2876 15.0377C68.4608 14.5873 69.2227 14.2483 69.8564 12.9965C70.4083 11.9084 69.5698 10.9933 68.9468 10.3674C68.3237 9.74151 68.078 9.49495 67.4212 9.31004" fill="#FEF5F9"/>
<path d="M67.2268 15.0686C68.4195 14.6181 69.1458 14.3265 69.7725 13.1388C70.3599 12.0293 69.4325 11.2114 68.8094 10.5855C68.1863 9.95964 67.9585 9.63722 67.2945 9.40014C66.4133 8.7553 65.4111 9.5092 65.1245 10.4859C64.8806 11.3181 64.8272 12.1004 65.2064 13.3925C65.5998 14.7296 66.3065 15.4171 67.2268 15.0709" fill="#FEF4F8"/>
<path d="M66.86 12.6431C66.6907 12.6771 66.538 12.7979 66.4346 12.9797C66.3028 13.1646 66.18 13.3875 66.0785 13.5321C65.8756 13.3472 65.8222 13.1551 65.7332 13.3069C65.6897 13.5392 65.6758 13.7796 65.6922 14.0181C65.686 14.2155 65.7251 14.4107 65.8044 14.5776C65.9682 14.8692 66.1747 15.1418 66.4221 14.9119C66.5985 14.6577 66.7417 14.366 66.8458 14.0489C66.9123 13.8431 66.9509 13.6231 66.9597 13.3993C66.9678 13.1412 66.9332 12.8838 66.8582 12.6454" fill="#FEF4F8"/>
<path d="M65.7667 13.4419C65.726 13.6499 65.7122 13.8655 65.7258 14.0797C65.7207 14.2594 65.7547 14.4372 65.8237 14.5917C65.9696 14.862 66.1583 15.1109 66.3844 14.9094C66.5502 14.6875 66.6852 14.4283 66.7832 14.1437C66.8483 13.9485 66.8846 13.7384 66.89 13.5249C66.8952 13.2888 66.8612 13.054 66.7903 12.8374C66.6364 12.8635 66.4964 12.969 66.4004 13.1314C66.2794 13.2973 66.169 13.4941 66.0782 13.6245C65.886 13.468 65.8415 13.3044 65.7614 13.4419" fill="#FCEBF3"/>
<path d="M65.7971 13.5796C65.7596 13.764 65.7464 13.9557 65.7579 14.1462C65.7527 14.3073 65.7823 14.4669 65.8434 14.6061C65.968 14.8574 66.1407 15.0803 66.3454 14.9096C66.5004 14.7185 66.6277 14.4911 66.721 14.2387C66.7835 14.0545 66.8169 13.8552 66.8189 13.6531C66.8214 13.4412 66.7879 13.2313 66.721 13.0391C66.5876 13.0575 66.4643 13.1422 66.3757 13.2761C66.2671 13.4208 66.1692 13.5938 66.0873 13.7076C65.9093 13.582 65.8701 13.4445 65.7971 13.5701" fill="#FBE2ED"/>
<path d="M65.8262 13.7145C65.7925 13.8756 65.7805 14.0433 65.7906 14.21C65.7858 14.3536 65.8104 14.4962 65.8618 14.6225C65.9668 14.8596 66.1217 15.0516 66.3068 14.9094C66.4532 14.7509 66.5743 14.5551 66.6628 14.3333C66.7255 14.1611 66.7581 13.9722 66.7581 13.7809C66.7581 13.5895 66.7255 13.4007 66.6628 13.2285C66.5444 13.2426 66.435 13.3184 66.3584 13.4395C66.2623 13.5628 66.1804 13.7098 66.1021 13.8117C65.9241 13.7121 65.9063 13.6055 65.8386 13.7145" fill="#FAD9E7"/>
<path d="M65.8663 13.8522C65.8344 13.9894 65.8223 14.1334 65.8307 14.2765C65.8275 14.4018 65.8471 14.5262 65.8877 14.6393C65.9731 14.8479 66.112 15.0233 66.2757 14.9095C66.4082 14.7846 66.5188 14.6228 66.5997 14.4354C66.6619 14.2762 66.6914 14.0978 66.6852 13.9185C66.6834 13.7478 66.6504 13.5801 66.589 13.4302C66.4875 13.4397 66.3925 13.5008 66.3238 13.6009C66.2401 13.7028 66.1636 13.8261 66.0995 13.9114C65.9411 13.8427 65.9215 13.7621 65.8663 13.8593" fill="#F8D0E2"/>
<path d="M65.8895 13.9873C65.8615 14.1011 65.8506 14.2211 65.8574 14.3405C65.8535 14.4486 65.8681 14.5564 65.9001 14.6559C65.966 14.8408 66.0871 14.9949 66.2295 14.9119C66.3509 14.8157 66.4534 14.6825 66.5285 14.5231C66.5894 14.3789 66.6166 14.2138 66.6069 14.0489C66.6032 13.8998 66.5707 13.7545 66.5125 13.627C66.4279 13.6299 66.3474 13.6767 66.2882 13.7573C66.2152 13.8379 66.1494 13.9351 66.096 13.9944C65.9482 13.9541 65.9411 13.902 65.8895 13.9944" fill="#F7C6DB"/>
<path d="M65.9232 14.1294C65.8989 14.2197 65.888 14.3156 65.8912 14.4115C65.888 14.5018 65.8983 14.592 65.9214 14.677C65.9677 14.8406 66.071 14.9733 66.1938 14.9141C66.3031 14.8522 66.3974 14.7513 66.4662 14.6225C66.5291 14.4882 66.5549 14.3289 66.5392 14.172C66.5323 14.0443 66.4997 13.9215 66.4448 13.8164C66.3794 13.8156 66.3161 13.8469 66.2668 13.9041C66.2119 13.9633 66.1596 14.0266 66.1101 14.0938C65.9731 14.0938 65.9748 14.0582 65.9321 14.127" fill="#F5BCD5"/>
<path d="M65.9568 14.2744C65.9356 14.3411 65.9252 14.413 65.9266 14.4854C65.9236 14.558 65.929 14.6308 65.9426 14.7012C65.948 14.7704 65.9736 14.834 66.0139 14.8784C66.0542 14.9227 66.1059 14.9442 66.158 14.9382C66.2545 14.9094 66.3414 14.8395 66.4054 14.7391C66.4669 14.6174 66.4905 14.4686 66.4713 14.3242C66.463 14.2176 66.4307 14.1168 66.3787 14.035C66.3273 14.0251 66.275 14.0421 66.2328 14.0824C66.1877 14.1187 66.1459 14.1616 66.1081 14.2104C65.9818 14.227 65.9942 14.2318 65.9568 14.2863" fill="#F4B2CE"/>
<path d="M65.9804 14.4095C65.9621 14.4521 65.9522 14.5003 65.9519 14.5494C65.9483 14.6046 65.9483 14.6601 65.9519 14.7154C65.9565 14.7689 65.9748 14.8188 66.0036 14.8568C66.0324 14.8947 66.07 14.9184 66.1103 14.924C66.1913 14.9272 66.2705 14.891 66.3328 14.822C66.3916 14.758 66.4058 14.6158 66.3916 14.438C66.3815 14.3514 66.3487 14.2725 66.299 14.2151C66.265 14.1998 66.2281 14.1998 66.194 14.2151C66.1605 14.23 66.1292 14.2525 66.1014 14.2815C65.9875 14.3289 66.0089 14.3621 65.9786 14.4024" fill="#F2A7C8"/>
<path d="M66.093 14.376C65.9897 14.4518 66.02 14.5111 65.9968 14.5372C65.9737 14.5633 65.9666 14.6083 65.9594 14.7245C65.9569 14.7672 65.9653 14.8098 65.9835 14.8451C66.0016 14.8805 66.0283 14.9065 66.0591 14.9189C66.1225 14.9533 66.1934 14.9533 66.2567 14.9189C66.3173 14.8786 66.3279 14.7411 66.3083 14.5704C66.3026 14.5365 66.2913 14.5047 66.2753 14.4772C66.2593 14.4498 66.239 14.4274 66.2158 14.4115C66.1986 14.3939 66.1783 14.3822 66.1569 14.3776C66.1354 14.3731 66.1134 14.3758 66.093 14.3854" fill="#F19CC1"/>
<path d="M74.0177 15.8177C74.2705 14.8813 74.9292 12.8069 75.3048 12.1122C76.0631 10.7088 77.6386 9.78417 78.9167 9.76758C79.595 9.76758 80.3996 10.0047 80.7396 10.8984C81.0796 11.7922 80.6755 12.2829 80.2643 13.0084C82.8954 13.1056 80.9995 16.4697 79.8139 17.5436C78.4379 18.7906 76.2643 19.3003 74.7227 17.8921C73.8895 17.1311 73.6848 17.041 74.0106 15.8177" fill="#FEFBFC"/>
<path d="M74.5219 13.9327C75.2785 12.5292 76.0244 10.8744 77.3008 10.8507C77.979 10.8507 79.2144 10.7844 79.5545 11.6686C79.8945 12.5529 79.453 13.0413 79.0435 13.7644C81.6728 13.8639 80.0404 16.5784 78.8549 17.6524C77.4788 18.8994 76.3199 19.172 74.7213 17.8895C73.3809 16.8084 73.6532 15.5353 74.5219 13.9303" fill="#FEFBFC"/>
<path d="M78.9435 13.8809C81.3609 14.0824 79.8478 16.593 78.6622 17.6741C77.3057 18.8997 76.2572 19.1321 74.7227 17.9111C73.4196 16.868 73.6635 15.6494 74.5287 14.0445C75.287 12.6433 75.9528 11.1308 77.231 11.1142C77.911 11.1142 79.0325 10.9696 79.3671 11.8563C79.7018 12.7429 79.2657 13.1862 78.9381 13.8998" fill="#FEFAFC"/>
<path d="M78.8407 13.9875C81.0481 14.2909 79.656 16.5953 78.4668 17.6716C77.1335 18.8735 76.1918 19.0632 74.7285 17.8944C73.4646 16.8892 73.6746 15.7252 74.5416 14.1226C75.2981 12.7191 75.8892 11.3488 77.1673 11.3346C77.8455 11.3346 78.8531 11.1117 79.1949 11.996C79.5367 12.8803 79.0917 13.2833 78.8389 13.9875" fill="#FEFAFC"/>
<path d="M78.7378 14.0895C80.7333 14.4973 79.4605 16.6049 78.2714 17.6717C76.9576 18.8571 76.1263 19.0017 74.7217 17.8922C73.497 16.9273 73.675 15.8178 74.5437 14.2128C75.3003 12.8022 75.8129 11.5837 77.0893 11.5694C77.7676 11.5694 78.663 11.2683 79.003 12.1526C79.343 13.0369 78.9015 13.3973 78.7378 14.0895Z" fill="#FEF9FB"/>
<path d="M78.6359 14.1959C80.4161 14.7032 79.2661 16.6093 78.0752 17.6761C76.7828 18.8354 76.06 18.9421 74.7214 17.8918C73.534 16.9649 73.68 15.9099 74.5433 14.3049C75.3017 12.9038 75.7378 11.8204 77.016 11.8038C77.6925 11.8038 78.4757 11.4245 78.8157 12.3111C79.1557 13.1978 78.7125 13.5131 78.6377 14.2077" fill="#FEF8FB"/>
<path d="M78.5354 14.3002C80.1073 14.9118 79.0694 16.614 77.8821 17.6785C76.611 18.8164 75.9951 18.8804 74.7223 17.8918C73.5741 17.0052 73.688 15.9952 74.555 14.3997C75.3115 12.9962 75.6711 12.0551 76.9493 12.029C77.6275 12.029 78.2951 11.5714 78.6351 12.4557C78.9751 13.34 78.5336 13.615 78.5354 14.2883" fill="#FEF8FB"/>
<path d="M78.4325 14.4046C79.7943 15.1158 78.8793 16.6212 77.6866 17.6833C76.4405 18.7976 75.9314 18.8213 74.7227 17.892C73.6119 17.0432 73.6955 16.0949 74.5607 14.4923C75.319 13.0888 75.6021 12.2923 76.8749 12.2757C77.5531 12.2757 78.1085 11.7399 78.4485 12.6265C78.7886 13.5132 78.3453 13.7432 78.429 14.4046" fill="#FEF7FA"/>
<path d="M78.3261 14.5112C79.4743 15.3268 78.6821 16.6259 77.4876 17.6857C76.2593 18.7786 75.8606 18.762 74.7177 17.8919C73.6496 17.0835 73.6959 16.1897 74.5628 14.5847C75.3194 13.1813 75.5259 12.5293 76.8041 12.5127C77.4805 12.5127 77.9238 11.8987 78.262 12.783C78.6002 13.6673 78.1605 13.8593 78.3261 14.5112Z" fill="#FEF6FA"/>
<path d="M78.2297 14.6155C79.1661 15.5354 78.4914 16.6307 77.2987 17.6975C76.106 18.7643 75.8016 18.7122 74.7228 17.9014C73.6903 17.1309 73.7081 16.2917 74.5733 14.6867C75.3316 13.2856 75.4633 12.7735 76.7379 12.7593C77.4144 12.7593 77.7437 12.067 78.0837 12.9513C78.4237 13.8356 77.9823 13.9826 78.2297 14.625" fill="#FEF6F9"/>
<path d="M78.1279 14.7225C78.8524 15.7419 78.3059 16.6357 77.1025 17.6931C75.8991 18.7504 75.7353 18.6413 74.7224 17.8922C73.7095 17.143 73.7131 16.3749 74.58 14.7723C75.3384 13.3688 75.39 13.0014 76.6664 12.9848C77.3446 12.9848 77.5564 12.2143 77.9 13.1009C78.2436 13.9876 77.7968 14.0895 78.1279 14.7225Z" fill="#FEF5F9"/>
<path d="M78.0252 14.8264C78.5397 15.9501 78.1054 16.6424 76.9091 17.695C75.7431 18.7239 75.6719 18.5816 74.7231 17.8917C73.7742 17.2019 73.7208 16.4693 74.5878 14.8643C75.3443 13.4608 75.3194 13.238 76.5958 13.2214C77.274 13.2214 77.3755 12.3727 77.7155 13.2569C78.0555 14.1412 77.614 14.2052 78.0252 14.8264Z" fill="#FEF5F9"/>
<path d="M74.588 14.957C75.3463 13.5559 75.243 13.4729 76.5212 13.4587C77.1977 13.4587 77.187 12.5294 77.527 13.416C77.867 14.3027 77.4237 14.3216 77.9186 14.9309C78.2213 16.159 77.9062 16.6473 76.7099 17.6999C75.5635 18.7051 75.6009 18.5226 74.7179 17.892C73.8011 17.2376 73.7228 16.562 74.588 14.957Z" fill="#FEF4F8"/>
<path d="M75.9357 15.512C75.7933 16.6594 74.2249 17.5413 74.0149 17.2592C73.8369 17.0221 73.6588 16.4342 73.9472 16.3559C74.0398 16.3299 75.9464 15.4195 75.9357 15.512Z" fill="#FEF4F8"/>
<path d="M75.7411 15.6777C75.5808 16.7209 74.2137 17.5032 74.0054 17.2566C73.7971 17.0101 73.6672 16.4577 73.9591 16.3984C74.0517 16.3818 75.7553 15.5853 75.7393 15.6872" fill="#FCEBF3"/>
<path d="M75.5451 15.8413C75.3671 16.7896 74.1993 17.4676 73.9928 17.2638C73.7863 17.0599 73.6688 16.4909 73.9679 16.453C74.0622 16.453 75.5611 15.7607 75.5451 15.8508" fill="#FBE2ED"/>
<path d="M75.3478 16.005C75.1698 16.8466 74.1836 17.4275 73.9807 17.2497C73.7777 17.0718 73.6727 16.5029 73.9807 16.4863C74.0733 16.4863 75.3692 15.9173 75.3496 16.0121" fill="#FAD9E7"/>
<path d="M75.1495 16.1686C74.9715 16.9083 74.1651 17.3943 73.9657 17.2449C73.7663 17.0956 73.6737 16.5337 73.9871 16.5337C74.0796 16.5337 75.1726 16.0856 75.1495 16.171" fill="#F8D0E2"/>
<path d="M74.9542 16.3322C74.7655 16.97 74.1496 17.3588 73.9538 17.2402C73.7579 17.1217 73.6761 16.5456 73.9965 16.5741C74.0891 16.5741 74.9791 16.2469 74.9542 16.337" fill="#F7C6DB"/>
<path d="M74.7666 16.4981C74.5886 17.0362 74.1418 17.3254 73.9513 17.2401C73.7608 17.1548 73.6878 16.5668 74.0154 16.6166C74.1079 16.6308 74.7951 16.4151 74.7666 16.4981Z" fill="#F5BCD5"/>
<path d="M74.5562 16.6569C74.3781 17.0979 74.1093 17.2876 73.9242 17.2307C73.7106 17.1619 73.6768 16.5811 74.0114 16.6546C74.104 16.6759 74.5882 16.574 74.5562 16.6546" fill="#F4B2CE"/>
<path d="M74.3689 16.7967C74.2016 17.1452 74.1019 17.2329 73.9221 17.2021C73.8962 17.1926 73.8719 17.1764 73.8506 17.1544C73.8294 17.1324 73.8116 17.105 73.7983 17.0739C73.785 17.0427 73.7764 17.0084 73.7731 16.9728C73.7697 16.9373 73.7717 16.9012 73.7788 16.8666C73.7859 16.8321 73.7981 16.7997 73.8146 16.7714C73.8311 16.7431 73.8517 16.7194 73.8751 16.7017C73.8985 16.684 73.9242 16.6726 73.9509 16.6681C73.9776 16.6637 74.0047 16.6663 74.0307 16.6758C74.1233 16.7018 74.4081 16.7184 74.3689 16.7967Z" fill="#F2A7C8"/>
<path d="M74.1644 16.9581C74.0077 17.2188 74.0771 17.1951 73.9009 17.1951C73.6766 17.1951 73.6819 16.593 74.0326 16.721C74.1252 16.7518 74.2106 16.8869 74.1644 16.9581Z" fill="#F19CC1"/>
<path d="M14.332 70.7856C23.9752 78.7252 34.4087 82.0135 49.5026 83.1301C37.5311 83.379 22.7629 78.7869 14.332 70.7856Z" fill="white"/>
</g>
<defs>
<clipPath id="clip0_32400_1801">
<rect width="103" height="84" fill="white"/>
</clipPath>
</defs>
</svg>
