<svg width="138" height="84" viewBox="0 0 138 84" fill="none" xmlns="http://www.w3.org/2000/svg">
<g clip-path="url(#clip0_32400_1801)">
<path d="M130.391 37.0072C136.355 58.5572 113.136 83.9976 65.2427 83.9976C25.5375 84.2465 -4.6301 61.4353 0.58789 37.1376C4.45931 14.6986 29.8713 3.62485 65.4063 3.8074C100.787 3.98757 124.587 15.085 130.398 36.9977" fill="#E6E6E6"/>
<path d="M130.708 37.0072C136.663 58.5572 110.685 83.1631 65.4437 83.1631C27.4716 83.3267 -4.31996 61.4353 0.898032 37.1376C4.76708 14.6986 30.179 3.62485 65.7164 3.8074C101.097 3.98757 124.897 15.085 130.708 36.9977" fill="#F7F8F8"/>
<path d="M131.576 39.4041C132.934 64.5529 102.198 82.5326 65.8568 82.3856C29.5158 82.2386 -0.564178 64.0551 0.0593267 39.0153C0.623562 16.3914 29.4565 0.0451423 65.615 9.82665e-05C103.405 -0.0473165 130.369 17.0694 131.576 39.4041Z" fill="#EFEFEF"/>
<path d="M119.604 39.7478C121.197 60.6222 95.709 73.116 65.7381 73.0804C34.3069 73.0804 11.3463 58.306 12.3396 39.7787C13.2595 22.6193 37.3367 9.34549 66.2052 9.48299C94.9717 9.62524 118.219 22.5695 119.604 39.7431" fill="#FBFBFB"/>
<path d="M67.5395 10.8507C94.9784 11.3605 116.45 23.9183 116.988 40.274C117.688 60.155 92.821 71.7811 64.3034 71.4184C34.3918 71.122 13.1524 56.8051 14.8498 39.1597C16.4738 22.8206 40.0081 10.4098 67.5395 10.8507Z" fill="#F9F9F9"/>
<path d="M68.8744 12.2162C94.9833 13.091 114.682 25.2553 114.376 40.8026C114.179 59.6902 89.9337 70.4487 62.8669 69.754C34.4773 69.1424 14.9022 55.2925 17.3488 38.5433C19.627 23.0149 42.673 11.4765 68.8649 12.2281" fill="#F8F8F8"/>
<path d="M70.2072 13.5818C94.9885 14.8217 112.914 26.6208 111.761 41.3194C110.673 59.2138 87.0441 69.1045 61.433 68.0827C34.5631 67.1723 16.6806 53.7824 19.8693 37.9316C22.8256 23.2094 45.3547 12.541 70.2072 13.5818Z" fill="#F6F6F6"/>
<path d="M71.5415 14.9473C94.9952 16.5523 111.147 27.9556 109.149 41.8576C107.157 58.7562 84.1609 67.7816 59.9984 66.4303C34.6481 65.1951 18.463 52.2699 22.3771 37.3081C26.0186 23.4014 48.0285 13.6007 71.5415 14.9473Z" fill="#F5F5F5"/>
<path d="M72.8768 16.313C95.0029 18.2855 109.386 29.3023 106.541 42.3912C103.658 58.2893 81.2692 66.447 58.5575 64.7686C34.734 63.2371 20.2464 50.7527 24.893 36.6919C29.2173 23.5888 50.7056 14.6725 72.8815 16.3035" fill="#F3F3F3"/>
<path d="M74.2038 17.6784C94.9999 20.016 107.603 30.6464 103.914 42.9102C100.149 57.8221 78.381 65.1145 57.1344 63.1041C34.8258 61.2668 22.0475 49.233 27.403 36.0777C32.41 23.776 53.3721 15.7368 74.2038 17.6784Z" fill="#F2F2F2"/>
<path d="M75.5438 19.0439C95.0123 21.7466 105.844 31.9929 101.307 43.4388C96.6434 57.3551 75.4917 63.7798 55.6936 61.4422C34.907 59.3086 23.8262 47.7133 29.9071 35.4566C35.6111 23.9585 56.0469 16.8036 75.5438 19.0439Z" fill="#F0F0F0"/>
<path d="M76.8779 20.4095C95.0188 23.4702 104.075 33.3396 98.6934 43.9652C93.134 56.8881 72.6153 62.457 54.2563 59.7804C34.9917 57.3291 25.6225 46.189 32.4171 34.8497C38.8181 24.1529 58.718 17.88 76.8779 20.4214" fill="#EEEFEF"/>
<path d="M78.2135 21.7729C95.0244 25.2081 102.307 34.6839 96.0794 44.4917C89.6262 56.4212 69.7168 61.1153 52.8229 58.1187C35.0779 55.3615 27.4275 44.6671 34.9262 34.2217C42.0384 24.3238 61.3931 18.9328 78.2135 21.7729Z" fill="#EDEDED"/>
<path d="M79.5476 23.1382C95.0285 26.9314 100.54 36.0303 93.4662 45.0201C86.1169 55.954 66.8286 59.7804 51.388 56.4542C35.1626 53.3912 29.2382 43.1449 37.4362 33.6027C45.2596 24.5062 64.0643 19.9994 79.5476 23.1382Z" fill="#EBEBEC"/>
<path d="M80.8798 24.5039C95.0355 28.6716 98.7718 37.3746 90.8511 45.5465C82.6104 55.487 63.9385 58.4481 49.9512 54.7924C35.2526 51.4236 31.0564 41.6277 39.9443 32.9816C48.4789 24.684 66.7336 21.0592 80.8798 24.4991" fill="#E9EAEA"/>
<path d="M82.2145 25.8697C95.0402 30.4026 97.0055 38.7215 88.2385 46.0755C79.1041 55.0203 61.0509 57.1137 48.5168 53.1308C35.3331 49.4538 32.8699 40.1155 42.4548 32.3703C51.7007 24.8858 69.4101 22.1287 82.2145 25.8697Z" fill="#E8E8E8"/>
<path d="M83.5492 27.2349C95.0472 32.1329 95.2369 40.0677 85.6235 46.6015C75.5953 54.5529 58.1633 55.781 47.0825 51.4686C35.4184 47.4858 34.7048 38.6097 44.963 31.7512C54.9391 25.0823 72.0819 23.1952 83.5492 27.2349Z" fill="#E6E7E7"/>
<path d="M84.8847 28.6006C95.0528 33.8637 93.4691 41.4026 83.0094 47.1279C72.0898 54.0884 55.2718 54.4464 45.6466 49.8045C35.5046 45.5158 36.5335 37.1116 47.4744 31.1349C58.1736 25.2887 74.7569 24.2598 84.8847 28.6006Z" fill="#E4E5E5"/>
<path d="M86.2168 29.966C95.0597 35.5965 91.7003 42.7679 80.3966 47.6564C68.5809 53.6212 52.3864 53.1091 44.2121 48.1306C35.5897 43.5361 38.3611 35.6059 49.9824 30.5041C61.4094 25.4876 77.4285 25.3146 86.2168 29.9541" fill="#E3E3E4"/>
<path d="M87.5513 31.3293C95.0642 37.3272 89.9339 44.1052 77.7815 48.1828C65.0744 53.1614 49.4986 51.7816 42.7752 46.4806C35.663 41.578 40.1864 34.1338 52.4952 29.8997C64.6453 25.7177 80.1048 26.391 87.5537 31.3221" fill="#E1E2E2"/>
<path d="M88.886 32.6947C95.0713 39.0578 88.1748 45.4493 75.1689 48.7114C61.5656 52.6872 46.611 50.4468 41.3409 44.8187C35.7602 39.6031 42.0094 32.6521 55.0011 29.2809C67.8742 25.9429 82.7743 27.4554 88.886 32.6947Z" fill="#DFE0E0"/>
<path d="M90.2205 34.0606C95.0758 40.7887 86.3965 46.7962 72.5538 49.2333C58.0567 52.2157 43.7232 49.11 39.9064 43.15C35.8453 37.638 43.8276 31.1706 57.5115 28.66C71.1005 26.166 85.4459 28.5178 90.2277 34.0558" fill="#DEDEDF"/>
<path d="M91.5555 35.4259C95.0808 42.5191 84.6353 48.1401 69.9367 49.7641C54.5506 51.7531 40.8336 47.7798 38.4699 41.4878C35.9309 35.6677 45.6438 29.6982 60.0199 28.041C74.325 26.3957 88.1203 29.582 91.5508 35.4211" fill="#DCDDDD"/>
<path d="M92.8878 36.7914C95.0878 44.2498 82.8619 49.4867 67.3265 50.2928C51.0419 51.2861 37.9459 46.4475 37.0356 39.8284C36.0185 33.7024 47.455 28.2283 62.5305 27.427C77.5444 26.6305 90.7921 30.6512 92.8878 36.7891" fill="#DADBDB"/>
<path d="M94.2223 38.1686C95.0947 45.9921 81.0931 50.845 64.7137 50.8308C47.5353 50.8308 35.0581 45.1244 35.601 38.1805C36.1036 31.7463 49.2612 26.7701 65.0409 26.8247C80.7612 26.8768 93.466 31.7297 94.2223 38.1686Z" fill="#D9D9DA"/>
<path d="M84.7275 58.7681C86.6384 59.5386 111.078 64.5029 113.392 64.2801C114.838 64.2801 112.894 62.8932 111.159 62.4191C108.295 62.5471 87.6151 57.9597 85.7185 57.1157C85.434 57.5093 84.8437 58.3011 84.7275 58.7752" fill="#E0E1E1"/>
<path d="M96.1439 46.7034C100.025 47.82 118.256 51.3714 119.728 50.9707C120.202 51.4449 123.922 52.4121 123.486 53.0759C119.728 53.2277 95.4824 48.517 95.4824 48.517C95.842 47.97 96.0685 47.3465 96.1439 46.6963" fill="#E0E1E1"/>
<path d="M96.1009 34.658C98.2203 36.0022 120.403 40.2126 122.058 40.2885C122.81 40.7389 124.991 40.9665 125.14 41.6422C120.252 41.4928 99.7234 37.8063 95.4395 36.3104C95.8899 35.3265 95.4134 35.4166 96.1009 34.6509" fill="#E0E1E1"/>
<path d="M62.1134 25.6039C54.0837 25.6039 46.1251 24.5798 39.0935 29.5014C36.0305 31.6351 23.9445 34.7763 23.1456 38.7473C22.3158 42.8842 29.3545 44.0696 32.5764 46.5707C36.1111 49.3066 37.3416 53.0144 40.5586 56.6203C43.4035 59.8066 47.2655 59.6572 50.6509 61.9142C53.6285 63.9008 57.8864 67.1748 62.3955 67.3669C68.9316 67.6561 71.3 64.5884 73.3981 65.0506C76.582 65.7619 78.481 65.494 80.3467 64.8136C84.6876 63.1991 86.4561 62.5874 89.0308 60.2214C90.4532 58.9057 90.3347 56.8503 91.0886 55.1481C91.9918 53.1092 93.675 52.0519 95.529 50.921C97.7835 49.546 98.3264 48.6949 99.1751 46.2578C99.8532 44.3067 100.389 42.1635 102.319 41.0801C104.782 39.7003 106.762 38.4723 106.385 35.1793C106.1 32.6877 102.94 32.4127 100.771 31.967C98.7389 31.5474 96.6574 31.4928 94.5878 31.5047C92.7505 31.5047 91.2687 31.8271 89.723 30.829C86.6055 28.8163 83.3528 26.8249 79.645 26.161C73.9292 25.1298 67.9122 25.6039 62.1134 25.6039Z" fill="#CFA166"/>
<path d="M62.1135 25.6042C54.0838 25.6042 46.1252 24.58 39.0936 29.5016C36.0306 31.6353 23.9446 34.7765 23.1456 38.7475C22.7473 40.7366 24.2907 42.0073 25.7937 42.9603C27.3466 43.9442 28.9255 45.3998 30.7984 45.6938C32.171 45.9119 33.4441 45.4686 34.7291 46.0684C36.2843 46.7938 37.3535 48.3158 39.0865 49.0128C40.6559 49.6434 41.9314 49.5676 43.707 49.8355C44.9872 50.0299 47.3722 49.8734 48.349 50.7079C49.1669 51.4191 48.9748 52.6448 49.6552 53.3679C50.4257 54.1881 52.0023 54.2213 53.0786 54.2972C55.9235 54.4987 58.7921 54.4608 61.5943 55.0084C64.2376 55.5229 65.3756 57.557 67.8578 58.2753C69.816 58.8395 71.7197 58.0216 73.6779 58.7115C75.5864 59.3801 76.326 60.7835 77.8623 61.9547C80.38 63.8726 83.8152 63.2847 86.3614 61.7627C87.2338 61.2435 88.642 60.5773 89.3461 59.8661C90.9156 58.2421 90.0455 55.8903 90.164 53.9131C90.311 51.3907 91.7714 50.12 94.071 49.321C95.9557 48.6762 97.1103 48.4936 97.9424 46.4524C98.8054 44.3425 98.509 41.9622 99.2392 39.8357C99.8556 38.0316 101.411 35.9453 100.977 33.942C100.334 30.9644 96.9301 31.4954 94.5878 31.5073C92.7505 31.5073 91.2688 31.8297 89.7231 30.8316C86.6056 28.8189 83.3529 26.8275 79.6451 26.1636C73.9292 25.13 67.9123 25.6042 62.1135 25.6042Z" fill="#BB8D54"/>
<path d="M38.8948 49.8449C38.4021 49.1622 37.8465 48.5273 37.2353 47.9483C36.8417 47.5761 32.8091 45.9024 32.9561 46.5496C33.3235 48.1546 35.7559 49.9042 36.7208 51.329C37.9441 53.1355 39.0915 54.9823 40.5495 56.6157C43.3944 59.802 47.2564 59.6527 50.6418 61.9096C53.6194 63.8963 57.8773 67.1703 62.3864 67.3623C68.9225 67.6515 71.2909 64.5838 73.389 65.0461C76.1983 65.6672 80.6577 65.2286 82.9976 63.3747C80.9588 64.2898 78.1684 63.5739 75.9968 63.6355C73.8252 63.6971 71.3526 63.6971 69.2876 64.2519C67.4337 64.7498 65.8833 65.9659 63.8752 65.8735C61.7558 65.7763 60.5681 64.3847 58.9133 63.3202C57.2016 62.2202 55.0158 62.1799 53.3207 61.0324C51.5403 59.8305 50.5849 57.7395 48.3256 57.4763C46.4859 57.2582 44.9591 58.0738 43.3684 56.9192C41.9838 55.9116 41.2347 54.0364 40.5092 52.5523C40.0461 51.6034 39.5037 50.6954 38.8877 49.8378" fill="#DAAA6C"/>
<path d="M96.2189 9.26506C96.5461 10.1185 95.823 11.6358 94.8961 12.8212C92.2456 16.1876 88.8697 15.5238 87.203 14.144C87.12 12.9041 88.4002 10.3295 90.5339 8.76957C92.3357 7.45381 93.7154 7.47041 94.8012 7.70274C94.7536 8.25527 94.6656 8.80357 94.5381 9.34329C95.6974 9.27217 95.4224 9.34329 96.2189 9.26506Z" fill="#EFEFEF"/>
<path d="M109.621 15.8434C109.666 16.7443 109.23 18.2521 107.8 18.6883C104.719 19.6556 99.6119 20.4996 98.2891 16.5665C98.5925 15.3811 101.947 14.1223 104.453 13.3091C106.572 12.6216 107.879 13.0554 108.841 13.6054C108.625 14.1097 108.373 14.5978 108.087 15.0658C109.209 15.3527 108.829 15.6727 109.616 15.8316" fill="#EFEFEF"/>
<path d="M89.8813 39.7524C89.8813 40.3688 89.3076 40.8572 89.1251 41.4546C88.9425 42.0521 89.1251 42.7135 89.0279 43.3512C88.9307 43.989 88.8406 44.923 88.2811 43.9724C87.9492 43.4034 87.9492 42.1184 88.1554 41.5115C88.3072 41.0611 89.8813 39.8141 89.8813 39.7619" fill="#C3A06A"/>
<path d="M94.9688 38.6266C94.5753 38.0174 96.4387 38.7144 96.2561 38.7001C96.7611 38.7357 97.0977 38.629 97.6312 38.5792C98.8307 38.4631 99.3357 38.8021 99.0394 40.1084C97.7995 40.1984 95.699 39.7551 94.9688 38.6266Z" fill="#C3A06A"/>
<path d="M50.1626 16.626C50.1626 16.626 135.829 43.688 136.512 43.9701C137.593 44.4158 137.245 46.0824 136.166 45.6296C135.087 45.1768 49.9326 17.8493 49.9326 17.8493L50.1697 16.626" fill="#F5D6BA"/>
<path d="M55.6597 24.0723C48.4953 29.7454 38.9199 22.344 43.1422 15.0634C49.2397 4.55871 64.9198 16.7372 55.6597 24.0723Z" fill="#ECCA82"/>
<path d="M55.6606 24.0723C52.7233 26.398 47.4081 26.9931 45.1132 23.4488C44.2431 22.1023 43.008 20.905 42.0312 19.6201C42.1427 19.7671 43.7714 19.9022 44.0748 20.0018C45.4546 20.4641 46.3175 21.6305 47.7305 22.1212C50.1629 22.9628 52.5336 22.2066 53.8067 19.9662C54.755 18.3067 55.1794 15.9976 57.4885 15.7368C58.9512 19.1459 58.7687 21.6115 55.6583 24.0723" fill="#D8AD6A"/>
<path d="M50.1367 17.1407C50.1301 17.1569 50.1246 17.1735 50.1201 17.1905C48.8304 16.4034 49.1884 17.3161 48.0007 17.3849C46.308 17.4821 48.6621 15.5831 49.1149 15.4053C51.0708 14.6419 50.682 15.621 50.1367 17.1407Z" fill="#CFA970"/>
<path d="M52.7063 11.6284C51.3929 11.4743 52.3484 12.7521 52.0828 13.3211C51.7628 14.0109 50.6248 14.0987 49.9871 14.0512C49.9729 13.4799 50.6699 13.3708 51.0207 12.9607C51.1606 12.8019 49.5793 12.2969 49.4561 12.2637C49.8069 12.3609 50.3214 11.2135 50.6414 11.0902C51.3858 10.7939 52.0639 11.268 52.7158 11.6284" fill="#C3A06A"/>
<path d="M56.0914 18.0509C57.1156 17.6692 56.4304 19.343 55.7145 19.6275C54.9369 19.9357 53.6235 19.6132 53.6733 18.627C53.7373 17.361 54.5078 19.0182 54.8017 19.1012C55.6813 19.3596 55.3304 18.3899 55.9871 18.0936L56.0938 18.0486" fill="#C3A06A"/>
<path d="M46.8526 20.1752C44.9726 21.1661 44.3728 17.2355 45.039 16.2113C46.2434 15.9742 45.7668 17.5342 45.9423 18.1932C46.1319 18.9045 47.0447 19.4142 46.8526 20.1752Z" fill="white"/>
<path d="M50.0226 20.898C49.136 21.026 48.2043 20.9905 48.0857 20.7724C47.659 19.9734 50.5537 19.1792 51.1369 19.5159C52.3886 20.239 51.2507 20.7226 50.0226 20.898Z" fill="white"/>
<path d="M67.2938 27.7377C60.2812 33.4109 51.1159 25.156 55.0442 18.7289C61.7771 7.72631 76.3548 20.4026 67.2938 27.7377Z" fill="#ECCA82"/>
<path d="M62.6964 21.2587C62.7154 20.9789 60.2474 21.0737 60.0365 20.9671C59.2541 20.5664 57.1631 16.6452 59.1593 17.7903C59.7449 18.1269 59.7567 19.1463 60.3209 19.3834C61.1009 19.7106 62.2602 18.4351 63.0829 19.1819C63.5262 19.5849 62.7296 20.7916 62.6964 21.2587Z" fill="#C3A06A"/>
<path d="M64.4008 15.0757C62.9286 15.5143 63.1585 15.9576 63.7915 16.766C64.2111 17.2995 60.821 17.7286 60.8636 17.3872C60.93 16.8538 61.3378 16.5669 61.2904 15.9647C60.7475 16.0169 60.1595 16.1283 59.5906 16.043C59.3535 15.3009 61.1695 14.7533 61.7076 14.6205C62.9238 14.3052 63.6208 14.6205 64.4008 15.0733" fill="#A78859"/>
<path d="M58.1966 25.2767C56.3569 26.2701 55.7714 22.337 56.4233 21.3129C57.6087 21.0758 57.1345 22.6357 57.3076 23.2948C57.4925 24.006 58.3839 24.5157 58.1966 25.2767Z" fill="white"/>
<path d="M61.6017 23.6765C60.7435 23.8022 59.1077 23.6765 59.468 22.4248C59.468 22.4414 61.386 22.7733 61.6302 22.7069C62.3106 22.5267 62.7705 21.569 63.714 21.7586C64.1645 21.8487 63.5173 22.8681 63.3821 23.0104C62.9791 23.4347 62.1517 23.5959 61.597 23.6765" fill="white"/>
<path d="M67.5779 27.6311C64.5291 30.0421 59.2945 30.4238 56.3856 27.4319C55.7763 26.8037 55.5558 25.9834 55.0983 25.2674C54.6407 24.5515 54.0006 24.0607 53.498 23.3709C55.0888 23.4088 56.7886 23.2689 58.102 24.2575C58.9839 24.9213 59.2732 25.8222 60.4348 26.1328C61.504 26.4172 63.0948 26.4362 64.0858 25.8767C65.2403 25.2248 65.5509 23.6316 66.1009 22.5435C66.824 21.121 67.5731 19.5065 69.4081 19.3003C70.8708 22.7118 70.6859 25.1774 67.5779 27.6382" fill="#D8AD6A"/>
<path d="M67.2511 20.2747C68.2539 19.8907 67.5853 21.5644 66.8836 21.8513C66.1226 22.1595 64.8377 21.837 64.8851 20.8484C64.9491 19.5848 65.703 21.2396 65.9898 21.3226C66.8528 21.581 66.5066 20.6114 67.1491 20.315L67.2511 20.27" fill="#C3A06A"/>
<path d="M64.3319 19.8311C65.0668 19.9235 64.9198 16.8131 65.0431 16.6282C65.1024 16.5429 65.9013 15.9644 65.9132 16.1967C65.9393 16.6709 65.9132 17.145 65.9487 17.6192C68.2863 18.1218 65.3632 19.9733 64.3271 19.8429" fill="#C3A06A"/>
<path d="M79.327 31.41C72.312 37.1922 63.1467 28.7761 67.0774 22.2305C73.8103 11.0121 88.388 23.9374 79.327 31.41Z" fill="#ECCA82"/>
<path d="M71.459 22.394C71.3214 22.4784 71.1592 22.5135 70.9991 22.4936C70.3708 22.4011 70.4822 21.4362 70.5249 21.166C70.5842 20.7084 71.4945 19.5396 72.3148 20.1774C72.6752 20.4571 72.1892 21.9767 71.4661 22.394" fill="#C3A06A"/>
<path d="M76.4516 18.729C76.3873 18.8051 76.3462 18.8981 76.333 18.9969C76.3188 19.1012 75.9087 19.3146 75.8447 19.471C75.6384 20.0021 75.7688 21.4625 74.619 21.453C73.9433 21.453 74.1045 21.1495 74.3227 20.4051C74.5597 19.573 74.5028 19.7413 74.1567 19.0419C73.9979 18.7219 73.1515 18.8049 73.775 18.2501C74.3274 17.7475 75.6171 17.8092 76.1789 18.2051C76.6531 18.5346 76.5654 18.5868 76.4516 18.729Z" fill="#C3A06A"/>
<path d="M69.7683 27.7091C67.9263 28.4203 67.3407 25.5944 67.995 24.8642C69.1804 24.6911 68.7062 25.8125 68.8769 26.2866C69.0618 26.8034 69.9532 27.1685 69.7683 27.7091Z" fill="white"/>
<path d="M73.6685 25.9523C72.9834 26.4691 71.4898 27.1187 71.165 25.8385C71.165 25.8551 73.0142 25.2482 73.1944 25.0751C73.6946 24.6009 73.595 23.527 74.5173 23.252C74.9582 23.1216 74.925 24.3307 74.88 24.5227C74.7496 25.0893 74.1119 25.6204 73.6685 25.9452" fill="white"/>
<path d="M79.6091 31.2939C78.3337 32.371 76.773 33.0545 75.1166 33.2616C73.0303 33.4702 71.4514 32.8135 69.6639 31.8392C68.2841 31.0781 67.3856 28.7809 67.5421 27.2091C69.5975 28.0792 71.4633 29.5087 73.7866 29.5917C74.6851 29.6225 75.6832 29.4921 76.4608 29.0298C77.4091 28.4751 77.4683 27.7686 77.7931 26.8369C78.3692 25.1774 79.4526 23.0437 81.4322 22.8066C82.895 26.2869 82.7124 28.7999 79.602 31.3081" fill="#D8AD6A"/>
<path d="M79.2844 23.7977C80.2872 23.4065 79.6163 25.1135 78.9169 25.4027C78.1535 25.718 76.8686 25.3908 76.9184 24.3833C76.9824 23.0936 77.7339 24.7815 78.0208 24.8693C78.8837 25.1348 78.54 24.158 79.1801 23.8427L79.2844 23.7977Z" fill="#C3A06A"/>
<path d="M75.785 23.5724C76.5199 23.6649 76.373 20.4905 76.4962 20.3079C76.5555 20.2178 77.3544 19.6299 77.3687 19.8669C77.3924 20.3411 77.3687 20.8318 77.4042 21.3036C79.7418 21.8181 76.8187 23.7028 75.7803 23.5724" fill="#B59462"/>
<path d="M91.823 34.9661C84.8103 40.7483 75.6427 32.3346 79.5733 25.7866C86.3039 14.5706 100.882 27.4935 91.823 34.9661Z" fill="#ECCA82"/>
<path d="M85.0338 26.9885C84.8969 27.0724 84.7356 27.1075 84.5762 27.0881C83.948 26.9956 84.0594 26.0307 84.1021 25.7604C84.159 25.3053 85.0693 24.1341 85.892 24.7718C86.2499 25.0516 85.7639 26.5712 85.0409 26.9885" fill="#CBA66E"/>
<path d="M83.0759 30.63C81.2338 31.3412 80.6506 28.5129 81.3026 27.7851C82.4879 27.612 82.0138 28.7334 82.1845 29.2075C82.3718 29.7243 83.2632 30.0894 83.0759 30.63Z" fill="white"/>
<path d="M86.1641 29.5108C85.4789 30.0252 83.983 30.6748 83.6582 29.3946C83.6582 29.4136 85.5098 28.8043 85.6899 28.6312C86.1878 28.1571 86.0906 27.0832 87.0128 26.8082C87.4538 26.6778 87.4182 27.8868 87.3755 28.0789C87.2451 28.6455 86.605 29.1765 86.1641 29.5013" fill="white"/>
<path d="M92.1052 34.8497C90.7913 35.9136 89.2014 36.5808 87.5218 36.7731C85.8422 36.9654 84.1426 36.6749 82.6222 35.9355C81.9774 35.6297 81.7664 35.421 81.6218 34.7027C81.4558 33.8706 81.2117 32.3936 81.5412 31.5804C83.3169 32.4007 84.6089 34.0507 86.79 33.8824C91.0739 33.5576 89.77 26.8318 93.9425 26.3506C95.4053 29.8285 95.2227 32.3414 92.1123 34.8497" fill="#D8AD6A"/>
<path d="M92.3966 26.3153C93.3994 25.9241 92.7261 27.631 92.0291 27.9203C91.2681 28.2356 89.9832 27.9203 90.0306 26.9008C90.0922 25.6112 90.8461 27.2991 91.1353 27.375C91.9959 27.6405 91.6522 26.6638 92.2923 26.3485L92.3966 26.3034" fill="#C3A06A"/>
<path d="M88.8124 25.0328C88.3715 24.5824 88.2316 22.8304 88.5351 22.38C88.5943 22.2922 88.6939 21.8133 89.4051 21.9437C90.1163 22.0741 89.168 23.269 89.1918 23.7408C91.0006 24.139 89.7323 25.6753 88.8788 25.0873C88.8541 25.0725 88.8317 25.0542 88.8124 25.0328Z" fill="#C3A06A"/>
<path d="M106.895 34.5229C106.471 36.6044 105.321 37.1473 103.778 38.5531C97.085 44.6744 87.5997 35.9216 91.5304 29.3736C96.6583 20.8271 108.671 25.8009 106.895 34.5158" fill="#ECCA82"/>
<path d="M96.2848 31.1869C94.1962 31.0019 95.9363 27.0997 96.8443 27.645C97.1525 27.8299 96.8443 28.5577 96.9439 28.8517C97.1335 29.4159 97.9799 29.6435 98.0747 30.1011C98.2241 30.8241 97.1904 31.1442 96.5977 31.1869C96.4935 31.194 96.389 31.194 96.2848 31.1869Z" fill="#A28557"/>
<path d="M95.0661 33.9014C93.2241 34.6127 92.6385 31.7844 93.2905 31.0566C94.4758 30.8835 94.0017 32.0049 94.1747 32.479C94.3597 32.9934 95.2534 33.3585 95.0661 33.9014Z" fill="white"/>
<path d="M100.318 33.105C99.6356 33.6195 98.1397 34.2691 97.8125 32.9889C97.8125 33.0055 99.664 32.3985 99.8442 32.2255C100.344 31.7513 100.245 30.6774 101.167 30.4024C101.608 30.272 101.575 31.4811 101.53 31.6731C101.399 32.2397 100.759 32.7708 100.318 33.0955" fill="white"/>
<path d="M99.96 28.9065C99.3744 27.6311 100.925 27.4841 100.994 27.074C101.115 26.3627 100.877 25.9621 100.531 25.2959C101.579 25.3623 102.961 26.1849 103.206 26.7421C102.599 27.1877 102.245 27.3063 101.783 27.8255C101.371 28.2783 101.243 28.9113 100.47 28.9563C100.233 28.9705 100.017 29.0085 99.9695 28.9065" fill="#C3A06A"/>
<path d="M87.1314 32.9223C86.918 32.7563 86.9726 32.4481 87.5724 31.974C88.1295 31.5378 89.1584 30.1343 89.4239 31.4169C89.7179 32.8393 87.6459 33.3301 87.1314 32.9294" fill="white"/>
<path d="M77.0488 27.7377C77.3309 28.667 76.0341 29.5181 75.1973 29.1601C75.2613 28.5248 76.6197 26.3508 77.0488 27.7377Z" fill="white"/>
<path d="M103.964 38.9299C101.212 41.3718 95.5434 41.4856 93.8886 37.7446C93.4548 36.7654 92.5587 35.6299 92.3477 34.6626C93.8792 34.8214 95.1736 35.0467 96.449 35.9618C98.8198 37.664 99.4006 40.2741 102.883 38.489C105.197 37.3036 105.965 36.7109 106.439 35.3762C105.666 37.7469 105.977 37.1542 103.971 38.9323" fill="#D8AD6A"/>
<path d="M105.277 30.9123C106.285 30.5188 105.426 32.1569 105.099 32.4059C104.772 32.6548 101.704 33.3281 101.704 33.1716C101.662 32.3419 102.854 32.0668 103.485 31.9199C103.783 31.8511 104.286 31.9957 104.535 31.8535C104.864 31.6662 104.772 31.1423 105.175 30.955L105.277 30.9123Z" fill="#C3A06A"/>
<path d="M136.569 43.9702C137.591 44.1172 137.107 46.0588 136.211 45.7008C135.436 45.3902 135.661 43.8398 136.569 43.9702Z" fill="#EDCEAB"/>
<path d="M36.0473 48.8018C37.6618 49.0507 38.2616 51.0089 39.0249 52.4005C39.4778 53.2208 41.417 56.0918 41.2605 55.9993C39.1506 54.7571 37.1639 50.2906 36.0449 48.8018" fill="white"/>
<path d="M51.8051 62.0776C50.8652 61.3107 49.8735 60.6097 48.8369 59.9795C47.9835 59.4461 45.6554 59.4153 44.9916 58.4907C44.7379 58.1398 47.4074 58.4599 47.7203 58.6163C48.4552 58.9791 51.8146 60.8496 51.8146 62.0895" fill="white"/>
<path d="M68.2531 64.036C67.5557 64.3102 66.8296 64.5051 66.0886 64.6168C65.228 64.7424 64.384 65.0459 63.4974 64.9345C62.8075 64.8491 58.7938 63.9435 59.9081 62.4879C60.2234 62.0754 60.6193 62.5116 60.9251 62.7249C62.2053 63.614 63.2579 63.3176 64.7942 63.1351C65.9677 62.9952 69.0781 62.9312 68.6371 61.0014C68.4001 59.9464 66.9776 59.8753 66.1621 59.4059C65.1474 58.8132 64.064 58.2869 63.1323 57.5615C63.0232 57.4738 61.6174 55.6649 62.0133 55.7313C62.7245 55.8403 63.1323 56.9735 63.7771 57.3197C64.7684 57.8365 65.8336 58.1972 66.9349 58.3889C68.6205 58.7042 69.7229 59.7876 71.4109 59.1997C72.191 58.96 73.0324 59.0198 73.7707 59.3675C74.509 59.7152 75.0911 60.3257 75.4032 61.0797C76.0291 62.6941 72.7124 62.7392 71.9064 63.2133C71.1003 63.6875 69.0734 63.7373 68.2531 64.0549" fill="white"/>
<path d="M47.344 50.2597C46.3056 49.5224 45.1321 50.7457 44.0439 50.2217C44.428 49.8092 45.7841 49.7333 46.353 49.6765C47.1615 49.6006 47.6973 49.8543 48.1003 50.5892C48.233 50.8263 48.6953 51.5375 48.0173 51.2364C47.7802 51.1321 47.6214 50.4564 47.344 50.2597Z" fill="white"/>
<path d="M49.7092 52.8056C49.107 52.616 49.062 51.753 49.7684 51.8573C50.3493 51.9522 50.7357 53.1186 49.7092 52.8056Z" fill="white"/>
<path d="M53.2915 54.2233C53.429 54.3514 53.5286 54.4604 53.5096 54.6287C52.7368 54.8516 51.0251 54.1546 51.1555 53.1565C51.6296 53.0356 52.9501 53.9009 53.2892 54.2233" fill="white"/>
<path d="M59.6836 54.29C60.3688 55.2383 56.1868 55.1411 55.8715 55.1245C55.8632 55.0235 55.8632 54.922 55.8715 54.821C56.5376 54.5057 57.3105 54.4702 58.0051 54.2212C58.4034 54.0814 59.3588 53.8443 59.6765 54.29" fill="#F7F8F8"/>
<path d="M61.5679 53.7875C61.8642 53.9606 62.2791 54.641 61.8429 54.9184C61.5205 55.1222 60.5983 54.3826 60.7452 53.9867C60.8922 53.5907 61.2692 53.6097 61.5679 53.7875Z" fill="#F7F8F8"/>
<path d="M58.3443 64.0668C58.6146 64.2873 59.2926 65.0151 59.0223 65.3968C58.6027 66.0132 57.818 64.6168 57.5999 64.3845C57.2263 63.9981 56.7842 63.6846 56.296 63.4599C55.9499 63.2915 55.3121 63.3437 55.0371 63.0924C54.1528 62.284 55.9333 62.6183 56.2225 62.7178C57.0038 63.0456 57.725 63.5015 58.3562 64.0668" fill="white"/>
<path d="M83.2125 56.6036C82.1599 56.331 81.5151 55.7644 82.6269 55.1812C83.6321 54.662 83.6535 55.7122 84.4524 55.7241C85.313 55.7383 86.1001 54.6051 87.0081 55.1598C87.3921 55.3969 88.0085 56.3025 87.6742 56.7435C87.4253 57.0636 83.9522 56.7435 83.452 56.651L83.2149 56.5965" fill="#C3A06A"/>
<path d="M39.662 25.3667C39.662 25.3667 131.232 54.2304 131.96 54.5268C133.114 55.0009 132.744 56.779 131.59 56.3072C130.435 55.8354 39.4131 26.673 39.4131 26.673L39.662 25.3691" fill="#F5D6BA"/>
<path d="M45.5393 33.3111C37.5594 38.9535 28.6573 30.5445 32.1589 23.712C37.972 12.3633 56.9331 25.253 45.5393 33.3111Z" fill="#ECCA82"/>
<path d="M45.5393 33.3112C43.0572 35.2718 38.4271 36.6018 35.8193 34.0343C35.0844 33.3112 34.5557 32.2705 33.9772 31.4502C33.6311 30.9595 33.4035 30.3549 33.0123 29.9069C32.6212 29.4588 32.1209 29.2525 31.7227 28.8732C34.1195 29.0249 36.0161 29.9661 37.9648 31.1965C38.6007 31.6072 39.3326 31.845 40.0884 31.8866C40.8442 31.9282 41.5978 31.7721 42.2748 31.4336C43.6238 30.7414 43.3037 29.5892 43.7707 28.3351C44.354 26.7704 45.3805 24.6604 47.481 24.4233C49.0456 28.0601 48.8489 30.6892 45.5275 33.3112" fill="#D8AD6A"/>
<path d="M39.6313 25.9195C39.6313 25.9385 39.6313 25.9551 39.6147 25.9717C38.235 25.1324 38.6214 26.1092 37.3459 26.1803C36.2246 26.2443 36.8552 25.4691 36.8268 24.8645C36.7817 23.8665 35.7504 23.2572 35.8642 22.4156C35.9685 21.6403 37.9623 20.9528 37.9457 21.2515C37.9149 21.8276 37.4076 23.7005 38.0311 24.0609C38.6546 24.4212 39.2331 23.3307 39.8779 23.5867C40.6294 23.8736 39.8234 25.3979 39.6408 25.9314" fill="#CFA970"/>
<path d="M42.3794 20.0423C40.9783 19.8788 41.9977 21.2419 41.7156 21.8465C41.3718 22.5838 40.1556 22.6762 39.4752 22.6264C39.4563 22.0172 40.203 21.901 40.58 21.4648C40.727 21.2941 39.039 20.7536 38.9062 20.7204C39.2832 20.8247 39.8308 19.6014 40.1651 19.4686C40.9593 19.1509 41.6919 19.6583 42.3794 20.0423Z" fill="#C3A06A"/>
<path d="M45.9922 26.8939C47.0875 26.4838 46.3549 28.2689 45.5892 28.5724C44.757 28.9019 43.3536 28.5581 43.4057 27.5055C43.4745 26.1566 44.2995 27.9204 44.6124 28.0129C45.5607 28.2903 45.179 27.2614 45.8784 26.9389L45.9922 26.8939Z" fill="#C3A06A"/>
<path d="M35.6038 28.4301C33.5911 29.4875 32.9533 25.296 33.6646 24.2031C34.9519 23.9471 34.4422 25.6255 34.6294 26.3154C34.8333 27.0788 35.8148 27.6193 35.6038 28.4301Z" fill="white"/>
<path d="M39.5055 29.9284C38.5572 30.0635 37.5615 30.0279 37.4358 29.7932C36.983 28.9421 40.065 28.0958 40.6956 28.449C42.0351 29.2195 40.8189 29.7363 39.5102 29.9236" fill="white"/>
<path d="M57.974 37.2205C50.4778 43.2706 40.6795 34.468 44.8804 27.619C52.0756 15.8909 67.6585 29.4065 57.974 37.2205Z" fill="#ECCA82"/>
<path d="M53.0593 30.3124C53.0807 30.0113 50.4397 30.1156 50.2144 29.9995C49.3776 29.5727 47.1443 25.3907 49.278 26.6117C49.9039 26.972 49.9157 28.0578 50.5203 28.3115C51.3548 28.66 52.5923 27.3039 53.4718 28.0981C53.946 28.5272 53.0949 29.8122 53.0593 30.3124Z" fill="#C3A06A"/>
<path d="M54.8806 23.7073C53.3064 24.1814 53.553 24.6556 54.231 25.5114C54.6767 26.0804 51.0542 26.538 51.0993 26.1729C51.1704 25.6039 51.6185 25.2981 51.5568 24.6674C50.976 24.722 50.3478 24.8429 49.7408 24.7504C49.5038 23.9586 51.4264 23.3754 52.0002 23.226C53.3017 22.8894 54.0485 23.226 54.8806 23.7002" fill="#A78859"/>
<path d="M48.2488 32.5002C46.2811 33.5599 45.6552 29.3661 46.3522 28.2756C47.6111 28.0195 47.1132 29.6838 47.3005 30.3879C47.4997 31.1513 48.4551 31.6894 48.2488 32.5002Z" fill="white"/>
<path d="M51.888 32.8914C50.9681 33.0242 49.2209 32.8914 49.6144 31.5543C49.6144 31.5709 51.6628 31.9265 51.9235 31.8554C52.649 31.6633 53.1397 30.6416 54.1497 30.8431C54.6238 30.9426 53.941 32.0284 53.7964 32.1802C53.3649 32.633 52.4807 32.8037 51.8998 32.8914" fill="white"/>
<path d="M58.2777 37.1045C55.1506 39.5725 48.3774 40.6014 46.9337 35.7674C46.5615 34.5181 46.1608 34.0795 45.3145 33.1596C46.424 33.0838 47.5927 33.0127 48.3822 33.7334C49.1716 34.4541 49.6648 35.0776 50.7529 35.3929C51.7984 35.7034 53.9013 35.9666 54.9728 35.6299C56.438 35.1819 56.1155 33.2142 56.528 32.107C57.1112 30.54 58.1378 28.4324 60.2382 28.1953C61.8029 31.832 61.6062 34.4612 58.2848 37.0832" fill="#D8AD6A"/>
<path d="M57.9292 29.2619C59.0007 28.8541 58.2824 30.6393 57.5356 30.9427C56.7201 31.2723 55.3474 30.9285 55.402 29.8759C55.4707 28.527 56.2768 30.2932 56.5873 30.3833C57.5096 30.6606 57.1421 29.6317 57.8272 29.3093L57.9387 29.2619" fill="#C3A06A"/>
<path d="M54.8066 28.7904C55.5914 28.8876 55.4349 25.5709 55.5724 25.3765C55.6364 25.2841 56.4899 24.6653 56.5017 24.9024C56.5302 25.3978 56.5017 25.9123 56.5397 26.4054C59.0384 26.9436 55.9138 28.916 54.8066 28.7761" fill="#C3A06A"/>
<path d="M70.8356 41.1369C63.3393 47.3009 53.5292 38.33 57.742 31.3482C64.9372 19.3854 80.52 33.1689 70.8356 41.1369Z" fill="#ECCA82"/>
<path d="M62.2577 33.7782C62.112 33.8688 61.9395 33.9065 61.7693 33.8849C61.096 33.7853 61.2169 32.7564 61.2548 32.4624C61.3165 31.9883 62.2885 30.7294 63.1657 31.4098C63.5521 31.7085 63.0305 33.3278 62.2577 33.7806" fill="#C3A06A"/>
<path d="M67.7625 27.619C67.6936 27.6997 67.6492 27.7984 67.6345 27.9035C67.6202 28.0149 67.1793 28.2449 67.1129 28.4108C66.8924 28.9751 67.0323 30.5445 65.8019 30.5255C65.0788 30.5255 65.2519 30.2007 65.4866 29.4065C65.7497 28.5199 65.6762 28.6953 65.3088 27.9533C65.1381 27.6119 64.2348 27.7162 64.901 27.1069C65.4913 26.5735 66.8687 26.6328 67.4685 27.0595C67.9735 27.4127 67.8834 27.4696 67.7625 27.619Z" fill="#C3A06A"/>
<path d="M60.617 35.7414C58.6493 36.5048 58.0234 33.4845 58.7204 32.6974C59.9793 32.5125 59.4814 33.7121 59.6687 34.2194C59.8678 34.7694 60.8209 35.1677 60.617 35.7414Z" fill="white"/>
<path d="M64.7873 35.3241C64.0548 35.8717 62.4569 36.564 62.1084 35.2008C62.1084 35.2174 64.088 34.5702 64.28 34.3876C64.8134 33.8755 64.7091 32.7281 65.7024 32.4412C66.1766 32.3014 66.1387 33.5911 66.0912 33.7973C65.9514 34.4018 65.2686 34.9685 64.7968 35.3241" fill="white"/>
<path d="M71.1385 41.0138C69.9008 42.0457 68.4194 42.7436 66.8356 43.0408C65.9537 43.1901 64.7517 43.2779 63.8959 42.9649C63.1491 42.6828 62.4118 42.064 61.6863 41.6847C60.5958 41.111 60.2947 41.1371 59.7898 39.9327C59.5527 39.3756 58.538 37.7517 58.7087 37.1898C58.9576 36.3624 60.5911 37.4553 61.134 37.7967C61.7717 38.1997 62.1889 38.8446 62.7793 39.3069C63.0818 39.5456 63.4286 39.722 63.7997 39.8257C64.1709 39.9295 64.5589 39.9586 64.9414 39.9114C65.9086 39.8261 67.8384 39.4894 68.4975 38.726C69.1565 37.9627 69.0522 36.8152 69.3746 35.9333C69.9578 34.3378 70.9844 32.1852 73.0872 31.9434C74.6495 35.6536 74.4551 38.3325 71.1314 41.0091" fill="#D8AD6A"/>
<path d="M70.7906 33.0198C71.8622 32.6026 71.1439 34.4233 70.3971 34.7315C69.5816 35.0681 68.2065 34.7173 68.2634 33.6433C68.3298 32.2683 69.1359 34.0677 69.4488 34.1625C70.3686 34.4446 70.0012 33.3944 70.6863 33.0672C70.7223 33.0489 70.7596 33.033 70.7978 33.0198" fill="#C3A06A"/>
<path d="M67.0488 32.7802C67.8335 32.8774 67.6794 29.4967 67.8146 29.2976C67.8786 29.2027 68.7321 28.5863 68.7463 28.8234C68.7724 29.326 68.7463 29.8523 68.7818 30.3549C71.2806 30.9025 68.1583 32.9153 67.0488 32.7754" fill="#B59462"/>
<path d="M84.1894 44.9281C76.6955 51.092 66.8973 42.1235 71.0982 35.1417C78.2934 23.1789 93.8763 36.9624 84.1894 44.9281Z" fill="#ECCA82"/>
<path d="M76.9355 36.4218C76.7896 36.512 76.6173 36.5497 76.4471 36.5284C75.3779 36.372 76.5728 32.0904 77.8482 32.209C78.2915 33.3564 78.1801 35.6987 76.9355 36.4218Z" fill="#CBA66E"/>
<path d="M74.1378 39.6955C71.4328 40.7457 71.6106 35.5752 72.5944 34.4182C72.7675 34.2144 72.9785 37.1849 72.9975 37.2631C73.1112 37.8179 74.2516 39.3517 74.1378 39.6836" fill="white"/>
<path d="M78.1424 39.1171C77.4098 39.6671 75.8143 40.3594 75.4658 38.9962C75.4658 39.0128 77.4454 38.3656 77.6374 38.183C78.1685 37.6709 78.0665 36.5235 79.0599 36.2367C79.534 36.0968 79.4937 37.3865 79.4487 37.5903C79.3088 38.1973 78.626 38.7639 78.1519 39.1171" fill="white"/>
<path d="M84.4936 44.8069C82.597 46.3242 79.975 45.9401 77.7393 46.0373C76.7104 46.0824 75.9637 46.3929 74.9276 45.9923C73.9296 45.6059 73.0927 44.833 72.8651 43.778C72.5759 42.4362 72.5332 40.3476 70.7314 40.2361C71.5802 40.1579 73.0548 40.817 73.8134 41.2224C74.4796 41.5803 74.8494 42.026 75.3544 42.5523C78.1234 45.4233 81.6985 42.6211 82.7535 39.7312C83.3367 38.1357 84.3632 35.983 86.4637 35.7412C88.0283 39.4514 87.8316 42.1422 84.5078 44.8069" fill="#D8AD6A"/>
<path d="M84.8061 35.7058C85.8753 35.2886 85.1594 37.1093 84.4126 37.4175C83.5971 37.7542 82.2244 37.4057 82.2789 36.3317C82.3453 34.9543 83.1514 36.7561 83.4643 36.8485C84.3865 37.1307 84.019 36.0804 84.7042 35.7533L84.8156 35.7058" fill="#C3A06A"/>
<path d="M80.8184 34.2879L80.752 34.2713C80.138 34.0342 80.3395 32.8489 80.6335 32.4553C80.8417 32.2088 81.1082 32.0183 81.4088 31.9011C81.7094 31.784 82.0346 31.7438 82.3547 31.7844C82.7719 31.846 83.943 33.0717 83.7107 33.0859C82.9687 33.1333 81.4467 34.3969 80.8184 34.2879Z" fill="#C3A06A"/>
<path d="M99.9315 42.5593C100.233 45.6602 98.6205 47.2557 96.9705 48.7611C89.8156 55.2878 79.6759 45.9542 83.8769 38.9724C89.3604 29.8711 99.9315 35.5609 99.9315 42.5593Z" fill="#ECCA82"/>
<path d="M86.2566 44.4608C84.2889 45.2241 83.663 42.2038 84.36 41.4191C85.6189 41.2342 85.121 42.4338 85.3083 42.9387C85.5075 43.4911 86.4605 43.887 86.2566 44.4608Z" fill="white"/>
<path d="M93.2727 42.9438C92.5401 43.4914 90.9422 44.186 90.5938 42.8205C90.5938 42.8394 92.5733 42.1922 92.7653 42.0073C93.2988 41.4952 93.1968 40.3478 94.1878 40.0633C94.6619 39.9234 94.6216 41.2131 94.5742 41.417C94.4343 42.0239 93.7516 42.5881 93.2798 42.9438" fill="white"/>
<path d="M93.0251 38.7212C92.5323 38.9819 91.9703 39.0822 91.4178 39.0081C91.4178 38.771 91.2305 38.598 91.2518 38.3253C90.2869 37.9081 89.3789 38.5624 88.3477 38.4059C89.4192 36.5615 95.4077 37.9816 93.5491 34.6602C94.4262 34.6602 95.9743 35.2884 96.3584 36.1585C95.7112 36.6326 95.3295 36.7606 94.8269 37.313C94.3178 37.889 93.707 38.3663 93.0251 38.7212Z" fill="#C3A06A"/>
<path d="M79.1828 42.7493C78.9458 42.5739 79.0145 42.2325 79.657 41.7299C80.2497 41.2557 81.3497 39.7669 81.6342 41.1372C81.9495 42.6497 79.7376 43.176 79.1828 42.7493Z" fill="white"/>
<path d="M68.4005 37.2206C68.7015 38.214 67.3123 39.1172 66.4209 38.7379C66.4896 38.0599 67.9524 35.7413 68.4005 37.2206Z" fill="white"/>
<path d="M97.1687 48.6948C96.1658 49.5838 92.8373 51.4353 90.1608 50.9517C87.9038 50.5439 86.1803 48.0025 85.9551 44.9087C87.7687 46.3311 89.4164 48.5644 91.23 49.0978C93.1266 49.6549 95.1891 49.0409 97.1687 48.6948Z" fill="#D8AD6A"/>
<path d="M132.225 54.5981C133.247 54.7451 132.763 56.6891 131.867 56.3311C131.091 56.0205 131.319 54.4677 132.225 54.5981Z" fill="#EDCEAB"/>
<path d="M29.7597 34.5059C29.7597 34.5059 122.527 65.994 123.278 66.3188C124.447 66.838 124.072 68.7773 122.904 68.2604C121.735 67.7436 29.5107 35.9283 29.5107 35.9283L29.7478 34.5059" fill="#F5D6BA"/>
<path d="M35.7156 43.171C27.9538 49.7688 16.1333 40.7102 21.5694 32.7563C30.1301 20.2246 45.7509 34.6529 35.7156 43.171Z" fill="#ECCA82"/>
<path d="M35.7127 43.1713C33.6833 44.8972 30.5539 46.405 26.7939 44.7242C34.1859 44.205 33.3087 39.5512 33.937 37.74C34.5273 36.0331 35.5657 33.7311 37.6946 33.4727C39.2783 37.4389 39.0791 40.3075 35.7127 43.1713Z" fill="#D8AD6A"/>
<path d="M29.7315 35.1035C29.7315 35.1249 29.7315 35.1438 29.7126 35.1604C28.3162 34.2477 28.705 35.3098 27.4153 35.3975C26.2774 35.4639 26.9175 34.6104 26.889 33.9608C26.8464 32.9533 26.8416 32.7565 26.0166 31.9576C26.9317 31.8082 27.202 33.0695 28.0436 33.2212C28.7121 33.3421 29.3854 32.3132 29.9781 32.5526C30.7439 32.8632 29.9259 34.5298 29.741 35.1107" fill="#CFA970"/>
<path d="M32.5143 28.6862C31.0918 28.506 32.1278 29.9924 31.841 30.6539C31.4901 31.4576 30.2597 31.5595 29.5698 31.505C29.5532 30.8388 30.3071 30.7131 30.6888 30.2366C30.8382 30.0493 29.1289 29.4638 28.9961 29.4235C29.3754 29.5396 29.9302 28.2025 30.2692 28.0579C31.0752 27.7142 31.8149 28.2665 32.5143 28.6862Z" fill="#C3A06A"/>
<path d="M36.1797 36.1656C37.2892 35.7199 36.5471 37.6663 35.7719 37.9982C34.9303 38.3585 33.5078 37.9839 33.56 36.8341C33.6311 35.3619 34.4656 37.2893 34.7833 37.3889C35.7316 37.69 35.3546 36.5686 36.0659 36.2177C36.1028 36.1983 36.1408 36.1809 36.1797 36.1656Z" fill="#C3A06A"/>
<path d="M25.6491 40.3028C23.6103 41.4597 22.9631 36.8842 23.6838 35.6941C24.9877 35.4143 24.4732 37.2303 24.6629 37.9984C24.8691 38.8305 25.8483 39.4209 25.6491 40.3028Z" fill="white"/>
<path d="M29.6008 39.4777C28.6525 39.6247 27.6331 39.5867 27.5074 39.3331C27.0333 38.4014 30.1793 37.4768 30.8099 37.868C32.1659 38.7096 30.9332 39.2738 29.6008 39.4777Z" fill="white"/>
<path d="M48.3106 47.4383C40.7242 54.0384 30.7908 44.4346 35.0463 36.962C42.3363 24.16 58.1231 38.9107 48.3106 47.4383Z" fill="#ECCA82"/>
<path d="M43.3324 39.8973C43.3537 39.5701 40.6795 39.6815 40.4519 39.5559C39.6056 39.0817 37.3415 34.5276 39.5036 35.8599C40.139 36.2511 40.1509 37.4388 40.7625 37.7138C41.6089 38.0955 42.863 36.6138 43.7544 37.4768C44.2285 37.9509 43.3703 39.3473 43.3348 39.8925" fill="#C3A06A"/>
<path d="M45.1795 32.7018C43.584 33.2116 43.8353 33.7307 44.5204 34.6696C44.9732 35.2907 41.3033 35.7885 41.3484 35.3808C41.4195 34.7596 41.8747 34.4325 41.8225 33.7379C41.2322 33.7971 40.5968 33.9275 39.9828 33.8279C39.7458 32.9626 41.6898 32.3273 42.273 32.1684C43.5887 31.8033 44.3474 32.1684 45.1913 32.6947" fill="#A78859"/>
<path d="M38.4601 44.5699C36.4663 45.7268 35.8333 41.1513 36.5398 39.9611C37.8153 39.6814 37.3103 41.4974 37.4881 42.2655C37.6896 43.0976 38.6545 43.6879 38.453 44.5699" fill="white"/>
<path d="M42.1474 42.7112C41.2157 42.8558 39.4471 42.7112 39.843 41.2532C39.843 41.2721 41.9174 41.6586 42.1829 41.5827C42.9178 41.3717 43.4157 40.2575 44.4375 40.4779C44.9259 40.5846 44.2265 41.7676 44.0795 41.936C43.6433 42.4291 42.7471 42.6164 42.1474 42.7112Z" fill="white"/>
<path d="M48.6189 47.3081C46.5872 49.0364 43.4578 50.5442 39.7002 48.8633C47.0922 48.3441 46.215 43.688 46.8409 41.8791C47.4312 40.1698 48.4696 37.8679 50.5985 37.6118C52.1845 41.5804 51.9854 44.4514 48.6189 47.3105" fill="#D8AD6A"/>
<path d="M48.2663 38.7519C49.3521 38.3062 48.6243 40.255 47.8681 40.5845C47.043 40.9449 45.6514 40.5703 45.7036 39.4205C45.77 37.9483 46.5879 39.8757 46.8889 39.9752C47.823 40.2763 47.4508 39.1526 48.1431 38.8041C48.18 38.7847 48.218 38.7673 48.2569 38.7519" fill="#C3A06A"/>
<path d="M45.1035 38.2374C45.9001 38.3417 45.7412 34.724 45.8787 34.5106C45.9428 34.4087 46.8081 33.7378 46.827 34.008C46.8555 34.5462 46.827 35.1081 46.865 35.6462C49.3969 36.2342 46.2296 38.3868 45.1083 38.2374" fill="#C3A06A"/>
<path d="M61.3409 51.7058C53.7545 58.434 43.8212 48.6452 48.0648 41.0375C55.3548 27.9984 71.1415 43.0242 61.3409 51.7058Z" fill="#ECCA82"/>
<path d="M52.8205 41.2176C52.6749 41.3151 52.4988 41.3564 52.325 41.3338C51.6446 41.2247 51.7655 40.1034 51.8034 39.7857C51.8674 39.257 52.8537 37.8891 53.7403 38.6382C54.1315 38.9654 53.6028 40.7316 52.8205 41.2176Z" fill="#C3A06A"/>
<path d="M58.2298 36.9597C58.1581 37.049 58.113 37.1566 58.0994 37.2703C58.0828 37.3912 57.6395 37.6401 57.5731 37.8226C57.336 38.439 57.4878 40.1388 56.2431 40.1294C55.5106 40.1294 55.686 39.7761 55.9231 38.9108C56.191 37.9412 56.1175 38.1356 55.7429 37.3224C55.5698 36.9502 54.6547 37.0616 55.3304 36.4002C55.9278 35.817 57.3218 35.8881 57.9382 36.348C58.4479 36.7321 58.3578 36.7937 58.2369 36.9597" fill="#C3A06A"/>
<path d="M50.9894 47.4147C48.9956 48.2468 48.3603 44.9515 49.0668 44.0956C50.3422 43.8965 49.8372 45.2051 50.0151 45.7551C50.2166 46.3526 51.1815 46.7793 50.9799 47.4147" fill="white"/>
<path d="M55.2145 45.3593C54.4725 45.9591 52.8438 46.7129 52.5 45.2241C52.5 45.2455 54.5056 44.539 54.7 44.3375C55.2406 43.778 55.1363 42.5357 56.1343 42.2038C56.6085 42.0521 56.5729 43.4579 56.5255 43.6808C56.3833 44.3398 55.691 44.9586 55.2145 45.3403" fill="white"/>
<path d="M61.6394 51.5756C59.6101 53.3347 56.4783 54.8733 52.7207 53.1592C60.1127 52.6306 59.2355 47.8843 59.8614 46.047C60.4517 44.3069 61.4901 41.9575 63.6214 41.6943C65.205 45.7412 65.0059 48.6667 61.6394 51.5851" fill="#D8AD6A"/>
<path d="M61.2956 42.8511C62.3814 42.3959 61.6536 44.3826 60.8974 44.7192C60.0723 45.0867 58.6807 44.7027 58.7329 43.5339C58.8016 42.0332 59.6172 44.008 59.9182 44.1005C60.8523 44.4087 60.4801 43.2612 61.1747 42.9151C61.2127 42.8961 61.2506 42.8772 61.2862 42.863" fill="#C3A06A"/>
<path d="M57.5068 42.588C58.301 42.6971 58.1422 39.0058 58.2821 38.7948C58.3461 38.6929 59.2114 38.0054 59.2304 38.2827C59.2564 38.8304 59.2304 39.4041 59.2683 39.9423C61.8002 40.5397 58.6329 42.735 57.5116 42.5809" fill="#B59462"/>
<path d="M74.8729 55.8454C67.2866 62.5735 57.3508 52.7824 61.6087 45.1652C68.8987 32.1261 84.6831 47.1519 74.8729 55.8454Z" fill="#ECCA82"/>
<path d="M67.5208 46.5638C67.3751 46.6613 67.1991 46.7026 67.0253 46.68C66.3449 46.5709 66.4634 45.4472 66.5037 45.1343C66.5677 44.6032 67.5516 43.2377 68.4406 43.9845C68.8318 44.3093 68.3031 46.0778 67.5208 46.5638Z" fill="#CBA66E"/>
<path d="M64.5197 51.5421C62.5259 52.3742 61.8929 49.0789 62.5994 48.223C63.8748 48.0215 63.3699 49.3302 63.5477 49.8826C63.7492 50.48 64.7165 50.9044 64.5126 51.5421" fill="white"/>
<path d="M68.7512 49.4964C68.0115 50.0962 66.3804 50.8525 66.0391 49.3636C66.0391 49.3826 68.0423 48.6761 68.2367 48.4746C68.7773 47.9175 68.673 46.6729 69.671 46.3552C70.1452 46.2034 70.112 47.6093 70.0646 47.8298C69.9223 48.4912 69.2301 49.11 68.7512 49.4893" fill="white"/>
<path d="M75.1785 55.7123C73.1491 57.4737 70.0198 59.01 66.2598 57.2959C73.6517 56.7673 72.7746 52.021 73.4028 50.1837C73.9931 48.4412 75.0315 46.0942 77.1604 45.8311C78.7441 49.8779 78.5473 52.8034 75.1785 55.7194" fill="#DAB477"/>
<path d="M75.4939 45.7813C76.5797 45.3261 75.8542 47.3128 75.0956 47.6494C74.2706 48.0169 72.879 47.6352 72.9311 46.4641C72.9999 44.961 73.8154 46.9263 74.1165 47.0307C75.0506 47.3365 74.6783 46.1914 75.373 45.8453L75.4844 45.7931" fill="#C3A06A"/>
<path d="M71.6109 44.2878C71.1367 43.7615 70.985 41.725 71.3121 41.2058C71.3785 41.1015 71.4852 40.5444 72.2604 40.6937C73.0357 40.8431 71.9997 42.2371 72.0234 42.7847C73.984 43.2589 72.6089 45.0369 71.682 44.3541C71.6571 44.3341 71.6334 44.3128 71.6109 44.2901" fill="#C3A06A"/>
<path d="M91.2992 53.4767C90.6093 58.7373 89.4903 58.3841 87.8189 60.027C80.5692 67.1392 70.2968 56.964 74.5546 49.3587C80.1069 39.4158 92.2759 46.0136 91.2992 53.4885" fill="#ECCA82"/>
<path d="M79.7042 51.4449C77.4426 51.2315 79.3273 46.6892 80.3111 47.3246C80.6454 47.5403 80.3111 48.3866 80.4178 48.7304C80.6241 49.3847 81.5392 49.6479 81.6411 50.1813C81.8047 51.0253 80.6928 51.3951 80.0433 51.4449C79.9304 51.4544 79.817 51.4544 79.7042 51.4449Z" fill="#A28557"/>
<path d="M76.966 55.3355C74.9722 56.1677 74.3369 52.8723 75.0457 52.0165C76.3188 51.815 75.8138 53.1236 75.994 53.676C76.1955 54.2758 77.1604 54.7025 76.9589 55.3355" fill="white"/>
<path d="M84.7326 53.5149C83.993 54.1123 82.3619 54.8685 82.0205 53.3797C82.0205 53.3987 84.0238 52.6922 84.2206 52.4907C85.1854 51.495 85.7615 50.0512 87.2077 49.5249C88.201 50.1863 86.001 52.4907 84.7326 53.5149Z" fill="white"/>
<path d="M83.6871 48.7946C83.0542 47.3082 84.735 47.1351 84.8061 46.661C84.9389 45.8288 84.6829 45.3665 84.3059 44.5913C85.4439 44.6672 86.9374 45.6273 87.2029 46.2722C86.5486 46.7937 86.1622 46.9312 85.6525 47.5334C85.2044 48.0597 85.0693 48.7994 84.23 48.8492C83.974 48.8658 83.7346 48.9108 83.6848 48.7923" fill="#C3A06A"/>
<path d="M69.7918 53.4673C69.5547 53.2752 69.6211 52.9054 70.2659 52.3554C70.8681 51.8504 71.98 50.2217 72.2692 51.7058C72.5893 53.3653 70.3442 53.9343 69.787 53.4673" fill="white"/>
<path d="M58.8748 47.434C59.1806 48.5174 57.7748 49.5084 56.8691 49.0935C56.9379 48.3562 58.4196 45.8266 58.8748 47.434Z" fill="white"/>
<path d="M88.0188 60.4538C86.1459 62.2389 80.5036 63.7301 77.4951 60.4538C83.0071 62.3504 85.1787 60.8568 86.85 59.9346C89.3559 58.5572 90.1904 57.8673 90.693 56.3145C89.8585 59.074 90.1904 58.3841 88.0188 60.4538Z" fill="#DAB477"/>
<path d="M89.4613 51.189C89.5913 51.1462 89.7245 51.1137 89.8596 51.0918C90.2769 53.0974 86.5406 54.0031 86.5714 54.297C86.4861 52.9433 88.2072 51.5873 89.4613 51.189Z" fill="#C3A06A"/>
<path d="M123.502 66.4824C124.533 66.6365 124.05 68.6517 123.146 68.2771C122.366 67.9547 122.592 66.3449 123.502 66.4824Z" fill="#EDCEAB"/>
<path d="M89.1405 15.0329C89.9733 14.9187 90.783 14.6738 91.5397 14.3075C93.0261 13.5963 94.9298 11.6689 95.1147 9.988C95.2143 9.09898 95.2546 7.33278 94.1261 6.87522C93.4849 6.70405 92.8021 6.78907 92.2224 7.1123C92.2841 6.24935 92.13 5.68986 91.772 5.45278C90.9991 4.92411 88.7943 5.75861 87.8745 6.77328C86.4521 8.3356 85.665 11.0951 86.8527 13.4113C87.4928 14.6584 87.8911 15.2463 89.1452 15.0543" fill="#FEFBFC"/>
<path d="M90.4135 14.8053C91.7103 14.3619 93.3177 13.6199 94.1356 11.6593C94.4793 10.8319 94.4556 8.89263 93.6282 8.26676C92.8009 7.64088 92.2556 8.12688 91.4946 8.5228C91.7482 5.03781 88.5881 6.82535 87.3671 8.17193C85.9447 9.73424 85.9233 12.4962 87.6374 14.4425C88.6118 15.5497 89.8114 15.0162 90.4206 14.8053" fill="#FEFBFC"/>
<path d="M91.3155 8.60106C91.4388 5.37685 88.4493 7.07193 87.3018 8.38058C85.9884 9.88125 85.9647 12.4488 87.5555 14.3454C88.5038 15.4691 89.6654 15.0566 90.3316 14.8195C91.6545 14.3738 93.1884 13.665 94.0229 11.7826C94.4022 10.9291 94.2742 9.09417 93.4444 8.46355C92.6146 7.83294 92.0955 8.25019 91.3107 8.58683" fill="#FEFAFC"/>
<path d="M91.1474 8.68173C91.1474 5.71357 88.3191 7.31856 87.2452 8.59165C86.0337 10.0283 86.0147 12.4062 87.4822 14.2506C88.3902 15.3886 89.5282 15.0898 90.2489 14.8551C91.6002 14.4118 93.0653 13.7338 93.9117 11.9273C94.3242 11.043 94.0918 9.31946 93.2621 8.68885C92.4323 8.05823 91.9345 8.40199 91.145 8.68885" fill="#FEFAFC"/>
<path d="M90.9776 8.77176C90.8425 6.06438 88.1897 7.57454 87.1845 8.81443C86.075 10.1871 86.056 12.3705 87.4215 14.1676C88.294 15.3221 89.4035 15.1396 90.1787 14.8788C91.5585 14.4378 92.9596 13.7977 93.8107 12.0647C94.2611 11.152 93.9221 9.52565 93.0995 8.90215C92.2768 8.27865 91.7789 8.53469 90.9776 8.77176Z" fill="#FEF9FB"/>
<path d="M90.7997 8.84069C90.5342 6.38935 88.0473 7.80942 87.1227 9.01138C86.1152 10.32 86.0962 12.3304 87.3337 14.0587C88.1706 15.2441 89.2493 15.1635 90.0814 14.9003C91.4872 14.4593 92.8267 13.8572 93.6849 12.1977C94.1709 11.2494 93.7252 9.73446 92.8955 9.1157C92.0657 8.49694 91.6105 8.68185 90.7997 8.84543" fill="#FEF8FB"/>
<path d="M90.6379 8.91874C90.242 6.72817 87.9258 8.05342 87.0818 9.22219C86.1738 10.4645 86.1525 12.2876 87.2786 13.9637C88.0775 15.149 89.1302 15.1988 90.0192 14.9238C91.4416 14.4829 92.7289 13.921 93.5895 12.3302C94.1134 11.3653 93.5587 9.94527 92.7289 9.32176C91.8992 8.69826 91.4677 8.81442 90.6451 8.91874" fill="#FEF8FB"/>
<path d="M90.4672 9.00861C89.9433 7.07409 87.793 8.29739 87.0178 9.44245C86.2094 10.6278 86.1856 12.2613 87.198 13.8781C87.959 15.0896 88.9879 15.246 89.9314 14.9592C91.3894 14.5135 92.6127 13.9943 93.4733 12.4746C94.0352 11.4813 93.3714 10.1655 92.5416 9.54203C91.7118 8.91852 91.3017 8.96119 90.4672 9.00861Z" fill="#FEF7FA"/>
<path d="M90.2995 9.0776C89.6451 7.40149 87.6608 8.54182 86.9591 9.64184C86.2573 10.7419 86.2218 12.2188 87.1274 13.7717C87.8386 15.0068 88.8509 15.2723 89.8514 14.9736C91.3355 14.5279 92.5042 14.0514 93.3624 12.6029C93.967 11.5835 93.1918 10.3697 92.362 9.758C91.5322 9.14635 91.1411 9.10368 90.2995 9.09183" fill="#FEF6FA"/>
<path d="M90.1284 9.15803C89.3461 7.73559 87.5206 8.78346 86.9018 9.85266C86.2831 10.9219 86.2546 12.1878 87.0559 13.6767C87.7316 14.9355 88.7155 15.3077 89.7704 14.9972C91.2806 14.5515 92.3972 14.1176 93.253 12.7355C93.8979 11.69 93.016 10.5781 92.1815 9.95223C91.347 9.32635 90.9819 9.22678 90.1284 9.15803Z" fill="#FEF6F9"/>
<path d="M89.9592 9.24568C89.0464 8.08639 87.3916 9.03468 86.844 10.0707C86.3319 11.0451 86.2845 12.1664 86.9839 13.5912C87.6121 14.8738 88.577 15.3503 89.6913 15.0303C91.2251 14.5798 92.2991 14.1958 93.1407 12.8776C93.8306 11.8108 92.8301 10.7985 92.0004 10.1726C91.1706 9.54676 90.815 9.3737 89.9592 9.24568Z" fill="#FEF5F9"/>
<path d="M89.7894 9.31715C88.7486 8.41627 87.2551 9.26736 86.788 10.2654C86.3708 11.1687 86.3139 12.1217 86.9113 13.4778C87.4898 14.7864 88.4404 15.3744 89.6116 15.0377C91.1739 14.5873 92.1886 14.2483 93.0326 12.9965C93.7675 11.9084 92.6509 10.9933 91.8211 10.3674C90.9913 9.74151 90.6642 9.49495 89.7894 9.31004" fill="#FEF5F9"/>
<path d="M89.5312 15.0686C91.1196 14.6181 92.0869 14.3265 92.9214 13.1388C93.7038 12.0293 92.4686 11.2114 91.6388 10.5855C90.8091 9.95964 90.5056 9.63722 89.6213 9.40014C88.4478 8.7553 87.1131 9.5092 86.7314 10.4859C86.4066 11.3181 86.3355 12.1004 86.8405 13.3925C87.3644 14.7296 88.3056 15.4171 89.5312 15.0709" fill="#FEF4F8"/>
<path d="M89.0407 12.6431C88.8151 12.6771 88.6118 12.7979 88.4741 12.9797C88.2986 13.1646 88.1351 13.3875 87.9999 13.5321C87.7297 13.3472 87.6585 13.1551 87.54 13.3069C87.482 13.5392 87.4636 13.7796 87.4855 14.0181C87.4771 14.2155 87.5292 14.4107 87.6348 14.5776C87.8529 14.8692 88.1279 15.1418 88.4575 14.9119C88.6924 14.6577 88.8831 14.366 89.0217 14.0489C89.1103 13.8431 89.1616 13.6231 89.1734 13.3993C89.1842 13.1412 89.1381 12.8838 89.0383 12.6454" fill="#FEF4F8"/>
<path d="M87.5847 13.4419C87.5305 13.6499 87.5121 13.8655 87.5302 14.0797C87.5234 14.2594 87.5687 14.4372 87.6606 14.5917C87.855 14.862 88.1063 15.1109 88.4073 14.9094C88.6282 14.6875 88.8079 14.4283 88.9384 14.1437C89.0252 13.9485 89.0735 13.7384 89.0806 13.5249C89.0876 13.2888 89.0423 13.054 88.9479 12.8374C88.7429 12.8635 88.5565 12.969 88.4287 13.1314C88.2675 13.2973 88.1205 13.4941 87.9996 13.6245C87.7435 13.468 87.6843 13.3044 87.5776 13.4419" fill="#FCEBF3"/>
<path d="M87.6239 13.5796C87.5741 13.764 87.5564 13.9557 87.5718 14.1462C87.5648 14.3073 87.6043 14.4669 87.6856 14.6061C87.8515 14.8574 88.0815 15.0803 88.3541 14.9096C88.5606 14.7185 88.7301 14.4911 88.8543 14.2387C88.9376 14.0545 88.982 13.8552 88.9847 13.6531C88.988 13.4412 88.9435 13.2313 88.8543 13.0391C88.6767 13.0575 88.5125 13.1422 88.3944 13.2761C88.2498 13.4208 88.1194 13.5938 88.0104 13.7076C87.7733 13.582 87.7211 13.4445 87.6239 13.5701" fill="#FBE2ED"/>
<path d="M87.6653 13.7145C87.6205 13.8756 87.6044 14.0433 87.6179 14.21C87.6115 14.3536 87.6443 14.4962 87.7127 14.6225C87.8526 14.8596 88.0588 15.0516 88.3054 14.9094C88.5004 14.7509 88.6616 14.5551 88.7796 14.3333C88.863 14.1611 88.9064 13.9722 88.9064 13.7809C88.9064 13.5895 88.863 13.4007 88.7796 13.2285C88.6219 13.2426 88.4761 13.3184 88.3741 13.4395C88.2461 13.5628 88.1371 13.7098 88.0328 13.8117C87.7957 13.7121 87.772 13.6055 87.6819 13.7145" fill="#FAD9E7"/>
<path d="M87.7168 13.8522C87.6744 13.9894 87.6583 14.1334 87.6694 14.2765C87.6652 14.4018 87.6912 14.5262 87.7453 14.6393C87.8591 14.8479 88.044 15.0233 88.2621 14.9095C88.4386 14.7846 88.5858 14.6228 88.6936 14.4354C88.7765 14.2762 88.8157 14.0978 88.8074 13.9185C88.8051 13.7478 88.7611 13.5801 88.6794 13.4302C88.5441 13.4397 88.4176 13.5008 88.3261 13.6009C88.2147 13.7028 88.1128 13.8261 88.0274 13.9114C87.8164 13.8427 87.7903 13.7621 87.7168 13.8593" fill="#F8D0E2"/>
<path d="M87.7484 13.9873C87.7112 14.1011 87.6967 14.2211 87.7057 14.3405C87.7005 14.4486 87.7199 14.5564 87.7626 14.6559C87.8503 14.8408 88.0116 14.9949 88.2012 14.9119C88.3629 14.8157 88.4995 14.6825 88.5995 14.5231C88.6805 14.3789 88.7168 14.2138 88.7038 14.0489C88.6989 13.8998 88.6556 13.7545 88.5782 13.627C88.4654 13.6299 88.3583 13.6767 88.2794 13.7573C88.1822 13.8379 88.0945 13.9351 88.0234 13.9944C87.8266 13.9541 87.8172 13.902 87.7484 13.9944" fill="#F7C6DB"/>
<path d="M87.7934 14.1294C87.761 14.2197 87.7465 14.3156 87.7507 14.4115C87.7465 14.5018 87.7602 14.592 87.791 14.677C87.8527 14.8406 87.9902 14.9733 88.1538 14.9141C88.2993 14.8522 88.4248 14.7513 88.5165 14.6225C88.6003 14.4882 88.6347 14.3289 88.6137 14.172C88.6046 14.0443 88.5612 13.9215 88.488 13.8164C88.4009 13.8156 88.3166 13.8469 88.251 13.9041C88.1778 13.9633 88.1082 14.0266 88.0423 14.0938C87.8598 14.0938 87.8622 14.0582 87.8053 14.127" fill="#F5BCD5"/>
<path d="M87.8382 14.2744C87.8099 14.3411 87.7961 14.413 87.7979 14.4854C87.794 14.558 87.8012 14.6308 87.8193 14.7012C87.8265 14.7704 87.8606 14.834 87.9142 14.8784C87.9679 14.9227 88.0368 14.9442 88.1061 14.9382C88.2347 14.9094 88.3503 14.8395 88.4357 14.7391C88.5175 14.6174 88.5489 14.4686 88.5234 14.3242C88.5123 14.2176 88.4693 14.1168 88.4001 14.035C88.3316 14.0251 88.2619 14.0421 88.2057 14.0824C88.1457 14.1187 88.0901 14.1616 88.0397 14.2104C87.8714 14.227 87.888 14.2318 87.8382 14.2863" fill="#F4B2CE"/>
<path d="M87.8696 14.4095C87.8452 14.4521 87.8322 14.5003 87.8317 14.5494C87.8269 14.6046 87.8269 14.6601 87.8317 14.7154C87.8379 14.7689 87.8621 14.8188 87.9005 14.8568C87.9389 14.8947 87.989 14.9184 88.0427 14.924C88.1506 14.9272 88.2559 14.891 88.339 14.822C88.4173 14.758 88.4362 14.6158 88.4173 14.438C88.4038 14.3514 88.3602 14.2725 88.294 14.2151C88.2486 14.1998 88.1995 14.1998 88.1541 14.2151C88.1095 14.23 88.0678 14.2525 88.0308 14.2815C87.8791 14.3289 87.9076 14.3621 87.8673 14.4024" fill="#F2A7C8"/>
<path d="M88.0202 14.376C87.8827 14.4518 87.923 14.5111 87.8922 14.5372C87.8614 14.5633 87.8519 14.6083 87.8424 14.7245C87.839 14.7672 87.8503 14.8098 87.8744 14.8451C87.8986 14.8805 87.9341 14.9065 87.9752 14.9189C88.0595 14.9533 88.154 14.9533 88.2383 14.9189C88.3189 14.8786 88.3331 14.7411 88.3071 14.5704C88.2994 14.5365 88.2844 14.5047 88.2631 14.4772C88.2418 14.4498 88.2147 14.4274 88.1838 14.4115C88.1609 14.3939 88.1339 14.3822 88.1053 14.3776C88.0767 14.3731 88.0475 14.3758 88.0202 14.3854" fill="#F19CC1"/>
<path d="M98.5729 15.8177C98.9095 14.8813 99.7867 12.8069 100.287 12.1122C101.297 10.7088 103.395 9.78417 105.097 9.76758C106 9.76758 107.072 10.0047 107.525 10.8984C107.978 11.7922 107.439 12.2829 106.892 13.0084C110.396 13.1056 107.871 16.4697 106.292 17.5436C104.459 18.7906 101.565 19.3003 99.5117 17.8921C98.4022 17.1311 98.1295 17.041 98.5634 15.8177" fill="#FEFBFC"/>
<path d="M99.2462 13.9327C100.254 12.5292 101.247 10.8744 102.947 10.8507C103.85 10.8507 105.495 10.7844 105.948 11.6686C106.401 12.5529 105.813 13.0413 105.268 13.7644C108.769 13.8639 106.595 16.5784 105.017 17.6524C103.184 18.8994 101.641 19.172 99.5117 17.8895C97.7266 16.8084 98.0893 15.5353 99.2462 13.9303" fill="#FEFBFC"/>
<path d="M105.132 13.8809C108.351 14.0824 106.336 16.593 104.757 17.6741C102.951 18.8997 101.555 19.1321 99.511 17.9111C97.7756 16.868 98.1004 15.6494 99.2526 14.0445C100.263 12.6433 101.149 11.1308 102.851 11.1142C103.757 11.1142 105.251 10.9696 105.696 11.8563C106.142 12.7429 105.561 13.1862 105.125 13.8998" fill="#FEFAFC"/>
<path d="M104.995 13.9875C107.935 14.2909 106.081 16.5953 104.497 17.6716C102.722 18.8735 101.467 19.0632 99.5187 17.8944C97.8355 16.8892 98.1153 15.7252 99.2698 14.1226C100.277 12.7191 101.064 11.3488 102.767 11.3346C103.67 11.3346 105.012 11.1117 105.467 11.996C105.922 12.8803 105.329 13.2833 104.993 13.9875" fill="#FEFAFC"/>
<path d="M104.86 14.0895C107.518 14.4973 105.823 16.6049 104.239 17.6717C102.489 18.8571 101.382 19.0017 99.5117 17.8922C97.8806 16.9273 98.1177 15.8178 99.2746 14.2128C100.282 12.8022 100.965 11.5837 102.665 11.5694C103.568 11.5694 104.761 11.2683 105.213 12.1526C105.666 13.0369 105.078 13.3973 104.86 14.0895Z" fill="#FEF9FB"/>
<path d="M104.725 14.1959C107.096 14.7032 105.564 16.6093 103.978 17.6761C102.257 18.8354 101.295 18.9421 99.5119 17.8918C97.9306 16.9649 98.125 15.9099 99.2748 14.3049C100.285 12.9038 100.866 11.8204 102.568 11.8038C103.469 11.8038 104.512 11.4245 104.965 12.3111C105.417 13.1978 104.827 13.5131 104.728 14.2077" fill="#FEF8FB"/>
<path d="M104.591 14.3002C106.684 14.9118 105.302 16.614 103.721 17.6785C102.028 18.8164 101.208 18.8804 99.5125 17.8918C97.9834 17.0052 98.1351 15.9952 99.2897 14.3997C100.297 12.9962 100.776 12.0551 102.478 12.029C103.382 12.029 104.271 11.5714 104.723 12.4557C105.176 13.34 104.588 13.615 104.591 14.2883" fill="#FEF8FB"/>
<path d="M104.452 14.4046C106.265 15.1158 105.047 16.6212 103.458 17.6833C101.799 18.7976 101.121 18.8213 99.5111 17.892C98.0318 17.0432 98.1432 16.0949 99.2954 14.4923C100.305 13.0888 100.682 12.2923 102.377 12.2757C103.281 12.2757 104.02 11.7399 104.473 12.6265C104.926 13.5132 104.336 13.7432 104.447 14.4046" fill="#FEF7FA"/>
<path d="M104.313 14.5112C105.842 15.3268 104.787 16.6259 103.197 17.6857C101.561 18.7786 101.03 18.762 99.5078 17.8919C98.0853 17.0835 98.147 16.1897 99.3015 14.5847C100.309 13.1813 100.584 12.5293 102.286 12.5127C103.187 12.5127 103.777 11.8987 104.228 12.783C104.678 13.6673 104.093 13.8593 104.313 14.5112Z" fill="#FEF6FA"/>
<path d="M104.182 14.6155C105.429 15.5354 104.53 16.6307 102.942 17.6975C101.353 18.7643 100.948 18.7122 99.5113 17.9014C98.1363 17.1309 98.16 16.2917 99.3122 14.6867C100.322 13.2856 100.498 12.7735 102.195 12.7593C103.096 12.7593 103.534 12.067 103.987 12.9513C104.44 13.8356 103.852 13.9826 104.182 14.625" fill="#FEF6F9"/>
<path d="M104.047 14.7225C105.012 15.7419 104.284 16.6357 102.681 17.6931C101.079 18.7504 100.86 18.6413 99.5115 17.8922C98.1625 17.143 98.1673 16.3749 99.3218 14.7723C100.332 13.3688 100.401 13.0014 102.1 12.9848C103.004 12.9848 103.286 12.2143 103.743 13.1009C104.201 13.9876 103.606 14.0895 104.047 14.7225Z" fill="#FEF5F9"/>
<path d="M103.909 14.8264C104.594 15.9501 104.015 16.6424 102.422 17.695C100.869 18.7239 100.775 18.5816 99.5111 17.8917C98.2475 17.2019 98.1763 16.4693 99.3309 14.8643C100.338 13.4608 100.305 13.238 102.005 13.2214C102.908 13.2214 103.043 12.3727 103.496 13.2569C103.949 14.1412 103.361 14.2052 103.909 14.8264Z" fill="#FEF5F9"/>
<path d="M99.3338 14.957C100.344 13.5559 100.206 13.4729 101.908 13.4587C102.809 13.4587 102.795 12.5294 103.248 13.416C103.701 14.3027 103.11 14.3216 103.769 14.9309C104.172 16.159 103.753 16.6473 102.16 17.6999C100.633 18.7051 100.683 18.5226 99.5068 17.892C98.2859 17.2376 98.1816 16.562 99.3338 14.957Z" fill="#FEF4F8"/>
<path d="M101.128 15.512C100.939 16.6594 98.85 17.5413 98.5703 17.2592C98.3332 17.0221 98.0961 16.4342 98.4802 16.3559C98.6035 16.3299 101.143 15.4195 101.128 15.512Z" fill="#FEF4F8"/>
<path d="M100.867 15.6777C100.654 16.7209 98.8331 17.5032 98.5557 17.2566C98.2783 17.0101 98.1052 16.4577 98.494 16.3984C98.6173 16.3818 100.886 15.5853 100.865 15.6872" fill="#FCEBF3"/>
<path d="M100.607 15.8413C100.37 16.7896 98.8146 17.4676 98.5396 17.2638C98.2646 17.0599 98.1081 16.4909 98.5064 16.453C98.632 16.453 100.628 15.7607 100.607 15.8508" fill="#FBE2ED"/>
<path d="M100.344 16.005C100.107 16.8466 98.7937 17.4275 98.5234 17.2497C98.2532 17.0718 98.1133 16.5029 98.5234 16.4863C98.6467 16.4863 100.373 15.9173 100.347 16.0121" fill="#FAD9E7"/>
<path d="M100.081 16.1686C99.8442 16.9083 98.7703 17.3943 98.5048 17.2449C98.2392 17.0956 98.116 16.5337 98.5332 16.5337C98.6565 16.5337 100.112 16.0856 100.081 16.171" fill="#F8D0E2"/>
<path d="M99.8199 16.3322C99.5686 16.97 98.7483 17.3588 98.4875 17.2402C98.2268 17.1217 98.1177 16.5456 98.5444 16.5741C98.6677 16.5741 99.8531 16.2469 99.8199 16.337" fill="#F7C6DB"/>
<path d="M99.5714 16.4981C99.3343 17.0362 98.7393 17.3254 98.4856 17.2401C98.2319 17.1548 98.1347 16.5668 98.5709 16.6166C98.6942 16.6308 99.6093 16.4151 99.5714 16.4981Z" fill="#F5BCD5"/>
<path d="M99.2904 16.6569C99.0534 17.0979 98.6954 17.2876 98.4488 17.2307C98.1643 17.1619 98.1193 16.5811 98.565 16.6546C98.6883 16.6759 99.3331 16.574 99.2904 16.6546" fill="#F4B2CE"/>
<path d="M99.0417 16.7967C98.8189 17.1452 98.6861 17.2329 98.4467 17.2021C98.4121 17.1926 98.3798 17.1764 98.3515 17.1544C98.3232 17.1324 98.2995 17.105 98.2818 17.0739C98.2641 17.0427 98.2527 17.0084 98.2482 16.9728C98.2438 16.9373 98.2463 16.9012 98.2558 16.8666C98.2653 16.8321 98.2816 16.7997 98.3035 16.7714C98.3255 16.7431 98.3529 16.7194 98.3841 16.7017C98.4152 16.684 98.4495 16.6726 98.4851 16.6681C98.5207 16.6637 98.5567 16.6663 98.5913 16.6758C98.7146 16.7018 99.0939 16.7184 99.0417 16.7967Z" fill="#F2A7C8"/>
<path d="M98.7693 16.9581C98.5606 17.2188 98.6531 17.1951 98.4184 17.1951C98.1197 17.1951 98.1268 16.593 98.5938 16.721C98.7171 16.7518 98.8309 16.8869 98.7693 16.9581Z" fill="#F19CC1"/>
<path d="M19.0869 70.7856C31.9292 78.7252 45.8241 82.0135 65.9256 83.1301C49.9824 83.379 30.3147 78.7869 19.0869 70.7856Z" fill="white"/>
</g>
<defs>
<clipPath id="clip0_32400_1801">
<rect width="137.171" height="84" fill="white"/>
</clipPath>
</defs>
</svg>
