<svg width="129" height="87" viewBox="0 0 129 87" fill="none" xmlns="http://www.w3.org/2000/svg">
<g style="mix-blend-mode:multiply">
<path d="M105.487 77.4714C105.351 77.2511 105.171 77.0601 104.96 76.9098C105.769 76.2955 105.857 75.1546 104.96 73.8909C104.551 73.2846 104.032 72.7606 103.429 72.3463C103.959 71.9994 104.375 71.5051 104.625 70.9247C104.756 70.567 104.81 70.1863 104.786 69.8065C104.761 69.4268 104.658 69.0562 104.483 68.7182C104.308 68.3801 104.064 68.082 103.768 67.8425C103.471 67.603 103.129 67.4273 102.761 67.3266C104.15 66.6245 104.608 65.5714 103.728 64.8342C102.874 64.3259 101.927 63.9926 100.943 63.854C99.9579 63.7153 98.9554 63.7741 97.9938 64.0268L97.8004 63.8513C97.9059 63.7285 98.029 63.6232 98.117 63.5003C98.3815 63.168 98.5559 62.7734 98.6235 62.3545C98.691 61.9356 98.6495 61.5063 98.5029 61.108C98.3563 60.7097 98.1095 60.3557 97.7863 60.08C97.463 59.8043 97.0742 59.6161 96.657 59.5336C96.2679 59.4138 95.8668 59.3373 95.4609 59.3054C94.2878 57.9404 92.6899 57.0072 90.9226 56.6551C89.8672 56.3523 88.782 56.164 87.6861 56.0935C87.6861 55.9004 87.5805 55.7249 87.5102 55.5143C87.0786 54.6114 86.4082 53.8433 85.5712 53.2927C84.7342 52.7422 83.7625 52.43 82.7608 52.3901H82.2683C80.5689 51.3059 78.563 50.8009 76.5516 50.9508C75.8724 50.9614 75.1954 51.0319 74.5287 51.1615C74.5287 51.1615 74.5287 51.021 74.5287 50.9508C74.508 49.9973 74.1392 49.0841 73.4914 48.3828C72.8436 47.6814 71.9614 47.2403 71.0107 47.1421C70.5214 47.0622 70.0224 47.0622 69.5331 47.1421C67.6629 46.0179 65.4792 45.5255 63.3062 45.738C62.3458 45.7608 61.393 45.9143 60.4742 46.1943C59.9529 45.3274 59.2194 44.6068 58.3425 44.1003C57.4656 43.5937 56.4741 43.3177 55.4611 43.2983C54.9427 43.2536 54.4272 43.4117 54.0235 43.7392C53.6198 44.0667 53.3594 44.538 53.2975 45.0535C53.2975 44.9657 53.2975 44.8604 53.1392 44.7551C52.5562 43.8927 51.7704 43.1859 50.8505 42.6964C49.9307 42.2068 48.9047 41.9495 47.8621 41.9468C47.4158 41.9755 46.9877 42.1342 46.6308 42.4032C44.9343 41.7068 43.0879 41.4531 41.2659 41.666C40.34 41.727 39.4306 41.9405 38.5746 42.2978C37.9712 41.5379 37.2001 40.9271 36.3214 40.5131C35.4428 40.0991 34.4802 39.893 33.5086 39.9108C33.1623 39.8839 32.815 39.9473 32.5005 40.0946C32.1861 40.242 31.9155 40.4683 31.7151 40.7514C31.5147 41.0345 31.3915 41.3647 31.3574 41.7096C31.3234 42.0546 31.3798 42.4024 31.521 42.7191V42.7191C30.7595 41.9082 29.8299 41.2728 28.7969 40.8575C27.7639 40.4422 26.6525 40.2569 25.5403 40.3145C25.2624 40.3571 24.9987 40.4656 24.7714 40.6309C24.5441 40.7962 24.3599 41.0134 24.2341 41.2644C24.1083 41.5154 24.0447 41.7928 24.0485 42.0734C24.0524 42.354 24.1236 42.6296 24.2563 42.8771C23.4071 42.1189 22.4076 41.5474 21.3227 41.1997C20.2379 40.8519 19.0918 40.7357 17.959 40.8586C16.3759 41.2974 16.4639 42.8771 17.959 44.4567L17.3785 44.3689C14.3531 43.544 11.4859 43.7195 10.9933 44.7551C10.7999 45.1588 10.9933 45.6327 11.5035 46.1066C10.7037 45.8455 9.85189 45.7853 9.02326 45.931C7.26425 46.3347 7.36979 48.0021 9.02326 49.652C8.55145 49.7787 8.10951 49.9975 7.72303 50.2957C7.33655 50.594 7.01321 50.9658 6.77173 51.3896C6.53155 51.8926 6.46343 52.4603 6.57782 53.0057C6.69221 53.551 6.9828 54.0439 7.40497 54.4085C6.08572 54.6191 5.20622 55.0755 5.18862 55.7249C5.17103 56.3743 6.71896 57.638 8.88254 58.2172C7.93268 58.3225 7.22907 58.6034 7.0004 59.0597C6.4727 60.0953 8.54833 61.6398 11.6266 62.57L12.2247 62.7105C11.7497 62.9562 11.4507 63.2546 11.4507 63.6407C11.4507 64.7991 14.054 66.0979 17.3082 66.5192C16.6574 66.8176 16.288 67.2212 16.3583 67.6776C16.5342 68.836 19.2079 69.9593 22.3214 70.205C22.8139 70.205 23.2712 70.205 23.7286 70.205C22.7611 70.9949 22.6028 71.9602 23.5351 72.6623C25.2441 73.5962 27.2505 73.8291 29.1287 73.3117C30.4807 74.6959 32.2972 75.5334 34.2298 75.6636C35.263 75.8442 36.3132 75.909 37.3609 75.8567C37.3878 75.9875 37.4231 76.1165 37.4664 76.2428C37.8896 77.2078 38.5754 78.035 39.446 78.6307C40.3166 79.2263 41.3371 79.5666 42.3916 79.6127C42.761 79.6303 43.1302 79.5742 43.4775 79.4476C43.8249 79.321 44.1434 79.1265 44.4145 78.8756C44.5202 79.0417 44.6378 79.2001 44.7663 79.3495C45.4457 80.1548 46.3025 80.7925 47.2698 81.2126C48.2371 81.6328 49.2887 81.8241 50.3423 81.7716C50.7063 81.7234 51.0484 81.571 51.3274 81.3328C51.4652 81.6317 51.6626 81.8995 51.9076 82.1198C52.1525 82.3401 52.4399 82.5083 52.7522 82.6141C53.4989 82.8745 54.2937 82.9686 55.0808 82.8897C55.8678 82.8109 56.6281 82.561 57.308 82.1577C57.3666 82.3483 57.469 82.5226 57.607 82.6667C58.68 83.7549 61.6879 84.1586 64.3264 83.5619C64.8825 83.442 65.4248 83.2656 65.9447 83.0353C66.2134 83.9198 66.74 84.7044 67.4574 85.289C68.1749 85.8736 69.0506 86.2317 69.9729 86.3175C70.5587 86.4063 71.1577 86.332 71.704 86.1028C72.2502 85.8737 72.7225 85.4985 73.0687 85.0187C73.3774 85.4745 73.8198 85.8239 74.3352 86.0191C75.3197 86.3508 76.3765 86.4067 77.3907 86.1808C78.4048 85.9549 79.3375 85.4558 80.0872 84.7378V84.7378C80.4033 85.1242 80.8159 85.4209 81.2833 85.5979C82.2829 85.9413 83.3564 86.0118 84.3925 85.8019C85.4286 85.5921 86.3896 85.1096 87.176 84.4044C87.4522 84.6951 87.7882 84.9226 88.161 85.0713C89.1359 85.4203 90.1859 85.5067 91.205 85.3218C92.224 85.137 93.1763 84.6873 93.9657 84.0182C94.2296 83.8016 94.4479 83.535 94.6079 83.2337C94.7679 82.9325 94.8665 82.6026 94.898 82.263C97.1319 83.088 99.3835 83.2459 100.263 82.579C101.142 81.912 100.439 80.8238 98.8558 79.718C99.5756 79.78 100.299 79.78 101.019 79.718C104.115 79.7005 106.085 78.6474 105.487 77.4714Z" fill="#B8B5AA"/>
</g>
<path d="M107.581 52.8638C107.434 52.5357 107.218 52.2426 106.948 52.0038C107.291 51.118 107.427 50.1657 107.344 49.2196C107.262 48.2736 106.964 47.3588 106.473 46.5452C106.027 45.6917 105.431 44.9249 104.714 44.2811C105.209 43.3733 105.52 42.3774 105.629 41.3499C105.946 38.5417 104.873 36.0844 103.166 35.4877C104.38 33.7325 104.661 31.8018 103.659 30.6609C102.656 29.5201 100 29.5727 97.8541 31.1173L97.643 30.854C97.7309 30.6083 97.8189 30.3801 97.8893 30.1168C98.7336 26.9751 97.7661 24.0089 95.7257 23.4648C95.3269 23.368 94.9107 23.368 94.512 23.4648C93.9982 22.5696 93.2793 21.8087 92.414 21.2443C91.5488 20.6799 90.5618 20.3281 89.534 20.2177C88.4419 20.0052 87.3191 20.0052 86.227 20.2177C86.227 19.8842 86.0687 19.5683 85.9632 19.2348C84.943 16.3037 82.5683 14.4783 80.6862 15.1453C80.5137 15.2094 80.3486 15.2918 80.1936 15.391C79.3817 14.731 78.3995 14.3133 77.3601 14.1859C76.3207 14.0586 75.2663 14.2269 74.3186 14.6714C73.6218 14.9346 72.9601 15.2824 72.3485 15.7069C72.3573 15.5842 72.3573 15.461 72.3485 15.3383C72.2078 12.1439 70.2553 9.59892 68.1269 9.72179C67.6044 9.7507 67.1023 9.93398 66.6845 10.2483C65.7746 9.57363 64.6913 9.17086 63.5608 9.08696C62.4303 9.00305 61.2992 9.24148 60.2993 9.77444C59.2985 10.1735 58.389 10.7705 57.6256 11.5296C56.3591 8.79155 53.9668 7.19434 52.1551 8.01927C51.4904 8.4215 50.9654 9.01748 50.6509 9.7268C50.3363 10.4361 50.2474 11.2246 50.3961 11.986L50.2026 11.5121C48.813 8.77399 46.2624 7.29965 44.4858 8.17724C43.9823 8.45353 43.5813 8.88436 43.3424 9.40585C42.4679 9.06578 41.5272 8.92857 40.5917 9.00459C39.6562 9.08061 38.7502 9.36786 37.9423 9.84465C36.9647 10.3393 36.1018 11.0329 35.4093 11.8806C33.9493 9.47606 31.7506 8.21234 29.9916 8.96706C28.2326 9.72178 27.7752 12.1439 28.5492 14.6889C26.6671 12.2492 23.9054 11.1786 22.2519 12.3721C21.5914 13.0054 21.1553 13.8359 21.0093 14.7382C20.8634 15.6406 21.0155 16.5658 21.4428 17.3743C19.2265 15.2155 16.3769 14.5309 14.8641 15.8649C13.3514 17.1988 13.7559 19.972 15.6029 22.3239L14.9169 22.1659C11.7858 21.692 9.00662 22.9558 8.70759 24.9742C8.66369 25.3849 8.70677 25.8003 8.83404 26.1934C8.96131 26.5864 9.16993 26.9484 9.44637 27.2559C9.02491 27.1524 8.58576 27.1427 8.16014 27.2276C7.73452 27.3126 7.33288 27.49 6.98376 27.7474C5.36547 29.0286 5.71728 32.0826 7.65218 34.4346C6.60863 35.5727 5.9502 37.0095 5.77005 38.5417C5.59137 39.453 5.60384 40.3913 5.80668 41.2976C6.00952 42.2038 6.39832 43.0583 6.94858 43.8072C6.37106 44.0975 5.88492 44.5411 5.54357 45.0892C5.20222 45.6372 5.01887 46.2686 5.01367 46.9138C5.15439 48.511 6.77268 49.7396 9.09457 50.0731C8.65589 50.266 8.26842 50.5584 7.96303 50.9272C7.65765 51.2959 7.44278 51.7307 7.33556 52.1969C7.12448 54.1978 9.37601 56.2864 12.5774 56.7954C12.7709 56.7954 12.9644 56.7954 13.1755 56.7954C12.7435 57.3565 12.5309 58.0552 12.5774 58.7612C12.7885 60.8674 15.6029 62.2715 18.8571 62.0258H18.945C18.6528 62.3481 18.4352 62.7306 18.3076 63.1461C18.1799 63.5616 18.1453 64.0001 18.2062 64.4304C18.5932 66.4313 21.4252 67.5721 24.5211 66.9929C24.9969 66.9064 25.4626 66.7711 25.9107 66.5893C25.4894 67.2786 25.2889 68.0798 25.336 68.8858C25.3832 69.6918 25.6757 70.4643 26.1745 71.1C27.441 72.2936 29.6925 71.9425 31.7858 70.4155C32.366 71.3053 33.1843 72.0153 34.148 72.465C35.1117 72.9148 36.1823 73.0864 37.2387 72.9605C38.3127 72.9489 39.3727 72.7158 40.3521 72.276C40.3942 72.5081 40.453 72.7369 40.528 72.9605C41.5307 76.0496 44.046 78.033 45.981 77.3835C46.4233 77.2127 46.821 76.9439 47.1441 76.5973C47.4671 76.2506 47.7069 75.8353 47.8455 75.3826C47.9728 75.6358 48.1138 75.8818 48.2677 76.1198C49.9387 78.5946 52.5948 79.7179 54.1955 78.6473C54.5987 78.3766 54.9112 77.9914 55.0926 77.5415C55.2229 77.9342 55.4365 78.2942 55.7188 78.5971C56.001 78.9 56.3454 79.1386 56.7285 79.2967C58.1709 79.8232 59.9299 78.8228 61.1084 76.9623C61.1903 77.2515 61.3212 77.5246 61.4954 77.7697C62.7443 79.3669 65.7874 79.1036 68.2676 77.1905C68.8261 76.7504 69.3283 76.2435 69.7627 75.681C70.4487 78.542 72.3836 80.5604 74.3361 80.262C75.0817 80.0465 75.746 79.6141 76.2441 79.0201C76.7423 78.4261 77.0517 77.6975 77.133 76.9272C77.418 77.5464 77.9269 78.0354 78.5578 78.2962C80.4223 78.9983 82.8322 77.2431 83.8348 74.3647C84.1384 74.8822 84.601 75.2884 85.154 75.5231C87.1065 76.2602 89.6043 74.4173 90.7477 71.416C91.0181 71.8052 91.3888 72.1145 91.8207 72.3111C93.6852 73.0834 96.1654 71.3809 97.3616 68.5024C97.8116 67.4257 98.0159 66.2626 97.9596 65.0974C100.299 65.8521 102.551 65.3957 103.237 63.8863C103.923 62.3768 103.096 60.6041 101.337 59.2175V59.1122C102.069 59.0137 102.785 58.8189 103.465 58.533C106.632 57.322 108.373 54.777 107.581 52.8638Z" fill="#ECE2AC"/>
<path d="M86.6666 37.3484H86.5611C86.6666 37.1202 86.7898 36.9096 86.8777 36.6639C87.9507 33.8381 87.335 30.9771 85.5057 30.2751C84.9999 30.1213 84.4631 30.0987 83.9461 30.2092C83.4291 30.3198 82.9488 30.5599 82.5505 30.9069C83.3773 28.3971 82.832 25.9574 81.1961 25.2904C80.8008 25.1485 80.3783 25.0985 79.9607 25.1441C79.5431 25.1897 79.1414 25.3298 78.7863 25.5537C78.158 24.1281 77.0242 22.9843 75.6025 22.3417C74.8344 21.968 74.0071 21.7305 73.1574 21.6397C73.2825 21.1321 73.2456 20.5983 73.0519 20.1127C72.2955 18.3575 69.4108 17.7958 66.6139 18.9542C66.0382 19.2077 65.49 19.5194 64.9781 19.8845C64.8298 19.3514 64.6295 18.834 64.38 18.3399C63.0256 15.7774 60.5805 14.4084 58.9095 15.2859C58.9159 15.2042 58.9159 15.122 58.9095 15.0402C58.6147 14.4011 58.086 13.8988 57.4319 13.6361C57.2249 13.2824 56.9429 12.9781 56.6056 12.7446C56.2683 12.5112 55.884 12.3542 55.4794 12.2846C54.9431 12.267 54.4115 12.3888 53.9366 12.6381C53.4617 12.8873 53.0599 13.2554 52.7705 13.7063L52.366 13.8467C51.418 14.237 50.5525 14.8027 49.8154 15.5141C48.6369 12.934 46.2974 11.4421 44.6615 12.1617C44.0159 12.5303 43.5003 13.0891 43.1854 13.7616C42.8705 14.434 42.7717 15.1872 42.9025 15.9178C42.9025 15.7598 42.7794 15.6019 42.709 15.4615C41.3194 12.7761 38.9096 11.4246 37.2385 12.2671C36.6487 12.5849 36.2068 13.1204 36.0072 13.7589C35.2049 13.4969 34.3562 13.4067 33.5165 13.4945C32.6769 13.5822 31.8653 13.8457 31.1348 14.2679C29.985 14.8332 29.0119 15.701 28.3203 16.7778C27.8685 16.0847 27.2074 15.5529 26.4327 15.2595C25.658 14.9661 24.8098 14.9261 24.0108 15.1455C22.4101 15.8651 21.9176 18.2522 22.7267 20.727C20.9677 18.3048 18.2412 17.2166 16.6405 18.375C15.0398 19.5335 15.1102 22.3417 16.7637 24.8341C16.1523 24.4167 15.4288 24.1935 14.688 24.1935C13.9473 24.1935 13.2238 24.4167 12.6124 24.8341C11.1173 26.168 11.5922 29.1167 13.6502 31.3984C13.7558 31.5213 13.8789 31.609 13.9844 31.7319C11.1876 31.4335 8.70741 32.5744 8.47874 34.3997C8.25007 35.8565 9.46379 37.3133 11.3811 38.1207C10.1498 39.4546 10.5192 42.1225 12.3134 44.334C12.9623 45.1325 13.7634 45.7947 14.6704 46.2822C14.5259 46.7287 14.42 47.1867 14.3538 47.6513C13.9141 50.635 15.1454 53.2853 17.0803 53.5662C17.2028 53.5837 17.3272 53.5837 17.4497 53.5662C17.6783 55.4442 20.0706 56.6553 22.9554 56.6553C22.8322 58.5157 24.9431 60.3411 27.8454 60.815C28.4303 60.873 29.0195 60.873 29.6044 60.815C30.2269 61.702 31.0916 62.392 32.0957 62.8027C33.0999 63.2134 34.2011 63.3277 35.2684 63.1318C35.6055 63.0991 35.9403 63.0463 36.2711 62.9739C36.746 64.729 39.3317 65.7822 42.1989 65.2556C42.753 65.1363 43.2947 64.9659 43.8172 64.7466C43.7529 65.1895 43.7942 65.6413 43.9379 66.0652C44.0815 66.4891 44.3234 66.8732 44.6439 67.1863C46.0687 68.5378 48.8831 67.8532 50.9588 65.6593C51.0097 65.5858 51.0567 65.5096 51.0995 65.4311C52.3346 66.3797 53.8705 66.8532 55.4266 66.765C56.8156 66.7474 58.1682 66.3199 59.3141 65.5364C60.4046 67.8708 62.3923 69.2749 64.081 68.7308C65.7696 68.1867 66.5436 65.8875 66.0511 63.3249L66.2797 63.7286C67.8628 66.063 70.3606 67.1336 71.891 66.1156C72.2876 65.8023 72.5964 65.392 72.7875 64.9246C72.9785 64.4572 73.0454 63.9485 72.9815 63.4478C73.1813 63.6305 73.4141 63.7735 73.6676 63.869C75.4266 64.5009 77.5901 62.851 78.5752 60.1656C78.6983 59.8146 78.7863 59.4635 78.8742 59.1125C80.2734 58.984 81.6079 58.4647 82.7248 57.6141C83.8417 56.7635 84.6958 55.6161 85.1891 54.3033C87.0712 53.847 88.2146 51.2142 87.7572 48.248C87.601 47.2604 87.2673 46.309 86.7722 45.4397C87.2963 44.8298 87.7235 44.1431 88.0386 43.4037C89.0237 40.6832 88.4256 37.9276 86.6666 37.3484Z" fill="#FCFBE6"/>
<path d="M54.6171 49.6345C56.0595 44.369 50.0261 38.1732 41.1079 35.6985C32.1898 33.2237 23.8873 35.5932 22.4273 40.7533C20.9673 45.9135 27.0183 52.2146 35.9189 54.6718C44.8195 57.1291 53.2275 54.9 54.6171 49.6345Z" fill="white"/>
<path d="M118.821 44.7902C116.043 43.862 113.147 43.3302 110.219 43.2105C104.38 29.4149 87.4931 8.15981 59.8943 2.24489C42.796 -1.52394 24.9142 0.824456 9.37557 8.87943C1.02029 13.4078 9.88568 14.5311 3.74675 17.8132C-0.66836 20.2178 -2.23388 31.3982 5.64648 33.8379C15.8487 36.8744 32.1371 38.9455 50.9937 42.9999C70.8353 47.1948 89.2873 53.1448 100.703 54.9C101.033 57.6196 101.532 60.3162 102.198 62.9737C103.764 69.9944 104.872 75.6987 109.234 74.7158C113.597 73.7329 119.331 67.0106 114.511 60.2357C113.087 58.2699 111.891 56.269 110.747 54.5314C111.148 54.3354 111.502 54.055 111.785 53.7097C112.067 53.3643 112.271 52.962 112.383 52.5305C113.579 53.3378 114.863 54.2856 116.112 55.1983C121.776 59.5863 127.686 54.9702 128.671 51.2316C129.656 47.4931 124.784 46.3347 118.821 44.7902Z" fill="#FF7547"/>
<g style="mix-blend-mode:color-dodge" opacity="0.2">
<path d="M59.8948 2.24489C42.7966 -1.52394 24.9147 0.824456 9.37613 8.87943C1.02084 13.4078 9.88624 14.5311 3.7473 17.8132C2.10398 18.9137 0.950606 20.6054 0.52832 22.5346C24.785 20.7795 54.1077 25.729 69.6573 31.0121C86.8428 36.8393 100.616 36.6287 99.666 26.5364C89.4582 14.2824 75.4748 5.74159 59.8948 2.24489V2.24489Z" fill="white"/>
</g>
<path d="M118.821 44.79C116.043 43.8618 113.147 43.33 110.22 43.2103C103.658 39.6122 84.9074 15.2154 57.2206 9.26538C37.379 4.96521 26.2621 6.50976 12.7178 11.9157C3.92273 15.426 9.88576 14.4607 3.74682 17.813C-0.668283 20.2176 14.1601 15.1803 22.2164 13.9166C35.3562 11.8455 46.6842 9.61641 64.4326 17.1461C83.6937 25.3076 108.214 39.1032 100.703 54.8998C101.033 57.6195 101.532 60.316 102.198 62.9735C103.764 69.9942 104.872 75.6985 109.234 74.7156C113.597 73.7327 119.331 67.0104 114.512 60.2355C113.087 58.2697 111.891 56.2688 110.747 54.5312C111.148 54.3352 111.502 54.0549 111.785 53.7095C112.067 53.3641 112.271 52.9618 112.383 52.5303C113.579 53.3377 114.863 54.2855 116.112 55.1981C121.776 59.5861 127.686 54.97 128.672 51.2315C129.657 47.493 124.784 46.3345 118.821 44.79Z" fill="#FF4000"/>
<path d="M13.3866 14.5313C14.8114 15.5668 14.741 18.0416 13.2283 20.2531C11.7155 22.4646 8.23268 26.8175 7.21246 22.9561C6.86999 21.9059 6.76493 20.793 6.90483 19.6975C7.04474 18.6019 7.42613 17.5509 8.0216 16.6199C9.55194 14.5313 11.9442 13.5835 13.3866 14.5313Z" fill="#FF4000"/>
<path d="M98.592 36.3654C99.8057 37.6466 99.2252 40.139 97.3079 41.9292C95.3906 43.7195 91.1338 47.2825 90.8875 43.3334C90.7747 42.2451 90.902 41.1453 91.2606 40.1113C91.6192 39.0773 92.2003 38.1342 92.9632 37.3483C94.8805 35.4878 97.4135 35.0841 98.592 36.3654Z" fill="#FF4000"/>
<path d="M28.2325 10.1432C31.0645 11.3016 31.9615 15.6544 30.2377 19.8844C28.5139 24.1144 24.3451 32.8024 21.1964 26.8173C20.1982 25.1735 19.5765 23.3298 19.3758 21.4182C19.1751 19.5066 19.4004 17.5743 20.0355 15.7597C21.6889 11.4596 25.3829 8.9848 28.2325 10.1432Z" fill="#FF4000"/>
<path d="M47.9858 11.0207C50.5012 12.7759 50.4308 17.2165 47.8099 20.955C45.189 24.6935 39.2259 32.2758 37.3965 25.6238C36.7871 23.788 36.5956 21.8398 36.836 19.9208C37.0764 18.0019 37.7426 16.1607 38.7862 14.5311C41.3191 10.8628 45.488 9.26558 47.9858 11.0207Z" fill="#FF4000"/>
<path d="M67.2649 15.7071C69.4813 17.8133 68.7425 22.2012 65.5939 25.5009C62.4452 28.8007 55.4268 35.4177 54.6176 28.5725C54.2854 26.6834 54.3748 24.7445 54.8795 22.8939C55.3842 21.0433 56.2918 19.3265 57.5376 17.866C60.6862 14.5311 65.031 13.6009 67.2649 15.7071Z" fill="#FF4000"/>
<path d="M84.3095 24.2022C86.5258 26.3084 85.787 30.6963 82.5505 33.9961C79.3139 37.2958 72.3834 43.9128 71.5567 37.0851C71.2241 35.1921 71.3149 33.2491 71.8228 31.3951C72.3306 29.5412 73.2428 27.8222 74.4942 26.3611C77.7308 23.0438 82.0755 22.0785 84.3095 24.2022Z" fill="#FF4000"/>
<path d="M8.30274 33.9783C8.52768 32.0728 8.32906 30.1413 7.72101 28.3212C7.11297 26.501 6.11044 24.8369 4.78472 23.4473C3.02572 21.3937 1.58333 21.6921 0.475156 22.9383C-0.509888 27.0805 0.615877 32.2582 5.75218 33.7677C6.56132 34.0134 7.51119 34.2415 8.30274 34.4697V33.9783Z" fill="#FFA36E"/>
<path d="M91.873 53.1446C94.3884 53.7238 96.7279 54.2153 98.9091 54.6014C99.0238 53.7817 99.0533 52.9524 98.997 52.1266C98.698 47.7387 94.4236 50.8629 91.873 53.1446Z" fill="#FFA36E"/>
<path d="M21.8296 37.3481C21.9283 35.5446 21.6579 33.74 21.035 32.0441C20.412 30.3483 19.4495 28.7967 18.2061 27.4841C14.0196 22.6398 11.8912 30.4152 10.9941 35.1366C14.1604 35.8913 17.8719 36.611 21.8296 37.3481Z" fill="#FFA36E"/>
<path d="M67.2471 37.0146C64.4679 30.7135 59.6658 39.1032 57.6253 43.1401C57.4389 43.5165 57.2745 43.9033 57.1328 44.2985C60.8443 45.1761 64.4855 46.0537 68.0211 46.9839C69.0391 43.6831 68.7625 40.1196 67.2471 37.0146V37.0146Z" fill="#FFA36E"/>
<path d="M38.399 39.7877C38.6277 37.8821 38.4308 35.9496 37.8226 34.1289C37.2143 32.3081 36.2098 30.6443 34.881 29.2567C30.3779 23.9912 28.2495 33.4515 27.4756 37.9448V38.3836C30.9936 39.0154 34.5116 39.6648 38.3814 40.3844L38.399 39.7877Z" fill="#FFA36E"/>
<path d="M86.1033 42.614C84.3443 35.9795 78.3109 43.5793 75.69 47.3003C75.3887 47.7467 75.1127 48.2096 74.8633 48.6869C78.7507 49.7049 82.4446 50.6878 85.9099 51.5654C86.9439 48.6812 87.0118 45.54 86.1033 42.614V42.614Z" fill="#FFA36E"/>
<path d="M53.8086 43.5439L53.9669 42.7716C54.1955 40.866 53.9987 38.9335 53.3904 37.1127C52.7822 35.292 51.7777 33.6282 50.4489 32.2406C45.9458 26.9751 43.8174 36.4354 43.0611 40.9286C43.0513 41.0455 43.0513 41.1629 43.0611 41.2797C45.682 41.7887 48.3381 42.3328 51.0997 42.912L53.8086 43.5439Z" fill="#FFA36E"/>
<path d="M12.7886 14.8468C14.5476 15.2681 16.3946 13.5656 17.0454 11.0381C17.6656 9.16624 17.8106 7.17008 17.4676 5.22852C15.3919 6.00079 13.4219 6.84327 11.5925 7.73841C11.255 8.28094 11.0057 8.87331 10.8537 9.49358C10.2029 12.0035 11.0648 14.408 12.7886 14.8468Z" fill="#FF4000"/>
<path d="M53.7027 7.28225C54.9938 5.51742 56.1185 3.63724 57.0624 1.66571C53.0604 0.952127 49.0077 0.558887 44.9429 0.489746L44.6263 0.875883C41.9878 4.59684 41.8998 9.03742 44.3976 10.8101C46.8954 12.5829 51.0994 11.0208 53.7027 7.28225Z" fill="#FF4000"/>
<path d="M25.2416 12.776C28.2143 13.5307 31.5389 10.5645 32.6646 6.14147C33.0817 4.51142 33.4047 2.85885 33.6321 1.19189C29.6234 1.72726 25.6646 2.58422 21.794 3.75444C20.8617 8.0195 22.3568 12.0037 25.2416 12.776Z" fill="#FF4000"/>
<path d="M107.229 37.2252C105.395 34.0614 103.325 31.0399 101.037 28.186C97.9588 30.6784 96.6747 34.2238 98.1699 36.5406C99.665 38.8575 103.623 39.1032 107.229 37.2252Z" fill="#FF4000"/>
<path d="M81.8114 23.7107C83.4649 26.2733 87.9328 26.361 91.7674 23.8863C92.7173 23.3071 93.9134 22.447 95.0743 21.5519C92.3767 18.8839 89.484 16.4199 86.42 14.1802C86.1913 14.3206 85.9627 14.4083 85.734 14.5663C81.8994 17.0411 80.1404 21.1306 81.8114 23.7107Z" fill="#FF4000"/>
<path d="M72.2071 14.2854C74.5298 12.897 76.6589 11.2092 78.5395 9.2656C74.9869 7.32449 71.2734 5.69201 67.4402 4.38623C67.0097 4.581 66.5925 4.8038 66.1913 5.05319C62.3743 7.51043 60.6153 11.5298 62.2863 14.1099C63.9574 16.69 68.4077 16.7602 72.2071 14.2854Z" fill="#FF4000"/>
<g style="mix-blend-mode:multiply">
<g style="mix-blend-mode:multiply">
<path d="M59.5072 2.24509C87.6513 8.31797 103.817 30.3278 108.935 42.4385L109.322 43.3687H110.29C104.379 29.4151 87.493 8.16001 59.8941 2.24509C57.2342 1.6633 54.5449 1.22388 51.8379 0.928711C54.4155 1.23451 56.9753 1.67389 59.5072 2.24509V2.24509Z" fill="#FFA36E"/>
</g>
<g style="mix-blend-mode:multiply">
<path d="M46.8424 0.577903C46.0509 0.577903 45.2417 0.577903 44.4678 0.577903C45.2593 0.489657 46.0509 0.489657 46.8424 0.577903Z" fill="#FFA36E"/>
</g>
<g style="mix-blend-mode:multiply">
<path d="M118.821 44.7904C116.246 43.984 113.593 43.4487 110.905 43.1932C113.294 43.4133 115.652 43.8839 117.941 44.5974L119.155 44.9133C121.478 45.4031 123.743 46.1386 125.91 47.1073C127.563 48.0024 127.528 48.7571 127.352 49.4416C126.891 50.7736 126.039 51.9363 124.906 52.7784C123.774 53.6204 122.413 54.1029 121.002 54.163C119.546 54.1288 118.145 53.6028 117.027 52.6711C115.813 51.7234 114.617 50.916 113.509 50.1262L111.627 48.8273L111.117 50.758C111.049 51.0026 110.929 51.2297 110.765 51.4237C110.601 51.6176 110.397 51.7737 110.167 51.8813L108.847 52.6185L109.657 53.8822C109.973 54.3386 110.272 54.83 110.589 55.339C111.468 56.7256 112.348 58.1648 113.456 59.6392C114.225 60.6438 114.718 61.8307 114.887 63.0831C115.057 64.3356 114.897 65.6106 114.423 66.7827C113.954 67.9989 113.215 69.0933 112.262 69.9839C111.308 70.8745 110.165 71.5383 108.918 71.9253C108.707 71.9407 108.495 71.9407 108.285 71.9253C105.892 71.9253 104.872 67.2917 103.676 61.9033L103.342 60.429C102.773 58.1072 102.362 55.75 102.11 53.3732V52.2499L101.002 52.0919C94.9513 51.1617 86.9302 49.0379 77.5371 46.5807C69.604 44.4921 60.5979 42.1226 51.3807 40.1392C43.3596 38.3841 35.7079 37.0326 28.9709 35.8215C19.8241 34.1541 11.9261 32.7324 6.10382 30.9948C4.83993 30.6308 3.72152 29.8821 2.90475 28.8531C2.08799 27.8242 1.61366 26.5664 1.54799 25.2554C1.21378 22.1663 2.53303 18.6735 4.41517 17.638C8.00355 15.6897 7.70451 13.8117 7.12404 12.2145C6.80742 11.3018 6.56116 10.5822 10.0088 8.70417C18.9933 3.97536 28.8913 1.22795 39.0324 0.647949C28.6706 1.24381 18.5574 4.05088 9.37557 8.87969C1.02029 13.408 9.88568 14.5313 3.74675 17.8135C-0.66836 20.2181 -2.23388 31.3985 5.64648 33.8382C15.8487 36.8746 32.1371 38.9457 50.9937 43.0002C70.8353 47.195 89.2873 53.145 100.703 54.9002C101.033 57.6199 101.532 60.3164 102.198 62.974C103.764 69.9947 104.872 75.699 109.234 74.7161C113.597 73.7332 119.331 67.0109 114.511 60.2359C113.087 58.2701 111.891 56.2692 110.747 54.5316C111.148 54.3356 111.502 54.0553 111.785 53.7099C112.067 53.3645 112.271 52.9623 112.383 52.5307C113.579 53.3381 114.863 54.2859 116.112 55.1986C121.776 59.5865 127.686 54.9704 128.671 51.2319C129.656 47.4934 124.784 46.335 118.821 44.7904Z" fill="#FFA36E"/>
</g>
<g style="mix-blend-mode:multiply">
<path d="M48.1797 0.630371C49.1999 0.630371 50.2025 0.770785 51.2228 0.876095C50.2025 0.770785 49.1823 0.683026 48.1797 0.630371Z" fill="#FFA36E"/>
</g>
<g style="mix-blend-mode:multiply">
<path d="M39.9824 0.612642C41.0144 0.612642 42.0522 0.577538 43.0959 0.507331C42.0405 0.48978 41.0202 0.48978 39.9824 0.612642Z" fill="#FFA36E"/>
</g>
</g>
<path d="M85.5231 31.2927C86.2795 28.9935 81.0377 25.2023 73.8082 22.8153C66.5786 20.4282 60.1055 20.3405 59.3491 22.6397C58.5927 24.939 66.7018 21.9552 72.4185 26.9575C82.2514 35.5929 84.7492 33.5744 85.5231 31.2927Z" fill="white"/>
<path d="M49.6923 4.29838C49.5692 2.82404 43.6941 2.10442 36.5877 2.70118C29.4813 3.29793 23.8173 5.00045 23.9404 6.47479C24.0636 7.94913 29.71 5.98334 36.8164 5.38658C43.9228 4.78983 49.8154 5.75517 49.6923 4.29838Z" fill="white"/>
</svg>
