<svg width="113" height="85" viewBox="0 0 113 85" fill="none" xmlns="http://www.w3.org/2000/svg">
<g style="mix-blend-mode:multiply">
<path d="M105.372 76.3137C105.239 76.0967 105.063 75.9088 104.857 75.7608C105.664 75.156 105.733 74.0329 104.857 72.7888C104.453 72.1958 103.947 71.6807 103.362 71.2683C103.875 70.9265 104.275 70.4395 104.513 69.8687C104.624 69.5228 104.666 69.158 104.635 68.7958C104.604 68.4335 104.502 68.0811 104.334 67.7592C104.166 67.4373 103.935 67.1524 103.656 66.9212C103.377 66.69 103.055 66.5172 102.709 66.4129C104.049 65.7218 104.427 64.685 103.654 63.9593C102.83 63.4498 101.913 63.1096 100.958 62.9583C100.002 62.8071 99.026 62.8478 98.0861 63.0781L97.8971 62.9053C98.0002 62.7844 98.1205 62.6807 98.2064 62.5598C98.4698 62.2343 98.6444 61.8455 98.7132 61.4316C98.7819 61.0177 98.7424 60.593 98.5986 60.1991C98.4547 59.8052 98.2114 59.4557 97.8926 59.1849C97.5738 58.9142 97.1904 58.7314 96.7801 58.6547C96.4008 58.5337 96.0085 58.4583 95.6116 58.4301C94.4621 57.0764 92.8846 56.1613 91.1437 55.8383C90.1064 55.5415 89.0408 55.3562 87.9647 55.2854C87.9311 55.0889 87.8734 54.8973 87.7928 54.7152C87.3738 53.8194 86.7176 53.057 85.8962 52.5114C85.0747 51.9658 84.1197 51.6582 83.1359 51.6223H82.6548C80.9926 50.5595 79.0345 50.0627 77.0699 50.2054C76.4007 50.215 75.7336 50.2843 75.0766 50.4127C75.0849 50.3439 75.0849 50.2743 75.0766 50.2054C75.0564 49.2667 74.6961 48.3677 74.0632 47.6772C73.4304 46.9868 72.5686 46.5525 71.6398 46.4559C71.1675 46.3776 70.6857 46.3776 70.2135 46.4559C68.3811 45.3467 66.2415 44.8619 64.1131 45.0736C63.1803 45.0934 62.2548 45.2446 61.3637 45.5228C60.8519 44.6716 60.1348 43.9639 59.2787 43.4656C58.4226 42.9672 57.4552 42.6942 56.4662 42.6718C55.9579 42.6275 55.4522 42.7827 55.0551 43.1047C54.6579 43.4268 54.4 43.8908 54.3354 44.3997C54.3354 44.3133 54.2494 44.2096 54.1807 44.106C53.6133 43.2548 52.8462 42.5574 51.947 42.0752C51.0479 41.593 50.0445 41.341 49.0255 41.3414C48.5843 41.3702 48.1608 41.5262 47.8054 41.7906C46.1748 41.1174 44.4019 40.8678 42.6502 41.0649C41.7402 41.1252 40.8462 41.3354 40.0038 41.6869C39.4355 40.9282 38.7014 40.3108 37.8583 39.8824C37.0151 39.454 36.0854 39.226 35.1407 39.2161C34.8038 39.1928 34.4666 39.2575 34.1619 39.4039C33.8572 39.5503 33.5953 39.7734 33.4016 40.0516C33.208 40.3298 33.0891 40.6536 33.0566 40.9916C33.0241 41.3296 33.079 41.6703 33.2161 41.9807C32.47 41.1864 31.5609 40.5648 30.5521 40.159C29.5432 39.7533 28.4586 39.573 27.3735 39.6307C27.0665 39.6301 26.7649 39.7122 26.5001 39.8685C26.2353 40.0248 26.017 40.2496 25.8679 40.5195C25.7188 40.7894 25.6443 41.0945 25.6522 41.4031C25.6601 41.7117 25.7501 42.0126 25.9129 42.2744C25.0885 41.537 24.1201 40.9809 23.0696 40.6417C22.0191 40.3025 20.9097 40.1877 19.8125 40.3046C18.2659 40.7366 18.3347 42.2917 19.8125 43.8468L19.1595 43.6567C16.2038 42.8446 13.42 43.0174 12.9389 44.0368C12.7327 44.4343 12.9389 44.9008 13.4372 45.3673C12.6558 45.1111 11.8238 45.0517 11.0143 45.1945C9.29584 45.5919 9.29584 47.2162 11.0143 48.8576C10.543 48.9964 10.1048 49.2304 9.72661 49.5453C9.3484 49.8603 9.03809 50.2495 8.81469 50.6892C8.57909 51.1856 8.51369 51.7465 8.62873 52.2842C8.74376 52.8219 9.03275 53.3061 9.4505 53.6612C8.14451 53.8685 7.30249 54.3178 7.2853 54.9571C7.26812 55.5964 8.78032 56.7886 10.894 57.3588C9.96602 57.4625 9.29584 57.739 9.07245 58.1882C8.55692 59.2077 10.5846 60.7282 13.5919 61.5576L14.1589 61.6958C13.695 61.9377 13.42 62.2315 13.4028 62.6116C13.4028 63.752 15.9633 65.0306 19.1251 65.4453H19.2111C18.5581 65.7391 18.1972 66.1192 18.2659 66.5857C18.4378 67.7261 21.0498 68.832 24.0913 69.0739C24.5725 69.0739 25.0365 69.0739 25.4661 69.0739C24.521 69.8514 24.3835 70.8018 25.2771 71.4929C26.9477 72.4088 28.9064 72.6379 30.7416 72.1322C32.0723 73.4907 33.8505 74.314 35.7422 74.4476C36.7459 74.6241 37.766 74.6878 38.7838 74.6377C38.8101 74.7664 38.8445 74.8934 38.8869 75.0178C39.3003 75.9677 39.9703 76.7821 40.8207 77.3685C41.6712 77.9549 42.6682 78.2899 43.6984 78.3353C44.432 78.3672 45.1485 78.1064 45.6918 77.6096L46.0183 78.0761C46.7129 78.892 47.5871 79.5338 48.5714 79.9507C49.5558 80.3676 50.6232 80.5481 51.689 80.4779C52.0435 80.4267 52.3768 80.2771 52.6513 80.0459C52.7806 80.3437 52.9716 80.6103 53.2117 80.8279C53.4518 81.0454 53.7353 81.2089 54.0432 81.3073C54.7699 81.5634 55.5436 81.6558 56.3097 81.5782C57.0757 81.5006 57.8155 81.2547 58.4767 80.858C58.5413 81.0462 58.647 81.2175 58.7861 81.3591C59.8343 82.4304 62.7556 82.8278 65.3332 82.2403C65.8819 82.1222 66.4174 81.9485 66.9313 81.722C67.1917 82.5939 67.7056 83.3676 68.4069 83.9434C69.1082 84.5192 69.9648 84.8709 70.8665 84.9531C71.4363 85.0412 72.0193 84.9683 72.5504 84.7425C73.0814 84.5167 73.5395 84.1469 73.8737 83.6745C74.1793 84.1194 74.6101 84.4624 75.1109 84.6594C76.053 84.9861 77.0649 85.0527 78.0412 84.8521C79.0175 84.6515 79.9224 84.1911 80.6614 83.519V83.519C80.9596 83.9031 81.3583 84.1963 81.8127 84.3656C82.7919 84.7052 83.8436 84.7754 84.8588 84.5688C85.874 84.3622 86.8158 83.8864 87.5866 83.1907V83.1907C87.8531 83.4728 88.175 83.6964 88.5317 83.8473C89.487 84.1906 90.5153 84.2755 91.5135 84.0936C92.5118 83.9116 93.445 83.4692 94.2197 82.8105C94.4775 82.5973 94.6907 82.3348 94.847 82.0383C95.0034 81.7417 95.0997 81.4169 95.1304 81.0827C97.2956 81.8948 99.5124 82.0503 100.286 81.3937C101.059 80.7371 100.457 79.6658 98.8937 78.5772C99.5912 78.6386 100.293 78.6386 100.99 78.5772C104.032 78.5081 105.956 77.4714 105.372 76.3137Z" fill="#B8B5AA"/>
</g>
<path d="M107.415 52.0887C107.271 51.7657 107.06 51.4771 106.797 51.2421C107.129 50.3782 107.259 49.4495 107.179 48.527C107.098 47.6045 106.809 46.7128 106.333 45.9202C105.898 45.0793 105.316 44.3242 104.614 43.6912C105.1 42.7752 105.398 41.7705 105.491 40.7365C105.8 37.9719 104.735 35.5529 103.068 34.9654C103.654 34.3357 104.019 33.5297 104.106 32.6712C104.193 31.8128 103.997 30.9494 103.549 30.2137C102.398 28.9178 99.9918 29.1424 97.8953 30.663L97.6719 30.3692C97.7579 30.1273 97.8438 29.9027 97.9125 29.6435C98.7374 26.5506 97.7922 23.6305 95.8161 23.0949C95.4265 22.9996 95.0199 22.9996 94.6304 23.0949C94.1145 22.2348 93.4064 21.5074 92.5623 20.9706C91.7181 20.4337 90.7611 20.102 89.7673 20.0019C88.7005 19.7923 87.6034 19.7923 86.5366 20.0019C86.469 19.673 86.3771 19.3496 86.2617 19.0343C85.265 16.1488 82.9624 14.3518 81.1065 14.9911C80.9463 15.0671 80.7913 15.1537 80.6425 15.2503C79.8493 14.6005 78.8898 14.1893 77.8743 14.064C76.8589 13.9386 75.8289 14.1043 74.903 14.5418C74.2175 14.7902 73.5698 15.1333 72.9784 15.5613V15.2157C72.7894 12.0018 70.9507 9.47913 68.8714 9.63464C68.3603 9.65994 67.8689 9.84071 67.4623 10.153C66.5794 9.48596 65.5269 9.08337 64.4263 8.99166C63.3257 8.89995 62.2217 9.12284 61.2417 9.63464C60.2456 10.0312 59.3352 10.618 58.5609 11.3625C57.3409 8.68431 55.0038 7.11194 53.2339 7.90676C52.5845 8.30274 52.0716 8.88945 51.7644 9.58774C51.4571 10.286 51.3702 11.0623 51.5154 11.8118C51.5154 11.6563 51.3952 11.5008 51.3092 11.3452C49.9689 8.64975 47.46 7.19833 45.7416 8.06227C45.2497 8.33427 44.858 8.7584 44.6246 9.27179C43.7756 8.9254 42.8593 8.77805 41.9452 8.84093C41.0311 8.9038 40.1433 9.17524 39.3491 9.63464C38.3792 10.1365 37.5291 10.8439 36.8574 11.7081C35.4999 9.37546 33.2831 8.13139 31.7022 8.87438C30.1212 9.61736 29.5542 12.0018 30.2931 14.5073C28.4372 12.1055 25.7565 11.0515 24.124 12.2092C23.4822 12.8385 23.0587 13.6587 22.9164 14.5487C22.774 15.4386 22.9203 16.351 23.3335 17.1509C21.2199 15.0084 18.4361 14.3172 16.9754 15.6304C15.5148 16.9436 15.8928 19.6909 17.68 22.0063C17.4611 21.9362 17.237 21.8842 17.0098 21.8508C13.9682 21.3842 11.2531 22.6283 10.961 24.6154C10.8898 25.0194 10.9067 25.4341 11.0106 25.8309C11.1144 26.2277 11.3027 26.597 11.5624 26.9135C11.1479 26.8113 10.7162 26.8016 10.2976 26.8852C9.87897 26.9688 9.48367 27.1436 9.13946 27.3973C7.61008 28.6586 7.91939 31.5788 9.79246 33.9805C8.7788 35.1049 8.13645 36.5174 7.95376 38.0238C7.78336 38.921 7.79762 39.8439 7.99563 40.7355C8.19365 41.627 8.57124 42.4683 9.10509 43.2074C8.5409 43.4932 8.06598 43.9299 7.73251 44.4695C7.39904 45.009 7.21993 45.6305 7.21484 46.2658C7.35232 47.8381 8.93325 49.0304 11.2016 49.3759C10.7722 49.5647 10.393 49.8522 10.0946 50.2154C9.79606 50.5786 9.58663 51.0072 9.48315 51.4667C9.15665 53.4883 11.4249 55.5445 14.5353 56.0456H15.1195C14.7072 56.5822 14.5054 57.2525 14.5525 57.929C14.7415 60.0024 17.4909 61.3847 20.6872 61.1428C20.4077 61.4635 20.2002 61.8409 20.0786 62.2493C19.9571 62.6578 19.9243 63.0877 19.9826 63.51C20.3435 65.4798 23.1101 66.6029 26.1517 66.0327C26.6166 65.9475 27.0715 65.8144 27.5093 65.6353C27.1039 66.3299 26.9242 67.1343 26.995 67.9365C27.0658 68.7387 27.3838 69.4986 27.9045 70.1105C29.1418 71.2855 31.3413 70.9399 33.3862 69.4367C33.966 70.2936 34.771 70.9719 35.7116 71.3959C36.6521 71.82 37.6913 71.9732 38.7133 71.8384C39.7558 71.8166 40.7836 71.5875 41.7377 71.1645C41.7377 71.3892 41.8408 71.6138 41.9095 71.8211C42.889 74.8795 45.3464 76.832 47.2366 76.1927C47.6708 76.0279 48.0612 75.7644 48.3772 75.4227C48.6932 75.0809 48.9262 74.6703 49.0581 74.2229C49.1956 74.4648 49.3159 74.7067 49.4705 74.9486C51.103 77.3849 53.6978 78.4044 55.2616 77.4368C55.6555 77.1703 55.9608 76.7911 56.138 76.3482C56.2544 76.7506 56.4581 77.1221 56.7344 77.4358C57.0108 77.7495 57.3529 77.9977 57.7361 78.1625C59.1624 78.6808 60.8636 77.6787 62.0149 75.8644C62.1011 76.1499 62.2348 76.4186 62.4102 76.6592C63.6302 78.2316 66.5859 77.9724 69.0089 76.089C69.5598 75.656 70.0561 75.157 70.4867 74.603C71.1397 77.4195 73.0471 79.4065 74.9374 79.1128C75.6667 78.8994 76.3169 78.4738 76.8061 77.8896C77.2954 77.3054 77.6018 76.5888 77.6868 75.8298C77.9639 76.4343 78.4535 76.9144 79.0616 77.1776C80.8831 77.8687 83.2373 76.1408 84.3199 73.3071C84.6126 73.8199 85.0657 74.2208 85.6087 74.4475C87.499 75.1732 89.9563 73.359 91.0732 70.4043C91.3434 70.7887 91.7114 71.0931 92.1387 71.2855C93.9602 72.0458 96.366 70.3524 97.5345 67.536C97.9756 66.465 98.1638 65.3058 98.0844 64.1493C100.37 64.8923 102.587 64.4431 103.24 62.9571C103.893 61.4711 103.24 59.7432 101.521 58.3609V58.2573C102.237 58.1646 102.937 57.9727 103.6 57.6871C106.487 56.4775 108.206 53.9721 107.415 52.0887Z" fill="#ECE2AC"/>
<path d="M86.9846 36.7276C87.0878 36.503 87.1909 36.2957 87.2768 36.0538C88.3422 33.2719 87.7407 30.4554 85.9364 29.7643C85.4451 29.6127 84.9233 29.5904 84.4209 29.6993C83.9185 29.8081 83.4523 30.0447 83.0667 30.3863C83.8571 27.9154 83.3244 25.5137 81.7435 24.8571C81.3545 24.7172 80.9389 24.6678 80.5282 24.7127C80.1174 24.7576 79.7222 24.8956 79.3721 25.1163C78.7638 23.7091 77.6545 22.5813 76.2618 21.9542C75.516 21.587 74.7145 21.3476 73.8904 21.2458C74.0069 20.7501 73.9648 20.2301 73.7701 19.7598C73.0312 18.0319 70.2302 17.479 67.4979 18.6194C66.9316 18.8612 66.3953 19.1686 65.8998 19.5352C65.7579 19.0094 65.5621 18.4998 65.3155 18.0147C63.9923 15.492 61.6037 14.1442 59.9712 15.0081C59.9712 14.9217 59.9712 14.8526 59.9712 14.7662C59.6832 14.1371 59.1668 13.6425 58.5278 13.3839C58.3293 13.0326 58.0549 12.7306 57.7247 12.5003C57.3946 12.27 57.0171 12.1173 56.6203 12.0535C56.0973 12.0412 55.5797 12.1633 55.1167 12.4082C54.6536 12.6531 54.2603 13.0127 53.974 13.453L53.4069 13.6258C52.4765 14.0315 51.6354 14.6188 50.9324 15.3537C49.7811 12.8137 47.4956 11.345 45.8803 12.0535C45.2495 12.4163 44.7458 12.9664 44.4382 13.6284C44.1306 14.2904 44.034 15.0318 44.1619 15.7511C44.1619 15.5956 44.0416 15.4401 43.9729 15.3019C42.7012 12.6755 40.3298 11.3623 38.6973 12.1226C38.4123 12.2755 38.1606 12.4843 37.9569 12.7365C37.7533 12.9887 37.6019 13.2793 37.5116 13.5913C36.7335 13.3389 35.9118 13.2516 35.0984 13.3349C34.285 13.4182 33.4976 13.6702 32.786 14.0751C31.6439 14.6237 30.6746 15.4787 29.985 16.546C29.5503 15.8609 28.9079 15.3348 28.1528 15.0454C27.3976 14.756 26.5699 14.7187 25.7921 14.939C24.2283 15.6475 23.73 17.9974 24.5376 20.4337C22.8192 18.0492 20.1557 16.9779 18.5919 18.1183C17.0282 19.2587 17.0969 22.0233 18.695 24.4769C18.0978 24.0661 17.391 23.8463 16.6673 23.8463C15.9437 23.8463 15.2369 24.0661 14.6396 24.4769C13.179 25.7901 13.6429 28.6757 15.6706 30.9392C15.7738 31.0602 15.894 31.1466 15.9971 31.2675C13.2477 30.9738 10.8419 32.0969 10.6013 33.8939C10.3951 35.328 11.5808 36.7622 13.4367 37.557C12.251 38.8702 12.5947 41.4966 14.3647 43.6737C14.9949 44.4635 15.7783 45.116 16.6673 45.5917C16.5203 46.0307 16.4111 46.4816 16.3408 46.9394C15.9284 49.8768 17.1313 52.4859 19.0215 52.7624C19.1412 52.7796 19.2627 52.7796 19.3824 52.7624C19.5886 54.5939 21.9257 55.8553 24.7095 55.7171C24.6064 57.5486 26.6685 59.3456 29.4867 59.8121C30.0581 59.8681 30.6336 59.8681 31.2051 59.8121C31.8924 61.35 34.1779 62.3349 36.7899 62.093C37.1247 62.0593 37.4574 62.0074 37.7866 61.9374C38.2505 63.6653 40.7766 64.7021 43.5604 64.1837C44.1073 64.0663 44.6422 63.8985 45.1586 63.6826C45.0925 64.1077 45.1248 64.5425 45.2529 64.953C45.3811 65.3636 45.6016 65.7389 45.8975 66.0498C47.2722 67.3803 50.0388 66.7064 52.0666 64.5465L52.2556 64.3219C53.4617 65.2553 54.9641 65.7159 56.4829 65.6178C57.8289 65.6478 59.1526 65.2684 60.2806 64.5293C61.3632 66.8274 63.305 68.2097 64.9375 67.674C66.5699 67.1384 67.3432 64.8748 66.8621 62.3521L67.0855 62.7496C68.632 65.0476 71.0894 66.1016 72.5672 65.0995C72.9573 64.7933 73.2609 64.3897 73.4478 63.929C73.6347 63.4682 73.6984 62.9663 73.6326 62.4731C73.8338 62.6535 74.067 62.7941 74.32 62.8878C76.0384 63.5098 78.152 61.8856 79.0971 59.2419C79.2182 58.9036 79.3159 58.5572 79.3893 58.2052C80.7858 58.1169 82.1198 57.5912 83.2041 56.702C84.298 55.88 85.1235 54.7492 85.5756 53.4535C87.3971 53.0216 88.514 50.4297 88.0672 47.5096C87.9303 46.5334 87.6033 45.594 87.1049 44.745C87.5826 44.1547 87.96 43.4892 88.2219 42.7752C89.2873 40.097 88.7202 37.3842 86.9846 36.7276Z" fill="#FCFBE6"/>
<path d="M55.7439 48.9439C57.1702 43.7602 51.2588 37.6435 42.5637 35.2245C33.8685 32.8054 25.6545 35.0171 24.1939 40.1662C22.7332 45.3153 28.6617 51.4493 37.3741 53.8683C46.0864 56.2874 54.3176 54.0929 55.7439 48.9439Z" fill="white"/>
<path d="M1.71653 29.1424C7.21544 21.7298 27.6301 -1.1474 49.6773 1.15069C71.7245 3.44877 107.605 16.8226 112.159 52.6243C115.407 78.2143 107.124 65.9981 91.5378 58.1708C75.9518 50.3435 39.7621 32.8228 16.3917 34.2051C-6.97863 35.5874 1.71653 29.1424 1.71653 29.1424Z" fill="#E61300"/>
<path d="M109.874 65.2896C108.259 65.2896 105.234 63.3717 101.746 61.16C98.6467 59.1253 95.4463 57.2509 92.1571 55.5444C60.2806 39.4924 35.6557 31.354 19.0387 31.354C18.1108 31.354 17.1828 31.354 16.2721 31.4404C14.1241 31.5614 12.1479 31.6305 10.4295 31.6305C2.26703 31.6305 1.47656 30.1791 1.47656 30.1618C1.68393 29.636 2.04301 29.1847 2.50761 28.8659L2.66227 28.7449L2.78255 28.5721C3.65894 27.449 23.6612 0.995119 46.5333 0.995119C47.532 0.994762 48.53 1.04667 49.5233 1.15063C55.2284 1.73811 105.303 8.21767 110.802 51.432C111.781 59.1557 111.713 63.7173 110.596 64.9959C110.508 65.0997 110.396 65.1805 110.271 65.2317C110.145 65.2828 110.009 65.3027 109.874 65.2896Z" fill="#F4493A"/>
<path d="M49.6771 1.15069C27.6299 -1.1474 7.21521 21.7298 1.7163 29.1424C1.52744 29.2844 1.34938 29.4403 1.18359 29.6089C4.1293 29.4903 7.06333 29.167 9.96467 28.6413C32.0462 24.7017 65.7271 32.9092 81.4849 39.8725C97.2427 46.8359 109.942 47.026 106.453 34.6889C94.4245 12.14 67.4799 3.0168 49.6771 1.15069Z" fill="#FF685A"/>
<g style="mix-blend-mode:color-dodge" opacity="0.3">
<g style="mix-blend-mode:color-dodge">
<path d="M42.8897 5.43562C44.8144 3.91508 46.8936 2.48094 48.9729 1.09863C48.2168 1.09863 47.4779 1.09863 46.7218 1.09863C34.3565 9.70524 24.0925 21.0184 16.7012 34.1876H17.9556C24.32 23.0584 32.7909 13.2905 42.8897 5.43562V5.43562Z" fill="white"/>
</g>
<g style="mix-blend-mode:color-dodge">
<path d="M39.8641 37.2808C42.6824 33.2904 45.8019 29.524 49.195 26.015C51.7419 23.3313 54.4629 20.8203 57.3403 18.4987C62.8705 14.3291 68.7996 10.7231 75.0399 7.73398C73.8886 7.25017 72.7544 6.80092 71.6031 6.38623C69.0907 7.6452 66.6677 9.07698 64.3514 10.6714C61.2158 12.5646 58.213 14.6718 55.3641 16.9782C52.5331 19.2725 49.8739 21.7732 47.4079 24.4599C44.0585 28.0144 41.0281 31.8595 38.3519 35.9503L37.8535 36.7451L39.8297 37.2635L39.8641 37.2808Z" fill="white"/>
</g>
<g style="mix-blend-mode:color-dodge">
<path d="M30.4128 35.1896C35.1352 28.1547 40.6412 21.685 46.8236 15.9064C50.139 12.7792 53.6706 9.89219 57.3919 7.26699C59.3508 5.98836 61.3786 4.79612 63.4407 3.67299C61.9972 3.34469 60.485 2.99912 59.0415 2.72266C58.0792 3.31014 57.0997 3.88034 56.1718 4.45054C52.3518 7.04454 48.738 9.93303 45.363 13.09C38.5643 19.435 32.7334 26.7536 28.0586 34.8094L30.4128 35.1896Z" fill="white"/>
</g>
<g style="mix-blend-mode:color-dodge">
<path d="M29.967 5.10742C25.9258 7.09472 22.0968 9.49162 18.5396 12.2609C12.7224 18.8304 7.69841 26.0686 3.57227 33.8248C4.36736 33.9838 5.17047 34.0992 5.97804 34.1704L6.52793 33.1682C13.1381 22.8621 21.0131 13.4342 29.967 5.10742V5.10742Z" fill="white"/>
</g>
<g style="mix-blend-mode:color-dodge">
<path d="M110.438 44.3994C105.319 45.4308 100.41 47.3235 95.9179 49.9978C92.9552 51.8314 90.1347 53.8877 87.4805 56.149L88.4771 56.6328C94.8009 51.8293 102.688 49.2548 111.298 47.8033C111.057 46.6457 110.765 45.5225 110.438 44.3994Z" fill="white"/>
</g>
<g style="mix-blend-mode:color-dodge">
<path d="M109.288 40.8401C108.586 38.9548 107.771 37.1141 106.848 35.3281C95.3343 37.9545 84.9895 42.9308 77.291 51.2765L78.5455 51.864C86.6907 45.0907 97.5167 42.1187 109.288 40.8401Z" fill="white"/>
</g>
<g style="mix-blend-mode:color-dodge">
<path d="M112.572 56.287C112.572 55.7859 112.469 55.2849 112.418 54.7319C107.141 56.2232 102.115 58.4943 97.502 61.4707L98.5502 62.1273C102.897 59.4652 107.627 57.4951 112.572 56.287Z" fill="white"/>
</g>
<g style="mix-blend-mode:color-dodge">
<path d="M57.3401 30.3691C65.6197 22.7475 75.4039 16.9659 86.0547 13.4013C84.5425 12.4682 83.0131 11.6734 81.4665 10.7749C69.6524 14.67 59.241 21.9778 51.5318 31.786C49.6591 34.1038 47.9861 36.5778 46.5312 39.1813L48.6621 39.8552C51.2957 36.4631 54.1978 33.2908 57.3401 30.3691V30.3691Z" fill="white"/>
</g>
<g style="mix-blend-mode:color-dodge">
<path d="M103.239 29.2807C102.5 28.244 101.744 27.2591 100.953 26.2915C87.0512 28.6414 74.5584 34.4298 65.6055 46.1622L68.2346 47.268C77.8921 37.3845 89.9897 31.9417 103.239 29.2807Z" fill="white"/>
</g>
<g style="mix-blend-mode:color-dodge">
<path d="M95.592 20.6755C94.8531 20.0017 94.097 19.3278 93.3237 18.6885C78.9406 22.6626 66.0353 30.4035 57.0996 42.8788L58.5431 43.4318C67.9943 31.9068 81.123 24.5114 95.592 20.6755Z" fill="white"/>
</g>
</g>
<path d="M75.0057 10.6193C75.3666 8.26939 67.8228 5.1592 58.1481 3.70778C48.4735 2.25636 40.3626 2.91295 40.0017 5.26287C39.6408 7.61279 47.8377 6.47239 57.5123 7.95837C67.187 9.44435 74.6449 12.9692 75.0057 10.6193Z" fill="white"/>
<path d="M105.955 44.3824C107.777 42.8619 105.371 36.9698 100.611 31.2332C95.8508 25.4966 90.5066 22.0754 88.685 23.596C86.8635 25.1165 95.1634 26.8444 97.2771 33.9633C101.04 46.2831 104.151 45.9202 105.955 44.3824Z" fill="white"/>
</svg>
