<svg width="99" height="85" viewBox="0 0 99 85" fill="none" xmlns="http://www.w3.org/2000/svg">
<g clip-path="url(#clip0_32399_1329)">
<path d="M49.0985 84.0383C41.2498 84.0383 34.3166 81.3398 30.1582 77.2192C35.3309 80.2346 41.201 82.1804 47.7383 82.1804C47.9824 82.1804 48.2277 82.1777 48.4738 82.1722H49.6922C49.9387 82.1777 50.183 82.1804 50.4274 82.1804C56.9968 82.1804 62.8945 80.2142 68.0859 77.1729C63.9333 81.3196 56.9777 84.0383 49.0985 84.0383Z" fill="url(#paint0_linear_32399_1329)"/>
<path d="M47.7383 82.1805C41.201 82.1805 35.3309 80.2347 30.1583 77.2193C26.8275 75.2778 23.7857 72.8926 21.0425 70.2987C12.7153 62.4245 7.13157 52.6243 4.5289 47.448C5.72877 49.6066 7.2505 51.6545 9.05479 53.5663C11.0897 56.2237 23.0528 70.2823 48.3748 70.283C48.7326 70.283 49.0911 70.2802 49.4542 70.2744C73.5842 69.8978 85.0183 61.2189 90.0798 52.5319C91.3429 51.078 92.4479 49.5495 93.3761 47.9612C91.0321 52.548 86.5954 60.2416 80.2053 67.1729C76.7342 70.9379 72.6869 74.4777 68.086 77.1729C62.8946 80.2143 56.9968 82.1805 50.4275 82.1805C50.1831 82.1805 49.9387 82.1778 49.6923 82.1723H48.4739C48.2278 82.1778 47.9825 82.1805 47.7383 82.1805ZM3.0925 44.4299C2.92718 44.0573 2.84375 43.8564 2.84375 43.8564H2.8722C2.94302 44.0477 3.0169 44.2398 3.0925 44.4299Z" fill="url(#paint1_linear_32399_1329)"/>
<path d="M48.3747 70.2828C23.0527 70.2821 11.0896 56.2235 9.05469 53.5661C17.5553 62.5722 32.3152 68.5301 49.0984 68.5301C66.5177 68.5301 81.7557 62.1137 90.0797 52.5317C85.0182 61.2187 73.5841 69.8976 49.4541 70.2743C49.091 70.28 48.7325 70.2828 48.3747 70.2828Z" fill="url(#paint2_linear_32399_1329)"/>
<path d="M49.0985 68.5302C32.3153 68.5302 17.5554 62.5723 9.05479 53.5662C7.25051 51.6544 5.72877 49.6065 4.52891 47.4479C3.98214 46.4642 3.50162 45.4564 3.09251 44.4298C3.01691 44.2397 2.94302 44.0476 2.8722 43.8564C1.91326 41.2651 1.4043 38.5521 1.4043 35.7559C1.4043 17.6564 22.7598 2.98291 49.0985 2.98291C75.4388 2.98291 96.793 17.6564 96.793 35.7559C96.793 40.0701 95.5805 44.1887 93.3761 47.9611C92.4479 49.5495 91.3429 51.0779 90.0799 52.5318C81.7558 62.1138 66.5179 68.5302 49.0985 68.5302ZM49.0985 3.23224C36.207 3.23319 24.5284 6.78907 16.0453 12.5673C11.8045 15.4569 8.36141 18.9042 5.97485 22.7481C3.5883 26.5909 2.26091 30.8343 2.26148 35.2884C2.26091 39.7421 3.58849 43.985 5.97485 47.8278C9.55554 53.5937 15.509 58.4672 22.9759 61.9051C30.4435 65.3424 39.4298 67.3441 49.0985 67.3443C61.9903 67.3433 73.6693 63.7871 82.1525 58.0088C86.3938 55.119 89.8368 51.6718 92.2236 47.8278C94.6101 43.985 95.9377 39.7421 95.9371 35.2884C95.9377 30.8343 94.6101 26.5909 92.2236 22.7481C88.6425 16.9823 82.6888 12.1087 75.2218 8.67105C67.7538 5.23411 58.7673 3.23243 49.0985 3.23224ZM49.0928 66.4375C36.3703 66.4377 24.8598 62.9188 16.556 57.2593C12.4031 54.43 9.05307 51.0674 6.74517 47.3496C4.43727 43.6309 3.16868 39.5605 3.1683 35.2884C3.16868 31.0156 4.43727 26.9452 6.74536 23.2263C10.2062 17.6495 16.0159 12.8724 23.355 9.49482C30.6922 6.11726 39.5542 4.13906 49.0963 4.13906C49.0976 4.13906 49.0974 4.13906 49.0985 4.13906C49.1003 4.13906 49.1029 4.13906 49.1045 4.13906C61.8272 4.13906 73.3379 7.65751 81.6421 13.3166C85.7951 16.1459 89.1452 19.5086 91.4531 23.2263C93.7612 26.9452 95.0297 31.0156 95.0303 35.2884C95.0297 39.5605 93.7612 43.6309 91.4531 47.3496C87.9921 52.9263 82.1821 57.7038 74.8426 61.0813C69.1472 63.7033 62.5328 65.482 55.3953 66.1467C55.6273 66.0331 55.8743 65.8603 56.0923 65.5977C71.3028 63.7531 83.5149 55.9982 87.4421 45.9382L87.6767 45.9917L87.5864 45.5574C88.3628 43.4449 88.7748 41.2346 88.7748 38.958C88.7748 24.014 71.0111 11.898 49.0985 11.898C27.1862 11.898 9.42248 24.014 9.42248 38.958C9.42248 49.4584 18.1911 58.5611 31.008 63.0467C31.6884 63.7836 32.495 64.2493 33.9373 64.2493C34.1983 64.2493 34.4801 64.234 34.7855 64.2023C39.2253 65.3739 44.0524 66.0167 49.0985 66.0167C50.2207 66.0167 51.3339 65.9848 52.4324 65.9224C52.7888 66.0816 53.1584 66.2128 53.5276 66.2943C52.0708 66.3892 50.5941 66.4375 49.1008 66.4375C49.0995 66.4375 49.0999 66.4375 49.0985 66.4375C49.097 66.4375 49.0945 66.4375 49.0928 66.4375Z" fill="url(#paint3_linear_32399_1329)"/>
<path d="M95.484 35.2885H95.0306C95.03 39.5607 93.7614 43.6311 91.4533 47.3498C87.9923 52.9264 82.1824 57.7039 74.8429 61.0815C67.5045 64.4598 58.6423 66.438 49.0988 66.4377C36.3743 66.4388 24.8612 62.9196 16.5562 57.2595C12.4034 54.4302 9.05331 51.0676 6.74541 47.3498C4.43751 43.6311 3.16892 39.5607 3.16854 35.2885C3.16892 31.0158 4.43751 26.9454 6.7456 23.2265C10.2064 17.6497 16.0161 12.8726 23.3553 9.495C30.6932 6.11687 39.5554 4.13886 49.0988 4.13924C61.8235 4.13809 73.337 7.65693 81.6423 13.3168C85.7953 16.1461 89.1454 19.5088 91.4533 23.2265C93.7614 26.9454 95.03 31.0158 95.0306 35.2885H95.9374C95.938 30.8344 94.6104 26.5911 92.2238 22.7483C88.6427 16.9825 82.6891 12.1089 75.222 8.67123C67.754 5.23429 58.7676 3.23261 49.0988 3.23242C36.2073 3.23338 24.5286 6.78925 16.0455 12.5675C11.8047 15.4571 8.36165 18.9043 5.97509 22.7483C3.58854 26.5911 2.26115 30.8344 2.26172 35.2885C2.26115 39.7423 3.58873 43.9852 5.97509 47.828C9.55578 53.5939 15.5093 58.4674 22.9761 61.9053C30.4437 65.3426 39.43 67.3443 49.0988 67.3445C61.9905 67.3435 73.6696 63.7873 82.1528 58.009C86.394 55.1192 89.8371 51.672 92.2238 47.828C94.6104 43.9852 95.938 39.7423 95.9374 35.2885H95.484Z" fill="#C76958"/>
<path d="M88.7742 38.958C88.7742 53.9021 71.0105 66.0167 49.0979 66.0167C27.1856 66.0167 9.42188 53.9021 9.42188 38.958C9.42188 24.014 27.1856 11.8979 49.0979 11.8979C71.0105 11.8979 88.7742 24.014 88.7742 38.958Z" fill="#8F6449"/>
<path d="M36.9925 56.1861C35.5657 56.1861 32.9061 55.2637 27.7103 52.7572C27.3902 52.6028 27.155 52.4894 27.0361 52.4355C26.0384 51.9921 24.1766 49.1527 22.9865 47.2016C21.221 47.3346 19.2939 47.5727 18.7684 47.7726C18.5175 48.0219 18.1364 48.1139 17.7878 47.9738C17.3232 47.7867 17.0977 47.2596 17.2835 46.7934C17.4761 46.3144 17.7155 45.7167 23.4172 45.354C23.7629 45.3412 24.0775 45.5014 24.2518 45.7917C25.5483 47.9511 27.281 50.4761 27.7968 50.792C27.9003 50.8359 28.154 50.9577 28.4982 51.1234C34.6489 54.0919 36.4584 54.4206 36.9784 54.3739C37.8071 53.1186 39.9963 52.1309 42.1797 51.2256C42.4959 51.0952 42.7664 50.9818 42.9661 50.8911C44.06 50.2294 48.8068 42.9069 48.339 39.7317C48.0826 37.9832 46.4645 37.2917 44.7515 36.5578C43.5018 36.0237 42.2097 35.4697 41.5026 34.4353C40.7515 33.3385 40.2981 31.6778 39.771 29.7567C39.2384 27.8098 38.6347 25.6037 37.6584 24.0323C37.3736 23.5732 37.062 23.4685 36.8537 23.4302C35.4779 23.1808 33.1089 24.9647 31.8435 25.9253C31.3376 26.3108 30.9296 26.6124 30.6775 26.7514C29.9719 27.1353 29.4631 29.18 30.3445 32.018C30.88 33.7465 32.6213 35.0191 34.3032 36.2503C35.3532 37.0168 36.345 37.7422 37.0477 38.5782C38.9209 40.8027 38.9053 44.7022 38.8997 46.1701V46.3685C38.8997 47.9837 37.2844 51.4778 32.2954 51.9638C31.0146 52.087 30.1334 51.8504 29.6118 51.2368C28.8226 50.3046 29.1712 48.994 29.541 47.6069C29.8287 46.5313 30.1532 45.3127 29.8357 44.5208C29.3031 43.186 23.9132 43.0018 21.0169 42.9014C19.1338 42.8361 17.5072 42.7809 16.419 42.5627C15.5916 42.3968 14.9357 41.9235 14.5176 41.1923C13.1814 38.8518 14.6919 34.3488 14.8675 33.8429C15.0347 33.3712 15.5519 33.1232 16.0223 33.286C16.4956 33.4506 16.7449 33.9678 16.5805 34.4408C16.0195 36.0519 15.3917 39.0671 16.0918 40.2941C16.2505 40.5706 16.4603 40.7221 16.7747 40.7844C17.717 40.9728 19.3506 41.0295 21.0793 41.0891C25.7352 41.249 30.5471 41.4149 31.5205 43.8477C32.0602 45.198 31.6538 46.7255 31.2937 48.0744C31.128 48.6964 30.8191 49.8541 30.9963 50.0622C30.9963 50.065 31.1931 50.2508 32.1198 50.1601C36.202 49.7605 37.0861 47.0244 37.0861 46.3685V46.1644C37.0916 44.8778 37.1044 41.4617 35.6621 39.7472C35.0981 39.0771 34.1913 38.4152 33.232 37.714C31.4014 36.3749 29.3256 34.8574 28.6116 32.5535C27.5588 29.1588 28.0505 26.118 29.8075 25.1588C30.0116 25.0468 30.3374 24.7933 30.7469 24.4815C32.4428 23.1936 35.0075 21.2381 37.1838 21.6463C38.017 21.8008 38.7155 22.2952 39.2 23.0745C40.3151 24.8696 40.9541 27.2119 41.5209 29.2762C41.9842 30.968 42.4207 32.5663 42.9987 33.4122C43.4082 34.0101 44.4073 34.4382 45.4657 34.89C47.3656 35.7033 49.729 36.715 50.1343 39.4681C50.7336 43.5445 45.3423 51.8036 43.7171 52.5419C43.5031 52.6396 43.2127 52.7601 42.8741 52.9004C41.6981 53.3878 38.9421 54.5312 38.4633 55.421C38.2111 55.89 37.7987 56.1861 36.9925 56.1861Z" fill="#E9D4AD"/>
<path d="M59.5477 32.1371C60.0874 32.7337 60.6288 33.35 61.1727 33.9947C63.7815 37.0864 69.1571 37.2848 73.3327 36.1075C74.2693 35.8438 74.4379 35.6298 74.4451 35.6214C74.3854 35.4782 73.7974 34.8024 73.3695 34.308C72.5194 33.3303 71.4625 32.1131 70.873 30.5276C69.8826 27.8625 67.5434 27.6853 64.8214 27.7279L64.1908 27.735C62.7031 27.735 60.3113 30.6211 59.5477 32.1371ZM48.789 54.3401C49.2354 54.4888 49.6817 54.6136 50.1111 54.7226C50.0927 53.8315 50.0261 52.977 49.8759 52.2217C49.4337 50.0158 49.1703 50.0454 47.4317 50.251C46.8677 50.3189 46.2203 50.452 45.458 50.3926C45.686 50.6448 45.934 50.9098 46.1522 51.1393C47.1201 52.1694 48.1558 53.2689 48.789 54.3401ZM54.2485 51.5629C54.4951 52.464 55.0392 53.7267 55.5533 54.241C55.9601 54.6461 56.2364 55.0428 56.4389 55.4523C56.8074 55.3971 57.1673 55.3234 57.5187 55.2327C56.993 54.5384 56.2037 53.636 54.9002 52.2232C54.6423 51.9426 54.427 51.7273 54.2485 51.5629ZM51.9304 55.1308C52.2323 55.1946 52.5043 55.2555 52.7366 55.315C53.2311 55.4424 53.7582 55.5204 54.2994 55.5516L54.2712 55.5231C53.2977 54.5499 51.9929 51.543 52.3768 50.1843C52.5127 49.6996 52.8485 49.3596 53.3006 49.2519C54.0742 49.065 54.9214 49.5708 56.2322 50.9919C57.8106 52.7007 58.6932 53.7322 59.2741 54.5668C59.593 54.3981 59.8864 54.2098 60.1428 54.0058C60.949 53.3624 61.3444 52.6001 61.3188 51.7429C61.272 50.0709 61.105 49.9915 60.4007 49.6586C59.7275 49.3398 58.7104 48.8581 57.4889 47.3831C54.8378 44.1808 54.8605 41.0171 54.8775 38.9241L54.879 38.5076C54.879 36.7336 56.2902 34.2442 57.3204 32.4264L57.333 32.4065C56.3255 31.3267 55.3183 30.2966 54.2767 29.2368C53.2198 28.1571 52.1599 27.0731 51.083 25.9185L50.3902 25.1703C47.7392 22.2883 45.2639 19.5736 41.6181 19.6572C37.648 19.7548 35.2251 20.4987 33.8918 21.1037C33.2259 21.618 30.1908 26.403 27.7892 30.2584C28.3106 30.5417 28.7172 30.9867 28.9908 31.5789C29.5561 32.8045 29.9896 34.1363 30.4077 35.4257C30.8753 36.8696 31.3598 38.3589 31.8827 39.0603C33.488 38.8462 39.7436 33.6986 40.571 32.799C40.9198 32.2647 42.8707 31.27 43.8867 31.27C43.9703 31.27 44.0636 31.2502 44.17 31.2347C45.0684 31.09 46.9372 30.7954 48.5185 33.9552C48.9209 34.7598 49.3558 35.4628 49.7569 36.113C50.8862 37.9452 51.9532 39.6752 51.1907 42.0598C50.2754 44.9219 48.2692 46.3828 46.6566 47.5574L46.3874 47.7545C46.1339 47.9414 45.866 48.1157 45.6026 48.2871C45.4481 48.389 45.3036 48.4826 45.1703 48.5733C45.9269 48.6017 46.6071 48.5223 47.2192 48.4501C49.4295 48.1865 50.9387 48.2857 51.6542 51.8662C51.8539 52.8708 51.9247 53.9888 51.9304 55.1308ZM32.1334 50.251L32.0881 50.2536C31.9323 50.2722 31.7807 50.4776 31.5482 50.8149C31.4619 50.9409 31.3754 51.0669 31.2848 51.1818C31.0963 51.4254 31.7991 52.8907 32.098 53.5155C32.3955 54.1375 32.7072 54.7906 32.9482 55.4424C33.3577 56.5517 33.9273 56.7686 35.5142 57.2348C35.996 57.3765 36.5229 57.5324 37.1012 57.7421C37.7969 57.9971 38.3707 58 38.9557 57.9022C36.3188 57.4757 35.5892 57.0252 35.2562 56.3662C34.8794 55.6211 35.279 54.9466 35.5709 54.4548C36.0101 53.7139 36.2751 53.2675 35.1953 52.2758C33.2032 50.4449 32.3884 50.251 32.1334 50.251ZM60.1655 56.1424C60.2844 56.4045 60.3978 56.6823 60.524 56.991C60.6769 57.3665 60.8512 57.7987 61.0906 58.3358C61.693 59.6903 62.6139 60.6198 63.3817 60.6496C64.0619 60.7063 64.5154 60.0232 64.8115 59.4736C66.7908 55.798 67.24 53.5027 66.1448 52.6511C65.6347 52.2544 64.9291 51.7756 64.1952 51.2767C63.7714 50.989 63.3861 50.7242 63.036 50.4804C63.0872 50.8248 63.1183 51.2242 63.1324 51.692C63.1735 53.1272 62.5316 54.4179 61.2749 55.4225C60.9433 55.6875 60.5706 55.9271 60.1655 56.1424ZM26.8257 31.807C26.6132 32.1486 26.4107 32.4758 26.2207 32.7805C24.9739 34.7911 23.9422 36.4545 23.4592 37.1643C23.1417 37.629 22.8258 38.0231 22.5367 38.3829C21.4216 39.7716 21.0461 40.2391 22.8017 42.7981C24.4552 45.2081 24.8506 48.6158 25.1678 51.3533C25.3536 52.9487 25.5447 54.5993 25.9288 55.0798C27.1529 56.6115 27.6617 57.2461 30.1639 59.3148C30.9419 59.9566 31.4249 60.6198 31.8132 61.1526C32.6719 62.3357 33.1068 62.9294 36.7824 61.9743C40.4039 61.0335 42.2628 59.788 42.8565 59.1618C41.9241 59.0442 41.179 59.2369 40.3869 59.4381C39.3029 59.713 38.0689 60.0232 36.4805 59.4467C35.9435 59.251 35.4519 59.1065 35.0027 58.9748C33.3874 58.5002 31.9917 58.092 31.2464 56.0701C31.0255 55.4708 30.7378 54.87 30.4629 54.3005C29.6977 52.7049 28.9751 51.1975 29.8537 50.0681C29.923 49.9803 29.9868 49.8839 30.0549 49.7876C30.3892 49.3002 30.8965 48.5633 31.8854 48.4515C33.0218 48.3182 34.3834 49.0677 36.4223 50.9396C38.5861 52.9275 37.6027 54.5838 37.1308 55.3801C37.0926 55.4439 37.0487 55.5176 37.0105 55.5869C37.505 55.8137 38.9771 56.1764 43.2135 56.6C47.1526 56.9981 47.5607 56.2572 47.5634 56.2501C47.6146 56.1453 47.5976 55.995 47.5296 55.8137C47.1484 55.6634 46.7673 55.4962 46.3945 55.3064C44.9947 54.5894 43.9277 53.6543 43.225 52.5222C41.0826 49.0692 43.2065 47.685 44.6121 46.768C44.8487 46.6151 45.0883 46.4593 45.3162 46.2921L45.5898 46.0922C47.1327 44.9672 48.7283 43.804 49.4637 41.5071C49.9496 39.9883 49.3686 38.9398 48.2125 37.0653C47.786 36.3738 47.3255 35.6227 46.8962 34.7656C45.9115 32.7933 45.1719 32.9109 44.4533 33.0241C44.2408 33.0583 44.051 33.0837 43.8867 33.0837C43.4701 33.0837 42.2332 33.693 41.9667 33.9508C41.8023 34.2102 34.5705 40.6711 31.9195 40.8737C31.2733 40.922 30.8753 40.6612 30.6655 40.4317C29.8295 39.5192 29.2968 37.8814 28.6819 35.9855C28.2795 34.7457 27.8642 33.4662 27.3442 32.3385C27.2224 32.0749 27.0596 31.9048 26.8257 31.807ZM51.8921 56.9784C51.868 57.5678 51.8369 58.1516 51.8058 58.7168C51.7136 60.4129 51.5591 63.2525 52.0324 63.6264C53.2452 64.4355 54.1719 64.6636 54.5516 64.5361C54.6083 64.5178 54.7246 64.4766 54.8166 64.2017C55.1681 63.1448 56.0422 62.867 56.5098 62.7168C56.5963 62.6898 56.7223 62.6488 56.7847 62.6205C56.745 62.5864 56.728 62.2322 56.3639 61.3369C55.7276 59.771 55.4741 58.6617 55.2687 57.7703C55.2376 57.6302 55.2076 57.4998 55.178 57.3751C54.1834 57.4034 53.1914 57.3056 52.2846 57.072C52.1641 57.0407 52.0337 57.0095 51.8921 56.9784ZM54.308 66.3851C53.1715 66.3851 51.9388 65.7432 51.025 65.1341C49.6888 64.2442 49.8178 61.8836 49.995 58.6191C50.0318 57.9589 50.0685 57.273 50.0927 56.5846C49.8617 56.5305 49.6237 56.4712 49.3801 56.4074C49.3545 56.627 49.2921 56.8423 49.1901 57.0521C48.6646 58.1176 47.2999 58.5964 44.8118 58.5242C44.8487 58.6475 44.8643 58.7581 44.8685 58.843C44.9903 60.8082 40.999 62.7536 37.2371 63.7284C32.6918 64.9088 31.6007 63.9453 30.3453 62.2194C29.9839 61.7221 29.6099 61.2092 29.0091 60.7118C26.4899 58.6305 25.8864 57.9305 24.5119 56.2133C23.8021 55.3263 23.6108 53.6642 23.3657 51.5629C23.0722 49.0238 22.7053 45.8643 21.3069 43.8238C18.9108 40.3311 19.676 39.0488 21.1227 37.248C21.3848 36.9207 21.6725 36.5635 21.96 36.1413C22.4163 35.474 23.3643 33.9466 24.5205 32.082C23.3968 32.5241 22.3525 33.2224 22.1316 33.4762C21.8539 33.8941 21.304 33.9905 20.8861 33.7114C20.468 33.4351 20.3674 32.8557 20.6452 32.439C21.0759 31.7914 23.6306 30.0629 25.8763 29.9014C30.718 22.131 32.3403 19.8159 33.141 19.4531C34.6272 18.7771 37.298 17.9512 41.5715 17.8436C46.0105 17.7075 48.9152 20.8884 51.725 23.9404L52.4108 24.6816C53.4749 25.8262 54.5262 26.899 55.5732 27.9673C56.4561 28.8684 57.3544 29.7851 58.2612 30.7458C59.202 29.2311 61.6744 25.9213 64.1908 25.9213L64.7903 25.9143C67.1409 25.8858 71.0572 25.8121 72.5732 29.897C73.0465 31.1736 73.9447 32.2066 74.7368 33.1178C75.6721 34.193 76.4796 35.1212 76.1623 36.1838C75.8704 37.1615 74.7595 37.5895 73.8245 37.8529C69.0918 39.1876 62.9171 38.8745 59.7858 35.1636C59.3933 34.6989 59.005 34.2513 58.6182 33.8162C57.795 35.2827 56.6927 37.3514 56.6927 38.5076L56.6911 38.9369C56.6757 40.8768 56.6558 43.5335 58.886 46.227C59.4061 46.8547 59.8579 47.2457 60.2588 47.5149C60.2604 47.4597 60.2661 47.403 60.2747 47.3448C60.3113 47.1224 60.4744 46.5811 61.214 46.3686C64.5054 45.4276 68.3595 44.6272 69.8287 46.5882C70.146 47.0118 70.496 47.5361 70.8715 48.0987C71.9032 49.646 73.3144 51.7656 74.5201 52.1665L75.0642 52.3536C75.767 52.5972 77.4134 53.1669 77.7478 52.8907C77.7931 52.8536 77.9009 52.6016 77.8116 51.9499C77.4176 49.1032 74.4535 46.3629 73.8059 46.1588C73.6316 46.1206 73.3369 46.1504 73.0522 46.18C72.3678 46.2524 70.9396 46.3956 70.5202 44.861C70.1021 43.3223 71.7033 42.6222 72.4742 42.2851C72.6072 42.2269 72.7306 42.1774 72.8268 42.1278C73.133 41.6843 74.2154 41.095 78.7098 41.095C79.6592 41.095 82.1756 41.095 83.1235 40.1116C83.3827 39.8437 83.4961 39.5192 83.4791 39.0885C83.3856 36.5593 82.0609 33.7184 81.667 33.2368C81.3169 32.9802 81.1909 32.5014 81.3921 32.0989C81.6174 31.6526 82.1599 31.4699 82.6091 31.6938C83.6011 32.1912 85.1851 36.1342 85.2912 39.0205C85.3267 39.9373 85.028 40.7506 84.4285 41.3697C82.9478 42.9086 79.978 42.9086 78.7114 42.9086C77.0861 42.9086 74.9056 43.0999 74.2538 43.2897C74.01 43.5928 73.6133 43.7671 73.201 43.9472C72.926 44.0676 72.355 44.3169 72.2531 44.4826C72.3253 44.4317 72.6498 44.3977 72.8651 44.3765C73.2746 44.3311 73.7366 44.2843 74.2126 44.3906C75.7032 44.7236 79.1407 48.3169 79.6067 51.7019C79.7724 52.9006 79.5346 53.7719 78.8983 54.2933C77.7776 55.2129 76.0205 54.6035 74.4705 54.0667L73.9463 53.888C72.151 53.2887 70.6689 51.0669 69.3625 49.1046C69.0084 48.5733 68.6781 48.0773 68.3778 47.675C68.0561 47.247 66.8702 46.7314 62.5713 47.8747C63.2586 48.4486 64.4275 49.242 65.2139 49.7777C65.9833 50.2991 66.7244 50.8035 67.2583 51.22C70.1191 53.4447 67.4242 58.4505 66.4082 60.335C65.3796 62.2479 64.0335 62.4944 63.3138 62.4619C61.8006 62.4037 60.3511 61.137 59.433 59.0725C59.185 58.5143 59.0021 58.0637 58.8434 57.6728C58.7174 57.3595 58.6069 57.0903 58.4906 56.8339C58.009 56.9826 57.5073 57.1031 56.9972 57.1922C57.01 57.2489 57.0243 57.3072 57.0369 57.3637C57.2268 58.1926 57.4634 59.2227 58.0443 60.6538C58.5842 61.9829 58.6861 62.8216 58.3872 63.4621C58.0785 64.1209 57.4662 64.315 57.0625 64.4439C56.6316 64.5816 56.5892 64.6211 56.5367 64.7755C56.2265 65.7066 55.6073 66.0918 55.1411 66.252C54.8746 66.3442 54.5942 66.3851 54.308 66.3851Z" fill="#E9D4AD"/>
<path d="M40.9225 41.8328C41.2074 42.2609 41.5573 42.8389 41.8011 43.5701C42.3097 45.0976 43.0195 45.4361 44.095 45.9504C44.3457 46.0695 44.6036 46.1926 44.8642 46.333C45.3163 46.5768 45.5486 46.5088 46.5391 46.0483C47.137 45.7719 47.8823 45.4275 48.8997 45.1627C49.9552 44.8891 50.8152 44.7687 51.5848 44.8267C50.862 43.9582 50.1721 43.1478 49.4027 42.656C47.443 41.4022 45.407 41.5453 43.0506 41.7139C42.474 41.7536 41.8918 41.7947 41.2994 41.8159C41.1577 41.8201 41.0331 41.8273 40.9225 41.8328ZM50.2458 55.0768C49.3617 55.0768 48.4888 54.9435 47.7051 54.6346C46.1991 54.0438 45.5799 53.1555 45.1702 52.5688C44.7424 51.9539 44.6376 51.8107 43.0989 52.3535C39.0663 53.7775 35.9392 52.1664 33.6609 50.6093C31.9735 49.4545 31.816 48.4769 31.7835 47.3177C31.7749 46.9735 31.7663 46.6476 31.663 46.289C31.4605 45.5806 30.844 43.4199 29.7898 42.9111C29.5972 42.8204 29.2755 42.7213 28.7372 42.948C27.9367 43.2809 27.1148 43.2725 26.3567 42.9239C24.4906 42.0667 23.5838 39.4158 23.486 39.1166C23.3316 38.6407 23.5908 38.1306 24.067 37.9746C24.5444 37.8188 25.0545 38.0781 25.2105 38.5542C25.3961 39.1197 26.1456 40.8327 27.1162 41.2775C27.4123 41.4121 27.707 41.4121 28.0386 41.2733C28.9256 40.9048 29.804 40.9077 30.5762 41.2775C32.1604 42.0411 32.9211 44.0915 33.4072 45.7917C33.5729 46.3685 33.5857 46.8671 33.5971 47.2696C33.6183 48.0376 33.6283 48.3889 34.6853 49.113C36.7313 50.5114 39.2563 51.7895 42.4952 50.6431C44.9152 49.7945 45.7655 50.2508 46.658 51.5316C47.0095 52.0347 47.3735 52.556 48.3684 52.9472C50.0062 53.5875 52.2719 53.1866 53.6676 52.4567C54.4297 52.0587 54.6481 51.713 54.6651 51.6421C54.6367 51.2865 54.6453 50.9138 54.6565 50.5482C54.6876 49.4956 54.7061 48.7999 53.7484 47.9043C52.3667 46.6149 51.6243 46.3259 49.3573 46.9183C48.4959 47.142 47.8596 47.4368 47.2985 47.6961C46.267 48.1735 45.2894 48.6214 44.0042 47.9297C43.7705 47.8053 43.5395 47.6947 43.3142 47.587C42.1495 47.03 40.8318 46.4011 40.0795 44.1438C39.8639 43.492 39.5226 42.9962 39.2505 42.598C38.8949 42.0808 38.494 41.4944 38.8256 40.8369C39.1826 40.1298 40.0497 40.0448 41.2369 40.0038C41.8051 39.9839 42.3677 39.9442 42.9231 39.9045C45.3787 39.7302 47.9178 39.5517 50.3803 41.1286C51.4246 41.7962 52.2295 42.7653 53.0823 43.7925C54.5956 45.6148 56.1599 47.4992 59.246 47.757C64.3284 48.1777 67.9258 47.0273 68.3737 46.6037C68.494 46.3711 68.8128 46.0722 69.3626 45.5693C69.7876 45.1768 71.0856 43.9852 71.0629 43.5516L70.6249 43.2597C69.2194 42.2891 68.1257 41.5438 67.2145 41.5948C66.9736 41.6162 66.6506 41.6501 66.3106 41.6883C64.3537 41.8995 63.6907 41.9716 63.5263 41.0494C63.3578 40.1015 64.0903 39.9201 66.2651 39.376C70.3006 38.3657 74.3515 38.1674 77.3751 38.822C80.284 39.4568 82.1289 39.2796 82.6106 38.8531C82.6644 38.805 82.7438 38.734 82.7211 38.4847C82.6531 37.7749 82.69 37.2549 82.8515 36.8553C82.8089 36.8056 82.7635 36.752 82.7112 36.6909C80.787 34.4155 79.414 32.9758 79.098 32.7775C78.8006 32.7236 78.4675 32.3439 78.384 31.8437C78.2861 31.2586 78.5455 30.6549 79.0287 30.3432C79.3575 30.1307 80.0602 29.8743 81.0703 30.5501C81.1455 30.5982 88.495 35.8181 87.3373 40.1611C87.1177 40.9856 86.9406 41.8386 86.7678 42.6704C86.2209 45.2973 85.7037 47.7768 84.0063 48.8762L83.7058 49.0704C82.2011 50.041 79.3985 51.8504 78.9904 52.7473C78.7935 53.1809 78.7651 53.4231 78.7439 53.6186C78.7057 53.9374 78.6391 54.5325 77.8468 54.85C77.3821 55.0384 76.855 54.8118 76.6681 54.3456C76.5137 53.9617 76.6426 53.5323 76.9572 53.2914C77.0011 52.9627 77.0847 52.5589 77.3398 51.9963C77.9207 50.7197 80.1211 49.2262 82.724 47.5458L83.0214 47.3532C84.0842 46.6659 84.5248 44.5462 84.9924 42.3006C85.1724 41.4361 85.3564 40.5507 85.5861 39.6933C85.7972 38.8999 85.4671 37.9293 84.8635 36.9433C84.8465 37.1571 84.7373 37.3711 84.5008 37.588C84.5164 37.5977 84.478 37.806 84.5248 38.3132C84.5985 39.0757 84.3534 39.7317 83.815 40.2092C82.3414 41.5169 78.9054 41.0112 76.9896 40.5959C74.9792 40.1567 72.4471 40.1439 69.7593 40.5309C70.3573 40.8709 70.9779 41.2987 71.6551 41.7677L72.0193 42.0186C72.6753 42.4692 72.8454 43.0331 72.8723 43.4256C72.963 44.7221 71.6467 45.9321 70.5883 46.904C70.3246 47.1462 69.9634 47.4794 69.884 47.5954C69.065 49.0208 63.916 49.966 59.0957 49.5635C58.0627 49.477 57.1645 49.2434 56.3724 48.9089C56.5013 49.5139 56.4843 50.0864 56.4688 50.6007C56.4602 50.9081 56.449 51.2199 56.473 51.5429C56.5085 52.0488 56.3314 52.8153 55.28 53.589C54.1067 54.4504 52.1543 55.0768 50.2458 55.0768Z" fill="#E9D4AD"/>
<path d="M54.9851 34.4792C55.8806 34.4792 56.8512 34.499 57.901 34.5458C63.6296 34.8007 65.2264 35.3931 65.9448 36.2701C66.5001 36.9459 66.3841 37.6969 66.3075 38.1927C66.214 38.805 66.1787 39.0331 66.9368 39.4695C70.0822 41.2775 71.1053 41.2845 76.8875 37.3228C78.789 36.0208 79.0015 35.5601 79.0228 35.4498C78.9533 35.2854 78.2833 34.8093 77.7943 34.4607C76.5376 33.5653 74.6417 32.2148 73.13 29.6971C71.7116 27.3336 70.1559 27.8395 67.5261 28.9405C65.3398 29.8599 62.6235 31.0006 60.7064 28.0904C58.9709 25.4591 57.7552 24.1145 56.5776 22.8137C55.6269 21.761 54.6422 20.6728 53.4124 18.9499C52.7789 18.0642 52.4531 17.7101 52.2858 17.5698C52.1159 17.7313 51.8494 18.0658 51.6241 18.3464C50.964 19.1738 49.9649 20.4235 48.2689 21.7553C47.212 22.5871 46.2441 23.151 45.3572 23.5023C46.1662 23.6964 46.9938 24.0662 47.8155 24.684C49.7666 26.1464 50.0358 27.6341 50.2129 28.6202C50.3844 29.5696 50.4411 29.8926 53.2281 29.7423C53.7098 29.7055 54.1562 30.1009 54.1817 30.6011C54.2071 31.1012 53.8245 31.5277 53.3244 31.5546C49.5625 31.7517 48.7832 30.9071 48.4275 28.9405C48.2704 28.0705 48.1087 27.1693 46.7288 26.1336C44.2663 24.2886 41.8519 25.3373 39.5904 26.57C39.3282 26.7132 39.103 26.8363 38.8989 26.9341C39.368 28.7973 42.9712 35.1649 44.133 36.4146C44.2251 36.3736 44.3371 36.3182 44.4362 36.2716C45.6009 35.709 48.1456 34.4792 54.9851 34.4792ZM70.1757 42.4576C68.8693 42.4576 67.628 41.9603 66.0326 41.0409C64.1978 39.9852 64.4045 38.6406 64.5166 37.9178C64.5464 37.7195 64.5846 37.4702 64.5435 37.4207C64.348 37.1811 63.3009 36.6002 57.8203 36.3579C49.2139 35.974 46.4184 37.3272 45.2254 37.9037C44.6374 38.1901 44.028 38.482 43.3381 38.0994C42.172 37.4518 36.8033 28.4218 37.0471 26.4028C37.108 25.9026 37.414 25.5299 37.8645 25.4066C38.0049 25.3684 38.3861 25.1601 38.7204 24.9788C39.4033 24.6048 40.3697 24.079 41.5033 23.7234C40.0382 23.236 38.8905 22.1153 37.9468 20.9619C36.1374 18.7515 33.2881 17.9976 32.034 17.9085C31.2959 18.1889 28.3869 22.1507 26.212 25.6674C25.9484 26.0939 25.3902 26.2258 24.9623 25.9621C24.5372 25.6985 24.4055 25.139 24.6691 24.7138C28.2664 18.896 30.8227 16.0253 32.163 16.099C33.7995 16.2153 37.1547 17.1292 39.351 19.8141C41.0258 21.8588 43.008 23.5846 47.1483 20.33C48.6799 19.127 49.5625 18.0219 50.2087 17.2141C50.896 16.3541 51.4456 15.7065 52.3099 15.6968C53.1827 15.7208 53.8373 16.4249 54.8873 17.8957C56.0576 19.5321 56.9644 20.5354 57.9222 21.5966C59.1465 22.9469 60.409 24.3453 62.2211 27.0942C63.2115 28.5948 64.3266 28.3157 66.826 27.2685C69.174 26.2838 72.3889 24.9377 74.6842 28.7634C76.0019 30.9567 77.6456 32.1285 78.8457 32.9828C79.9623 33.7778 80.8451 34.4068 80.8351 35.4767C80.8252 36.6046 79.7567 37.5566 77.9135 38.8191C74.245 41.3326 72.1367 42.4576 70.1757 42.4576Z" fill="#E9D4AD"/>
<path d="M44.6514 40.6159C44.4531 40.6159 44.2534 40.5508 44.0861 40.416C44.0464 40.4474 43.2501 40.3126 42.6167 40.2164C39.4514 39.7347 35.1144 39.0728 35.232 36.6089C35.2659 35.8919 35.4005 35.1452 35.5451 34.356C35.8665 32.5808 36.1982 30.7429 35.348 29.2397C34.4271 27.6101 33.2284 27.4799 31.2418 27.2643C30.7445 27.2107 30.2202 27.154 29.6677 27.0688C28.2508 26.8506 27.6061 27.0179 27.2703 27.2828C27.9633 27.6074 29.0811 28.1954 30.7899 29.489C32.2097 30.5644 32.2591 31.525 32.0524 32.1428C31.3099 34.3505 25.9299 34.6126 25.8774 34.6126C25.7953 34.6139 25.6294 34.6294 25.3971 34.6493C23.5338 34.8123 18.586 35.2401 16.0542 33.3387C15.1275 32.6445 14.7207 31.6285 14.9078 30.4794C15.2791 28.2024 17.9471 25.7867 18.7136 25.5316C19.1883 25.3772 19.7011 25.6307 19.86 26.1055C20.0129 26.566 19.7763 27.0618 19.33 27.2361C18.8142 27.5194 16.7995 29.455 16.6804 30.9072C16.6464 31.3267 16.7852 31.6199 17.1408 31.8878C19.1202 33.3742 23.7266 32.9746 25.2413 32.8429C25.5531 32.8158 25.7726 32.799 25.8774 32.799C26.9331 32.7946 30.0247 32.1951 30.3323 31.5663C30.3153 31.5663 30.2246 31.3353 29.6946 30.9342C27.8329 29.5243 26.7588 29.0384 26.1821 28.7792C25.7373 28.578 25.3532 28.4037 25.1861 27.9333C25.026 27.4841 25.2199 27.0959 25.2837 26.9684C25.8364 25.8617 26.8226 24.7934 29.944 25.2766C30.4682 25.3573 30.9655 25.4112 31.4375 25.4621C33.5514 25.6916 35.5493 25.9071 36.928 28.347C38.0996 30.4214 37.6903 32.684 37.3289 34.679C37.1972 35.4087 37.0723 36.096 37.0441 36.6968C37.0315 36.9461 37.5782 37.6148 42.8916 38.4239C44.4319 38.6591 44.891 38.7385 45.2196 39.0006C45.6092 39.3137 45.673 39.8847 45.3599 40.2759C45.1814 40.4999 44.9179 40.6159 44.6514 40.6159Z" fill="#E9D4AD"/>
<path d="M63.2103 43.7812C62.7739 43.7812 62.4083 43.4723 62.3218 43.0614C62.0541 42.5372 60.2178 40.3099 58.5983 38.9949C58.0472 38.5459 57.4038 38.122 56.7578 37.6927C55.3026 36.7292 53.7992 35.7319 53.0312 34.3672C51.7928 32.164 54.3433 30.6168 57.2961 28.8259C57.8771 28.4729 58.492 28.1003 59.1197 27.7007C60.3652 26.9088 61.1756 26.5375 61.8997 26.8662C62.5742 27.1694 62.6847 27.8708 62.7655 28.3822C62.8632 28.993 62.9539 29.571 63.6566 29.9679C64.9474 30.6976 65.4985 31.423 66.1362 32.2646C66.8574 33.2168 67.7556 34.4028 70.2919 36.2475C73.9547 38.9113 74.8743 38.1052 76.1409 36.9873C76.3322 36.8185 76.5249 36.6499 76.7247 36.49C77.9219 35.532 78.3484 34.1448 77.1766 29.564C76.6014 27.3084 73.3894 27.6201 70.6548 28.1415C69.7804 28.3072 69.0918 28.4405 68.7957 27.6839C68.6625 27.3452 68.6569 26.8435 69.3879 26.3874C69.5439 26.2895 69.6288 26.1662 69.6699 25.9764C69.755 25.581 69.7436 24.3455 67.8039 21.4368C67.0302 20.2749 62.8037 19.9248 61.2138 19.7917C60.4076 19.7251 60.0406 19.6924 59.7955 19.623C59.3138 19.4855 59.0345 18.9826 59.1722 18.5008C59.3094 18.022 59.8054 17.7471 60.2858 17.8759C60.4572 17.9157 60.8468 17.941 61.364 17.9836C64.6016 18.2528 68.151 18.6865 69.3129 20.4307C70.9622 22.9045 71.672 24.7806 71.4793 26.1536C73.9547 25.7653 78.0254 25.5612 78.9336 29.1134C80.1777 33.9749 79.8957 36.2758 77.8582 37.9067C77.6797 38.0485 77.5096 38.1986 77.3397 38.3488C75.5486 39.9286 73.6996 40.9687 69.2264 37.7141C66.4733 35.712 65.442 34.3531 64.691 33.36C64.1114 32.5962 63.7288 32.0918 62.7639 31.5477C61.3316 30.7386 61.0977 29.4435 60.9814 28.7139C60.7875 28.8116 60.5026 28.9702 60.0945 29.231C59.4542 29.6377 58.8291 30.0174 58.2369 30.3774C56.2688 31.5704 54.2328 32.8045 54.6125 33.4789C55.165 34.4623 56.4842 35.3365 57.7595 36.1809C58.4567 36.6429 59.1479 37.1034 59.743 37.5865C60.8314 38.4706 64.1171 41.755 64.1171 42.8743C64.1171 43.3761 63.7105 43.7812 63.2103 43.7812Z" fill="#E9D4AD"/>
<path d="M48.2061 64.3064C44.9373 64.3064 42.1955 61.3932 40.1835 59.2536L39.7372 58.7804C37.6261 56.5588 39.9159 53.035 41.6004 51.3019C41.9504 50.9449 42.5229 50.9336 42.8813 51.2851C43.2411 51.6335 43.2497 52.2074 42.9011 52.5659C42.0411 53.4542 39.8534 56.2711 41.0522 57.5322L41.504 58.011C43.4183 60.0472 45.8214 62.572 48.3321 62.4913C53.6852 62.3072 58.5707 61.4825 59.221 60.6536C60.1278 59.4988 59.3981 55.8093 58.7916 55.3331C58.1981 54.9689 57.1723 54.6006 55.2438 55.6747C54.6628 55.9977 54.1995 56.4963 53.7505 56.9782C52.8534 57.9444 51.7385 59.1475 49.7137 58.4715C47.8731 57.8581 46.877 56.7854 46.1502 56.0032C45.8923 55.7256 45.6584 55.4677 45.4049 55.2709L45.0916 55.0284C44.0716 54.2421 43.3984 53.7221 43.2257 53.0277C43.03 52.2429 43.9752 50.0396 44.9175 48.6694C46.1259 46.9138 47.6194 45.8824 49.236 45.6855C52.4496 45.3001 62.3439 45.1684 65.4753 49.5522L66.3751 50.8218C68.3913 53.6781 70.477 56.6325 71.8811 56.7061C74.1764 56.8308 75.7067 56.6792 76.2621 55.5683L76.6659 54.7791C77.3361 53.4855 78.0303 52.148 77.8264 51.2652C77.696 50.7013 77.6322 50.0381 77.5643 49.3382C77.4566 48.2189 77.3333 46.9494 76.9167 46.1191C76.693 45.6699 76.8743 45.1258 77.3218 44.9019C77.771 44.6779 78.3138 44.8579 78.5391 45.3072C79.1059 46.4406 79.2462 47.8873 79.3693 49.1624C79.4302 49.7916 79.4843 50.3838 79.5933 50.8586C79.9474 52.3903 79.0973 54.0296 78.2756 55.6136L77.8831 56.3803C76.6872 58.7748 73.6226 58.6105 71.7847 58.5169C69.5035 58.3965 67.4688 55.5158 64.8929 51.8674L64.0002 50.6062C61.5986 47.2426 53.0036 47.0555 49.4543 47.4864C46.8147 47.8065 45.2476 51.6619 45.0307 52.6425C45.205 52.8252 45.7504 53.2461 46.1996 53.5932L46.5185 53.8396C46.8415 54.0905 47.1477 54.412 47.4791 54.7692C48.1706 55.5132 48.8876 56.2839 50.2876 56.7514C51.1631 57.0404 51.5159 56.7174 52.4227 55.744C52.9412 55.1842 53.5307 54.5523 54.3625 54.0892C56.4056 52.9556 58.2164 52.8549 59.7494 53.7929C60.6961 54.3725 61.1169 56.0061 61.2826 56.927C61.4201 57.6979 61.7843 60.3277 60.6478 61.7744C59.112 63.7282 51.5669 64.193 48.3945 64.302C48.3321 64.3049 48.2683 64.3064 48.2061 64.3064Z" fill="#E9D4AD"/>
<path d="M49.1802 64.386C48.0908 64.386 47.0401 64.3503 46.0716 64.2696C43.6178 64.0651 41.3628 63.5695 39.5022 63.0296C40.6215 62.6259 41.6811 62.1499 42.5589 61.6285C44.182 63.0766 46.0832 64.3064 48.2069 64.3064C48.2691 64.3064 48.3329 64.3049 48.3953 64.302C48.9205 64.2841 49.5654 64.2562 50.283 64.2134C50.3073 64.2682 50.3327 64.3213 50.3596 64.3729C49.9625 64.3815 49.569 64.386 49.1802 64.386ZM53.1484 64.253C53.0048 64.1886 52.8533 64.1136 52.6948 64.0273C53.4636 63.9529 54.254 63.8607 55.0262 63.7465C54.9571 63.8605 54.8954 63.9876 54.8433 64.1294C54.2849 64.1758 53.7173 64.2175 53.1484 64.253ZM58.185 63.7879C58.2613 63.694 58.3304 63.5861 58.3887 63.4618C58.4583 63.3127 58.5063 63.1528 58.5318 62.9785C59.5047 62.6583 60.2647 62.2629 60.6486 61.7744C60.759 61.6339 60.8552 61.4823 60.9388 61.3223C61.6584 62.0264 62.4772 62.4294 63.3153 62.4617C63.3525 62.4632 63.3914 62.4642 63.4317 62.4642C63.5237 62.4642 63.6234 62.4594 63.7297 62.4473C63.879 62.6344 63.9743 62.7421 63.9743 62.7421C63.4869 62.9859 61.1769 63.4248 58.185 63.7879ZM36.5469 62.0346C35.1848 61.5096 34.3906 61.1041 34.3906 61.1041C35.037 61.1041 36.3295 60.4644 37.6055 59.7263C37.8413 59.7582 38.0685 59.772 38.2886 59.772C39.0572 59.772 39.7357 59.6034 40.3636 59.4442C40.6309 59.728 40.9104 60.023 41.2017 60.3212C40.195 60.8634 38.7489 61.4636 36.7839 61.9741C36.7033 61.9951 36.6245 62.0151 36.5469 62.0346ZM62.2742 60.085C61.9825 59.8126 61.699 59.4512 61.4461 59.0236C61.455 58.696 61.4451 58.3797 61.4255 58.0921C61.8006 58.0647 62.0089 58.0479 62.0089 58.0479C61.8273 58.6651 61.9841 59.3909 62.2742 60.085Z" fill="#B79272"/>
<path d="M50.3595 64.3729C50.3326 64.3213 50.3072 64.2682 50.283 64.2135C51.0264 64.1694 51.8477 64.1092 52.6947 64.0273C52.8532 64.1136 53.0048 64.1886 53.1483 64.253C52.2175 64.3112 51.2803 64.353 50.3595 64.3729ZM54.8432 64.1295C54.8953 63.9876 54.957 63.8605 55.0261 63.7465C56.3029 63.5573 57.5301 63.308 58.5318 62.9785C58.5062 63.1528 58.4583 63.3127 58.3886 63.4618C58.3304 63.5861 58.2613 63.694 58.1849 63.7879C57.1379 63.9149 56.0081 64.0325 54.8432 64.1295ZM39.5021 63.0296C38.3504 62.6953 37.35 62.3443 36.5469 62.0346C36.6244 62.0151 36.7032 61.9951 36.7838 61.9741C38.7488 61.4636 40.195 60.8634 41.2016 60.3212C41.6291 60.7588 42.0817 61.203 42.5588 61.6285C41.681 62.1499 40.6214 62.6259 39.5021 63.0296ZM63.4316 62.4642C63.3914 62.4642 63.3524 62.4632 63.3152 62.4617C62.4771 62.4294 61.6583 62.0264 60.9388 61.3223C61.2971 60.6368 61.4248 59.7975 61.446 59.0236C61.699 59.4512 61.9825 59.8126 62.2742 60.085C62.6863 61.0713 63.3673 61.9934 63.7297 62.4474C63.6233 62.4594 63.5237 62.4642 63.4316 62.4642ZM38.2885 59.772C38.0684 59.772 37.8412 59.7582 37.6055 59.7263C38.2861 59.3327 38.9624 58.911 39.5331 58.5435C39.5961 58.6238 39.6644 58.7031 39.7379 58.7804L40.1843 59.2536C40.2434 59.3164 40.3032 59.3802 40.3635 59.4442C39.7356 59.6034 39.0571 59.772 38.2885 59.772Z" fill="#F4E7CD"/>
<path d="M48.2145 62.4934C46.7625 62.4934 45.3484 61.6356 44.0466 60.5213C44.5953 59.9789 44.9045 59.4117 44.8692 58.843C44.865 58.7581 44.8494 58.6475 44.8125 58.5242C44.9754 58.529 45.1331 58.5313 45.2864 58.5313C45.6031 58.5313 45.8998 58.5212 46.177 58.5009C47.2438 58.5538 48.4037 58.5758 49.5952 58.5758C49.7292 58.5758 49.8632 58.5756 49.9982 58.575C49.9972 58.5897 49.9965 58.6044 49.9957 58.6191C49.9161 60.0849 49.8462 61.3682 49.9144 62.418C49.3942 62.4485 48.8653 62.4732 48.3321 62.4915C48.2928 62.4928 48.2539 62.4934 48.2145 62.4934ZM51.7253 62.2865C51.6704 61.2195 51.7502 59.7542 51.8065 58.7168C51.8093 58.6624 51.8124 58.6078 51.8155 58.5528C53.0491 58.5286 54.2751 58.4872 55.4265 58.4381C55.6151 59.2084 55.878 60.1391 56.3646 61.3369C56.4089 61.4457 56.4481 61.5467 56.4828 61.64C55.193 61.9022 53.5459 62.128 51.7253 62.2865ZM58.246 61.1836C58.1874 61.016 58.1206 60.8397 58.045 60.6538C57.6741 59.7397 57.4435 58.9893 57.2758 58.3505C57.9255 58.3165 58.532 58.2818 59.0799 58.2485C59.1828 58.4965 59.2985 58.7686 59.4337 59.0725C59.4923 59.2044 59.5532 59.3333 59.6162 59.4585C59.5629 59.9505 59.4396 60.3756 59.221 60.6538C59.0807 60.8327 58.743 61.0114 58.246 61.1836ZM42.7293 59.2878C42.6787 59.2371 42.6283 59.1861 42.5781 59.1353C42.6694 59.141 42.7624 59.1498 42.8572 59.1618C42.8196 59.2016 42.7771 59.2436 42.7293 59.2878Z" fill="#B79272"/>
<path d="M49.9149 62.4178C49.8468 61.368 49.9166 60.0847 49.9963 58.6189C49.997 58.6042 49.9978 58.5895 49.9987 58.5748C50.0232 58.5746 50.0489 58.5746 50.0736 58.5744C50.3464 58.6393 50.6014 58.6685 50.841 58.6685C51.1236 58.6685 51.3842 58.6279 51.6266 58.5563C51.69 58.5551 51.7526 58.554 51.816 58.5526C51.8129 58.6076 51.8099 58.6622 51.807 58.7166C51.7507 59.754 51.6709 61.2192 51.7259 62.2862C51.1383 62.3376 50.5323 62.3817 49.9149 62.4178ZM56.4833 61.6398C56.4486 61.5465 56.4095 61.4455 56.3652 61.3367C55.8785 60.1389 55.6157 59.2082 55.427 58.4379C56.0704 58.4106 56.6911 58.3806 57.2764 58.3503C57.444 58.989 57.6746 59.7395 58.0456 60.6536C58.1212 60.8395 58.188 61.0157 58.2466 61.1834C57.7857 61.3428 57.188 61.4966 56.4833 61.6398ZM44.0471 60.5211C43.5934 60.1326 43.1533 59.7132 42.7299 59.2876C42.7776 59.2433 42.8202 59.2013 42.8578 59.1616C42.7629 59.1496 42.6699 59.1408 42.5787 59.1351C42.2066 58.7565 41.8477 58.3759 41.5046 58.011L41.0527 57.5322C41.7585 58.0924 43.7203 58.3787 46.1775 58.5007C45.9003 58.5209 45.6036 58.5311 45.2869 58.5311C45.1336 58.5311 44.9759 58.5288 44.8131 58.524C44.8499 58.6473 44.8656 58.7579 44.8698 58.8428C44.9051 59.4115 44.5958 59.9787 44.0471 60.5211ZM59.6167 59.4583C59.5537 59.3331 59.4928 59.2042 59.4342 59.0723C59.2991 58.7684 59.1834 58.4963 59.0805 58.2483C59.2683 58.2369 59.4501 58.2256 59.6236 58.2147C59.6566 58.6445 59.6584 59.0719 59.6167 59.4583Z" fill="#F4E7CD"/>
<path d="M48.207 64.3064C46.0833 64.3064 44.182 63.0766 42.5589 61.6286C42.0818 61.203 41.6292 60.7588 41.2017 60.3212C40.9104 60.023 40.6309 59.7281 40.3637 59.4442C40.3033 59.3802 40.2436 59.3165 40.1844 59.2537L39.738 58.7804C39.6645 58.7031 39.5962 58.6238 39.5332 58.5435C40.4204 57.9723 41.053 57.5322 41.053 57.5322L41.5049 58.011C41.848 58.3759 42.2069 58.7565 42.579 59.1351C42.6292 59.1859 42.6796 59.2368 42.7302 59.2876C43.1536 59.7132 43.5936 60.1326 44.0474 60.5211C45.3492 61.6354 46.7633 62.4932 48.2154 62.4932C48.2547 62.4932 48.2936 62.4926 48.333 62.4913C48.8662 62.473 49.395 62.4483 49.9152 62.4178C50.5326 62.3817 51.1386 62.3376 51.7262 62.2862C53.5467 62.1278 55.1939 61.9019 56.4836 61.6398C57.1883 61.4966 57.786 61.3428 58.2469 61.1834C58.7438 61.0112 59.0815 60.8325 59.2218 60.6536C59.4404 60.3754 59.5638 59.9503 59.617 59.4583C59.6587 59.0719 59.6569 58.6445 59.6239 58.2147C60.3914 58.166 61.0105 58.1225 61.4255 58.0922C61.4452 58.3797 61.4551 58.696 61.4461 59.0236C61.4249 59.7976 61.2972 60.6368 60.9389 61.3223C60.8553 61.4823 60.759 61.6339 60.6487 61.7744C60.2648 62.2629 59.5048 62.6583 58.5319 62.9785C57.5302 63.308 56.303 63.5573 55.0262 63.7465C54.254 63.8607 53.4636 63.9529 52.6949 64.0273C51.8478 64.1092 51.0265 64.1694 50.2831 64.2135C49.5655 64.2562 48.9206 64.2841 48.3954 64.3021C48.333 64.3049 48.2692 64.3064 48.207 64.3064ZM50.8413 58.6685C50.6017 58.6685 50.3467 58.6393 50.0739 58.5744C50.5891 58.5719 51.1082 58.5656 51.6269 58.5563C51.3845 58.6279 51.1239 58.6685 50.8413 58.6685Z" fill="#F4E7CD"/>
<path d="M10.9193 39.0545C10.9193 39.0545 10.1554 33.1587 13.7589 27.3735C13.7589 27.3735 14.3795 28.4543 15.125 29.6767C15.025 29.9437 14.9499 30.2124 14.9064 30.4794C14.7256 31.5898 15.0994 32.576 15.961 33.2677C15.8827 33.2465 15.8035 33.2362 15.7252 33.2362C15.351 33.2362 14.9992 33.4695 14.8667 33.8431C14.8184 33.9824 14.6687 34.4248 14.5053 35.0414C12.7711 36.3241 10.9193 37.9516 10.9193 39.0545ZM16.4942 33.6649C16.4831 33.647 16.4715 33.6294 16.4593 33.6124C16.4793 33.6245 16.4994 33.6365 16.5196 33.6483C16.5112 33.6539 16.5028 33.6594 16.4942 33.6649Z" fill="#B79272"/>
<path d="M14.5059 35.0411C14.6693 34.4244 14.8189 33.9821 14.8672 33.8427C14.9997 33.4691 15.3516 33.2358 15.7258 33.2358C15.804 33.2358 15.8833 33.2462 15.9615 33.2673C15.9915 33.2914 16.0221 33.3151 16.0534 33.3384C16.1826 33.4355 16.3185 33.5268 16.4598 33.6121C16.472 33.6291 16.4837 33.6467 16.4948 33.6646C15.9522 34.0178 15.2395 34.4985 14.5059 35.0411Z" fill="#F4E7CD"/>
<path d="M16.521 33.6484C16.5007 33.6366 16.4807 33.6246 16.4606 33.6125C16.3194 33.5272 16.1834 33.4359 16.0542 33.3388C16.0229 33.3155 15.9923 33.2918 15.9624 33.2678C15.1008 32.5761 14.727 31.5899 14.9078 30.4795C14.9513 30.2124 15.0263 29.9438 15.1264 29.6768C16.0053 31.1177 17.0578 32.7554 17.4711 33.0497C17.4711 33.0497 17.0941 33.276 16.521 33.6484Z" fill="#F4E7CD"/>
<path d="M58.8418 36.8712L58.8905 36.7939L58.921 36.8601L58.8418 36.8712ZM68.6488 31.9408C69.3221 31.2264 69.9277 30.4584 70.4521 29.6598C70.6111 29.9149 70.752 30.2029 70.8727 30.5277C70.93 30.6817 70.9916 30.8322 71.0571 30.9794C70.252 31.2951 69.4447 31.618 68.6488 31.9408ZM72.7509 30.3249C72.6865 30.1856 72.627 30.043 72.5729 29.8971C72.3274 29.2354 72.0189 28.6829 71.6642 28.2217C72.1886 28.4609 72.6657 28.9265 73.1285 29.6974C73.209 29.8316 73.2906 29.9624 73.3732 30.0901C73.1667 30.1674 72.9595 30.2457 72.7509 30.3249Z" fill="#7E5942"/>
<path d="M71.0581 30.9791C70.9926 30.8319 70.931 30.6815 70.8737 30.5274C70.753 30.2027 70.6122 29.9146 70.4531 29.6596C70.7863 29.1519 71.0866 28.6319 71.3502 28.106C71.4571 28.1361 71.5621 28.1743 71.6652 28.2215C72.0199 28.6827 72.3284 29.2352 72.5739 29.8969C72.628 30.0427 72.6875 30.1853 72.7519 30.3247C72.1921 30.5376 71.6257 30.7567 71.0581 30.9791Z" fill="#BFA781"/>
<path d="M75.1267 29.4471C74.9759 29.2306 74.8279 29.0032 74.6838 28.7633C74.4547 28.3814 74.2166 28.0514 73.9711 27.7671C75.2206 27.7793 76.2949 28.0546 76.8542 28.8496C76.3002 29.034 75.7229 29.234 75.1267 29.4471ZM72.1777 26.0562C72.3013 25.6524 72.4009 25.2496 72.475 24.8506C73.0983 25.2125 73.7344 25.5886 74.3457 25.9603C74.1796 25.9525 74.0133 25.9489 73.848 25.9489C73.2705 25.9489 72.7024 25.9932 72.1777 26.0562Z" fill="#7E5942"/>
<path d="M73.3736 30.0901C73.291 29.9624 73.2094 29.8316 73.1289 29.6974C72.6661 28.9265 72.189 28.4609 71.6646 28.2216C71.5615 28.1745 71.4565 28.1363 71.3496 28.1061C71.3658 28.0735 71.3821 28.0409 71.3981 28.0082C72.237 27.8687 73.0932 27.7671 73.8834 27.7671C73.9126 27.7671 73.9414 27.7673 73.9704 27.7675C74.2159 28.0517 74.454 28.3818 74.6831 28.7636C74.8272 29.0036 74.9752 29.231 75.126 29.4475C74.5561 29.6512 73.9691 29.8667 73.3736 30.0901Z" fill="#BFA781"/>
<path d="M76.8539 28.8499C76.2945 28.0549 75.2202 27.7797 73.9707 27.7674C73.9417 27.7672 73.9129 27.7671 73.8837 27.7671C73.0935 27.7671 72.2373 27.8686 71.3984 28.0082C71.7161 27.3623 71.9778 26.7083 72.1773 26.0565C72.702 25.9935 73.2701 25.9492 73.8476 25.9492C74.0129 25.9492 74.1792 25.9528 74.3453 25.9607C75.9703 26.9494 77.4186 27.9079 77.9753 28.4883C77.6154 28.6 77.2401 28.7212 76.8539 28.8499Z" fill="#BFA781"/>
<path d="M38.7178 36.7687C39.5819 36.0748 40.3566 35.4163 40.933 34.9099C41.116 35.2029 41.2963 35.4845 41.4713 35.751L38.7178 36.7687ZM37.1526 35.6964C37.2026 35.3703 37.2643 35.0296 37.3276 34.6789C37.689 32.6839 38.0983 30.4212 36.9267 28.3468C35.9206 26.5664 34.585 25.9705 33.1152 25.6891L37.7329 24.1559C37.9298 24.4855 38.1111 24.8411 38.2797 25.2145C38.0985 25.3092 37.9424 25.385 37.8631 25.4066C37.4126 25.5299 37.1066 25.9026 37.0457 26.4028C36.9147 27.4883 38.4057 30.5999 39.9937 33.3461C39.3463 33.9248 38.2965 34.8018 37.1526 35.6964ZM39.8887 24.3694C39.7633 24.0964 39.6304 23.8301 39.4895 23.5725L40.4626 23.2495C40.7904 23.4408 41.1363 23.6017 41.5019 23.7233C40.9137 23.908 40.3705 24.1382 39.8887 24.3694Z" fill="#7E5942"/>
<path d="M38.2811 25.2148C38.1126 24.8413 37.9312 24.4857 37.7344 24.1562L39.4909 23.5728C39.6318 23.8303 39.7647 24.0966 39.8901 24.3696C39.4432 24.584 39.049 24.799 38.7204 24.979C38.5749 25.058 38.4205 25.142 38.2811 25.2148Z" fill="#BFA781"/>
<path d="M37.584 37.188C37.5697 37.1812 37.5556 37.1743 37.542 37.1676L37.0859 36.1892C37.1043 36.0294 37.1272 35.8649 37.1531 35.6965C38.2971 34.8019 39.3469 33.9248 39.9942 33.3462C40.3075 33.8876 40.6244 34.4151 40.9335 34.9099C40.3572 35.4164 39.5825 36.0749 38.7184 36.7688L37.584 37.188Z" fill="#BFA781"/>
<path d="M44.7021 34.5575C43.9508 34.2171 43.3077 33.8629 42.999 33.4124C42.9904 33.3996 42.9818 33.3868 42.9732 33.3738C43.3354 33.211 43.6971 33.0836 43.8875 33.0836C44.0518 33.0836 44.2416 33.0583 44.4541 33.0241C44.6228 32.9975 44.7926 32.9706 44.9663 32.9706C45.4063 32.9706 45.8723 33.1426 46.4115 33.9257L44.7021 34.5575ZM48.1487 33.2837C47.0537 31.4917 45.8716 31.1543 44.9921 31.1543C44.6721 31.1543 44.3918 31.199 44.1708 31.2347C44.0644 31.2502 43.9711 31.27 43.8875 31.27C43.4444 31.27 42.8237 31.4592 42.2355 31.7167C41.9893 30.9871 41.7588 30.144 41.5211 29.2763C41.2369 28.2407 40.9343 27.1351 40.5626 26.0637C41.6403 25.537 42.7477 25.1348 43.8751 25.1348C44.8147 25.1348 45.7679 25.4143 46.7284 26.1338C48.1083 27.1695 48.27 28.0708 48.4271 28.9407C48.7045 30.4741 49.2388 31.3254 51.2443 31.5325C51.2865 31.6094 51.3301 31.6866 51.3743 31.7631C51.427 31.854 51.4807 31.9433 51.5357 32.0319L48.1487 33.2837ZM39.2614 27.9478C39.0895 27.5398 38.9637 27.1937 38.8984 26.9343C38.911 26.9284 38.9236 26.9222 38.9362 26.9161C39.0504 27.2567 39.1583 27.6021 39.2614 27.9478Z" fill="#7E5942"/>
<path d="M43.181 35.1192C42.9095 34.7063 42.6117 34.2298 42.3032 33.7165C42.4935 33.6044 42.7331 33.4812 42.9725 33.3736C42.9811 33.3866 42.9897 33.3993 42.9983 33.4121C43.307 33.8627 43.9502 34.2168 44.7014 34.5572L43.181 35.1192ZM41.3906 32.1466C40.544 30.6424 39.7307 29.0648 39.2607 27.9476C39.1576 27.6018 39.0497 27.2565 38.9355 26.9159C39.1297 26.8212 39.3433 26.7044 39.5892 26.57C39.9105 26.3949 40.2349 26.2235 40.5619 26.0635C40.9336 27.1349 41.2362 28.2404 41.5205 29.2761C41.7581 30.1438 41.9886 30.9868 42.2348 31.7165C41.9359 31.8474 41.6453 31.996 41.3906 32.1466Z" fill="#BFA781"/>
<path d="M46.4108 33.9257C45.8716 33.1426 45.4056 32.9706 44.9656 32.9706C44.7919 32.9706 44.6221 32.9975 44.4534 33.0241C44.2409 33.0582 44.0511 33.0836 43.8868 33.0836C43.6964 33.0836 43.3347 33.211 42.9725 33.3738C42.7331 33.4815 42.4935 33.6046 42.3032 33.7167C42.0042 33.2194 41.6953 32.6879 41.3906 32.1468C41.6453 31.9962 41.9359 31.8477 42.2348 31.7167C42.823 31.4592 43.4437 31.27 43.8868 31.27C43.9704 31.27 44.0637 31.2501 44.1701 31.2347C44.3911 31.199 44.6714 31.1543 44.9914 31.1543C45.8709 31.1543 47.053 31.4916 48.148 33.2837L46.4108 33.9257Z" fill="#BFA781"/>
<path d="M35.7301 33.2806L33.0469 27.5245C34.0266 27.7511 34.7463 28.1761 35.3475 29.2398C36.0268 30.4406 35.9517 31.8551 35.7301 33.2806ZM50.1159 28.1209C49.9091 27.1677 49.4595 25.917 47.8148 24.6843C46.9932 24.0666 46.1656 23.6968 45.3565 23.5026C46.044 23.2304 46.7799 22.8304 47.5682 22.2772C48.483 23.1017 49.3631 24.0534 50.2608 25.0291C50.029 26.0469 49.9826 27.0885 50.1159 28.1209ZM50.9436 23.0946C50.3161 22.4213 49.6777 21.7573 49.0124 21.1397C49.4563 20.7524 49.8432 20.3769 50.1825 20.0225L53.4117 18.9502L53.6882 19.6581C52.4583 20.6857 51.5475 21.8535 50.9436 23.0946Z" fill="#7E5942"/>
<path d="M50.2609 25.029C49.3633 24.0533 48.4832 23.1016 47.5684 22.2771C47.7973 22.1163 48.0305 21.9428 48.2684 21.7555C48.533 21.5478 48.7806 21.342 49.0126 21.1396C49.6779 21.7572 50.3163 22.4212 50.9438 23.0946C50.638 23.7234 50.4106 24.3714 50.2609 25.029Z" fill="#BFA781"/>
<path d="M41.4727 35.7513C41.2977 35.4848 41.1175 35.2032 40.9344 34.9101C40.6253 34.4153 40.3084 33.8878 39.9951 33.3464C38.4071 30.6002 36.9161 27.4885 37.0471 26.403C37.108 25.9028 37.414 25.5302 37.8646 25.4069C37.9438 25.3853 38.1 25.3095 38.2811 25.2148C38.4205 25.1421 38.5749 25.0581 38.7204 24.979C39.049 24.799 39.4432 24.584 39.8901 24.3697C40.372 24.1385 40.9151 23.9082 41.5033 23.7236C41.1377 23.602 40.7918 23.4411 40.464 23.2498L50.1832 20.0225C49.8439 20.3768 49.4569 20.7523 49.0131 21.1397C48.7811 21.342 48.5335 21.5478 48.2689 21.7555C48.0311 21.9428 47.7978 22.1164 47.5689 22.2771C46.7806 22.8304 46.0446 23.2303 45.3572 23.5025C46.1663 23.6967 46.9938 24.0665 47.8155 24.6843C49.4602 25.917 49.9098 27.1676 50.1165 28.1208C50.2668 29.2854 50.6454 30.4379 51.2448 31.5326C49.2393 31.3254 48.705 30.4742 48.4276 28.9408C48.2705 28.0708 48.1087 27.1695 46.7289 26.1338C45.7684 25.4143 44.8152 25.1348 43.8755 25.1348C42.7482 25.1348 41.6407 25.5371 40.5631 26.0638C40.236 26.2238 39.9117 26.3952 39.5904 26.5703C39.3445 26.7047 39.1309 26.8215 38.9367 26.9162C38.9241 26.9223 38.9115 26.9284 38.8989 26.9343C38.9642 27.1938 39.09 27.5399 39.2618 27.9479C39.7319 29.0651 40.5451 30.6427 41.3918 32.1469C41.6965 32.6879 42.0054 33.2194 42.3044 33.7168C42.6129 34.2301 42.9107 34.7066 43.1821 35.1196L41.4727 35.7513Z" fill="#BFA781"/>
<path d="M37.5557 37.1986L37.5414 37.1679C37.5549 37.1745 37.569 37.1814 37.5834 37.1883L37.5557 37.1986ZM37.0853 36.1895L35.7292 33.2806C35.9509 31.8551 36.0259 30.4406 35.3467 29.2398C34.7455 28.176 34.0258 27.7511 33.046 27.5245L32.3145 25.9554L33.1151 25.6895C34.5849 25.9709 35.9205 26.5667 36.9266 28.3471C38.0982 30.4215 37.6889 32.6842 37.3275 34.6792C37.2642 35.0299 37.2025 35.3706 37.1525 35.6967C37.1265 35.8651 37.1036 36.0297 37.0853 36.1895Z" fill="#BFA781"/>
<path d="M86.6784 31.5223L80.7841 26.5008L79.1476 26.719L74.0156 18.7505C74.0156 18.7505 80.131 22.3522 81.1129 23.6628C82.0949 24.972 86.6784 31.5223 86.6784 31.5223Z" fill="#B79272"/>
<path d="M65.1101 34.7711C59.4779 38.0399 54.0072 36.2999 51.3732 31.763C48.7406 27.226 49.9435 21.6137 55.5744 18.3434C61.2066 15.0747 69.151 15.6386 71.7667 19.9276C74.3808 24.2137 70.7409 31.5024 65.1101 34.7711Z" fill="#674731"/>
<path d="M64.9486 34.3618C59.5756 37.4803 54.3571 35.8211 51.8434 31.4911C49.3314 27.1637 50.479 21.808 55.8533 18.6893C61.2249 15.5708 68.8038 16.1078 71.2992 20.1984C73.7928 24.2888 70.3215 31.2418 64.9486 34.3618Z" fill="#F8E0CF"/>
<path d="M62.2149 33.0451C59.034 34.8914 54.9603 33.8101 53.1141 30.6292C51.2678 27.4482 52.3489 23.3746 55.53 21.5272C58.7109 19.6823 62.7846 20.7634 64.6307 23.9443C66.4769 27.1239 65.3958 31.1988 62.2149 33.0451Z" fill="#E5914E"/>
<path d="M60.544 32.123C58.196 33.4846 57.0937 31.8327 55.7322 29.4862C54.3704 27.1399 53.2639 24.9861 55.6102 23.623C57.9566 22.2614 61.3416 22.8409 62.7047 25.186C64.0663 27.5338 62.8903 30.76 60.544 32.123Z" fill="#BE502E"/>
<path d="M58.625 36.215C58.625 36.215 75.8715 28.4658 81.1126 27.7021L83.6221 30.2115L59.9341 39.0528L58.625 36.215Z" fill="#DAAB65"/>
<path d="M66.7695 33.4085C68.8012 32.5761 74.4935 30.2623 75.6539 29.9946L76.357 31.0813C73.194 31.7617 69.6923 32.6401 66.7695 33.4085Z" fill="#EBCC93"/>
<path d="M61.8398 36.4643C61.8398 36.4643 80.0215 31.2728 85.3165 31.2686L87.4419 34.1121L62.7297 39.4624L61.8398 36.4643Z" fill="#DAAB65"/>
<path d="M69.942 37.6418L69.7383 36.3098L80.1734 34.0342L80.5078 34.7627L69.942 37.6418Z" fill="#EBCC93"/>
<path d="M60.582 38.2692C60.582 38.2692 79.4339 36.7957 84.6226 37.8471L86.1387 41.0563L60.8569 41.3835L60.582 38.2692Z" fill="#DAAB65"/>
<path d="M79.2084 40.2753C76.0338 39.5586 72.5258 38.8832 69.6309 38.3576C71.5661 38.2732 75.344 38.1211 77.4335 38.1211C78.0181 38.1211 78.4699 38.1331 78.713 38.1616L79.2084 40.2753Z" fill="#EBCC93"/>
<path d="M61.081 39.5913C61.081 39.5913 79.753 42.5724 84.5521 44.8083L85.2747 48.284L60.6191 42.6831L61.081 39.5913Z" fill="#DAAB65"/>
<path d="M78.7198 45.9422L67.9258 44.0831L68.6358 41.666L78.7324 43.9598L78.7198 45.9422Z" fill="#EBCC93"/>
<path d="M63.4833 37.2988C63.4833 37.2988 82.1554 40.2801 86.9544 42.5158L87.677 45.9917L63.0215 40.3906L63.4833 37.2988Z" fill="#DAAB65"/>
<path d="M81.1202 43.6479L70.3262 41.7904L71.0658 39.2725C71.0658 39.2725 79.767 40.9345 81.1343 41.4376L81.1202 43.6479Z" fill="#EBCC93"/>
<path d="M60.3145 35.1737C60.3145 35.1737 78.4875 29.9536 83.7825 29.9424L85.9121 32.7833L61.207 38.1704L60.3145 35.1737Z" fill="#DAAB65"/>
<path d="M68.4171 36.338L68.0176 33.7437C68.0176 33.7437 76.6026 31.5574 78.0537 31.4341L78.9788 33.4419L68.4171 36.338Z" fill="#EBCC93"/>
<path d="M18.4545 24.524C18.4545 24.524 18.8358 22.5261 20.5473 21.479C22.2618 20.4334 27.9706 17.7696 30.7292 18.6253C33.4879 19.4811 40.4351 23.8594 42.053 25.666C43.6698 27.4752 45.4793 34.1347 45.3828 37.2746C45.288 40.416 45.7639 45.079 42.6242 46.6007C39.4843 48.124 32.9169 48.5035 30.4444 46.9819C27.9719 45.46 22.7364 41.2717 21.2147 37.9405C19.6916 34.6108 18.1697 27.0926 18.4545 24.524Z" fill="#4D2D27"/>
<path d="M19.0236 24.8909C19.0236 24.8909 19.3876 22.978 21.0285 21.9763C22.6692 20.9731 28.1357 18.4227 30.7782 19.2431C33.4206 20.0621 40.0743 24.2548 41.6217 25.9862C43.1703 27.7175 44.9032 34.0952 44.8112 37.1032C44.7205 40.11 45.1768 44.5759 42.1701 46.0339C39.162 47.4905 32.8738 47.8546 30.5046 46.398C28.137 44.94 23.1254 40.9301 21.6661 37.7408C20.208 34.5513 18.75 27.3521 19.0236 24.8909Z" fill="#EACDC6"/>
<path d="M23.1151 20.8134C23.1151 20.8134 21.1172 22.6214 21.1172 23.5734C21.1172 24.5243 22.7353 34.4199 26.636 36.5142C30.5382 38.6083 39.7679 41.843 42.2418 40.13C44.7156 38.4185 44.8107 36.4206 44.8107 35.943C44.8107 35.4671 43.67 27.2843 41.0998 25.3815C38.531 23.4785 31.8701 18.9105 29.491 19.0069C27.1121 19.1018 23.1151 20.8134 23.1151 20.8134Z" fill="#D69B9B"/>
<path d="M26.5429 20.6234C26.5429 20.6234 24.6384 21.3843 24.5435 23.0974C24.4487 24.8104 25.8755 30.614 27.6834 32.2322C29.4929 33.8501 38.2323 36.9772 40.3394 36.1342C44.1451 34.6111 42.5283 29.8531 42.5283 29.8531C42.5283 29.8531 40.5291 32.9945 39.4835 32.8032C38.4364 32.6132 31.3943 31.1864 29.5864 28.9023C27.7785 26.617 26.9226 23.0025 27.5885 22.5263C28.2544 22.0502 32.8212 22.8125 32.8212 22.8125C32.8212 22.8125 28.9205 19.7675 26.5429 20.6234Z" fill="#EACDC6"/>
<path d="M31.2988 24.7154C31.2988 24.7154 33.488 23.2886 34.7249 23.4783C35.9618 23.6683 41.5757 26.4269 41.7654 27.664C41.9567 28.9022 41.0995 30.3291 40.2437 30.7103C39.3878 31.0899 35.6756 29.9494 35.6756 29.9494C35.6756 29.9494 39.0068 30.1391 39.1017 29.0922C39.1965 28.0451 39.1965 26.2371 37.6735 25.6661C36.1517 25.0951 31.2988 24.7154 31.2988 24.7154Z" fill="#EACDC6"/>
<path d="M21.2148 36.8003C21.2148 36.8003 28.4467 41.2735 30.6345 41.6532C32.8221 42.0329 38.2474 43.0801 40.0553 42.414C41.8634 41.7481 44.7169 39.5589 44.7169 39.5589C44.7169 39.5589 44.9082 42.6039 44.051 43.3647C43.1954 44.1257 38.0561 45.84 36.3431 45.5552C34.6316 45.269 29.2076 44.5067 27.5895 43.6509C25.9713 42.7952 22.3555 39.3692 21.2148 36.8003Z" fill="#D69B9B"/>
<path d="M11.4905 43.7059C11.4905 43.7059 11.0499 41.7209 12.2076 40.0815C13.3664 38.4422 17.5549 33.7351 20.427 33.4306C23.299 33.1231 31.4136 34.3926 33.6127 35.4113C35.8131 36.4315 40.1135 41.8327 41.2681 44.7531C42.4243 47.6747 44.707 51.7695 42.4258 54.4106C40.1446 57.0518 34.2658 60.0002 31.3924 59.5823C28.5188 59.1629 22.055 57.389 19.3373 54.9348C16.6212 52.4793 12.2457 46.1784 11.4905 43.7059Z" fill="#4D2D27"/>
<path d="M12.1615 43.8179C12.1615 43.8179 11.7377 41.918 12.8473 40.3466C13.9566 38.7766 17.968 34.2694 20.7181 33.9775C23.4696 33.6827 31.2387 34.9 33.3456 35.8763C35.4526 36.8526 39.57 42.0241 40.6767 44.8211C41.7832 47.6195 43.9695 51.5387 41.786 54.0678C39.6011 56.5985 33.9704 59.4209 31.2188 59.0213C28.4673 58.6202 22.2767 56.9215 19.674 54.5709C17.0725 52.2189 12.8841 46.1856 12.1615 43.8179Z" fill="#EACDC6"/>
<path d="M14.3039 38.4538C14.3039 38.4538 13.186 40.9051 13.5615 41.7779C13.9383 42.6508 19.3424 51.0983 23.7532 51.4767C28.1639 51.8535 37.9223 51.1706 39.5162 48.6188C41.1102 46.0669 40.406 44.195 40.2176 43.7573C40.0291 43.3195 35.7402 36.2576 32.6272 35.5279C29.5144 34.7968 21.5896 33.2397 19.443 34.2683C17.2949 35.2983 14.3039 38.4538 14.3039 38.4538Z" fill="#D69B9B"/>
<path d="M17.3751 36.9218C17.3751 36.9218 15.927 38.3727 16.5192 39.9838C17.1101 41.5947 20.7175 46.3598 23.0187 47.1307C25.3211 47.8985 34.5834 47.3105 36.1859 45.7023C39.0778 42.7978 35.7085 39.0671 35.7085 39.0671C35.7085 39.0671 35.1161 42.7438 34.0804 42.9818C33.0432 43.2228 26.0126 44.6993 23.4479 43.3192C20.8834 41.9362 18.6658 38.9537 19.0896 38.2551C19.5117 37.5552 24.0076 36.4457 24.0076 36.4457C24.0076 36.4457 19.2214 35.1947 17.3751 36.9218Z" fill="#EACDC6"/>
<path d="M23.3633 38.7963C23.3633 38.7963 24.8085 36.6186 26.02 36.3039C27.23 35.988 33.4771 36.2997 34.1432 37.3595C34.8077 38.4223 34.5851 40.0715 33.9503 40.7586C33.3156 41.4472 29.4546 41.8682 29.4546 41.8682C29.4546 41.8682 32.5888 40.7246 32.2614 39.7258C31.9355 38.7268 31.2186 37.0676 29.5947 37.1441C27.9711 37.2236 23.3633 38.7963 23.3633 38.7963Z" fill="#EACDC6"/>
<path d="M18.8867 53.8866C18.8867 53.8866 27.2989 55.1307 29.4583 54.6136C31.619 54.0964 37.0145 52.9103 38.4102 51.5827C39.8073 50.2536 41.5627 47.1152 41.5627 47.1152C41.5627 47.1152 42.9428 49.8357 42.4569 50.8729C41.9722 51.9114 37.9328 55.5204 36.2467 55.9354C34.5605 56.352 29.2783 57.7987 27.4534 57.6528C25.6283 57.5081 20.9525 55.7938 18.8867 53.8866Z" fill="#D69B9B"/>
<path d="M68.3172 49.6274C68.0125 50.5329 67.6696 52.2402 67.3267 52.4981C66.8237 52.875 67.3267 51.3689 67.4529 50.3628C67.4869 50.0837 67.5591 49.6444 67.62 49.1612C67.7007 49.191 67.7757 49.2192 67.8282 49.232C67.9884 49.2717 68.1557 49.4375 68.3172 49.6274ZM70.9695 50.6136C70.9695 50.6136 70.9767 50.6973 70.9838 50.8021C70.7925 50.707 70.6237 50.6688 70.4609 50.6476C70.7556 50.6335 70.9695 50.6136 70.9695 50.6136ZM79.8905 47.7244C79.8905 47.3476 77.1261 45.9662 77.1261 45.9662L73.9847 45.7153L70.4679 46.0922L67.5774 43.2031L60.6672 44.9601C60.6672 44.9601 62.427 44.7094 62.5517 45.7153C62.5616 45.789 62.5744 45.8726 62.5857 45.9534C61.7865 46.2099 61.0456 46.4692 61.0456 46.4692C61.0456 46.4692 60.4179 48.729 60.4179 49.106C60.4179 49.106 61.0456 50.4308 61.73 51.0033C61.3984 51.2144 61.1703 51.3689 61.1703 51.3689C61.1703 51.3689 60.6672 52.4981 60.2904 53.1272C59.9135 53.7562 60.2904 53.6302 61.0456 54.5101C61.7993 55.3885 61.2965 55.8915 62.3024 56.0162C63.3085 56.1424 62.9301 56.3946 62.8041 58.6545C62.6779 60.9159 63.5578 61.168 64.9392 61.4189C66.3206 61.6698 65.8191 61.4189 66.4468 61.042C66.8676 60.7912 67.7603 60.3009 68.8202 59.7101C69.0327 59.7328 69.2183 59.7569 69.3374 59.7853C69.8402 59.9113 72.1002 59.0314 72.4771 58.4037C72.8016 57.864 73.9551 56.6752 73.5511 56.1126C73.9026 55.4183 74.2752 54.4095 74.4877 53.6302C74.8646 52.2473 74.9908 53.2533 74.9908 53.2533C74.9908 53.2533 74.9908 53.2533 75.9953 53.8809C76.9999 54.5086 77.8798 53.001 78.3828 52.7503C78.8844 52.4994 79.3874 50.489 79.7643 50.1119C80.1411 49.7351 79.8905 48.1015 79.8905 47.7244Z" fill="#40663A"/>
<path d="M63.1007 50.0794L62.2266 47.7868L63.7554 47.023L63.8646 45.3852C64.7374 45.167 67.248 44.4033 67.248 44.4033L68.777 46.0411L73.9075 47.3504L76.7456 49.3156L72.1605 49.0974C72.1605 49.0974 71.1787 47.6778 70.524 48.114C69.8681 48.5504 68.5588 48.9884 68.5588 48.5504C68.5588 48.114 68.0132 46.8034 67.6845 46.5867C67.3572 46.3685 68.4496 46.0411 67.3572 46.3685C66.2649 46.6944 65.2828 48.2232 65.2828 48.5504C65.2828 48.8792 63.9738 51.8264 63.9738 51.8264L63.1007 50.0794Z" fill="#5D9E64"/>
<path d="M65.2816 52.6994L67.356 55.3193L69.4302 51.0614L71.5046 50.0796L73.1411 50.8448C73.1411 50.8448 75.4353 51.3902 74.8881 51.4979C74.3427 51.6069 72.1593 53.5723 72.1593 53.5723C72.1593 53.5723 73.0321 54.7737 72.7047 54.7737C72.3775 54.7737 70.9592 53.0267 70.85 53.6813C70.7395 54.3372 70.85 55.8647 70.85 55.8647C70.85 55.8647 69.4302 56.9557 68.8848 56.9557C68.3394 56.9557 68.3378 57.174 67.7924 57.7209C67.2468 58.2663 66.0467 58.5938 65.6103 57.7209C65.1726 56.8481 65.2816 52.6994 65.2816 52.6994Z" fill="#5D9E64"/>
<path d="M52.1204 41.0946C51.9957 40.9656 51.8541 40.8551 51.6981 40.7672C50.6 40.1411 49.0827 40.7247 48.3188 42.0694C47.5649 43.3913 47.8314 45.0222 48.9238 45.64C50.0219 46.2649 51.5379 45.681 52.3031 44.3365C52.9493 43.2042 52.8741 41.8711 52.1204 41.0946ZM47.85 45.9432C46.8183 44.8806 46.6866 43.1023 47.5296 41.6202C48.5428 39.8421 50.6128 39.1052 52.1473 39.978C52.3755 40.1099 52.5866 40.2713 52.7706 40.4625C53.8037 41.5267 53.9356 43.3035 53.091 44.7857C52.0778 46.5638 50.0078 47.3007 48.4748 46.4277C48.2451 46.2975 48.0355 46.1345 47.85 45.9432Z" fill="#DCE5D9"/>
<path d="M47.2549 33.5089C47.0749 33.5089 46.8977 33.5329 46.7249 33.5839C45.5121 33.9367 44.8745 35.4302 45.3067 36.9164C45.7316 38.3772 47.0877 39.3209 48.2919 38.9681C49.5048 38.6153 50.1397 37.1205 49.7088 35.6356C49.3461 34.3817 48.3358 33.5089 47.2549 33.5089ZM47.762 39.9501C46.2799 39.9501 44.9113 38.8066 44.4352 37.1686C43.8655 35.2034 44.778 33.2057 46.4727 32.7126C46.7263 32.6389 46.9899 32.6021 47.2549 32.6021C48.7369 32.6021 50.1056 33.7441 50.5804 35.3819C51.1514 37.3473 50.2375 39.3465 48.5443 39.8396C48.2906 39.9133 48.0271 39.9501 47.762 39.9501Z" fill="#DCE5D9"/>
<path d="M54.886 33.7299C54.7599 33.6009 54.6182 33.4904 54.4622 33.4025C53.3656 32.7762 51.8481 33.3615 51.0843 34.7061C50.3306 36.0281 50.5969 37.6575 51.6895 38.2766C52.786 38.9015 54.3021 38.3163 55.0672 36.9731C55.7148 35.8397 55.6382 34.5064 54.886 33.7299ZM50.6154 38.58C49.5839 37.5159 49.4522 35.7375 50.2953 34.2569C51.3082 32.4787 53.3784 31.742 54.9114 32.6133C55.1409 32.7466 55.3507 32.9081 55.5363 33.0994C56.5691 34.1635 56.701 35.9403 55.8566 37.4223C54.8435 39.1991 52.7719 39.9358 51.2403 39.0645C51.0108 38.9328 50.801 38.7698 50.6154 38.58Z" fill="#DCE5D9"/>
<path d="M51.9289 37.8357C51.8042 37.7068 51.6626 37.5963 51.5066 37.5085C50.4085 36.8821 48.8925 37.4659 48.1273 38.8105C47.3749 40.1325 47.6413 41.7635 48.7336 42.3811C49.8304 43.0059 51.3466 42.4223 52.1116 41.0775C52.7578 39.9454 52.6828 38.6121 51.9289 37.8357ZM47.6598 42.6844C46.6268 41.6216 46.495 39.8435 47.3381 38.3615C48.3513 36.5831 50.4228 35.8464 51.9558 36.7193C52.1855 36.851 52.3951 37.0125 52.5806 37.2038C53.6121 38.2679 53.7454 40.0447 52.901 41.5267C51.8878 43.3051 49.8163 44.0418 48.2846 43.1689C48.0536 43.0386 47.844 42.8757 47.6598 42.6844Z" fill="#DCE5D9"/>
<path d="M54.9836 37.6174C54.8589 37.487 54.7173 37.3767 54.5613 37.2887C53.4632 36.6625 51.9472 37.2476 51.182 38.5922C50.4296 39.9143 50.6961 41.5452 51.7885 42.1628C52.8851 42.7878 54.4013 42.2025 55.1665 40.8593C55.8125 39.7258 55.7373 38.3925 54.9836 37.6174ZM50.7145 42.4662C49.6815 41.4034 49.5497 39.6239 50.3928 38.1432C51.4059 36.3649 53.4773 35.6282 55.0105 36.501C55.24 36.6327 55.4498 36.7942 55.6353 36.9855C56.6668 38.0497 56.7985 39.8264 55.9555 41.3085C54.9425 43.0868 52.871 43.8235 51.3393 42.9507C51.1083 42.8203 50.8987 42.6559 50.7145 42.4662Z" fill="#DCE5D9"/>
<path d="M45.6768 37.0722C45.4968 37.0735 45.3198 37.1019 45.1482 37.1542C43.9397 37.5242 43.3246 39.0288 43.778 40.5081C44.2244 41.9619 45.5932 42.8857 46.7919 42.5159C47.999 42.1461 48.614 40.6427 48.1605 39.1634C47.7808 37.9165 46.7579 37.0552 45.6768 37.0722ZM46.2761 43.5064C44.7941 43.5276 43.4098 42.4039 42.9096 40.7731C42.3117 38.8163 43.1958 36.8043 44.8819 36.2871C45.1356 36.2106 45.3977 36.1695 45.664 36.1653C47.1461 36.1441 48.5303 37.2676 49.0292 38.8971C49.6284 40.8552 48.743 42.8672 47.0569 43.383C46.8045 43.4609 46.5411 43.502 46.2761 43.5064Z" fill="#DCE5D9"/>
<path d="M48.7325 29.3217C48.5526 29.3232 48.377 29.3514 48.2056 29.4038C46.9969 29.7737 46.3805 31.2785 46.8339 32.7576C47.2802 34.2114 48.6504 35.1352 49.8478 34.7654C51.0562 34.3956 51.6698 32.8922 51.2164 31.4131C50.8367 30.1662 49.8138 29.3047 48.7325 29.3217ZM49.3319 35.7559C47.8512 35.7771 46.4669 34.6534 45.9668 33.0226C45.3675 31.0658 46.2529 29.0538 47.939 28.5366C48.1928 28.4603 48.4535 28.419 48.7212 28.4148C50.2019 28.3937 51.5862 29.5172 52.0864 31.1466C52.6843 33.1049 51.8002 35.1169 50.1141 35.6325C49.8605 35.7106 49.5984 35.7515 49.3319 35.7559Z" fill="#DCE5D9"/>
<path d="M44.6869 31.9259C43.5959 31.9259 42.7076 33.2153 42.7076 34.8008C42.7076 36.3878 43.5959 37.6772 44.6869 37.6772C45.7795 37.6772 46.6678 36.3878 46.6678 34.8008C46.6678 33.2153 45.7795 31.9259 44.6869 31.9259ZM44.6869 38.584C43.0959 38.584 41.8008 36.888 41.8008 34.8008C41.8008 32.7153 43.0959 31.019 44.6869 31.019C46.2795 31.019 47.5746 32.7153 47.5746 34.8008C47.5746 36.888 46.2795 38.584 44.6869 38.584Z" fill="#8CC793"/>
<path d="M54.6225 38.2564C53.5301 38.2564 52.6431 39.5474 52.6431 41.1315C52.6431 42.7184 53.5301 44.0078 54.6225 44.0078C55.7149 44.0078 56.6018 42.7184 56.6018 41.1315C56.6018 39.5474 55.7149 38.2564 54.6225 38.2564ZM54.6225 44.9146C53.0299 44.9146 51.7363 43.2185 51.7363 41.1315C51.7363 39.0456 53.0299 37.3496 54.6225 37.3496C56.2151 37.3496 57.5087 39.0456 57.5087 41.1315C57.5087 43.2185 56.2151 44.9146 54.6225 44.9146Z" fill="#8CC793"/>
<path d="M51.029 41.9407C50.1349 41.3158 48.667 41.8641 47.7589 43.165C46.8521 44.4643 46.8406 46.0313 47.7362 46.6563C48.6302 47.2812 50.0981 46.7327 51.0049 45.432C51.9131 44.1327 51.9245 42.5655 51.029 41.9407ZM47.2161 47.4001C45.9111 46.4876 45.8219 44.3551 47.0162 42.645C48.2092 40.9361 50.2426 40.2857 51.549 41.1969C52.8539 42.1094 52.9432 44.2419 51.7502 45.9521C50.5544 47.6607 48.521 48.3111 47.2161 47.4001Z" fill="#8CC793"/>
<path d="M41.6551 42.2142C40.7809 42.8673 40.8431 44.4331 41.7939 45.7025C42.7432 46.972 44.2281 47.4722 45.1025 46.8176C45.9751 46.1645 45.9142 44.5989 44.9635 43.3293C44.0141 42.0598 42.5292 41.5596 41.6551 42.2142ZM45.6451 47.5446C44.3698 48.4995 42.3168 47.9157 41.0671 46.2468C39.8174 44.5761 39.8372 42.4423 41.111 41.4888C42.3861 40.5336 44.4406 41.1161 45.6905 42.7866C46.9387 44.4557 46.9201 46.591 45.6451 47.5446Z" fill="#8CC793"/>
<path d="M47.8972 40.1707C47.7725 40.0418 47.6309 39.9313 47.4749 39.8434C46.3768 39.2173 44.8608 39.8024 44.0956 41.1456C43.3433 42.4675 43.6096 44.0984 44.702 44.7162C45.7987 45.3424 47.3147 44.7573 48.0799 43.4127C48.7259 42.2806 48.6509 40.9473 47.8972 40.1707ZM43.6281 45.0209C42.5964 43.9568 42.4634 42.1785 43.3064 40.6964C44.3194 38.9181 46.3909 38.1814 47.9241 39.0542C48.1536 39.186 48.3632 39.349 48.549 39.5388C49.5818 40.6029 49.7137 42.381 48.8691 43.8617C47.8562 45.64 45.7846 46.3767 44.2529 45.5039C44.0219 45.3737 43.8123 45.2107 43.6281 45.0209Z" fill="#DCE5D9"/>
<path d="M54.7735 35.4783C54.6488 35.3479 54.5071 35.2375 54.3512 35.1495C53.2531 34.5234 51.7371 35.1085 50.9719 36.4531C50.2195 37.7751 50.486 39.406 51.5784 40.0236C52.675 40.6487 54.1912 40.0633 54.9564 38.7201C55.6037 37.5867 55.5272 36.2534 54.7735 35.4783ZM50.5044 40.327C49.4729 39.2642 49.3411 37.4847 50.1827 36.004C51.1972 34.2257 53.2672 33.489 54.8004 34.3618C55.0299 34.4936 55.2397 34.6551 55.4252 34.8464C56.4582 35.9105 56.59 37.6873 55.7454 39.1693C54.7324 40.9476 52.6609 41.6844 51.1292 40.8115C50.8997 40.6811 50.6886 40.5168 50.5044 40.327Z" fill="#DCE5D9"/>
<path d="M59.6863 34.8221C59.5616 34.6931 59.4199 34.5825 59.264 34.4947C58.1659 33.8685 56.6499 34.4523 55.8847 35.7969C55.1323 37.1189 55.3986 38.7499 56.491 39.3675C57.5878 39.9923 59.1038 39.4087 59.869 38.0639C60.515 36.9319 60.44 35.5985 59.6863 34.8221ZM55.4172 39.6722C54.3855 38.608 54.2524 36.8299 55.0955 35.3477C56.1084 33.5696 58.18 32.8327 59.7132 33.7057C59.9427 33.8374 60.1523 33.9989 60.338 34.1915C61.3708 35.2541 61.5028 37.0311 60.6582 38.5132C59.6452 40.2913 57.5737 41.0282 56.042 40.1567C55.811 40.025 55.6014 39.8621 55.4172 39.6722Z" fill="#DCE5D9"/>
<path d="M56.6302 33.0751C56.5053 32.9461 56.3637 32.8355 56.2079 32.7477C55.1098 32.1215 53.5923 32.7051 52.8286 34.0499C52.0762 35.3719 52.3426 37.0027 53.4336 37.6205C54.5317 38.2453 56.0477 37.6615 56.8129 36.3169C57.4591 35.1849 57.3839 33.8515 56.6302 33.0751ZM52.3596 37.9236C51.3281 36.861 51.1963 35.0827 52.0394 33.6007C53.0526 31.8226 55.1226 31.0857 56.6571 31.9585C56.8852 32.0904 57.0964 32.2517 57.2806 32.443C58.3134 33.5073 58.4452 35.2839 57.6021 36.7662C56.5876 38.5443 54.5176 39.2812 52.9844 38.4082C52.7549 38.278 52.5451 38.1149 52.3596 37.9236Z" fill="#DCE5D9"/>
<path d="M46.8079 36.4602C46.6831 36.3313 46.5414 36.2194 46.3856 36.133C45.2875 35.5068 43.77 36.0904 43.0062 37.4352C42.254 38.7572 42.5203 40.3879 43.6112 41.0057C44.7093 41.6306 46.2255 41.0468 46.9906 39.7022C47.6367 38.5701 47.5616 37.2353 46.8079 36.4602ZM42.5373 41.3089C41.5058 40.2463 41.3741 38.468 42.2171 36.9859C43.2301 35.2078 45.3003 34.4709 46.8347 35.3437C47.0643 35.4755 47.2739 35.637 47.4582 35.8283C48.491 36.8924 48.6229 38.6692 47.7798 40.1512C46.7667 41.9295 44.6951 42.6663 43.1635 41.7934C42.9327 41.6632 42.7229 41.5002 42.5373 41.3089Z" fill="#DCE5D9"/>
<path d="M44.1885 36.2421C44.0639 36.1131 43.9222 36.0025 43.7663 35.9147C42.6683 35.2885 41.1521 35.8721 40.387 37.2169C39.6346 38.5389 39.9011 40.1697 40.9935 40.7875C42.0903 41.4123 43.6063 40.8285 44.3714 39.4839C45.0175 38.3518 44.9424 37.017 44.1885 36.2421ZM39.9194 41.0922C38.8864 40.028 38.7549 38.2497 39.5979 36.7677C40.6109 34.9896 42.6825 34.2526 44.2156 35.1255C44.4451 35.2574 44.6547 35.4187 44.8403 35.61C45.8718 36.6741 46.0037 38.4509 45.1606 39.9331C44.1475 41.7113 42.0759 42.4482 40.5443 41.5752C40.3135 41.445 40.1037 41.2819 39.9194 41.0922Z" fill="#DCE5D9"/>
<path d="M49.3177 30.1293C49.193 29.9989 49.0512 29.8884 48.8954 29.8006C47.7973 29.1757 46.2798 29.7595 45.5161 31.1041C44.7637 32.426 45.0301 34.0556 46.1211 34.6747C47.2192 35.2995 48.7354 34.7157 49.5004 33.3711C50.1466 32.2375 50.0714 30.9042 49.3177 30.1293ZM45.0471 34.9778C44.0156 33.9137 43.8838 32.1369 44.7269 30.6549C45.7401 28.8768 47.8101 28.1399 49.3446 29.0114C49.5727 29.1446 49.7839 29.3061 49.9681 29.4974C51.0009 30.5613 51.1327 32.3383 50.2896 33.8204C49.2751 35.5985 47.2051 36.3354 45.6719 35.4626C45.4424 35.3306 45.2326 35.1691 45.0471 34.9778Z" fill="#DCE5D9"/>
<path d="M51.2943 37.547C51.1145 37.547 50.9358 37.5725 50.7645 37.622C49.5502 37.9748 48.914 39.4698 49.3461 40.9547C49.7712 42.4155 51.1271 43.3605 52.3302 43.0062C53.543 42.6549 54.1791 41.1601 53.7484 39.6752C53.3844 38.4211 52.3756 37.547 51.2943 37.547ZM51.8002 43.9882C50.3182 43.9882 48.9509 42.8462 48.4748 41.2082C47.9038 39.243 48.8176 37.2438 50.5108 36.7507C50.7659 36.677 51.028 36.6401 51.2943 36.6401C52.7765 36.6401 54.1438 37.7835 54.6197 39.4215C55.1894 41.3869 54.2769 43.3861 52.5837 43.8777C52.3302 43.9514 52.0665 43.9882 51.8002 43.9882Z" fill="#DCE5D9"/>
<path d="M58.923 37.7693C58.7984 37.6404 58.6565 37.5299 58.5007 37.4421C57.4026 36.8159 55.8866 37.3995 55.1215 38.7443C54.3691 40.0661 54.6354 41.6971 55.728 42.3148C56.8246 42.9397 58.3408 42.3559 59.1057 41.0113C59.752 39.8792 59.6767 38.5459 58.923 37.7693ZM54.6539 42.6195C53.6209 41.5554 53.4892 39.7771 54.3322 38.2951C55.3454 36.5167 57.4168 35.78 58.9499 36.6529C59.1794 36.7846 59.3892 36.9461 59.5748 37.1389C60.6063 38.2015 60.738 39.9783 59.8949 41.4603C58.882 43.2387 56.8104 43.9754 55.2788 43.1041C55.0478 42.9723 54.838 42.8093 54.6539 42.6195Z" fill="#DCE5D9"/>
<path d="M55.9681 41.8753C55.8434 41.7449 55.7016 41.6344 55.5458 41.5466C54.4477 40.9217 52.9301 41.5055 52.1665 42.8501C51.4141 44.1722 51.6805 45.8016 52.7715 46.4207C53.8696 47.0457 55.3856 46.4617 56.1508 45.1172C56.797 43.9837 56.7218 42.6504 55.9681 41.8753ZM51.6974 46.724C50.666 45.6599 50.5342 43.8831 51.3773 42.4009C52.3904 40.6228 54.4605 39.8861 55.995 40.7574C56.2245 40.8906 56.4341 41.0521 56.6183 41.2434C57.6513 42.3075 57.7831 44.0843 56.94 45.5664C55.927 47.3445 53.8555 48.0814 52.3223 47.2086C52.0928 47.0768 51.8832 46.9151 51.6974 46.724Z" fill="#DCE5D9"/>
<path d="M59.0247 41.6561C58.8999 41.5271 58.7582 41.4166 58.6024 41.3287C57.5043 40.7026 55.9868 41.2877 55.2231 42.6309C54.4708 43.9543 54.7371 45.5837 55.8281 46.2015C56.9262 46.8279 58.4423 46.2425 59.2074 44.898C59.8536 43.7659 59.7784 42.4326 59.0247 41.6561ZM54.7541 46.506C53.7226 45.4421 53.5909 43.6637 54.4339 42.1831C55.4471 40.4036 57.5171 39.6667 59.0516 40.5395C59.2798 40.6712 59.4909 40.8343 59.675 41.0256C60.708 42.0882 60.8397 43.8665 59.9966 45.3472C58.9821 47.1253 56.9121 47.862 55.3789 46.9907C55.1495 46.859 54.9396 46.696 54.7541 46.506Z" fill="#DCE5D9"/>
<path d="M49.7144 41.1117C49.5359 41.1131 49.3588 41.14 49.1873 41.1938C47.9787 41.5636 47.3624 43.067 47.8158 44.5462C48.2635 46 49.6321 46.9253 50.8295 46.5553C52.0382 46.1855 52.6531 44.6808 52.1997 43.203C51.82 41.9561 50.7969 41.0948 49.7144 41.1117ZM50.3152 47.5444C48.8332 47.5671 47.4487 46.4419 46.9487 44.8125C46.3506 42.8544 47.2349 40.8424 48.921 40.3267C49.1745 40.2502 49.4367 40.2076 49.703 40.2049C51.1837 40.1822 52.5681 41.3057 53.0681 42.9366C53.6662 44.8935 52.782 46.9055 51.0958 47.4226C50.8423 47.5005 50.5802 47.54 50.3152 47.5444Z" fill="#DCE5D9"/>
<path d="M52.7719 33.3613C52.5918 33.3626 52.4147 33.3895 52.2446 33.4435C51.0346 33.8133 50.4197 35.3165 50.8731 36.7959C51.3194 38.2495 52.6883 39.1748 53.8868 38.805C55.0941 38.4352 55.709 36.9305 55.2556 35.4527C54.8759 34.2056 53.8528 33.3443 52.7719 33.3613ZM53.3711 39.7939C51.8904 39.8167 50.5062 38.6916 50.006 37.0622C49.4067 35.1041 50.2908 33.0921 51.9769 32.5762C52.2305 32.4997 52.4926 32.4573 52.7591 32.4544C54.2411 32.4317 55.6254 33.5554 56.1242 35.1862C56.7235 37.143 55.8379 39.155 54.1518 39.6721C53.8996 39.75 53.6375 39.7897 53.3711 39.7939Z" fill="#DCE5D9"/>
<path d="M48.728 35.9639C47.6356 35.9639 46.7486 37.2547 46.7486 38.8402C46.7486 40.4257 47.6356 41.7166 48.728 41.7166C49.8203 41.7166 50.7073 40.4257 50.7073 38.8402C50.7073 37.2547 49.8203 35.9639 48.728 35.9639ZM48.728 42.6234C47.1354 42.6234 45.8418 40.9259 45.8418 38.8402C45.8418 36.7545 47.1354 35.0571 48.728 35.0571C50.3205 35.0571 51.6141 36.7545 51.6141 38.8402C51.6141 40.9259 50.3205 42.6234 48.728 42.6234Z" fill="#8CC793"/>
<path d="M58.6611 42.2965C57.5687 42.2965 56.6803 43.5859 56.6803 45.1714C56.6803 46.7569 57.5687 48.0478 58.6611 48.0478C59.7522 48.0478 60.6405 46.7569 60.6405 45.1714C60.6405 43.5859 59.7522 42.2965 58.6611 42.2965ZM58.6611 48.9546C57.0686 48.9546 55.7734 47.257 55.7734 45.1714C55.7734 43.0857 57.0686 41.3896 58.6611 41.3896C60.2522 41.3896 61.5473 43.0857 61.5473 45.1714C61.5473 47.257 60.2522 48.9546 58.6611 48.9546Z" fill="#8CC793"/>
<path d="M55.0671 45.9801C54.1731 45.354 52.7052 45.9036 51.7984 47.2029C50.8902 48.5036 50.8803 50.0692 51.7758 50.6956C52.6699 51.3204 54.1362 50.7706 55.0446 49.47C55.9527 48.1706 55.9627 46.605 55.0671 45.9801ZM51.2556 51.4396C49.9508 50.527 49.8601 48.3946 51.0559 46.6844C52.2491 44.9742 54.2823 44.3238 55.5872 45.2348C56.8935 46.1474 56.9829 48.2798 55.7884 49.99C54.594 51.7002 52.5607 52.3506 51.2556 51.4396Z" fill="#8CC793"/>
<path d="M45.6941 46.2539C44.8198 46.907 44.8822 48.4726 45.8316 49.7409C46.7823 51.0117 48.2657 51.5119 49.1401 50.8573C50.0142 50.2042 49.9518 48.6384 49.0026 47.3688C48.0519 46.0995 46.5683 45.5991 45.6941 46.2539ZM49.6842 51.5827C48.4089 52.5379 46.3558 51.9554 45.106 50.2849C43.8565 48.6158 43.8763 46.4805 45.1501 45.5269C46.4253 44.572 48.4784 45.1558 49.7281 46.8247C50.9777 48.4954 50.9579 50.6292 49.6842 51.5827Z" fill="#8CC793"/>
<path d="M51.9368 44.2107C51.812 44.0818 51.6703 43.9698 51.5145 43.8835C50.4164 43.2571 48.8989 43.8409 48.1353 45.1855C47.3829 46.5075 47.6492 48.1385 48.7402 48.7562C49.8384 49.3811 51.3544 48.7973 52.1195 47.4525C52.7658 46.3204 52.6905 44.9858 51.9368 44.2107ZM47.6662 49.0594C46.6347 47.9968 46.503 46.2185 47.346 44.7365C48.359 42.9581 50.4292 42.2214 51.9636 43.0943C52.1932 43.226 52.4028 43.3875 52.5871 43.5788C53.6201 44.6429 53.7518 46.4197 52.9087 47.9017C51.8956 49.6799 49.824 50.4168 48.2924 49.5439C48.0616 49.4135 47.8518 49.2507 47.6662 49.0594Z" fill="#DCE5D9"/>
<path d="M58.8138 39.5165C58.6891 39.3874 58.5475 39.2769 58.3915 39.1891C57.2934 38.5629 55.7758 39.148 55.0122 40.4913C54.2598 41.8147 54.5262 43.4441 55.6185 44.0618C56.7153 44.688 58.2315 44.1029 58.9965 42.7583C59.6427 41.6262 59.5677 40.2929 58.8138 39.5165ZM54.5431 44.3663C53.5117 43.3024 53.3799 41.5241 54.223 40.0434C55.2361 38.2639 57.3062 37.527 58.8407 38.3999C59.0702 38.5316 59.28 38.6946 59.4642 38.8859C60.497 39.9485 60.6288 41.7268 59.7857 43.2075C58.7725 44.9857 56.7012 45.7224 55.1695 44.8511C54.9385 44.7193 54.7289 44.5563 54.5431 44.3663Z" fill="#DCE5D9"/>
<path d="M63.7259 38.8615C63.601 38.7313 63.4594 38.6207 63.3036 38.5329C62.2055 37.9081 60.688 38.4917 59.9243 39.8364C59.1719 41.1585 59.4383 42.7892 60.5293 43.407C61.6274 44.0319 63.1434 43.4481 63.9086 42.1035C64.5548 40.9699 64.4796 39.6366 63.7259 38.8615ZM59.4553 43.7102C58.4238 42.6476 58.292 40.8694 59.1351 39.3872C60.1481 37.6091 62.2183 36.8724 63.7526 37.745C63.9823 37.8768 64.1919 38.0383 64.3761 38.2296C65.4091 39.2937 65.5409 41.0705 64.6978 42.5525C63.6847 44.3308 61.6131 45.0675 60.0814 44.1947C59.8506 44.0645 59.6408 43.9015 59.4553 43.7102Z" fill="#DCE5D9"/>
<path d="M60.668 37.1147C60.5433 36.9841 60.4017 36.8737 60.2457 36.7857C59.1476 36.1609 57.6316 36.7449 56.8664 38.0894C56.114 39.4113 56.3806 41.0407 57.4729 41.66C58.5695 42.2849 60.0857 41.7011 60.8509 40.3565C61.4983 39.2229 61.4217 37.8896 60.668 37.1147ZM56.3989 41.9632C55.3674 40.8991 55.2357 39.1223 56.0772 37.6402C57.0917 35.8621 59.1617 35.1252 60.6949 35.9967C60.9244 36.1298 61.1342 36.2915 61.3198 36.4828C62.3528 37.5467 62.4845 39.3235 61.6399 40.8057C60.6269 42.5838 58.5554 43.3205 57.0237 42.4479C56.7943 42.316 56.5831 42.1545 56.3989 41.9632Z" fill="#DCE5D9"/>
<path d="M50.847 40.4984C50.721 40.3694 50.5791 40.259 50.4233 40.171C49.3266 39.5448 47.8092 40.13 47.0454 41.4745C46.2917 42.7966 46.558 44.426 47.6506 45.0453C48.7472 45.6702 50.2632 45.085 51.0283 43.7416C51.6759 42.6082 51.5993 41.2749 50.847 40.4984ZM46.5765 45.3485C45.5449 44.2843 45.4131 42.5062 46.2562 41.0255C47.2693 39.2472 49.3394 38.5105 50.8726 39.382C51.102 39.5137 51.3116 39.6766 51.4974 39.8679C52.5302 40.9305 52.6621 42.7088 51.8176 44.1895C50.8046 45.9676 48.7328 46.7045 47.2014 45.833C46.9717 45.7013 46.7621 45.5384 46.5765 45.3485Z" fill="#DCE5D9"/>
<path d="M48.2278 40.2815C48.1031 40.1511 47.9615 40.0408 47.8055 39.9528C46.7074 39.3266 45.1898 39.9117 44.4262 41.2563C43.6738 42.5783 43.9403 44.2093 45.0312 44.827C46.1293 45.4519 47.6455 44.8668 48.4107 43.5233C49.0567 42.3899 48.9815 41.0566 48.2278 40.2815ZM43.9571 45.1302C42.9259 44.0676 42.7939 42.288 43.637 40.8073C44.6501 39.0289 46.7202 38.2922 48.2547 39.1651C48.4828 39.2968 48.694 39.4583 48.8782 39.6496C49.911 40.7137 50.0428 42.4905 49.1997 43.9725C48.1852 45.7509 46.1152 46.4876 44.582 45.6147C44.3525 45.4844 44.1429 45.3202 43.9571 45.1302Z" fill="#DCE5D9"/>
<path d="M53.3555 34.1675C53.2308 34.0386 53.0892 33.9281 52.9332 33.8403C51.8351 33.2139 50.3191 33.799 49.5539 35.1423C48.8015 36.4643 49.0681 38.0951 50.1604 38.7128C51.2572 39.3392 52.7732 38.7539 53.5384 37.4093C54.1858 36.2772 54.1092 34.9439 53.3555 34.1675ZM49.0864 39.0175C48.0549 37.9534 47.9232 36.1753 48.7647 34.693C49.7792 32.9163 51.8494 32.1795 53.3824 33.0509C53.6121 33.1828 53.8217 33.3456 54.0073 33.5369C55.0403 34.5997 55.172 36.3778 54.3276 37.8585C53.3144 39.6366 51.2429 40.3736 49.7112 39.5021C49.4818 39.3703 49.2706 39.2073 49.0864 39.0175Z" fill="#DCE5D9"/>
</g>
<defs>
<linearGradient id="paint0_linear_32399_1329" x1="26.0668" y1="68.2122" x2="72.1303" y2="68.2122" gradientUnits="userSpaceOnUse">
<stop stop-color="#FFFFFE"/>
<stop offset="0.552" stop-color="#99897D"/>
<stop offset="1" stop-color="#FFFFFE"/>
</linearGradient>
<linearGradient id="paint1_linear_32399_1329" x1="9.43603" y1="63.0186" x2="96.4094" y2="63.0186" gradientUnits="userSpaceOnUse">
<stop stop-color="#FEF3DB"/>
<stop offset="0.503" stop-color="#B7AA9F"/>
<stop offset="1" stop-color="#FEF3DB"/>
</linearGradient>
<linearGradient id="paint2_linear_32399_1329" x1="9.43593" y1="63.0184" x2="96.4093" y2="63.0184" gradientUnits="userSpaceOnUse">
<stop stop-color="#C9BCAD"/>
<stop offset="0.503" stop-color="#998B83"/>
<stop offset="1" stop-color="#C9BCAD"/>
</linearGradient>
<linearGradient id="paint3_linear_32399_1329" x1="49.0987" y1="76.169" x2="49.0987" y2="-2.99445" gradientUnits="userSpaceOnUse">
<stop stop-color="#FFFFFE"/>
<stop offset="0.461" stop-color="#FFFFFE"/>
<stop offset="1" stop-color="#B7AA9F"/>
</linearGradient>
<clipPath id="clip0_32399_1329">
<rect width="97.3636" height="84" fill="white" transform="translate(0.730469 0.98584)"/>
</clipPath>
</defs>
</svg>
