<svg width="25" height="25" viewBox="0 0 25 25" fill="none" xmlns="http://www.w3.org/2000/svg">
<path d="M11.0692 5.11064C11.4753 4.28545 12.6519 4.28545 13.058 5.11065L14.8876 8.82765C15.0487 9.15488 15.3604 9.38193 15.7213 9.43482L19.8197 10.0356C20.7275 10.1686 21.0898 11.284 20.4334 11.9251L17.4656 14.8239C17.2051 15.0784 17.0862 15.4447 17.1476 15.8037L17.8472 19.8944C18.0021 20.8003 17.0506 21.4904 16.2376 21.0616L12.5806 19.133C12.2571 18.9624 11.8701 18.9624 11.5466 19.133L7.88957 21.0616C7.07661 21.4904 6.12508 20.8003 6.28002 19.8944L6.97965 15.8037C7.04105 15.4447 6.92215 15.0784 6.6616 14.8239L3.69381 11.9251C3.03746 11.284 3.39974 10.1686 4.30754 10.0356L8.4059 9.43482C8.76677 9.38193 9.07852 9.15488 9.23959 8.82765L11.0692 5.11064Z" fill="#F9B043"/>
</svg>
