<svg width="112" height="83" viewBox="0 0 112 83" fill="none" xmlns="http://www.w3.org/2000/svg">
<g clip-path="url(#clip0_1203_15694)">
<g style="mix-blend-mode:multiply">
<path d="M101.727 74.4145C101.603 74.1901 101.43 73.9972 101.221 73.8501C101.998 73.2686 102.082 72.1398 101.221 70.9084C100.825 70.3214 100.327 69.8116 99.7526 69.4034C100.264 69.0771 100.665 68.5995 100.9 68.0351C101.027 67.6933 101.084 67.3289 101.067 66.9642C101.05 66.5995 100.959 66.2421 100.801 65.914C100.643 65.5858 100.421 65.2937 100.148 65.0556C99.8745 64.8175 99.5563 64.6383 99.2124 64.5291C100.529 63.8279 100.9 62.8188 100.124 62.0834C99.3047 61.5873 98.3952 61.2634 97.4498 61.1312C96.5044 60.999 95.5424 61.0611 94.6212 61.3137L94.4355 61.1256C94.5455 61.0199 94.6471 60.9055 94.7393 60.7836C94.9931 60.4598 95.1605 60.0753 95.2253 59.6671C95.2902 59.2589 95.2504 58.8406 95.1097 58.4525C94.969 58.0643 94.7322 57.7194 94.422 57.4507C94.1118 57.182 93.7386 56.9987 93.3383 56.9183C92.9663 56.7989 92.5804 56.7299 92.1905 56.7131C91.0613 55.37 89.5127 54.4587 87.8018 54.1306C86.7976 53.8484 85.7688 53.6651 84.7297 53.5833C84.6944 53.3949 84.6378 53.2112 84.5609 53.036C84.1473 52.146 83.5004 51.3882 82.6908 50.8453C81.8811 50.3024 80.9399 49.9953 79.9697 49.9575C79.807 49.9398 79.6429 49.9398 79.4802 49.9575C77.8552 48.9023 75.936 48.4102 74.0112 48.555C73.354 48.5509 72.698 48.6139 72.0532 48.7432C72.0532 48.7432 72.0532 48.6234 72.0532 48.555C72.0375 47.6229 71.6853 46.7289 71.0633 46.0419C70.4413 45.355 69.5925 44.9226 68.6773 44.8266C68.2078 44.7491 67.7289 44.7491 67.2594 44.8266C65.4633 43.7346 63.369 43.2551 61.284 43.4584C60.3677 43.478 59.4586 43.6277 58.5833 43.9031C58.0756 43.0613 57.3677 42.3619 56.5243 41.8689C55.681 41.3759 54.7291 41.1051 53.7557 41.0811C53.2592 41.0419 52.7668 41.1975 52.3803 41.5159C51.9939 41.8342 51.743 42.2909 51.6796 42.7914C51.6392 42.6893 51.5883 42.5918 51.5276 42.5006C50.9733 41.654 50.2208 40.9594 49.3373 40.479C48.4537 39.9985 47.4665 39.7471 46.4638 39.7471C46.0298 39.7727 45.613 39.9274 45.2653 40.1918C43.6614 39.5338 41.922 39.2871 40.2015 39.4734C39.3065 39.538 38.4282 39.7518 37.602 40.1062C37.0446 39.353 36.3241 38.7393 35.496 38.3124C34.6679 37.8854 33.7542 37.6566 32.8251 37.6434C32.4546 37.5494 32.0648 37.5691 31.7054 37.7003C31.3461 37.8314 31.0333 38.0679 30.8071 38.3797C30.5808 38.6915 30.4512 39.0645 30.4349 39.4511C30.4185 39.8378 30.5161 40.2206 30.7151 40.5509C29.9843 39.7619 29.0918 39.1448 28.1002 38.743C27.1087 38.3411 26.0423 38.1643 24.9761 38.2249C24.6995 38.2424 24.4322 38.333 24.2008 38.4877C23.9695 38.6423 23.7822 38.8557 23.6575 39.1066C23.5329 39.3574 23.4753 39.6369 23.4904 39.9174C23.5056 40.1978 23.593 40.4693 23.7439 40.7048C22.9316 39.9736 21.9774 39.4224 20.9426 39.0867C19.9078 38.7509 18.8152 38.638 17.7348 38.7551C16.2325 39.1998 16.3 40.7219 17.7348 42.2783L17.2115 42.0731C14.3082 41.2863 11.5737 41.4574 11.0842 42.4493C10.8985 42.8427 11.0842 43.3045 11.5737 43.7833C10.8079 43.521 9.98842 43.4622 9.1937 43.6123C7.50575 44.0057 7.60702 45.6134 9.1937 47.221C8.27872 47.5234 7.51976 48.1817 7.08376 49.051C6.85328 49.5411 6.78791 50.0944 6.89768 50.6258C7.00745 51.1572 7.2863 51.6374 7.69142 51.9927C6.42545 52.1808 5.58148 52.6426 5.5646 53.2754C5.54772 53.9082 7.03312 55.0712 9.12618 55.6356C8.21469 55.7553 7.5395 56.0119 7.32007 56.4565C6.81368 57.4827 8.80547 58.9707 11.7763 59.8771L12.3333 59.9968C11.8776 60.2363 11.5906 60.5441 11.5906 60.9033C11.5906 62.0492 14.0888 63.2977 17.2115 63.7081C16.5701 63.9989 16.2156 64.3751 16.2831 64.8369C16.4519 65.9486 19.0176 67.0432 22.0053 67.2826C22.4551 67.3078 22.9059 67.3078 23.3557 67.2826C22.4273 68.0694 22.2922 68.9929 23.17 69.6941C24.8132 70.5938 26.7345 70.8203 28.5377 70.3269C29.8404 71.6654 31.5816 72.4746 33.4328 72.6016C34.4233 72.7855 35.432 72.8487 36.4373 72.7897C36.4633 72.9228 36.4972 73.0541 36.5386 73.1831C36.9439 74.1226 37.6022 74.9273 38.4381 75.505C39.274 76.0828 40.2537 76.4102 41.2649 76.4497C41.6201 76.4751 41.9766 76.4242 42.3111 76.3004C42.6455 76.1766 42.9505 75.9827 43.206 75.7314C43.3075 75.8933 43.4203 76.0477 43.5436 76.1932C44.1964 76.9769 45.0188 77.5976 45.9468 78.0069C46.8748 78.4162 47.8835 78.6032 48.8944 78.5534C49.2421 78.5123 49.5705 78.3697 49.8397 78.1429C50.1163 78.7246 50.6073 79.1729 51.2069 79.3914C51.925 79.6361 52.6863 79.723 53.4401 79.6464C54.1939 79.5697 54.923 79.3312 55.5787 78.9468C55.6357 79.1271 55.734 79.2912 55.8657 79.4256C56.8953 80.486 59.7817 80.8794 62.3137 80.315C62.848 80.1929 63.3684 80.0152 63.8666 79.7848C64.1234 80.6504 64.6308 81.4179 65.3229 81.9881C66.0151 82.5583 66.8602 82.9049 67.7489 82.983C68.307 83.0701 68.8779 82.9996 69.399 82.7793C69.9201 82.5591 70.3712 82.1976 70.7028 81.7345C70.9957 82.1779 71.4219 82.5138 71.9182 82.6923C72.8392 83.0183 73.8299 83.0871 74.7862 82.8915C75.7425 82.6959 76.6293 82.2431 77.3534 81.5806V81.5806C77.6463 81.9608 78.0379 82.251 78.4843 82.4186C79.4428 82.7588 80.4743 82.8303 81.4696 82.6256C82.4649 82.4209 83.3872 81.9476 84.139 81.2556C84.404 81.5389 84.7265 81.7606 85.0842 81.9055C86.0186 82.2462 87.0249 82.3322 88.0024 82.1552C88.9799 81.9781 89.8944 81.544 90.6545 80.8965C91.1602 80.4655 91.481 79.8522 91.5491 79.1862C93.6928 79.99 95.8534 80.1611 96.7142 79.494C97.5751 78.827 96.883 77.7838 95.347 76.7063C96.0381 76.7581 96.7321 76.7581 97.4232 76.7063C100.411 76.5695 102.301 75.5433 101.727 74.4145Z" fill="#B8B5AA"/>
</g>
<path d="M103.736 50.4191C103.594 50.1045 103.387 49.8245 103.128 49.5982C103.459 48.7353 103.589 47.8071 103.51 46.885C103.431 45.963 103.145 45.0715 102.672 44.2792C102.253 43.4418 101.68 42.693 100.984 42.0729C101.459 41.1884 101.757 40.2179 101.862 39.2168C102.183 36.4632 101.136 34.0859 99.4991 33.5044C100.681 31.7941 100.934 29.8957 99.9717 28.8011C99.0096 27.7066 96.4608 27.7408 94.4014 29.2458L94.1651 29.0748C94.1651 28.8354 94.3339 28.5959 94.4014 28.3394C95.2117 25.2951 94.2833 22.3876 92.3421 21.8574C91.9528 21.7718 91.5499 21.7718 91.1606 21.8574C90.6821 20.9741 90.0018 20.2197 89.1766 19.6573C88.3514 19.0949 87.4053 18.741 86.4174 18.625C85.376 18.4093 84.3023 18.4093 83.2609 18.625C83.1922 18.2999 83.102 17.98 82.9909 17.6672C81.9781 14.8795 79.6656 13.0837 77.9776 13.6823C77.8159 13.7413 77.6627 13.8218 77.5219 13.9217C76.7394 13.278 75.793 12.8721 74.7922 12.751C73.7914 12.63 72.7773 12.7987 71.8672 13.2376C71.1924 13.4801 70.5557 13.8199 69.9767 14.2466C69.9767 14.1098 69.9767 13.9901 69.9767 13.8704C69.7235 10.7406 67.8499 8.26066 65.875 8.38038C65.3783 8.41979 64.9035 8.60392 64.5077 8.91057C63.6328 8.25084 62.5914 7.85573 61.504 7.77097C60.4166 7.68622 59.3278 7.9153 58.3636 8.43169C57.4086 8.83083 56.5377 9.41135 55.7979 10.142C54.5994 7.47393 52.2869 5.93468 50.5483 6.72141C49.9092 7.11622 49.4047 7.69999 49.1029 8.39412C48.8011 9.08824 48.7165 9.8594 48.8604 10.6037L48.6578 10.1249C47.2906 7.43972 44.843 5.98598 43.1382 6.84112C42.6479 7.10097 42.2605 7.52363 42.041 8.03832C41.1979 7.72235 40.2949 7.60436 39.4003 7.69324C38.5056 7.78211 37.6424 8.07554 36.8759 8.55141C35.9334 9.00388 35.0985 9.65729 34.4284 10.4669C33.078 8.15804 30.9174 6.90954 29.3645 7.66206C27.8116 8.41458 27.2377 10.7406 27.9804 13.2205C26.1742 10.8261 23.5242 9.79991 21.9375 10.9458C20.6715 11.8351 20.4352 13.802 21.161 15.8372C18.8992 13.6823 16.2153 13.0494 14.7805 14.3664C13.3458 15.6833 13.7171 18.3684 15.4726 20.6602L14.8143 20.5234C11.8097 20.0787 9.14277 21.293 8.85582 23.2598C8.81267 23.6615 8.85514 24.0678 8.98036 24.4514C9.10558 24.835 9.31063 25.1868 9.58164 25.4832C9.17304 25.3879 8.74898 25.3829 8.3383 25.4685C7.92761 25.554 7.53993 25.7282 7.20162 25.9792C5.69934 27.2277 6.00317 30.1181 7.84304 32.4954C6.84768 33.6017 6.21651 34.9944 6.03693 36.4803C5.8665 37.3684 5.87898 38.2825 6.07359 39.1654C6.2682 40.0483 6.64075 40.881 7.16786 41.6112C6.63944 41.9001 6.19663 42.3266 5.88509 42.8467C5.57354 43.3668 5.40454 43.9616 5.39551 44.57C5.53054 46.1434 7.08346 47.3235 9.31157 47.6485C8.88864 47.8381 8.51558 48.1257 8.2224 48.4881C7.92922 48.8505 7.72412 49.2776 7.62361 49.735C7.3029 51.736 9.531 53.7542 12.5862 54.2501C12.7719 54.2501 12.9744 54.2501 13.1601 54.2501C12.7548 54.7885 12.5514 55.4553 12.5862 56.1315C12.7888 58.1838 15.4895 59.552 18.6291 59.2955C18.352 59.6082 18.1452 59.9781 18.0228 60.3797C17.9004 60.7812 17.8654 61.2049 17.9201 61.6215C18.2915 63.5712 21.0091 64.7 23.9799 64.1185C24.4396 64.0317 24.8914 63.9058 25.3303 63.7422C24.918 64.4212 24.7271 65.2144 24.7847 66.0095C24.8422 66.8046 25.1453 67.5611 25.651 68.1718C26.8663 69.3348 29.1113 68.9928 31.0524 67.5219C31.6087 68.3844 32.3919 69.0721 33.3136 69.5073C34.2352 69.9425 35.2587 70.1079 36.2682 69.9847C37.2656 69.9672 38.2484 69.74 39.1546 69.3177C39.1546 69.5401 39.2559 69.7624 39.3234 69.9847C40.2856 72.9948 42.6993 74.9275 44.5561 74.2947C44.9788 74.13 45.3593 73.8706 45.6691 73.5359C45.979 73.2013 46.2101 72.8 46.3453 72.362C46.464 72.6051 46.5993 72.8394 46.7504 73.0633C48.354 75.4748 50.9028 76.5864 52.4389 75.5261C52.8258 75.2623 53.1257 74.887 53.2997 74.4486C53.4217 74.8328 53.6255 75.1852 53.8968 75.4807C54.1681 75.7763 54.5001 76.0078 54.8695 76.1589C56.2536 76.6719 57.9416 75.6971 59.0725 73.9013C59.1502 74.1814 59.2821 74.4431 59.4607 74.6709C60.6592 76.2444 63.5625 75.9878 65.9425 74.1065C66.4825 73.6824 66.965 73.1878 67.3773 72.6357C68.0356 75.4406 69.8923 77.3903 71.766 77.0995C72.4996 76.9259 73.1638 76.5302 73.6703 75.9651C74.1767 75.4 74.5016 74.6921 74.6017 73.9355C74.8752 74.5389 75.3636 75.0154 75.969 75.2695C77.7582 75.9707 80.0707 74.2434 81.1172 71.4385C81.4119 71.9425 81.863 72.3334 82.4001 72.5502C84.2568 73.2685 86.6537 71.4898 87.7509 68.5652C88.0135 68.9443 88.3762 69.2407 88.7974 69.4204C90.5698 70.1729 92.9498 68.5139 94.0976 65.709C94.5391 64.6628 94.7355 63.5271 94.6715 62.3911C96.9165 63.1265 99.0771 62.6989 99.7354 61.2281C100.394 59.7573 99.5835 58.0128 97.8955 56.6788V56.5761C98.5925 56.4536 99.2726 56.2469 99.9211 55.9604C102.824 54.729 104.495 52.2833 103.736 50.4191Z" fill="#ECE2AC"/>
<path d="M83.6662 35.2145H83.5649C83.6799 35.0047 83.7813 34.7876 83.8687 34.5645C84.8984 31.7939 84.3076 29.0061 82.5521 28.322C82.0664 28.1754 81.5521 28.155 81.0565 28.2626C80.561 28.3702 80.1001 28.6024 79.7163 28.9377C80.5097 26.492 79.9864 24.1147 78.4166 23.4648C78.0364 23.3315 77.6318 23.2853 77.2319 23.3297C76.832 23.3741 76.4468 23.5078 76.1041 23.7214C75.5178 22.3047 74.4272 21.1631 73.0489 20.5231C72.3176 20.1566 71.5298 19.9194 70.7195 19.8219C70.8252 19.3306 70.7841 18.8186 70.6014 18.3511C69.8756 16.6408 67.1242 16.0764 64.4403 17.2223C63.8774 17.4587 63.3447 17.763 62.8537 18.1287C62.7246 17.6049 62.5319 17.0993 62.2798 16.6237C60.98 14.1951 58.6338 12.844 57.0471 13.682C57.0471 13.682 57.0471 13.682 56.9627 13.682C56.9705 13.6081 56.9705 13.5336 56.9627 13.4597C56.6841 12.8338 56.1754 12.3428 55.5448 12.0914C55.3462 11.7468 55.0756 11.4503 54.7519 11.2228C54.4282 10.9953 54.0594 10.8423 53.6712 10.7745C53.1321 10.7382 52.5937 10.8551 52.1166 11.1119C51.6395 11.3687 51.2425 11.7553 50.9704 12.2283C50.8385 12.2662 50.7089 12.3119 50.5822 12.3651C49.6691 12.7389 48.8375 13.2909 48.1347 13.9898C47.0038 11.4757 44.7588 10.0049 43.189 10.7061C42.5694 11.0653 42.0746 11.6098 41.7724 12.265C41.4702 12.9203 41.3754 13.6541 41.501 14.3661C41.501 14.2293 41.3829 14.0754 41.3153 13.9214C40.0494 11.4073 37.7369 10.0391 36.1333 10.86C35.5707 11.174 35.1479 11.6941 34.9517 12.3138C34.1812 12.0627 33.3674 11.9771 32.5623 12.0625C31.7573 12.1479 30.9786 12.4024 30.2761 12.8098C29.1662 13.3585 28.2305 14.2118 27.5754 15.2726C27.1525 14.6167 26.5381 14.1109 25.818 13.8257C25.0978 13.5406 24.3077 13.4904 23.558 13.682C22.022 14.3832 21.5325 16.7092 22.309 19.1207C20.621 16.7605 18.0215 15.7001 16.4686 16.8289C14.9157 17.9577 15.017 20.7113 16.5868 23.1399C16.0001 22.7332 15.3058 22.5156 14.595 22.5156C13.8842 22.5156 13.1899 22.7332 12.6032 23.1399C11.1684 24.4397 11.6242 27.313 13.616 29.5534L13.9367 29.8613C11.236 29.5705 8.87282 30.6993 8.63651 32.478C8.41707 33.8975 9.59864 35.3171 11.4216 36.0867C10.2401 37.3865 10.5945 40.0032 12.3162 42.1411C12.9364 42.9284 13.7127 43.5752 14.595 44.0395C14.4525 44.4746 14.3453 44.9208 14.2743 45.3735C13.8692 48.2981 15.0339 50.8635 16.9075 51.1372C17.0255 51.1457 17.144 51.1457 17.262 51.1372C17.4645 52.933 19.7601 54.1815 22.4946 54.0447C22.3933 55.8576 24.4189 57.6534 27.1871 58.098C27.7481 58.1614 28.3142 58.1614 28.8751 58.098C29.5503 59.6373 31.7953 60.6121 34.361 60.3556C34.6898 60.3223 35.0166 60.2709 35.34 60.2017C35.7788 61.912 38.277 62.9552 41.0115 62.425C41.5452 62.3248 42.0661 62.1641 42.5644 61.9462C42.507 62.3668 42.5423 62.7951 42.6678 63.2002C42.7933 63.6054 43.0059 63.9773 43.2902 64.2893C44.6575 65.5891 47.3751 64.9221 49.3669 62.8013L49.5526 62.5619C50.7392 63.4835 52.2121 63.9445 53.7049 63.8617C55.0403 63.8604 56.3428 63.4424 57.4353 62.6645C58.4819 64.9563 60.4061 66.3074 62.0097 65.7943C63.6132 65.2812 64.3728 63.0065 63.9002 60.5266C63.967 60.6557 64.0403 60.7813 64.1196 60.9029C65.6388 63.1947 68.0526 64.3235 69.5042 63.246C69.8823 62.9385 70.1768 62.5384 70.3599 62.0836C70.543 61.6287 70.6087 61.1341 70.5507 60.6464C70.7466 60.8186 70.969 60.9573 71.209 61.0568C72.897 61.6554 74.9732 60.0478 75.9184 57.4481C76.0653 57.121 76.1894 56.7838 76.2898 56.4391C77.6368 56.3204 78.9225 55.8149 79.9958 54.9818C81.0692 54.1487 81.8857 53.0226 82.3496 51.7358C84.1557 51.3082 85.2528 48.7257 84.814 45.8353C84.6692 44.877 84.3486 43.9547 83.8687 43.116C84.3298 42.5199 84.6997 41.8568 84.9659 41.1491C85.928 38.5495 85.3541 35.9157 83.6662 35.2145Z" fill="#FCFBE6"/>
<path d="M52.9791 47.3061C54.3633 42.1752 48.5736 36.1379 40.0325 33.7435C31.4915 31.3491 23.423 33.5212 22.022 38.6178C20.621 43.7145 26.4276 49.786 34.9686 52.1975C43.5097 54.609 51.5781 52.4027 52.9791 47.3061Z" fill="white"/>
<path d="M0.719511 26.6453C2.86322 22.8485 13.683 -3.31882 35.6433 0.341186C57.6036 4.00119 76.8295 7.45596 94.3673 19.6674C105.795 27.6373 119.923 44.9625 104.63 55.1728C89.3372 65.3832 82.6867 57.4475 70.2296 49.1697C57.7724 40.892 18.6456 25.3284 8.19716 31.4512C-2.25129 37.574 0.719511 26.6453 0.719511 26.6453Z" fill="#DE4900"/>
<path d="M91.481 57.2603C86.012 57.2603 81.3533 54.0278 75.6142 49.9231C74.1288 48.8628 72.559 47.7682 70.9048 46.6565C60.7771 39.8154 30.8158 27.3303 14.9997 27.3303C12.3933 27.1939 9.79587 27.7355 7.45453 28.9038C6.13639 29.8357 4.61143 30.4232 3.01521 30.6141C2.83236 30.6403 2.64593 30.6178 2.47426 30.5488C2.3026 30.4798 2.15162 30.3667 2.03619 30.2207C1.54587 28.7869 1.53993 27.2286 2.01931 25.7911C2.20499 25.449 2.45818 24.9701 2.74513 24.3886C5.74969 18.3513 14.9659 0 31.491 0C32.8082 0.0083047 34.1229 0.116929 35.424 0.324954C56.2196 3.74552 75.9349 7.16608 93.6078 19.4288C101.609 24.9701 110.049 34.6161 110.049 42.7571C110.049 46.6907 107.955 50.0258 103.955 52.7109C99.2625 55.7552 95.2283 57.2603 91.481 57.2603Z" fill="#FF6A21"/>
<path d="M94.3678 19.6681C76.8299 7.45666 57.6041 4.01899 35.6438 0.34188C23.0347 -1.71046 14.1055 5.96871 8.38328 13.6821C6.44213 17.4447 5.19305 20.3351 4.87233 21.156C4.87233 21.156 3.70764 29.3312 10.7127 23.9267C17.7177 18.5222 47.4426 26.0474 57.1652 30.7678C66.8878 35.4882 90.418 46.0064 100.529 37.1814C101.836 36.2071 102.875 34.9093 103.546 33.4121C104.216 31.9149 104.497 30.2684 104.36 28.63C101.408 25.2356 98.0515 22.2254 94.3678 19.6681V19.6681Z" fill="#FF9447"/>
<g style="mix-blend-mode:multiply">
<g style="mix-blend-mode:multiply">
<path d="M16.1483 15.9567C16.1483 15.9567 16.2496 15.9567 16.2833 15.9567C21.3097 12.3388 26.0554 8.33643 30.479 3.98473C31.6268 2.78753 32.9772 1.53903 34.3276 0.187903C32.6889 0.0180948 31.0374 0.0180948 29.3987 0.187903L28.099 1.53903C23.761 5.86604 18.8996 9.81679 15.3549 14.9476C15.3093 15.011 15.2768 15.0831 15.2594 15.1595C15.242 15.2359 15.2401 15.3151 15.2537 15.3923C15.1897 15.4458 15.1428 15.5172 15.1186 15.5975C14.1734 20.3863 14.0214 25.3291 13.4307 30.2034C14.3527 30.1517 15.2769 30.1517 16.1989 30.2034C16.8022 25.473 16.7851 20.6825 16.1483 15.9567V15.9567Z" fill="#FF9447"/>
</g>
<g style="mix-blend-mode:multiply">
<path d="M7.45506 31.8622C8.1886 28.4458 8.56205 24.9601 8.56912 21.4637C8.56774 21.3938 8.54624 21.3258 8.50726 21.2681C8.46828 21.2103 8.41351 21.1654 8.34968 21.1388C10.9623 15.1973 14.1753 9.546 17.9373 4.27539C14.9867 6.29247 12.3376 8.72889 10.0714 11.5099C8.79679 14.5448 7.89541 17.727 7.38755 20.9848C7.3686 21.1108 7.39365 21.2396 7.45836 21.3488C7.52307 21.4581 7.62339 21.5411 7.74202 21.5834C7.08371 25.4145 5.95278 29.2113 4.90625 32.991C5.78814 32.6945 6.64132 32.3167 7.45506 31.8622Z" fill="#FF9447"/>
</g>
<g style="mix-blend-mode:multiply">
<path d="M75.75 53.0187C75.5805 43.643 74.3803 34.3157 72.1715 25.2095C78.0005 23.243 83.6908 20.8774 89.203 18.1289L90.891 17.3593C89.8951 16.7436 88.8823 16.145 87.8695 15.5635C87.2619 15.8713 86.6542 16.1963 86.0128 16.487C81.0502 18.813 75.6318 20.5233 71.2263 23.9439C71.1019 23.9575 70.9833 24.0042 70.8825 24.0793C70.7817 24.1544 70.7023 24.2552 70.6524 24.3714L70.4836 24.4911C70.4057 24.5701 70.3498 24.6686 70.3216 24.7766C70.2934 24.8845 70.2939 24.9981 70.323 25.1058C70.3522 25.2135 70.4089 25.3115 70.4875 25.3897C70.5661 25.468 70.6637 25.5238 70.7705 25.5515C72.5492 33.9784 73.3144 42.5925 73.0493 51.2058L75.75 53.0187Z" fill="#FF9447"/>
</g>
<g style="mix-blend-mode:multiply">
<path d="M111.298 44.7578C111.363 43.6767 111.3 42.5916 111.112 41.5254L106.268 42.7568C102.453 43.6974 98.436 44.0737 94.8406 45.7498C94.729 45.8033 94.6324 45.8842 94.5594 45.9851C94.4864 46.0861 94.4395 46.2038 94.4227 46.3278C94.4059 46.4517 94.4199 46.5779 94.4634 46.695C94.5069 46.8121 94.5786 46.9163 94.6718 46.9983C93.4565 51.3253 92.3762 55.6865 91.2959 60.0477C92.4285 60.0582 93.5593 59.9551 94.6718 59.7399C95.3391 55.6478 95.6554 51.5048 95.6171 47.3575C99.4817 47.3193 103.326 46.7907 107.061 45.784C108.513 45.4761 109.925 45.1341 111.298 44.7578Z" fill="#FF9447"/>
</g>
<g style="mix-blend-mode:multiply">
<path d="M80.9997 12.0744C79.8519 11.5442 78.7041 11.0482 77.6238 10.5693C76.189 11.4245 74.7543 12.2796 73.2857 12.9979C69.2009 15.0332 64.0695 16.7093 61.0312 20.2666C60.5923 19.5654 59.2082 19.822 59.3432 20.7797C60.321 28.382 60.6935 36.0517 60.4573 43.7146L63.0905 45.0315C63.3967 36.9637 62.7278 28.8882 61.0987 20.985C65.2848 20.335 69.3528 18.0262 73.1676 16.2304C75.8866 15.0655 78.5062 13.6755 80.9997 12.0744V12.0744Z" fill="#FF9447"/>
</g>
<g style="mix-blend-mode:multiply">
<path d="M27.981 31.9138C28.9067 26.0294 28.2176 20.0004 25.9893 14.4861C30.3779 14.2295 34.1083 8.77371 36.961 5.93464C38.5645 4.37828 40.3369 2.90744 42.278 1.38528L37.7374 0.701172L37.2648 1.14585C32.8592 5.1308 28.4874 9.40651 24.3857 13.6822C24.3263 13.7409 24.2832 13.8145 24.2608 13.8955C24.2383 13.9764 24.2373 14.0619 24.2579 14.1434C24.2784 14.2249 24.3197 14.2994 24.3777 14.3596C24.4357 14.4197 24.5083 14.4634 24.5882 14.4861H25.1622C26.4733 20.0422 26.7197 25.8018 25.888 31.4521L27.981 31.9138Z" fill="#FF9447"/>
</g>
<g style="mix-blend-mode:multiply">
<path d="M49.0966 38.789C50.4301 31.5716 51.6961 22.9346 48.1683 17.0171C52.557 15.8199 56.6081 12.6559 60.254 10.1759C61.942 9.06426 63.6299 7.84996 65.5542 6.53304C64.2376 6.15678 62.9041 5.79762 61.5538 5.45557C60.6423 6.2423 59.7308 6.99482 58.8193 7.67893C55.0214 10.4667 50.582 12.8098 47.0036 15.9054C46.8081 15.908 46.62 15.9821 46.4742 16.1141C46.3284 16.2461 46.2347 16.4271 46.2102 16.6237L46.0414 16.7605C45.7714 17.0171 46.0414 17.342 46.2778 17.4104C47.2462 24.1643 47.3483 31.0166 46.5816 37.797L49.0966 38.789Z" fill="#FF9447"/>
</g>
<g style="mix-blend-mode:multiply">
<path d="M84.4931 32.4952C87.6159 31.9308 90.6542 30.9389 93.76 30.2376C97.042 29.6349 100.271 28.7656 103.415 27.638C102.689 26.8342 101.93 26.0474 101.153 25.2949C98.9252 25.7396 96.7139 26.3382 94.5027 26.8342C90.3504 27.7748 85.8604 28.7497 82.417 31.4006C81.9612 31.7427 81.9612 32.6491 82.552 32.786C82.8505 40.8601 82.608 48.9455 81.8262 56.9865C82.8735 57.6185 83.9556 58.1895 85.0671 58.6967C86.3529 49.9937 86.1588 41.1319 84.4931 32.4952V32.4952Z" fill="#FF9447"/>
</g>
<g style="mix-blend-mode:multiply">
<path d="M39.4928 35.2485C40.2186 29.4678 41.012 20.3007 36.9609 15.4264C41.4339 13.8529 45.4006 10.5692 49.1648 7.7985C50.8527 6.5329 52.7601 5.23308 54.4987 3.79644L50.9709 3.07812C49.8737 4.03588 48.7766 5.01074 47.6794 5.88299C43.9659 8.85888 39.5772 11.2875 36.235 14.708C36.1506 14.708 36.0831 14.5199 35.9987 14.4515C35.9634 14.4108 35.9155 14.3834 35.8628 14.3739C35.8101 14.3644 35.7558 14.3733 35.7087 14.3991C35.6617 14.4249 35.6247 14.4662 35.6037 14.5161C35.5828 14.566 35.5793 14.6216 35.5936 14.6738C37.4419 21.1563 38.1279 27.9221 37.6192 34.6499L39.4928 35.2485Z" fill="#FF9447"/>
</g>
</g>
<path d="M73.3191 12.3822C73.6905 10.1076 63.1914 6.43046 49.9072 4.15579C36.623 1.88111 25.5162 1.86401 25.128 4.15579C24.7398 6.44756 35.914 5.96868 49.2826 8.26046C62.6513 10.5522 72.914 14.6398 73.3191 12.3822Z" fill="white"/>
<path d="M106.673 37.3867C108.074 35.5054 104.462 30.3745 98.6213 25.9107C92.781 21.4469 86.9238 19.3945 85.5228 21.2758C84.1218 23.1572 92.4265 22.9861 96.0894 29.3313C102.352 40.3284 105.238 39.3364 106.673 37.3867Z" fill="white"/>
</g>
<defs>
<clipPath id="clip0_1203_15694">
<rect width="111" height="83" fill="white" transform="translate(0.332031)"/>
</clipPath>
</defs>
</svg>
