<svg width="105" height="84" viewBox="0 0 105 84" fill="none" xmlns="http://www.w3.org/2000/svg">
<g clip-path="url(#clip0_32399_221)">
<g style="mix-blend-mode:multiply">
<path d="M82.3218 74.6074C82.6556 68.6672 71.4198 63.2036 57.2484 62.4015C43.0769 61.5994 31.3115 65.7726 30.9892 71.7012C30.6669 77.6298 41.8797 83.105 56.0626 83.9071C70.2456 84.7093 81.9879 80.536 82.3218 74.6074Z" fill="#B8B5AA"/>
</g>
<path d="M32.0957 70.9105C32.0957 75.0954 41.1673 78.4898 52.3455 78.4898C63.5238 78.4898 72.5954 75.0837 72.5954 70.9105C72.5954 66.7372 63.5238 50.916 52.3455 50.916C41.1673 50.916 32.0957 66.7256 32.0957 70.9105Z" fill="#9C5723"/>
<path d="M104.622 19.5527C104.622 8.75339 81.2174 0 52.345 0C23.4725 0 0.0683594 8.75339 0.0683594 19.5527C0.0683594 30.3521 23.4725 71.2012 52.345 71.2012C81.2174 71.2012 104.622 30.3637 104.622 19.5527Z" fill="#B4703D"/>
<g style="mix-blend-mode:screen" opacity="0.5">
<path d="M5.93957 11.6245C2.69315 15.9373 1.33472 20.5988 2.48593 24.9348C5.28338 35.397 29.9769 70.9337 47.3832 66.1675C64.7896 61.4014 68.3353 18.1111 65.5379 7.69536C64.9983 5.679 63.9651 3.83211 62.5332 2.32476C58.8493 2.01089 55.0273 1.84814 51.1017 1.84814C31.8304 1.88302 15.0342 5.81216 5.93957 11.6245Z" fill="#B4703D"/>
</g>
<path d="M104.622 19.5527C104.622 8.75339 81.2174 0 52.345 0C23.4725 0 0.0683594 8.75339 0.0683594 19.5527C0.0683594 30.3521 23.4725 39.1171 52.345 39.1171C81.2174 39.1171 104.622 30.3637 104.622 19.5527Z" fill="#E6BE8A"/>
<path d="M52.3444 35.9784C79.4294 35.9784 101.386 28.3433 101.386 18.925C101.386 9.50666 79.4294 1.87158 52.3444 1.87158C25.2594 1.87158 3.30273 9.50666 3.30273 18.925C3.30273 28.3433 25.2594 35.9784 52.3444 35.9784Z" fill="#B4703D"/>
<path d="M52.3443 36.0365C71.8459 36.0365 89.1141 31.8284 96.9308 25.9463C95.2961 17.9369 75.5528 11.4038 52.3443 11.4038C29.1358 11.4038 9.39254 17.9369 7.75781 25.8882C15.5861 31.7703 32.8427 36.0365 52.3443 36.0365Z" fill="#D6B300"/>
<path style="mix-blend-mode:screen" opacity="0.6" d="M15.0332 29.829C24.0817 33.5605 37.574 36.0365 52.344 36.0365C70.1533 36.0365 86.0746 32.5491 94.6741 27.4343C88.9181 20.3432 73.3652 15.1005 55.6135 15.1005C35.8702 15.0424 18.8322 21.5289 15.0332 29.829Z" fill="url(#paint0_linear_32399_221)"/>
<path d="M7.79362 27.8991C7.39069 29.201 12.5366 31.9793 19.3058 34.1067C26.0749 36.234 31.8425 36.8966 32.2339 35.5946C32.6253 34.2927 26.7771 33.8742 20.031 31.7468C13.2849 29.6195 8.19654 26.5739 7.79362 27.8991Z" fill="white"/>
<path d="M20.6632 43.0113C18.8788 40.3376 16.8066 38.5823 16.0583 39.1054C15.31 39.6285 16.1159 42.2208 17.8887 44.9178C19.6616 47.6147 21.7453 49.3468 22.4936 48.8237C23.2419 48.3006 22.4476 45.685 20.6632 43.0113Z" fill="white"/>
<path d="M26.3619 51.8693C25.3027 50.9974 24.14 50.7068 23.7601 51.1485C23.3802 51.5903 23.9213 52.7179 24.9689 53.5897C26.0165 54.4616 27.1907 54.7522 27.5706 54.2988C27.9505 53.8454 27.4095 52.7411 26.3619 51.8693Z" fill="white"/>
<path d="M36.9755 72.0729C35.8243 71.3056 34.6731 71.0848 34.3162 71.5962C33.9593 72.1077 34.6155 73.1423 35.7437 73.9212C36.8719 74.7 38.0462 74.8977 38.3915 74.3978C38.7369 73.8979 38.0577 72.8517 36.9755 72.0729Z" fill="white"/>
<path d="M60.4499 18.3669C58.6885 18.8202 57.3876 19.7502 57.5603 20.436C57.733 21.1219 59.3102 21.3079 61.083 20.8429C62.8559 20.3779 64.1452 19.4712 63.9726 18.7853C63.7999 18.0995 62.2342 17.9135 60.4499 18.3669ZM60.9103 20.1803C59.5519 20.529 58.3431 20.4593 58.2395 20.0176C58.1359 19.5758 59.1375 18.9248 60.542 18.5761C61.9464 18.2274 63.1092 18.2971 63.2243 18.7388C63.3394 19.1806 62.2342 19.8316 60.9103 20.1803Z" fill="#7FA100"/>
<path d="M75.5769 23.4937C73.6083 22.5637 71.7318 22.4358 71.3749 23.1914C71.0181 23.947 72.3304 25.3188 74.299 26.2487C76.2676 27.1787 78.1441 27.3066 78.5009 26.5393C78.8578 25.7721 77.5454 24.412 75.5769 23.4937ZM74.6444 25.5047C73.1248 24.7956 72.0772 23.8075 72.342 23.3193C72.6067 22.8311 73.9882 23.0054 75.5078 23.7145C77.0274 24.4237 78.0865 25.4118 77.8102 25.9116C77.5339 26.4115 76.164 26.2255 74.6444 25.5047Z" fill="#7FA100"/>
<path d="M41.8108 26.4927C40.4754 26.5741 39.4163 27.2251 39.4278 27.9574C39.4393 28.6898 40.579 29.2013 41.8914 29.1199C43.2038 29.0385 44.2975 28.3759 44.2744 27.6552C44.2514 26.9345 43.1462 26.4113 41.8108 26.4927ZM41.8684 28.4224C40.8438 28.4805 39.9919 28.1434 39.9804 27.6784C39.9689 27.2134 40.7863 26.7717 41.8224 26.7136C42.8584 26.6555 43.6988 26.981 43.7219 27.4576C43.7449 27.9342 42.9045 28.3527 41.8684 28.4224V28.4224Z" fill="#7FA100"/>
<path d="M40.5101 19.3553L40.3374 19.5064C40.7864 19.9016 41.0167 20.2736 40.9015 20.5061C40.7864 20.7386 39.4971 20.727 38.2307 20.0876L37.9429 19.9365C37.437 19.7936 36.9781 19.5167 36.6138 19.1344C36.2494 18.7522 35.9929 18.2786 35.8707 17.7627C35.7205 17.8121 35.5935 17.9156 35.5139 18.0533C35.1915 18.6927 36.2737 19.8784 37.9199 20.7037C39.5661 21.5291 41.1548 21.7035 41.4656 21.0641C41.6728 20.6456 41.2699 19.9946 40.5101 19.3553Z" fill="#7FA100"/>
<path d="M28.1588 23.6793C27.0076 23.0051 25.8564 22.8307 25.6031 23.2725C25.3499 23.7142 26.0751 24.6326 27.2379 25.2952C28.4006 25.9578 29.5403 26.1438 29.7936 25.702C30.0468 25.2603 29.31 24.342 28.1588 23.6793ZM27.4796 24.8418C26.5932 24.3187 25.9946 23.6793 26.1672 23.3771C26.3399 23.0749 27.1918 23.2725 28.0782 23.784C28.9647 24.2955 29.5633 24.9464 29.4021 25.2487C29.241 25.5509 28.3776 25.3765 27.4796 24.8651V24.8418Z" fill="#7FA100"/>
<path d="M15.426 24.7606C14.3554 25.2372 13.6416 25.9231 13.8258 26.3765C14.01 26.8298 14.977 26.7368 16.1283 26.2602C17.2795 25.7836 17.9126 25.0977 17.7284 24.656C17.5442 24.2143 16.4851 24.284 15.426 24.7606ZM15.898 25.8533C15.0806 26.2253 14.3208 26.3067 14.1942 26.0393C14.0676 25.772 14.6547 25.2605 15.4836 24.8769C16.3124 24.4933 17.0607 24.4235 17.1874 24.6909C17.314 24.9582 16.7269 25.493 15.898 25.8533V25.8533Z" fill="#7FA100"/>
<path d="M50.1586 15.9841L49.9284 16.1119C48.7772 16.6351 47.7756 16.7746 47.626 16.4142C47.4763 16.0538 48.2246 15.3331 49.3413 14.7984L49.7557 14.6124V14.438C49.599 14.4961 49.4453 14.562 49.2952 14.6356C47.8562 15.3215 46.9007 16.3212 47.154 16.8792C47.4072 17.4372 48.8002 17.3325 50.2392 16.6467L50.5155 16.5072C50.378 16.3464 50.2584 16.171 50.1586 15.9841V15.9841Z" fill="#7FA100"/>
<path d="M33.7409 30.631C33.879 31.0262 33.8675 31.3401 33.7409 31.5028C33.6142 31.6656 32.7048 31.5028 31.8414 30.9449L30.4023 31.0262C31.991 32.4444 33.6142 33.0954 34.2359 32.4909C34.5928 32.1306 34.5237 31.3982 34.1323 30.5264L33.7409 30.631Z" fill="#7FA100"/>
<path d="M60.8413 32.9909C60.1506 33.2001 59.6095 33.2001 59.4944 32.9909C59.3793 32.7816 60.0585 31.9563 61.1061 31.4448C62.1537 30.9333 63.1437 30.7938 63.3049 31.1309C63.4661 31.468 63.3049 31.5262 63.0056 31.7819H63.2358C63.4 31.7587 63.5666 31.7587 63.7308 31.7819C63.8334 31.6815 63.9077 31.5555 63.9461 31.4166C63.9846 31.2777 63.9858 31.1309 63.9496 30.9914C63.6963 30.4683 62.3839 30.5729 61.0255 31.2472C59.6671 31.9214 58.7231 32.8746 59.0224 33.3977C59.3217 33.9209 59.8513 33.8046 60.6686 33.607C60.6801 33.3912 60.7391 33.1807 60.8413 32.9909V32.9909Z" fill="#7FA100"/>
<path d="M70.6272 16.3561C70.5539 16.6539 70.4577 16.9454 70.3394 17.228C69.8674 18.3904 69.1882 19.2042 68.8083 19.053C68.4284 18.9019 68.532 17.8325 69.004 16.67C69.1006 16.4211 69.216 16.1802 69.3493 15.9493L69.1997 15.833C69.0731 16.0771 68.9464 16.3212 68.8313 16.5886C68.2212 18.0998 68.1866 19.5064 68.7507 19.7505C69.3148 19.9946 70.2818 18.96 70.9035 17.4256C71.0547 17.0479 71.1779 16.6593 71.2719 16.2631C71.0621 16.3233 70.8453 16.3546 70.6272 16.3561V16.3561Z" fill="#7FA100"/>
<path d="M90.15 25.493C90.0806 25.3293 89.9714 25.1859 89.8325 25.0762C89.6937 24.9665 89.5297 24.8939 89.3556 24.8652H89.275L88.6419 25.0629C88.9297 25.1442 89.1369 25.2605 89.183 25.4348C89.3326 25.9812 88.1008 26.7833 86.4431 27.2483C85.4511 27.6357 84.3569 27.6645 83.3463 27.3297C83.0174 27.4216 82.6828 27.4916 82.3447 27.5389C82.3382 27.5696 82.3382 27.6013 82.3447 27.6319C82.575 28.4689 84.4975 28.6549 86.6503 28.062C88.803 27.4692 90.3687 26.3299 90.15 25.493Z" fill="#7FA100"/>
<path d="M78.2357 18.1577C76.4168 18.1577 74.9432 18.6925 74.9317 19.4016C74.9202 20.1107 76.3937 20.6803 78.2127 20.6919C80.0316 20.7035 81.5051 20.1572 81.5166 19.4597C81.5282 18.7622 80.0546 18.1693 78.2357 18.1577ZM78.2357 20.006C76.8312 20.006 75.6915 19.6224 75.6915 19.1691C75.6915 18.7157 76.8427 18.3553 78.2472 18.367C79.6517 18.3786 80.7799 18.7506 80.7799 19.2156C80.7799 19.6806 79.6171 20.0293 78.2242 20.006H78.2357Z" fill="#7FA100"/>
<path d="M62.914 25.1906C63.9386 24.3304 64.848 23.9584 65.2164 24.2955C65.5848 24.6326 65.5157 25.086 65.297 25.8183C65.7092 26.0041 66.0961 26.2424 66.4482 26.5275C66.9893 25.0976 67.0469 23.9235 66.4482 23.4353C65.6539 22.8076 63.9731 23.5399 62.2578 25.1325L62.914 25.1906Z" fill="#7FA100"/>
<path d="M57.4101 29.0617L57.295 28.8874C55.0731 29.7476 53.1391 29.8987 52.8168 29.1663C52.4944 28.434 53.7377 27.2599 55.6257 26.2369C55.5451 26.1207 55.4761 26.0044 55.407 25.8882C52.8283 27.2715 51.2051 29.0733 51.6886 30.1661C52.1721 31.2588 55.0156 31.2588 58.0663 30.0033C57.827 29.7046 57.6078 29.39 57.4101 29.0617V29.0617Z" fill="#7FA100"/>
<path d="M71.5585 33.1884C69.8892 32.3863 68.7726 31.3633 69.0143 30.7937C69.2561 30.2241 71.052 30.3171 72.986 31.1424C73.3816 31.3157 73.7661 31.5137 74.1372 31.7353C74.2638 31.6772 74.402 31.6423 74.5286 31.5958C74.0606 31.3109 73.5718 31.0622 73.0666 30.8518C70.5684 29.794 68.2085 29.6893 67.8055 30.6891C67.4026 31.6888 68.6229 32.7815 70.4764 33.7929C70.8484 33.6128 71.2097 33.4109 71.5585 33.1884V33.1884Z" fill="#7FA100"/>
<path d="M49.8806 32.2353C48.7294 32.1191 47.6703 32.3981 47.5782 32.8631C47.4861 33.3281 48.4762 33.793 49.6734 33.9093C50.8707 34.0255 51.8722 33.7117 51.9643 33.2816C52.0564 32.8514 51.0779 32.3516 49.8806 32.2353ZM49.754 33.4559C48.833 33.3629 48.1078 33.0491 48.1308 32.7468C48.1538 32.4446 48.9366 32.2818 49.8576 32.3748C50.7786 32.4678 51.5154 32.7817 51.4923 33.0723C51.4693 33.3629 50.721 33.5489 49.754 33.4559V33.4559Z" fill="#7FA100"/>
<path opacity="0.5" d="M51.8727 15.1123C54.3478 14.3916 54.8198 12.5897 61.658 14.0312C68.4962 15.4727 67.84 15.4727 64.2021 17.4605C60.5643 19.4483 62.4408 18.3672 56.2358 18.1812C44.2286 17.8441 51.8727 15.1123 51.8727 15.1123Z" fill="#FCFBE6"/>
<path d="M61.2908 17.7859C60.9896 17.7709 60.6896 17.736 60.3929 17.6813C59.0049 17.4728 57.6054 17.3524 56.2025 17.321C50.2046 17.1466 49.9629 16.3677 49.9629 16.3677C49.9629 16.1469 50.8608 15.5191 52.0236 15.1006C52.5935 14.9279 53.145 14.6981 53.6698 14.4148C54.7693 13.7945 56.0141 13.4853 57.2731 13.5197C58.6835 13.5543 60.0872 13.7295 61.4635 14.0428C63.0994 14.314 64.7093 14.7263 66.2756 15.275C65.726 15.6586 65.1443 15.9931 64.5373 16.2747L63.8811 16.6235C62.2348 17.5302 61.8089 17.7859 61.2908 17.7859Z" fill="#FCFBE6"/>
<path opacity="0.5" d="M50.9644 27.9572C46.5207 29.294 49.7326 31.1191 37.4031 28.6198C25.0736 26.1205 28.1013 24.307 28.7344 23.9699C34.8129 20.343 31.6931 22.6214 42.8598 22.8656C64.3875 23.2492 50.9644 27.9572 50.9644 27.9572Z" fill="#FCFBE6"/>
<path d="M46.1175 27.8993C43.2142 27.8242 40.3273 27.4345 37.5064 26.7369C30.9906 25.4233 29.3443 24.4119 28.9414 24.0051L29.1486 23.8772C31.4511 22.4822 32.3375 22.0405 33.1088 21.9824C33.6864 21.9585 34.265 21.9935 34.8356 22.087C37.4584 22.5558 40.1155 22.8008 42.779 22.8193C51.4016 23.0053 53.4853 23.8888 53.9688 24.2143C52.9592 25.0162 51.8118 25.6231 50.5842 26.0045C49.6658 26.2629 48.7895 26.6545 47.9825 27.167C47.4587 27.6135 46.8025 27.8712 46.1175 27.8993V27.8993Z" fill="#FCFBE6"/>
<path opacity="0.5" d="M87.4001 20.3779C86.6518 19.3898 84.0501 22.389 79.8021 25.6671C75.5541 28.9453 70.3276 30.4681 71.2946 31.247C72.7797 32.4095 81.1145 31.247 85.351 27.9572C89.5874 24.6674 89.6335 23.3306 87.4001 20.3779Z" fill="#FCFBE6"/>
<path d="M79.8007 25.6673C76.75 27.9922 73.2042 29.4685 71.7422 30.3869C73.5611 31.0146 80.3533 29.515 84.0372 26.667C87.721 23.819 88.0549 22.5635 86.4317 20.3315C85.2574 20.9244 82.955 23.2493 79.8007 25.6673Z" fill="#FCFBE6"/>
</g>
<defs>
<linearGradient id="paint0_linear_32399_221" x1="39.6346" y1="11.4503" x2="77.2555" y2="53.0284" gradientUnits="userSpaceOnUse">
<stop stop-color="white"/>
<stop offset="1"/>
</linearGradient>
<clipPath id="clip0_32399_221">
<rect width="104.553" height="84" fill="white" transform="translate(0.0683594)"/>
</clipPath>
</defs>
</svg>
