<svg width="99" height="84" viewBox="0 0 99 84" fill="none" xmlns="http://www.w3.org/2000/svg">
<g clip-path="url(#clip0_32400_1786)">
<path d="M69.1959 72.6047C69.1959 78.8978 60.7464 83.9999 50.3187 83.9999C39.8909 83.9999 31.4414 78.8978 31.4414 72.6047C31.4414 66.3116 39.8928 61.2075 50.3187 61.2075C60.7445 61.2075 69.1959 66.3077 69.1959 72.6047Z" fill="#1D1D1B"/>
<path d="M95.559 27.7716C95.559 41.7406 74.7865 53.0666 49.1414 53.0666C23.4963 53.0666 2.70996 41.7426 2.70996 27.7716C2.70996 13.8006 23.4943 2.4707 49.1335 2.4707C74.7727 2.4707 95.559 13.7967 95.559 27.7716Z" fill="#BBA169"/>
<path d="M96.7591 27.7719C96.7591 13.154 75.3932 1.26221 49.1328 1.26221C22.8724 1.26221 1.50045 13.154 1.50045 27.7719H1.46484C1.46484 54.7346 22.8467 76.6723 49.1427 76.6723C75.4387 76.6723 96.7967 54.7346 96.7967 27.7719H96.7591ZM49.1328 3.67775C74.0598 3.67775 94.3436 14.4874 94.3436 27.7719H94.308C94.308 41.0267 74.042 51.8244 49.1328 51.8244C24.2236 51.8244 3.9615 41.0346 3.9615 27.7719H3.92589C3.92589 14.4874 24.2097 3.67775 49.1407 3.67775H49.1328Z" fill="#AD3825"/>
<path d="M49.1332 77.9463C22.1626 77.9463 0.203125 55.4329 0.203125 27.7718V26.5097H0.288193C0.832235 19.4391 5.95612 12.8829 14.8547 7.93311C24.044 2.81715 36.2187 0 49.1332 0C62.0478 0 74.2185 2.81715 83.4078 7.93311C92.3103 12.8789 97.4283 19.4391 97.9743 26.5077H98.0594V27.7718C98.0594 55.4329 76.1117 77.9463 49.1332 77.9463ZM2.74528 29.034C3.39813 54.7227 23.957 75.4101 49.1332 75.4101C74.3095 75.4101 94.8644 54.7227 95.5172 29.034C94.9514 35.4577 90.0807 41.4006 81.655 45.8874C72.9345 50.5306 61.3831 53.0886 49.1332 53.0886C36.8834 53.0886 25.3279 50.5306 16.6075 45.8973C8.18372 41.4105 3.31306 35.4675 2.74726 29.0439L2.74528 29.034ZM5.2182 26.8361V27.7718C5.2182 33.7068 9.68527 39.3391 17.7945 43.6559C26.1588 48.1091 37.287 50.5622 49.1332 50.5622C60.9795 50.5622 72.1056 48.1091 80.468 43.6559C88.5792 39.3391 93.0463 33.6969 93.0463 27.7718V26.8559C92.611 21.2552 88.1914 15.9612 80.4937 11.8581C72.1234 7.39699 60.9874 4.93396 49.1332 4.93396C37.2791 4.93396 26.141 7.39699 17.7707 11.8581C10.079 15.9553 5.66134 21.2433 5.2182 26.8361Z" fill="#AD3825"/>
<path d="M48.3177 50.6195C46.5926 50.6195 45.2453 50.5602 44.636 50.5285C44.3279 50.5129 44.0331 50.3979 43.7959 50.2007C43.5587 50.0034 43.3919 49.7346 43.3204 49.4345C43.0821 48.3953 43.0559 47.3187 43.2432 46.2692L42.988 46.2375C42.4341 46.2718 41.8861 46.2969 41.344 46.3127C37.5437 46.4235 33.3259 46.2751 29.3791 45.096C29.5516 45.3186 29.6792 45.5726 29.755 45.8438C29.8221 46.0755 29.8296 46.3205 29.7767 46.5559C29.7237 46.7913 29.6121 47.0095 29.4522 47.1901C29.2922 47.3708 29.0892 47.5081 28.862 47.5892C28.6348 47.6703 28.3907 47.6926 28.1525 47.654C24.7894 47.1119 21.9643 44.2532 20.0869 40.9158C19.1983 40.8564 18.3188 40.7012 17.4636 40.4529C15.9363 39.9761 14.0707 38.7772 12.7037 37.1827C12.09 36.8749 11.5215 36.4841 11.0142 36.0214C9.17438 34.3398 8.28215 31.8531 8.36128 28.6284C8.43646 25.5501 9.62741 23.2869 11.9084 21.902C12.5992 20.9993 13.3837 20.1724 14.2488 19.4351C14.1677 18.1373 14.6286 16.7069 15.6336 15.1025C18.7812 10.125 29.1377 7.71542 37.7316 7.91325L38.2203 7.9271C41.8406 7.15753 45.9911 7.23864 49.1486 9.33369C49.4585 9.54027 49.757 9.76349 50.0428 10.0024L51.0319 10.0498C52.2189 9.49592 53.8313 9.21499 56.3734 9.10619C60.4073 8.93209 65.4065 9.08442 68.2652 11.8284C68.7624 12.3023 69.1835 12.8502 69.5135 13.4526C72.3049 13.1163 75.1241 13.1459 76.5326 13.5574C79.4626 14.4101 82.3509 16.3963 83.9593 19.0532C86.2186 19.4687 88.3967 20.3115 90.1376 22.0326C92.2228 24.096 92.9746 26.9389 92.1991 29.8312C91.386 32.866 89.0693 35.3705 86.4342 36.059C85.2894 36.3742 84.0724 36.3004 82.9741 35.8493C81.429 39.3945 75.1557 41.7071 71.1041 42.8625C68.9537 46.0614 66.4253 49.3791 61.2124 48.9953C59.5289 49.6007 57.4121 50.0379 54.8442 50.3109C52.675 50.5296 50.4959 50.6352 48.3157 50.6274L48.3177 50.6195ZM45.9813 47.7232C49.4414 47.8419 53.1032 47.7015 56.1716 47.2385C55.3288 46.5036 54.7058 45.5498 54.3714 44.4827C52.001 45.0682 49.5994 45.5193 47.1781 45.8339C47.0199 45.8794 46.8636 45.923 46.7073 45.9625C46.551 46.0021 46.367 46.0456 46.1989 46.0812C46.0565 46.617 45.9834 47.1688 45.9813 47.7232ZM57.5565 44.5282C58.0253 45.1929 58.7277 45.6302 59.7524 45.8695C60.1244 45.9546 60.4805 46.0219 60.8207 46.0674C61.8336 45.646 62.6012 45.1376 63.0147 44.5381C61.0364 44.7795 59.1411 44.8349 57.5565 44.5381V44.5282ZM66.184 44.0218C66.163 44.1995 66.132 44.3758 66.091 44.55C66.3158 44.3506 66.5304 44.14 66.734 43.9189L66.184 44.0297V44.0218ZM26.2593 40.6309C27.8134 41.5185 29.487 42.1781 31.2288 42.5895C30.0244 42.0427 28.943 41.2581 28.0496 40.2827C27.47 40.4192 26.8626 40.534 26.2691 40.6309H26.2593ZM40.343 41.3471C40.6812 41.4142 41.0226 41.4644 41.3658 41.4974C42.2918 41.4276 43.2003 41.2084 44.0563 40.8485C42.577 40.0809 41.2229 39.093 40.0403 37.9186C39.799 39.0344 39.8108 40.3045 40.343 41.3471ZM65.6953 41.076L65.7468 41.2007C66.6014 41.0305 67.3294 40.8624 67.8438 40.7457C68.3582 40.6289 68.833 40.5122 69.3177 40.3836C69.5293 40.0651 69.743 39.7466 69.9626 39.4281C68.5764 40.067 67.1511 40.6174 65.6953 41.076ZM31.1715 39.2678C32.1824 39.98 33.6147 40.5913 35.2903 41.0068C34.6593 39.6734 34.5445 37.9799 34.9501 35.9522C34.357 36.9155 33.579 37.7519 32.6611 38.4132C32.1958 38.7494 31.6965 39.0358 31.1715 39.2678ZM49.6333 39.7624C50.768 39.9603 51.9222 40.0227 53.0716 39.9484L53.1072 39.9306C53.0134 39.1275 53.0381 38.3149 53.1804 37.519C52.8068 37.2829 52.4486 37.0232 52.1081 36.7415C51.2436 37.7307 50.4028 38.7396 49.6333 39.7624ZM80.0462 33.1963C79.1856 34.0371 78.2934 34.8403 77.4288 35.6158C76.1864 36.7336 74.9994 37.792 74.032 38.8603C77.4348 37.5388 80.1312 35.9165 80.4418 34.4269C80.4827 34.2174 80.4698 34.0009 80.4042 33.7977C80.2716 33.6082 80.152 33.4099 80.0462 33.2043V33.1963ZM41.352 35.1232C42.6603 36.652 44.294 37.8688 46.1336 38.6842C46.824 37.3409 47.0852 35.7068 46.6499 34.5831C46.4284 34.0114 45.9417 33.2715 44.2759 33.4159C43.0434 33.5247 42.0622 34.227 41.348 35.1213L41.352 35.1232ZM22.54 37.5487C22.6983 37.7307 22.8605 37.9087 23.0247 38.0828C24.2539 38.0219 25.4774 37.8765 26.6866 37.6476C26.5666 37.1936 26.4852 36.7304 26.4432 36.2628C25.1843 36.8087 23.8777 37.2372 22.54 37.5427V37.5487ZM29.2861 35.782C29.3031 36.1561 29.3588 36.5273 29.4523 36.8899C29.9844 36.6974 30.4886 36.4353 30.9519 36.1104C31.1299 35.9779 31.2941 35.8453 31.4464 35.7148C30.7284 35.7811 30.007 35.8048 29.2861 35.786V35.782ZM57.0124 36.1777C57.7785 36.4262 58.5691 36.5914 59.3706 36.6703C59.1945 35.1628 59.703 33.7147 60.8464 32.4347C60.0057 32.5257 59.1451 32.6088 58.2865 32.6523C57.8491 33.333 57.4527 34.0392 57.0995 34.7671C57.0797 35.236 57.048 35.7068 57.0144 36.1777H57.0124ZM65.1137 32.7591C64.7536 32.9501 64.4054 33.1629 64.0711 33.3961C62.7456 34.324 62.3183 35.1608 62.2194 35.788C62.8835 35.769 63.545 35.6975 64.1977 35.5743C64.9634 34.9096 65.266 33.9679 65.1038 32.7591H65.1137ZM14.5238 34.8581C15.5338 35.2189 16.6035 35.3834 17.6753 35.3428L17.6416 35.2795C16.3498 35.008 15.107 34.541 13.956 33.8947C14.111 34.2342 14.3013 34.5565 14.5238 34.8562V34.8581ZM44.6736 30.5375C46.8972 30.5375 48.5729 31.6137 49.3227 33.5524C49.5153 34.0572 49.6398 34.5855 49.6926 35.1232C49.8588 34.9353 50.025 34.7454 50.1931 34.5574C49.1909 32.9882 48.7264 31.1356 48.8696 29.2792C48.6569 29.027 48.4587 28.7628 48.2761 28.4879C47.5252 28.7049 46.7605 28.8708 45.9872 28.9845C44.9604 29.3663 44.0192 29.9472 43.2175 30.6937C43.4881 30.6336 43.7624 30.5913 44.0385 30.5671C44.2561 30.5474 44.4678 30.5375 44.6775 30.5375H44.6736ZM67.8201 31.6513C67.9582 32.2533 68.0246 32.8695 68.0179 33.4872L68.0357 33.4674C68.6229 32.8269 69.0673 32.0689 69.3394 31.2437C68.8171 31.3624 68.3067 31.4989 67.8141 31.6513H67.8201ZM82.9385 32.3872L82.9879 32.4406C83.7931 33.2616 84.7091 33.5445 85.7081 33.2834C87.3284 32.858 88.8952 31.0914 89.4334 29.0834C89.7281 27.9834 89.9497 25.8666 88.1237 24.0604C87.286 23.2553 86.2749 22.653 85.1681 22.2997C85.2879 23.0862 85.2919 23.886 85.1799 24.6737C84.8594 26.9685 83.7358 28.9686 82.2738 30.7749C82.3153 31.0378 82.3775 31.2971 82.4597 31.5504C82.6434 31.8148 82.8036 32.0948 82.9385 32.3872ZM31.5018 30.2447C31.5316 30.6454 31.505 31.0483 31.4227 31.4416C31.3111 31.9571 31.1103 32.4492 30.8292 32.8956C31.6044 32.843 32.3744 32.7299 33.132 32.5573C33.2626 31.6473 33.2447 30.5889 33.1854 29.2891C32.5547 29.4698 31.9757 29.7972 31.4959 30.2447H31.5018ZM75.3199 30.7689C75.0741 31.4821 74.7319 32.1583 74.3031 32.7789C74.5039 32.5123 74.687 32.2328 74.8511 31.9421C75.062 31.5708 75.2362 31.1799 75.3714 30.7749H75.3199V30.7689ZM39.7099 32.5494C39.7258 32.5811 39.7396 32.6127 39.7554 32.6464L39.8464 32.5573C39.8232 32.5364 39.8014 32.5139 39.7812 32.4901L39.7099 32.5494ZM52.0171 31.7363C52.0854 31.9431 52.1653 32.1459 52.2565 32.3437L52.6007 31.9836C52.4029 31.9084 52.2051 31.8254 52.0072 31.7363H52.0171ZM21.8377 30.4405C22.7047 31.1416 23.683 31.6926 24.732 32.0707C24.9476 32.1478 25.1672 32.221 25.3888 32.2883C25.5941 32.2168 25.7926 32.1274 25.9823 32.0212C25.733 31.8095 25.2226 31.4594 24.2018 31.032C23.4378 30.7375 22.6405 30.5381 21.8278 30.4385L21.8377 30.4405ZM14.7315 30.9846C15.1838 31.3319 15.6768 31.6229 16.1994 31.8511C16.061 31.4139 15.9462 30.9925 15.8512 30.5849C15.4594 30.6727 15.079 30.8055 14.7177 30.9806L14.7315 30.9846ZM36.1094 30.6918C36.1094 30.9555 36.1094 31.2226 36.1094 31.493L36.2736 31.4059C36.2142 31.1685 36.1608 30.9311 36.1153 30.6918H36.1094ZM21.5528 27.5423C23.1612 27.7302 24.544 28.0606 25.3255 28.391C25.8893 28.6303 27.1297 29.1546 28.02 29.9994C28.0576 29.942 28.0951 29.8846 28.1308 29.8272C28.1901 29.7382 28.2495 29.6512 28.3108 29.5641C27.7608 28.6739 26.5639 27.6709 24.821 26.6698C24.3971 26.4357 23.9568 26.2327 23.5034 26.0625C22.8739 26.3724 22.2976 26.7804 21.7961 27.2712C21.7111 27.3583 21.63 27.4473 21.5528 27.5423ZM62.0888 28.2149C61.5776 28.6338 61.0982 29.0901 60.6545 29.5799L61.3984 29.4969C63.0503 29.3129 64.6112 29.1388 66.0692 29.1863L66.2018 29.1962C67.3242 28.8049 68.4742 28.4974 69.6421 28.2762C69.6421 28.1397 69.6421 28.0032 69.6421 27.8608C69.6302 27.2534 69.6164 26.6065 69.6421 25.9181C69.3098 25.9556 68.9794 25.9972 68.6529 26.0447C67.3072 27.0486 65.7423 27.7185 64.087 27.9993C63.4269 28.1232 62.7582 28.1953 62.0869 28.2149H62.0888ZM78.5763 28.5374C78.7602 28.6027 78.9383 28.6719 79.1124 28.749C79.0186 28.2503 78.8062 27.7815 78.4932 27.382C78.5421 27.7653 78.5699 28.151 78.5763 28.5374ZM13.8531 24.096C13.6864 24.3509 13.5345 24.6151 13.3981 24.8873C12.7631 26.1594 12.6582 27.3939 13.0875 28.6323C13.8444 28.2035 14.6643 27.897 15.5169 27.7243C15.5209 26.9306 15.6266 26.1408 15.8315 25.374C15.7564 24.731 15.7484 24.0819 15.8077 23.4372C15.1315 23.5753 14.475 23.7966 13.8531 24.096ZM52.4464 25.9517C53.8839 26.3996 55.1223 27.3305 55.952 28.5868C56.411 28.1298 56.8364 27.7065 57.2202 27.3167C56.3441 26.9376 55.5356 26.4185 54.8264 25.7796C54.0469 25.7321 53.3129 25.6648 52.6502 25.5817C52.5909 25.6747 52.5315 25.7637 52.4722 25.8468L52.4425 25.9438L52.4464 25.9517ZM72.4988 25.9161C72.4672 26.5472 72.479 27.1684 72.4988 27.8074C72.4988 27.841 72.4988 27.8746 72.4988 27.9083H72.6096C72.7084 27.2485 72.6728 26.5755 72.5048 25.9299L72.4988 25.9161ZM77.318 23.4333C77.8236 23.5704 78.312 23.7642 78.7741 24.0109C80.2301 24.8141 81.0235 25.829 81.4765 26.8657C81.9153 26.0613 82.2092 25.1861 82.345 24.28C82.4647 23.3971 82.3627 22.4983 82.0482 21.6646C80.5464 21.5359 79.0389 21.4838 77.5317 21.5084H77.0411H76.2992C76.5326 21.8842 76.7483 22.2674 76.9461 22.6578C77.0787 22.9209 77.2033 23.18 77.318 23.4491V23.4333ZM38.9878 26.4107C39.5945 26.4357 40.1722 26.4502 40.7209 26.4542C40.9424 25.6628 40.9543 24.7766 40.9187 23.8467C40.6714 23.8705 40.4221 23.8922 40.1709 23.91L39.8405 23.9338C39.4569 24.7222 39.1693 25.5537 38.9839 26.4107H38.9878ZM18.7693 25.6193C18.7996 25.7604 18.8313 25.8923 18.8642 26.015C18.886 26.0921 18.9078 26.1693 18.9315 26.2465C19.1707 25.8865 19.4444 25.5505 19.7486 25.2434C19.8732 25.1168 20.0018 24.9962 20.1442 24.8794C19.8653 24.7785 19.5844 24.6816 19.3094 24.5688C19.0965 24.8967 18.9187 25.2462 18.7792 25.6114L18.7693 25.6193ZM29.0566 24.5431C31.1556 25.6708 34.2003 26.0605 36.0757 26.2227C36.2106 25.4816 36.4092 24.7535 36.6692 24.0466H36.5466C34.2497 24.1158 31.5671 24.1949 29.0586 24.5312L29.0566 24.5431ZM43.7675 23.4629C43.8094 24.2357 43.7981 25.0104 43.7339 25.7816C44.7732 25.2608 45.839 24.7946 46.9269 24.3848C46.9269 24.2424 46.9269 24.1 46.9269 23.9555C46.5008 23.6939 46.0887 23.4099 45.6924 23.1049C45.0574 23.2335 44.4144 23.3541 43.7675 23.4629ZM23.2561 22.9308L23.3748 22.9703L23.4777 22.9308H23.2561ZM50.1496 22.272C50.2723 22.3056 50.3949 22.3373 50.5235 22.3669C50.5077 22.2542 50.4879 22.1375 50.4622 22.0128L50.298 22.0524L50.2327 22.0682C50.203 22.1355 50.1753 22.2047 50.1496 22.2661V22.272ZM55.0717 20.9702C55.2038 21.3141 55.3536 21.6509 55.5208 21.9792C57.1252 21.6488 58.698 21.3738 60.1896 21.1384C60.524 21.085 60.8662 21.0336 61.2184 20.9841C61.0429 20.7857 60.8915 20.5672 60.7673 20.3332C59.7845 20.3241 58.8022 20.3829 57.8275 20.5093C56.8997 20.6339 55.9857 20.7902 55.0717 20.9702ZM27.9804 20.2303H28.016C31.6383 20.4282 35.5198 20.626 38.8968 20.0325C38.9918 19.9079 39.0947 19.7832 39.1857 19.6586L39.3044 19.5122C36.2202 19.0335 31.852 19.3698 27.9863 20.2323L27.9804 20.2303ZM46.3433 19.9395L46.4382 20.0206C47.0647 19.8795 47.6886 19.7351 48.3097 19.5874C48.4416 19.3777 48.5821 19.1719 48.7311 18.9702C48.4929 18.7387 48.2419 18.5208 47.9794 18.3173C47.491 18.9133 46.942 19.457 46.3413 19.9395H46.3433ZM70.9458 19.9395L71.0349 19.9929C71.0764 19.9277 71.1179 19.8644 71.1635 19.7951C71.0507 19.6942 70.9379 19.5973 70.8212 19.4964C70.8687 19.6448 70.9102 19.7892 70.9458 19.9316V19.9395ZM25.0208 16.697C23.0741 17.5556 21.4262 18.6121 20.3203 19.9178L20.2827 19.9633C21.5661 19.268 22.9145 18.7001 24.3086 18.2678C24.4965 17.7232 24.7349 17.1973 25.0208 16.697ZM74.4594 18.6101C74.768 18.6101 75.1003 18.6101 75.4604 18.622C75.9233 18.6319 76.4496 18.6417 77.0431 18.6437H77.5297C78.3072 18.6437 79.1124 18.6437 79.9492 18.6675C78.7391 17.5678 77.2958 16.7562 75.7275 16.2935C75.0568 16.0956 73.2803 15.9928 71.1318 16.157C72.1697 16.8843 73.1385 17.7055 74.0261 18.6101C74.1646 18.6101 74.307 18.6101 74.4554 18.6101H74.4594ZM54.4782 18.1036C54.4782 18.1274 54.4782 18.1531 54.4782 18.1768C55.4674 17.979 56.4565 17.8108 57.4457 17.6783H57.4556H57.1232C56.2224 17.6607 55.3259 17.8082 54.4782 18.1135V18.1036ZM30.1684 15.0352C29.3797 15.7013 28.6689 16.4546 28.0496 17.2807C32.948 16.2618 38.3568 16.0798 41.7674 17.1422C42.1631 16.8388 42.5719 16.546 42.994 16.2638C43.0751 16.1847 43.1601 16.1095 43.2432 16.0363C39.2648 14.8295 34.592 14.5961 31.7472 14.8077C31.2156 14.8527 30.6872 14.9287 30.1645 15.0352H30.1684ZM50.6026 16.792L50.749 16.9344L50.8836 16.8336C50.8836 16.8157 50.8737 16.7979 50.8677 16.7782L50.6026 16.792ZM30.5186 11.2092C24.5836 12.0717 19.6516 14.1133 18.065 16.6278L17.9542 16.8098C20.8984 15.0939 24.0443 13.7502 27.3196 12.8096C27.8472 12.6474 28.3886 12.4937 28.9439 12.3487C29.4622 11.9392 29.9924 11.5573 30.5265 11.2092H30.5186ZM43.2432 13.0727C44.4171 13.3814 45.5648 13.7823 46.6756 14.2716C46.9704 14.141 47.2691 14.0164 47.5718 13.8938L47.8805 13.3893C47.9715 13.2409 48.0585 13.0945 48.1455 12.954C48.0723 12.9145 47.9952 12.8749 47.918 12.8373C47.1762 12.8373 46.46 12.865 45.7795 12.9066C45.0989 12.9481 44.2423 12.9995 43.2472 13.0727H43.2432Z" fill="#F7EFD0"/>
<path d="M80.0068 14.4063C83.5025 12.4635 86.5868 9.86203 90.1972 8.11121C91.2378 7.60475 93.5446 6.09726 94.7474 6.94597C96.4784 8.21408 95.5763 11.4961 94.6049 12.4497C93.6336 13.4032 91.4455 13.878 90.1972 14.4419C90.8046 14.1649 94.5298 15.4825 94.9591 16.1254C99.8317 23.4453 82.5628 18.7368 80.446 18.2442L80.0068 14.4023V14.4063Z" fill="#EC6408"/>
<path d="M13.1591 11.6008C14.2788 10.5899 14.5439 9.49786 16.1266 9.29014C17.1632 9.15363 20.5521 10.4574 18.8487 11.7413C20.5501 10.4613 24.762 9.66206 26.7383 10.4376C27.9253 10.9084 30.3429 14.1371 27.9253 14.1568C29.1262 12.9441 33.5576 12.6157 35.0473 13.5277C36.5786 14.4615 37.2789 17.2134 35.2887 17.979C36.9861 16.6555 45.5404 15.2845 45.0162 19.1383C45.5186 15.9868 52.7811 14.3072 53.7643 17.2767C53.2223 14.1786 59.909 13.316 61.1732 15.4309C63.1278 13.8917 71.9155 10.3406 72.4101 14.6119C73.3993 13.1202 79.7893 10.9381 79.2947 13.9333C81.5678 14.0559 83.5046 13.7869 85.0002 16.056C86.8895 18.9207 83.3661 19.7832 80.7211 19.71C82.7429 23.4688 78.0583 27.2415 74.2618 26.1752C73.696 28.3514 71.9749 29.9083 70.0045 30.8639C68.356 31.6208 66.5954 32.1045 64.7916 32.2962C63.834 32.3931 62.2929 31.9203 61.4284 32.3615C59.2166 33.495 58.273 36.148 55.8178 36.9274C53.701 37.5981 50.4645 36.8384 50.2607 34.2369C48.5356 38.4765 37.3382 40.6665 36.4658 34.9649C33.706 39.3074 23.8045 37.3548 24.0537 31.8273C20.3226 32.6542 17.3709 32.2348 17.3531 27.7994C15.0919 27.8944 13.9088 28.4503 12.3855 26.6282C11.3805 25.4412 10.3439 23.0554 12.3677 22.3372C10.2291 23.0949 7.67314 18.9207 9.05798 17.2668C8.80673 17.5635 8.61681 15.1045 8.93136 14.5565C9.7227 13.1875 12.0967 12.5583 13.163 11.6008H13.1591Z" fill="#FEC700"/>
<path d="M20.2812 15.8703C20.2812 15.8703 26.4635 13.0156 27.4171 16.8159C27.4171 16.8159 23.3754 15.3896 20.2812 15.8644V15.8703Z" fill="#CEA400"/>
<path d="M27.1777 29.6631C27.1777 29.6631 30.7387 32.0371 33.5994 32.2804C33.5994 32.2804 27.6525 33.228 27.1777 29.6631Z" fill="#CEA400"/>
<path d="M44.5371 21.1029C44.5371 21.1029 46.6777 18.0028 49.295 19.6745L44.5371 21.1029Z" fill="#CEA400"/>
<path d="M56.4297 28.2368C56.4297 28.2368 60.7108 29.4238 62.8514 27.0498C62.8514 27.0498 60.4774 32.2845 56.4297 28.2368Z" fill="#CEA400"/>
<path d="M65.9429 18.7251C65.9429 18.7251 65.7035 15.629 69.9846 16.816C69.9846 16.816 66.8944 17.7676 65.9429 18.7191V18.7251Z" fill="#CEA400"/>
<path d="M85.4395 13.0175C85.4395 13.0175 90.6721 8.73642 93.7623 8.26953C93.7623 8.26953 89.7206 13.0175 85.4395 13.0175Z" fill="#C45505"/>
<path d="M87.5801 16.5864C87.5801 16.5864 91.8612 17.536 93.7624 17.536C93.7624 17.536 89.7206 20.1534 87.5801 16.5864Z" fill="#C45505"/>
</g>
<defs>
<clipPath id="clip0_32400_1786">
<rect width="97.8562" height="84" fill="white" transform="translate(0.203125)"/>
</clipPath>
</defs>
</svg>
