<svg width="240" height="160" viewBox="0 0 240 160" fill="none" xmlns="http://www.w3.org/2000/svg">
<g clip-path="url(#clip0_1203_16850)">
<g style="mix-blend-mode:multiply">
<path d="M196.566 143.568C196.311 143.157 195.976 142.801 195.582 142.521C197.091 141.375 197.255 139.247 195.582 136.891C194.82 135.76 193.852 134.783 192.728 134.01C193.715 133.363 194.491 132.441 194.959 131.359C195.201 130.692 195.303 129.982 195.257 129.273C195.212 128.565 195.019 127.874 194.693 127.244C194.366 126.613 193.912 126.057 193.359 125.611C192.807 125.164 192.167 124.836 191.481 124.648C194.073 123.339 194.926 121.375 193.286 120C191.693 119.052 189.927 118.431 188.09 118.172C186.254 117.914 184.384 118.023 182.591 118.495L182.23 118.167C182.427 117.938 182.657 117.742 182.821 117.513C183.314 116.893 183.639 116.157 183.765 115.376C183.891 114.594 183.814 113.794 183.541 113.051C183.267 112.308 182.807 111.648 182.204 111.134C181.601 110.62 180.876 110.269 180.098 110.115C179.372 109.891 178.624 109.749 177.867 109.689C175.679 107.144 172.699 105.403 169.404 104.747C167.435 104.182 165.411 103.831 163.368 103.699C163.368 103.339 163.171 103.012 163.039 102.619C162.235 100.935 160.984 99.5026 159.423 98.4758C157.862 97.449 156.05 96.8669 154.182 96.7924H153.264C150.094 94.7704 146.353 93.8286 142.602 94.1083C141.335 94.128 140.073 94.2594 138.83 94.5011C138.83 94.5011 138.83 94.2392 138.83 94.1083C138.791 92.3299 138.103 90.6268 136.895 89.3189C135.687 88.011 134.042 87.1882 132.269 87.0052C131.356 86.8561 130.425 86.8561 129.513 87.0052C126.025 84.9086 121.953 83.9903 117.9 84.3865C116.109 84.429 114.332 84.7153 112.618 85.2376C111.646 83.6208 110.278 82.2769 108.643 81.3322C107.008 80.3875 105.158 79.8729 103.269 79.8366C102.302 79.7532 101.341 80.0481 100.588 80.6589C99.8352 81.2697 99.3497 82.1486 99.2341 83.1099C99.2341 82.9462 99.2341 82.7498 98.9389 82.5534C97.8516 80.9451 96.3862 79.6269 94.6707 78.714C92.9552 77.801 91.0417 77.3211 89.0974 77.3161C88.2651 77.3696 87.4667 77.6655 86.8011 78.1672C83.6371 76.8685 80.1937 76.3953 76.7956 76.7924C75.0689 76.9061 73.3729 77.3043 71.7765 77.9708C70.6511 76.5535 69.2131 75.4144 67.5744 74.6423C65.9358 73.8701 64.1406 73.4858 62.3287 73.5191C61.6829 73.4689 61.035 73.587 60.4487 73.8618C59.8623 74.1366 59.3575 74.5587 58.9838 75.0867C58.6101 75.6147 58.3803 76.2305 58.3168 76.8738C58.2533 77.5171 58.3584 78.1658 58.6218 78.7564C57.2017 77.244 55.4679 76.0592 53.5415 75.2846C51.615 74.5101 49.5423 74.1645 47.4681 74.2719C46.9497 74.3514 46.458 74.5537 46.0341 74.8619C45.6102 75.1702 45.2666 75.5753 45.032 76.0434C44.7975 76.5115 44.6788 77.0289 44.686 77.5522C44.6932 78.0755 44.826 78.5895 45.0734 79.051C43.4897 77.637 41.6258 76.5712 39.6025 75.9227C37.5792 75.2742 35.4419 75.0575 33.3293 75.2867C30.3768 76.105 30.5409 79.051 33.3293 81.997L32.2467 81.8333C26.6043 80.2948 21.2571 80.6222 20.3386 82.5534C19.9777 83.3063 20.3386 84.1901 21.2899 85.0739C19.7985 84.5871 18.2098 84.4747 16.6644 84.7466C13.3839 85.4994 13.5808 88.6091 16.6644 91.686C15.7845 91.9222 14.9603 92.3303 14.2395 92.8865C13.5188 93.4428 12.9157 94.1362 12.4654 94.9266C12.0175 95.8646 11.8904 96.9234 12.1038 97.9405C12.3171 98.9575 12.859 99.8766 13.6464 100.557C11.186 100.95 9.54578 101.801 9.51297 103.012C9.48017 104.223 12.367 106.58 16.402 107.66C14.6305 107.856 13.3183 108.38 12.8919 109.231C11.9077 111.162 15.7787 114.043 21.5195 115.778L22.6349 116.04C21.7492 116.498 21.1915 117.054 21.1915 117.774C21.1915 119.935 26.0466 122.357 32.1155 123.143C30.9017 123.699 30.2128 124.452 30.344 125.303C30.6721 127.463 35.6584 129.558 41.4649 130.017C42.3834 130.017 43.2363 130.017 44.0892 130.017C42.285 131.49 41.9897 133.29 43.7284 134.599C46.9156 136.341 50.6575 136.775 54.1603 135.81C56.6817 138.392 60.0694 139.954 63.6737 140.197C65.6006 140.533 67.5592 140.654 69.513 140.557C69.5633 140.801 69.629 141.041 69.7098 141.277C70.499 143.076 71.778 144.619 73.4016 145.73C75.0252 146.841 76.9284 147.475 78.8951 147.562C79.584 147.594 80.2725 147.49 80.9203 147.254C81.5681 147.018 82.1622 146.655 82.6677 146.187C82.8649 146.497 83.0842 146.792 83.3238 147.071C84.5909 148.573 86.1888 149.762 87.9928 150.545C89.7967 151.329 91.7579 151.686 93.7229 151.588C94.4017 151.498 95.0397 151.214 95.56 150.769C95.817 151.327 96.1852 151.826 96.642 152.237C97.0989 152.648 97.6348 152.962 98.2172 153.159C99.6098 153.645 101.092 153.82 102.56 153.673C104.028 153.526 105.446 153.06 106.714 152.308C106.823 152.663 107.014 152.988 107.271 153.257C109.272 155.287 114.882 156.04 119.803 154.927C120.84 154.703 121.851 154.374 122.821 153.945C123.322 155.594 124.304 157.057 125.642 158.148C126.98 159.238 128.613 159.906 130.333 160.066C131.426 160.231 132.543 160.093 133.562 159.665C134.58 159.238 135.461 158.538 136.107 157.643C136.682 158.493 137.507 159.145 138.469 159.509C140.305 160.128 142.276 160.232 144.167 159.811C146.058 159.39 147.798 158.459 149.196 157.12C149.786 157.84 150.555 158.394 151.427 158.724C153.291 159.364 155.293 159.496 157.225 159.104C159.158 158.713 160.95 157.813 162.416 156.498C162.931 157.04 163.558 157.464 164.253 157.742C166.072 158.393 168.03 158.554 169.93 158.209C171.831 157.864 173.607 157.026 175.079 155.778C175.571 155.374 175.978 154.876 176.277 154.315C176.575 153.753 176.759 153.138 176.818 152.504C180.984 154.043 185.183 154.337 186.823 153.094C188.463 151.85 187.151 149.82 184.199 147.758C185.541 147.874 186.891 147.874 188.234 147.758C194.007 147.725 197.681 145.761 196.566 143.568Z" fill="#B8B5AA"/>
</g>
<path d="M200.47 97.6758C200.195 97.0638 199.792 96.5172 199.289 96.0718C199.929 94.4198 200.182 92.6438 200.028 90.8795C199.875 89.1151 199.319 87.4091 198.404 85.8918C197.572 84.3 196.461 82.8699 195.123 81.6692C196.045 79.9763 196.625 78.1189 196.829 76.2028C197.42 70.9655 195.418 66.3828 192.236 65.2699C194.5 61.9965 195.025 58.3959 193.155 56.2682C191.285 54.1406 186.332 54.2388 182.329 57.1193L181.936 56.6283C182.1 56.17 182.264 55.7445 182.395 55.2535C183.97 49.3943 182.165 43.8623 178.36 42.8476C177.616 42.6672 176.84 42.6672 176.096 42.8476C175.138 41.1783 173.798 39.7592 172.184 38.7066C170.57 37.654 168.729 36.9979 166.813 36.792C164.776 36.3956 162.682 36.3956 160.645 36.792C160.645 36.17 160.35 35.5808 160.153 34.9589C158.251 29.4925 153.822 26.0882 150.312 27.3321C149.99 27.4518 149.682 27.6054 149.393 27.7903C147.879 26.5595 146.047 25.7804 144.109 25.543C142.17 25.3055 140.204 25.6194 138.436 26.4483C137.137 26.9391 135.903 27.5877 134.762 28.3795C134.779 28.1507 134.779 27.921 134.762 27.6921C134.5 21.7347 130.859 16.9884 126.889 17.2175C125.915 17.2714 124.978 17.6132 124.199 18.1995C122.502 16.9412 120.482 16.19 118.374 16.0336C116.265 15.8771 114.156 16.3217 112.291 17.3157C110.425 18.0599 108.728 19.1734 107.305 20.589C104.943 15.4826 100.481 12.5039 97.1024 14.0424C95.8629 14.7925 94.8838 15.904 94.2971 17.2268C93.7105 18.5497 93.5447 20.0202 93.822 21.4401L93.4611 20.5563C90.8695 15.4499 86.1128 12.7003 82.7995 14.337C81.8605 14.8523 81.1128 15.6557 80.6672 16.6283C79.0362 15.9941 77.282 15.7382 75.5372 15.88C73.7925 16.0217 72.1029 16.5574 70.5962 17.4466C68.773 18.3691 67.1638 19.6626 65.8723 21.2437C63.1495 16.7592 59.0489 14.4024 55.7684 15.81C52.4879 17.2175 51.635 21.7347 53.0784 26.481C49.5683 21.9311 44.4179 19.9344 41.3343 22.1602C40.1025 23.3413 39.2891 24.8902 39.0169 26.573C38.7446 28.2558 39.0284 29.9814 39.8252 31.4892C35.6918 27.463 30.3775 26.1864 27.5562 28.6741C24.735 31.1618 25.4895 36.3337 28.934 40.7199L27.6547 40.4254C21.8154 39.5416 16.6322 41.8983 16.0746 45.6627C15.9927 46.4287 16.073 47.2033 16.3104 47.9364C16.5477 48.6694 16.9368 49.3446 17.4524 49.918C16.6664 49.7248 15.8474 49.7068 15.0536 49.8652C14.2598 50.0236 13.5108 50.3546 12.8597 50.8345C9.84164 53.224 10.4977 58.9196 14.1063 63.3059C12.1601 65.4285 10.9321 68.1081 10.5962 70.9655C10.2629 72.665 10.2862 74.415 10.6645 76.1051C11.0428 77.7952 11.7679 79.3888 12.7941 80.7854C11.717 81.3269 10.8104 82.1542 10.1738 83.1763C9.53718 84.1984 9.19525 85.3758 9.18555 86.5792C9.44799 89.5579 12.466 91.8492 16.7963 92.4712C15.9781 92.8309 15.2555 93.3763 14.686 94.0639C14.1165 94.7516 13.7157 95.5624 13.5158 96.4319C13.1221 100.163 17.3211 104.059 23.2916 105.008C23.6525 105.008 24.0133 105.008 24.407 105.008C23.6014 106.054 23.205 107.357 23.2916 108.674C23.6853 112.602 28.934 115.221 35.0029 114.763H35.167C34.6221 115.364 34.2162 116.077 33.9781 116.852C33.7401 117.627 33.6755 118.444 33.7892 119.247C34.5109 122.979 39.7924 125.106 45.5661 124.026C46.4536 123.865 47.322 123.612 48.1577 123.273C47.3719 124.559 46.998 126.053 47.0859 127.556C47.1739 129.059 47.7194 130.5 48.6497 131.686C51.0117 133.911 55.2107 133.257 59.1145 130.409C60.1966 132.068 61.7227 133.392 63.5199 134.231C65.3172 135.07 67.3138 135.39 69.284 135.155C71.2869 135.134 73.2638 134.699 75.0904 133.879C75.1688 134.312 75.2784 134.738 75.4185 135.155C77.2883 140.916 81.9794 144.615 85.588 143.404C86.413 143.086 87.1547 142.584 87.7571 141.938C88.3595 141.291 88.8068 140.517 89.0653 139.672C89.3027 140.145 89.5656 140.603 89.8526 141.047C92.969 145.663 97.9226 147.758 100.908 145.761C101.66 145.256 102.243 144.538 102.581 143.699C102.824 144.431 103.222 145.102 103.749 145.667C104.275 146.232 104.917 146.677 105.632 146.972C108.322 147.954 111.602 146.088 113.8 142.618C113.953 143.158 114.197 143.667 114.522 144.124C116.851 147.103 122.526 146.612 127.152 143.044C128.193 142.223 129.13 141.278 129.94 140.229C131.219 145.564 134.828 149.329 138.469 148.772C139.86 148.37 141.099 147.564 142.028 146.456C142.957 145.348 143.534 143.99 143.685 142.553C144.217 143.708 145.166 144.62 146.342 145.106C149.82 146.416 154.314 143.142 156.184 137.774C156.75 138.739 157.613 139.497 158.644 139.934C162.286 141.309 166.944 137.872 169.076 132.275C169.581 133.001 170.272 133.577 171.077 133.944C174.555 135.384 179.18 132.209 181.411 126.841C182.25 124.833 182.631 122.664 182.526 120.491C186.889 121.898 191.088 121.047 192.368 118.232C193.647 115.417 192.105 112.111 188.825 109.525V109.329C190.19 109.145 191.524 108.782 192.794 108.249C198.699 105.99 201.947 101.244 200.47 97.6758Z" fill="#ECE2AC"/>
<path d="M161.465 68.74H161.269C161.465 68.3145 161.695 67.9217 161.859 67.4634C163.86 62.1934 162.712 56.8578 159.3 55.5485C158.357 55.2618 157.356 55.2195 156.392 55.4257C155.428 55.6319 154.532 56.0797 153.789 56.7269C155.331 52.0461 154.314 47.4961 151.263 46.2523C150.526 45.9876 149.738 45.8943 148.959 45.9794C148.18 46.0645 147.431 46.3257 146.769 46.7433C145.597 44.0846 143.483 41.9515 140.831 40.7531C139.399 40.0562 137.856 39.6132 136.271 39.4438C136.505 38.4972 136.436 37.5016 136.075 36.596C134.664 33.3227 129.284 32.2752 124.068 34.4356C122.994 34.9082 121.972 35.4896 121.017 36.1704C120.741 35.1762 120.367 34.2114 119.902 33.2899C117.376 28.5109 112.816 25.9577 109.699 27.5943C109.712 27.4418 109.712 27.2886 109.699 27.1361C109.15 25.9442 108.164 25.0073 106.944 24.5174C106.558 23.8577 106.032 23.2903 105.403 22.8549C104.774 22.4195 104.057 22.1267 103.303 21.997C102.302 21.9642 101.311 22.1913 100.425 22.6561C99.5396 23.1209 98.7902 23.8075 98.2506 24.6483L97.4961 24.9102C95.7281 25.638 94.1141 26.6931 92.7394 28.0199C90.5415 23.2081 86.1784 20.4258 83.1276 21.7678C81.9235 22.4552 80.9619 23.4974 80.3746 24.7514C79.7873 26.0055 79.6031 27.4101 79.8471 28.7727C79.8471 28.4781 79.6175 28.1835 79.4863 27.9217C76.8947 22.9135 72.4004 20.393 69.284 21.9642C68.1839 22.5571 67.3598 23.5556 66.9876 24.7465C65.4913 24.2578 63.9085 24.0897 62.3426 24.2533C60.7767 24.4169 59.2631 24.9084 57.9007 25.6958C55.7565 26.7499 53.9416 28.3685 52.6519 30.3767C51.8093 29.084 50.5764 28.0923 49.1315 27.545C47.6867 26.9978 46.1048 26.9233 44.6147 27.3325C41.6295 28.6745 40.711 33.1263 42.22 37.7416C38.9395 33.2245 33.8548 31.195 30.8695 33.3554C27.8843 35.5158 28.0155 40.7531 31.0992 45.4012C29.9589 44.6229 28.6097 44.2065 27.2282 44.2065C25.8467 44.2065 24.4975 44.6229 23.3572 45.4012C20.5688 47.8889 21.4545 53.3881 25.2927 57.6434C25.4895 57.8726 25.7192 58.0362 25.916 58.2654C20.7 57.7089 16.0746 59.8366 15.6481 63.2408C15.2216 65.9577 17.4852 68.6745 21.0609 70.1803C18.7646 72.668 19.4535 77.6434 22.7995 81.7678C24.0097 83.257 25.5038 84.492 27.1954 85.4012C26.9258 86.2339 26.7283 87.0881 26.6049 87.9544C25.7848 93.5191 28.0811 98.4618 31.6896 98.9855C31.9181 99.0182 32.1501 99.0182 32.3785 98.9855C32.805 102.488 37.2665 104.747 42.6465 104.747C42.4168 108.216 46.3534 111.621 51.7662 112.504C52.857 112.612 53.9559 112.612 55.0467 112.504C56.2075 114.159 57.8202 115.445 59.6929 116.211C61.5655 116.977 63.6193 117.19 65.6098 116.825C66.2384 116.764 66.8628 116.666 67.4797 116.531C68.3654 119.804 73.1877 121.768 78.5349 120.786C79.5682 120.563 80.5786 120.246 81.553 119.837C81.433 120.663 81.5101 121.505 81.778 122.296C82.0459 123.086 82.4971 123.803 83.0948 124.386C85.752 126.907 91.0007 125.63 94.8717 121.539C94.9668 121.402 95.0544 121.26 95.1341 121.113C97.4376 122.882 100.302 123.765 103.204 123.601C105.794 123.568 108.317 122.771 110.454 121.31C112.488 125.663 116.195 128.282 119.344 127.267C122.493 126.252 123.937 121.964 123.018 117.185L123.445 117.938C126.397 122.292 131.055 124.288 133.909 122.39C134.649 121.805 135.225 121.04 135.581 120.169C135.938 119.297 136.062 118.348 135.943 117.414C136.316 117.755 136.75 118.022 137.223 118.2C140.503 119.378 144.538 116.301 146.375 111.293C146.605 110.639 146.769 109.984 146.933 109.329C149.542 109.09 152.031 108.121 154.114 106.535C156.197 104.948 157.79 102.808 158.71 100.36C162.22 99.5092 164.352 94.5992 163.499 89.0673C163.208 87.2254 162.586 85.4512 161.662 83.83C162.64 82.6925 163.436 81.4119 164.024 80.033C165.861 74.9593 164.746 69.8202 161.465 68.74Z" fill="#FCFBE6"/>
<path d="M101.695 91.6529C104.385 81.833 93.1329 70.2781 76.5009 65.6628C59.8688 61.0474 44.3849 65.4664 41.6621 75.0899C38.9393 84.7135 50.2242 96.4647 66.8234 101.047C83.4227 105.63 99.1034 101.473 101.695 91.6529Z" fill="white"/>
<path d="M221.432 82.6188C216.251 80.8877 210.85 79.8959 205.391 79.6728C194.5 53.9445 163.007 14.3046 111.536 3.27348C79.6487 -3.75525 46.2997 0.624419 17.3208 15.6466C1.73849 24.0918 18.2721 26.1867 6.82323 32.3078C-1.41077 36.7923 -4.3304 57.6434 10.3662 62.1933C29.3929 67.8561 59.7702 71.7186 94.937 79.28C131.941 87.1033 166.353 98.1998 187.643 101.473C188.258 106.545 189.189 111.574 190.432 116.53C193.351 129.624 195.418 140.262 203.554 138.429C211.689 136.596 222.384 124.059 213.395 111.424C210.738 107.758 208.507 104.026 206.375 100.786C207.123 100.42 207.783 99.8974 208.31 99.2533C208.836 98.6092 209.217 97.859 209.426 97.0542C211.656 98.5599 214.051 100.327 216.38 102.03C226.943 110.213 237.966 101.604 239.803 94.6319C241.64 87.6597 232.553 85.4993 221.432 82.6188Z" fill="#FF7547"/>
<g style="mix-blend-mode:color-dodge" opacity="0.2">
<path d="M111.537 3.27348C79.649 -3.75525 46.3001 0.624419 17.3211 15.6466C1.73885 24.0918 18.2725 26.1867 6.82359 32.3078C3.75886 34.3601 1.60786 37.5151 0.820312 41.1131C46.0581 37.8398 100.744 47.0705 129.743 56.9232C161.794 67.7907 187.48 67.3979 185.708 48.5763C166.671 25.7229 140.593 9.79469 111.537 3.27348Z" fill="white"/>
</g>
<path d="M221.433 82.6185C216.251 80.8874 210.851 79.8956 205.391 79.6725C193.155 72.9622 158.185 27.463 106.55 16.3665C69.5463 8.34682 48.8136 11.2273 23.5539 21.3092C7.15154 27.8558 18.2724 26.0555 6.8235 32.3075C-1.41051 36.792 26.2439 27.3976 41.2685 25.0408C65.7737 21.1782 86.9 17.0211 120 31.0637C155.921 46.2846 201.651 72.0129 187.644 101.473C188.258 106.545 189.189 111.574 190.432 116.53C193.352 129.623 195.418 140.262 203.554 138.429C211.69 136.596 222.384 124.059 213.395 111.424C210.738 107.758 208.507 104.026 206.375 100.785C207.123 100.42 207.783 99.8971 208.31 99.253C208.837 98.6089 209.217 97.8587 209.426 97.0539C211.657 98.5596 214.051 100.327 216.381 102.029C226.944 110.213 237.966 101.604 239.803 94.6316C241.64 87.6594 232.553 85.499 221.433 82.6185Z" fill="#FF4000"/>
<path d="M24.8009 26.1867C27.4581 28.1179 27.3268 32.7333 24.5056 36.8577C21.6844 40.9821 15.1891 49.0999 13.2864 41.8986C12.6477 39.94 12.4518 37.8645 12.7127 35.8214C12.9736 33.7782 13.6849 31.8181 14.7954 30.0819C17.6494 26.1867 22.1109 24.4191 24.8009 26.1867Z" fill="#FF4000"/>
<path d="M183.707 66.9066C185.97 69.2962 184.888 73.9443 181.312 77.2831C177.736 80.6219 169.797 87.2667 169.338 79.9017C169.128 77.872 169.365 75.821 170.034 73.8927C170.703 71.9643 171.786 70.2055 173.209 68.7397C176.785 65.27 181.509 64.5171 183.707 66.9066Z" fill="#FF4000"/>
<path d="M52.4878 18.0033C57.7694 20.1637 59.4425 28.2816 56.2276 36.1703C53.0127 44.059 45.238 60.2619 39.3659 49.0999C37.5043 46.0342 36.3449 42.5957 35.9706 39.0307C35.5963 35.4656 36.0164 31.8621 37.2008 28.478C40.2844 20.4583 47.1735 15.8429 52.4878 18.0033Z" fill="#FF4000"/>
<path d="M89.3273 19.6399C94.0184 22.9132 93.8872 31.1947 88.9993 38.1669C84.1113 45.1391 72.9905 59.2798 69.5788 46.8739C68.4422 43.4503 68.0851 39.8169 68.5334 36.2382C68.9817 32.6595 70.2242 29.2256 72.1704 26.1865C76.8943 19.3453 84.669 16.3666 89.3273 19.6399Z" fill="#FF4000"/>
<path d="M125.282 28.3797C129.415 32.3077 128.037 40.491 122.165 46.6448C116.293 52.7987 103.204 65.1391 101.695 52.3731C101.075 48.8501 101.242 45.2341 102.183 41.7828C103.125 38.3314 104.817 35.1297 107.141 32.4059C113.013 26.1865 121.115 24.4517 125.282 28.3797Z" fill="#FF4000"/>
<path d="M157.07 44.2224C161.203 48.1504 159.825 56.3337 153.789 62.4876C147.753 68.6414 134.828 80.9819 133.286 68.2486C132.666 64.7181 132.835 61.0945 133.782 57.6369C134.729 54.1794 136.431 50.9735 138.764 48.2486C144.801 42.062 152.903 40.2617 157.07 44.2224Z" fill="#FF4000"/>
<path d="M15.3202 62.4549C15.7397 58.9013 15.3692 55.2992 14.2353 51.9047C13.1013 48.5101 11.2316 45.4067 8.7592 42.815C5.47872 38.9852 2.78872 39.5416 0.722018 41.8657C-1.11505 49.5907 0.984456 59.247 10.5635 62.0621C12.0725 62.5204 13.8439 62.9459 15.3202 63.3714V62.4549Z" fill="#FFA36E"/>
<path d="M171.176 98.1998C175.867 99.2799 180.23 100.196 184.298 100.917C184.512 99.3879 184.567 97.8412 184.462 96.3012C183.904 88.1179 175.932 93.9444 171.176 98.1998Z" fill="#FFA36E"/>
<path d="M40.5466 68.7399C40.7307 65.3764 40.2264 62.0108 39.0646 58.8481C37.9028 55.6854 36.1077 52.7918 33.7888 50.3438C25.9813 41.3095 22.0119 55.8103 20.3389 64.6155C26.2437 66.023 33.1655 67.3651 40.5466 68.7399Z" fill="#FFA36E"/>
<path d="M125.249 68.1181C120.065 56.3669 111.11 72.0133 107.304 79.542C106.957 80.2439 106.65 80.9652 106.386 81.7024C113.308 83.339 120.098 84.9757 126.692 86.7106C128.591 80.5546 128.075 73.9088 125.249 68.1181Z" fill="#FFA36E"/>
<path d="M71.4489 73.2895C71.8753 69.7356 71.5082 66.1316 70.3739 62.736C69.2395 59.3404 67.3661 56.2374 64.888 53.6495C56.4899 43.8296 52.5206 61.4728 51.0771 69.8525V70.6708C57.6381 71.8492 64.1991 73.0603 71.4161 74.4024L71.4489 73.2895Z" fill="#FFA36E"/>
<path d="M160.415 78.5598C157.135 66.1866 145.883 80.3601 140.995 87.2995C140.433 88.1321 139.918 88.9954 139.453 89.8855C146.703 91.784 153.592 93.6171 160.055 95.2537C161.983 89.8748 162.11 84.0167 160.415 78.5598Z" fill="#FFA36E"/>
<path d="M100.186 80.2947L100.482 78.8544C100.908 75.3005 100.541 71.6965 99.4065 68.3009C98.2722 64.9053 96.3987 61.8023 93.9206 59.2145C85.5226 49.3945 81.5532 67.0377 80.1426 75.4174C80.1243 75.6353 80.1243 75.8542 80.1426 76.0721C85.0305 77.0213 89.984 78.0361 95.1344 79.1163L100.186 80.2947Z" fill="#FFA36E"/>
<path d="M23.6851 26.7757C26.9655 27.5613 30.4101 24.3862 31.6238 19.6726C32.7804 16.1816 33.0509 12.4588 32.4111 8.83789C28.5402 10.2782 24.866 11.8493 21.4543 13.5187C20.825 14.5305 20.36 15.6353 20.0765 16.7921C18.8628 21.4729 20.4702 25.9574 23.6851 26.7757Z" fill="#FF4000"/>
<path d="M99.989 12.6678C102.397 9.37642 104.494 5.86995 106.255 2.19313C98.7911 0.862322 91.2329 0.128945 83.6522 0L83.0617 0.720131C78.141 7.65957 77.977 15.9411 82.6352 19.2471C87.2935 22.5532 95.1339 19.6399 99.989 12.6678Z" fill="#FF4000"/>
<path d="M46.911 22.9135C52.455 24.321 58.6551 18.7891 60.7546 10.5403C61.5324 7.50036 62.1348 4.41838 62.5589 1.30957C55.0829 2.308 47.6998 3.9062 40.4813 6.08862C38.7426 14.0428 41.531 21.4732 46.911 22.9135Z" fill="#FF4000"/>
<path d="M199.814 68.5104C196.394 62.6102 192.534 56.9751 188.267 51.6528C182.526 56.3009 180.131 62.9131 182.92 67.2338C185.708 71.5546 193.089 72.0129 199.814 68.5104Z" fill="#FF4000"/>
<path d="M152.412 43.3059C155.495 48.0849 163.828 48.2486 170.979 43.6332C172.751 42.553 174.981 40.9491 177.146 39.2797C172.115 34.304 166.721 29.7087 161.006 25.5317C160.58 25.7936 160.153 25.9573 159.727 26.2519C152.576 30.8673 149.295 38.4941 152.412 43.3059Z" fill="#FF4000"/>
<path d="M134.5 25.7281C138.832 23.1388 142.802 19.9911 146.31 16.3664C139.684 12.7463 132.759 9.70183 125.61 7.2666C124.807 7.62983 124.029 8.04535 123.281 8.51046C116.162 13.0931 112.882 20.589 115.998 25.4008C119.114 30.2126 127.414 30.3435 134.5 25.7281Z" fill="#FF4000"/>
<g style="mix-blend-mode:multiply">
<g style="mix-blend-mode:multiply">
<path d="M110.815 3.27335C163.302 14.599 193.45 55.6465 202.996 78.2324L203.718 79.9673H205.522C194.5 53.9444 163.007 14.3044 111.536 3.27335C106.576 2.18834 101.56 1.36884 96.5117 0.818359C101.319 1.38866 106.093 2.2081 110.815 3.27335Z" fill="#FFA36E"/>
</g>
<g style="mix-blend-mode:multiply">
<path d="M87.1953 0.164447C85.719 0.164447 84.21 0.164447 82.7666 0.164447C84.2428 -0.000128217 85.719 -0.000128217 87.1953 0.164447Z" fill="#FFA36E"/>
</g>
<g style="mix-blend-mode:multiply">
<path d="M221.432 82.619C216.629 81.1151 211.682 80.1167 206.67 79.6403C211.124 80.0506 215.522 80.9283 219.792 82.2589L222.056 82.8481C226.388 83.7616 230.611 85.1332 234.653 86.9398C237.736 88.6092 237.671 90.0167 237.343 91.2933C236.482 93.7774 234.893 95.9457 232.781 97.5162C230.669 99.0866 228.132 99.9864 225.5 100.099C222.785 100.035 220.171 99.0537 218.086 97.3162C215.823 95.5486 213.592 94.0429 211.525 92.5699L208.015 90.1476L207.064 93.7483C206.938 94.2045 206.714 94.628 206.408 94.9897C206.103 95.3513 205.722 95.6425 205.292 95.8432L202.832 97.218L204.341 99.5748C204.931 100.426 205.489 101.342 206.08 102.292C207.72 104.878 209.36 107.562 211.427 110.311C212.86 112.185 213.78 114.398 214.096 116.734C214.413 119.07 214.115 121.448 213.231 123.634C212.356 125.902 210.977 127.943 209.199 129.604C207.421 131.265 205.289 132.503 202.963 133.225C202.57 133.253 202.175 133.253 201.782 133.225C197.321 133.225 195.418 124.583 193.187 114.534L192.564 111.784C191.504 107.454 190.737 103.058 190.268 98.6255V96.5306L188.201 96.236C176.916 94.5011 161.957 90.5404 144.439 85.9578C129.644 82.0625 112.848 77.6435 95.6587 73.9447C80.6997 70.6713 66.4296 68.1509 53.8653 65.8923C36.8068 62.7826 22.0775 60.1312 11.2191 56.8907C8.86198 56.2118 6.77618 54.8154 5.25294 52.8965C3.72971 50.9775 2.8451 48.6318 2.72263 46.1869C2.09934 40.4258 4.5597 33.9119 8.06982 31.9807C14.762 28.3473 14.2043 24.8448 13.1218 21.8661C12.5313 20.164 12.072 18.8219 18.5017 15.3195C35.2576 6.50042 53.7168 1.37661 72.6297 0.294922C53.3052 1.40617 34.4445 6.64126 17.3208 15.6468C1.73849 24.092 18.2721 26.1869 6.82323 32.308C-1.41077 36.7925 -4.3304 57.6435 10.3662 62.1934C29.3929 67.8563 59.7702 71.7188 94.937 79.2802C131.941 87.1034 166.353 98.2 187.643 101.473C188.258 106.545 189.189 111.574 190.432 116.531C193.351 129.624 195.418 140.262 203.554 138.429C211.689 136.596 222.384 124.059 213.395 111.424C210.738 107.758 208.507 104.027 206.375 100.786C207.123 100.42 207.783 99.8976 208.31 99.2535C208.836 98.6093 209.217 97.8591 209.426 97.0543C211.656 98.5601 214.051 100.328 216.38 102.03C226.943 110.213 237.966 101.604 239.803 94.6321C241.64 87.6599 232.553 85.4995 221.432 82.619Z" fill="#FFA36E"/>
</g>
<g style="mix-blend-mode:multiply">
<path d="M89.6885 0.262207C91.5912 0.262207 93.461 0.524073 95.3637 0.720472C93.461 0.524073 91.5584 0.360407 89.6885 0.262207Z" fill="#FFA36E"/>
</g>
<g style="mix-blend-mode:multiply">
<path d="M74.4014 0.229472C76.3259 0.229472 78.2614 0.164005 80.2078 0.0330723C78.2395 0.000339098 76.3369 0.000339091 74.4014 0.229472Z" fill="#FFA36E"/>
</g>
</g>
<path d="M159.333 57.4467C160.744 53.1586 150.968 46.0883 137.485 41.6365C124.002 37.1848 111.93 37.0212 110.52 41.3092C109.109 45.5973 124.232 40.0326 134.894 49.3616C153.232 65.4663 157.89 61.702 159.333 57.4467Z" fill="white"/>
<path d="M92.5094 7.10321C92.2798 4.35362 81.323 3.01156 68.0698 4.12449C54.8167 5.23742 44.2535 8.41254 44.4832 11.1621C44.7128 13.9117 55.2431 10.2456 68.4963 9.13267C81.7494 8.01974 92.739 9.82007 92.5094 7.10321Z" fill="white"/>
</g>
<defs>
<clipPath id="clip0_1203_16850">
<rect width="240" height="160" fill="white"/>
</clipPath>
</defs>
</svg>
