<svg width="225" height="201" viewBox="0 0 225 201" fill="none" xmlns="http://www.w3.org/2000/svg">
<g style="mix-blend-mode:multiply">
<path d="M181.706 80.7456C120.368 53.3601 31.8249 48.2726 13.6039 75.4417C-4.61703 102.611 -12.9518 174.917 107.415 197.72C132.202 202.411 211.581 202.808 204.834 181.809C199.097 163.768 97.4563 139.846 110.085 120.94C120.296 105.678 196.318 136.347 218.869 132.233C237.27 128.878 204.725 91.0287 181.706 80.7456Z" fill="#B8B5AA"/>
</g>
<path d="M201.007 68.2973C201.585 54.0813 189.461 30.5204 156.844 15.8354C95.5063 -11.8027 29.1171 -0.0402781 9.95807 26.4071C-1.40747 42.1746 -0.0363909 61.947 0.144014 85.8327C0.540906 117.223 -2.59814 152.835 79.1255 182.025C102.867 190.504 183.544 182.025 180.152 171.201C176.761 160.376 177.591 128.625 180.152 121.589C184.837 122.339 189.611 122.339 194.296 121.589C207.538 118.703 200.394 82.5132 201.007 68.2973Z" fill="#222C36"/>
<path d="M180.081 171.345C176.472 160.52 177.519 128.769 180.081 121.733C184.765 122.483 189.54 122.483 194.224 121.733C207.61 118.702 200.466 82.5131 201.08 68.2972C201.693 54.0812 189.462 30.5203 156.844 15.8353C152.875 14.0312 148.87 12.2272 144.865 10.9644C104.009 55.9401 81.4822 114.588 81.7236 175.35C81.7236 177.875 81.7236 180.365 81.904 182.855C108.568 189.926 183.4 181.808 180.081 171.345Z" fill="#3C4E5E"/>
<path style="mix-blend-mode:screen" opacity="0.5" d="M123.074 157.346C123.071 166.63 123.734 175.903 125.059 185.092C153.382 183.576 182.175 177.876 180.082 171.345C176.474 160.521 177.521 128.769 180.082 121.734C184.767 122.483 189.541 122.483 194.226 121.734C207.612 118.703 200.468 82.5134 201.082 68.2974C201.478 58.1226 195.272 43.0407 179.613 29.8711C145.95 54.0815 123.074 102.069 123.074 157.346Z" fill="url(#paint0_linear_1203_16890)"/>
<path style="mix-blend-mode:screen" opacity="0.5" d="M159.694 157.346C159.695 165.17 160.141 172.988 161.029 180.762C173.153 178.237 181.235 174.917 180.08 171.345C176.472 160.521 177.518 128.769 180.08 121.734C184.765 122.484 189.539 122.484 194.224 121.734C207.61 118.703 200.466 82.5135 201.079 68.2975C201.072 62.5424 199.713 56.8696 197.11 51.7363C174.848 71.617 159.694 111.414 159.694 157.346Z" fill="url(#paint1_linear_1203_16890)"/>
<path opacity="0.1" d="M30.8142 36.041C18.0054 36.041 7.46973 73.8901 7.57798 120.651C7.57798 124.62 7.57798 128.589 7.93879 132.486C14.5416 145.222 26.9535 157.742 50.1897 169.721C50.9835 155.289 51.0918 138.367 51.0557 121.228C50.9835 74.4674 43.6951 36.041 30.8142 36.041Z" fill="white"/>
<path d="M197.615 66.2767C197.615 66.2767 90.4182 21.6083 62.6719 41.5972C48.8168 51.6638 55.2031 97.595 67.0016 110.151C86.5576 130.645 179.466 123.285 180.008 121.733C184.692 122.483 189.467 122.483 194.151 121.733C195.513 121.457 196.766 120.793 197.759 119.821L197.615 66.2767Z" fill="#E61300"/>
<path d="M156.846 19.227C95.5077 -8.15857 30.5618 -0.473302 12.1965 26.7679C-6.16872 54.0091 -7.93668 99.8682 79.1269 130.97C102.868 139.485 183.546 130.97 180.154 120.146C174.417 102.105 72.7767 78.1474 85.405 59.277C95.6521 43.9786 172 75.5856 194.226 70.5342C207.539 67.6838 179.865 29.5101 156.846 19.227Z" fill="#FF685A"/>
<path d="M80.4576 56.0657C81.6122 52.0607 77.6433 47.4423 71.6538 45.7104C65.6643 43.9785 59.8192 45.7104 58.6646 49.8237C57.51 53.9369 61.4789 58.447 67.5045 60.1428C73.53 61.8387 79.3391 60.0346 80.4576 56.0657Z" fill="white"/>
<path d="M14.9375 112.28C15.9117 112.28 16.6333 108.672 16.5972 104.198C16.5611 99.7239 15.6952 96.1519 14.7571 96.1519C13.819 96.1519 13.0252 99.76 13.0973 104.234C13.1695 108.708 13.9633 112.28 14.9375 112.28Z" fill="white"/>
<path d="M13.641 129.31C14.6152 129.31 15.3729 127.47 15.3368 125.233C15.3007 122.996 14.3987 121.228 13.5688 121.228C12.7389 121.228 11.8369 123.068 11.8369 125.269C11.8369 127.47 12.6668 129.31 13.641 129.31Z" fill="white"/>
<path opacity="0.5" d="M55.3131 47.3704C55.7821 45.7468 54.1585 43.7623 51.705 43.1489C49.2514 42.5356 46.8701 43.1489 46.401 44.8087C45.932 46.4684 47.5556 48.4168 50.0091 49.0301C52.4627 49.6435 54.844 48.9941 55.3131 47.3704Z" fill="white"/>
<path opacity="0.5" d="M40.8803 41.5973C41.2051 40.4427 40.1226 39.1437 38.4268 38.6747C36.731 38.2056 35.0713 38.6747 34.8187 39.8293C34.5661 40.9839 35.6125 42.2467 37.3083 42.7518C39.0041 43.257 40.5917 42.7158 40.8803 41.5973Z" fill="white"/>
<path opacity="0.5" d="M28.4657 37.1232C28.7183 36.1851 27.8162 35.1027 26.4091 34.7058C25.0019 34.3089 23.6308 34.7058 23.3783 35.6439C23.1257 36.582 24.0277 37.6644 25.4349 38.0613C26.842 38.4582 28.1771 38.0613 28.4657 37.1232Z" fill="white"/>
<path opacity="0.5" d="M18.0048 32.4326C18.2573 31.4945 17.3553 30.4121 15.9481 30.0152C14.541 29.6183 13.1699 30.0152 12.9173 30.9894C12.6648 31.9636 13.5668 32.9738 14.9739 33.4068C16.3811 33.8398 17.7161 33.5151 18.0048 32.4326Z" fill="white"/>
<path opacity="0.5" d="M149.447 100.229C118.633 86.5183 77.2844 71.8694 85.5469 59.4214C92.4023 49.2105 128.844 59.9627 158.755 66.6377C151.11 63.4297 143.234 60.8004 135.194 58.772C104.489 51.1589 83.5986 48.9579 80.3873 58.772C77.1761 68.586 97.3815 82.9463 125.128 93.0851C133.068 95.9976 141.192 98.3841 149.447 100.229Z" fill="white"/>
<path d="M58.4518 66.1324C40.4112 48.7413 20.6388 39.6128 11.5464 48.8857C2.45393 58.1585 9.95879 79.735 27.9272 97.1261C45.8955 114.517 74.8326 119.352 83.8167 110.079C92.8009 100.806 76.4562 83.4874 58.4518 66.1324Z" fill="#F4493A"/>
<path d="M70.3933 5.87705C49.0333 7.93367 32.436 16.99 33.3019 26.1546C34.1679 35.3192 52.2084 41.0561 73.5684 38.9995C94.9284 36.9429 120.474 34.1646 119.391 25C118.309 15.8354 91.7172 3.82043 70.3933 5.87705Z" fill="#F4493A"/>
<g style="mix-blend-mode:color-dodge" opacity="0.2">
<g style="mix-blend-mode:color-dodge">
<path d="M29.623 65.4467C37.6691 59.9263 51.8128 64.7251 60.364 65.6993C68.9153 66.6735 76.1676 67.2147 83.2755 63.0293C84.1054 62.5603 84.0693 61.0088 82.9869 60.8644C69.6369 59.0243 55.89 58.014 42.3957 56.679C38.1946 56.1028 33.9161 56.5829 29.9472 58.0759C25.9783 59.569 22.4442 62.0279 19.6646 65.2303C14.9979 71.1249 11.8508 78.0758 10.5 85.4717C12.6425 88.7812 15.0562 91.9069 17.7162 94.8167C17.3728 92.037 17.3728 89.2256 17.7162 86.4459C18.1648 82.319 19.4524 78.3273 21.5 74.7161C23.5475 71.105 26.3118 67.9506 29.623 65.4467Z" fill="white"/>
</g>
<g style="mix-blend-mode:color-dodge">
<path d="M23.3796 50.8703C31.101 50.8703 38.245 54.4784 45.8942 53.5042C46.7962 53.5042 46.6519 52.0249 45.8942 51.8084C29.1526 47.2261 11.2564 40.6233 2.59693 60.3957C2.41653 60.7926 2.2722 61.2256 2.0918 61.6585C2.42593 65.789 3.27438 69.8615 4.61747 73.7818C4.61747 72.3024 4.9422 70.8231 5.19477 69.3438C7.17923 59.3133 12.0863 50.9064 23.3796 50.8703Z" fill="white"/>
</g>
<g style="mix-blend-mode:color-dodge">
<path d="M171.744 31.5667C172.358 31.2059 173.007 30.9534 173.657 30.6286C171.78 29.005 170.048 27.4174 167.992 26.0103C163.359 28.5401 159.097 31.6969 155.327 35.3913C149.987 40.5509 139.163 51.6278 136.385 61.514L144.034 63.3181C147.391 56.4312 151.584 49.9843 156.518 44.123C160.867 39.1268 166.011 34.8841 171.744 31.5667Z" fill="white"/>
</g>
<g style="mix-blend-mode:color-dodge">
<path d="M105.646 81.0701C98.2199 97.6599 94.8437 115.778 95.7962 133.929C98.2016 134.145 100.799 134.29 103.59 134.362C102.86 131.289 102.366 128.165 102.11 125.017C101.558 110.391 103.361 95.7723 107.45 81.7195L105.791 80.8896C105.791 80.8896 105.682 80.9979 105.646 81.0701Z" fill="white"/>
</g>
<g style="mix-blend-mode:color-dodge">
<path d="M55.3473 75.9462C56.6823 75.6937 56.3576 73.5288 55.0226 73.5649C39.3273 74.2865 29.1164 87.0592 25.1475 101.961C26.5907 103.187 28.1061 104.39 29.6937 105.569C29.6937 104.775 29.6937 103.981 29.9823 103.187C32.4358 88.9354 40.8427 78.6523 55.3473 75.9462Z" fill="white"/>
</g>
<g style="mix-blend-mode:color-dodge">
<path d="M132.778 115.672C130.623 108.016 129.817 100.043 130.396 92.111L124.299 89.4771C121.087 102.286 124.299 120.435 131.731 133.64C134.979 133.388 138.19 133.063 141.365 132.738C137.646 127.522 134.75 121.767 132.778 115.672Z" fill="white"/>
</g>
<g style="mix-blend-mode:color-dodge">
<path d="M136.641 23.7371C129.11 33.8895 123.172 45.1319 119.033 57.076C118.962 57.2742 118.962 57.4912 119.033 57.6894L120.657 58.0141C120.673 57.9307 120.673 57.8449 120.657 57.7615C125.221 48.1967 130.466 38.9723 136.352 30.1595C139.895 25.0012 144.23 20.4348 149.197 16.6291L149.738 16.3044L145.192 14.3921C142.094 17.2714 139.234 20.3966 136.641 23.7371Z" fill="white"/>
</g>
<g style="mix-blend-mode:color-dodge">
<path d="M89.3362 70.8589C81.3623 78.5081 77.1048 91.1004 73.208 100.842C69.8886 109.042 68.0442 117.763 67.7598 126.604C70.0329 127.542 72.3781 128.444 74.976 129.382C74.8711 120.236 76.0863 111.121 78.5841 102.322C82.0022 92.1416 87.2206 82.6582 93.9907 74.3227C92.3625 73.2749 90.8074 72.1176 89.3362 70.8589Z" fill="white"/>
</g>
<g style="mix-blend-mode:color-dodge">
<path d="M88.6162 2.37718L83.7452 2.19678C74.3281 19.8765 73.859 41.6695 92.2964 55.0556C92.549 55.236 92.8377 55.0555 92.8016 54.6947C89.9151 42.6437 79.3073 35.8243 81.7608 21.861C83.1108 15.0743 85.4191 8.514 88.6162 2.37718Z" fill="white"/>
</g>
<g style="mix-blend-mode:color-dodge">
<path d="M161.029 121.3C156.011 115.179 152.247 108.129 149.952 100.554L144.576 98.1724C146.62 107.78 150.706 116.837 156.555 124.728C157.772 126.506 159.085 128.216 160.488 129.852C163.086 129.31 165.503 128.769 167.704 128.156C165.326 126.025 163.095 123.735 161.029 121.3Z" fill="white"/>
</g>
<g style="mix-blend-mode:color-dodge">
<path d="M42.2858 113.471C42.1422 108.795 43.1694 104.158 45.274 99.98C47.3786 95.8023 50.494 92.2167 54.3368 89.5493C59.8933 85.3278 66.5322 82.3331 72.3774 78.725C77.4648 75.5137 81.2172 71.1479 86.8098 68.6223C86.108 67.8385 85.5134 66.9649 85.0418 66.0244C78.872 66.277 74.903 71.0397 69.8878 74.5756C61.986 80.2043 52.7132 83.2712 45.2083 89.6214C39.542 94.9256 35.9911 102.104 35.2139 109.827C37.4148 111.342 39.7601 112.785 42.2136 114.265L42.2858 113.471Z" fill="white"/>
</g>
<g style="mix-blend-mode:color-dodge">
<path d="M107.161 17.7118C101.693 29.4469 99.0373 42.2951 99.4034 55.2362L103.481 55.4527C104.414 43.4576 107.378 31.7083 112.248 20.7066C114.708 15.7686 117.868 11.2115 121.629 7.17618C118.887 6.52672 116.181 5.94942 113.475 5.4082C111.109 9.36977 109 13.4795 107.161 17.7118Z" fill="white"/>
</g>
<g style="mix-blend-mode:color-dodge">
<path d="M188.521 46.8652C187.186 46.8652 185.887 47.1178 184.624 47.3343C179.205 48.3829 174.115 50.7113 169.779 54.1255C165.442 57.5397 161.984 61.9409 159.692 66.9624L166.259 68.3696C171.55 61.892 178.665 57.153 186.681 54.767C188.774 54.165 190.929 53.8019 193.103 53.6846C191.693 51.3351 190.163 49.059 188.521 46.8652Z" fill="white"/>
</g>
<g style="mix-blend-mode:color-dodge">
<path d="M25.2207 17.1344C25.591 19.2557 26.4313 21.2672 27.6799 23.0215C28.9286 24.7759 30.554 26.2286 32.437 27.2732C32.6772 27.391 32.951 27.4218 33.2114 27.3601C33.4718 27.2985 33.7027 27.1483 33.8647 26.9352C34.0266 26.7221 34.1095 26.4594 34.0992 26.192C34.0888 25.9246 33.9859 25.6691 33.808 25.4691C31.0062 22.6127 29.0677 19.0233 28.2155 15.1139C28.0913 14.4581 28.0069 13.7954 27.9629 13.1294C26.8083 13.7789 25.6537 14.4283 24.5713 15.1139L25.2207 17.1344Z" fill="white"/>
</g>
<g style="mix-blend-mode:color-dodge">
<path d="M65.1635 2.81041C62.3967 11.3146 61.8992 20.394 63.7202 29.1496C63.9728 30.5568 66.3181 29.9434 65.9212 28.5362C62.9986 18.5418 67.0036 10.7843 70.6839 2.37744C68.8077 2.47366 66.9675 2.61798 65.1635 2.81041Z" fill="white"/>
</g>
<g style="mix-blend-mode:color-dodge">
<path d="M49.4678 5.26367C46.9782 5.84097 44.5968 6.49043 42.2516 7.17597C40.7004 9.52192 39.6278 12.1511 39.0953 14.9126C38.5629 17.6741 38.5809 20.5136 39.1486 23.2681C41.6743 32.4327 50.4781 37.0872 57.6943 41.5612C65.8486 46.5765 72.9926 54.6226 82.951 54.8751C83.9974 54.8751 84.0695 53.5041 83.2036 53.1793C70.1422 48.597 38.896 28.8246 46.5452 11.181C47.4112 9.16043 48.4214 7.17597 49.4678 5.26367Z" fill="white"/>
</g>
</g>
<defs>
<linearGradient id="paint0_linear_1203_16890" x1="123.074" y1="107.481" x2="202.38" y2="107.481" gradientUnits="userSpaceOnUse">
<stop/>
<stop offset="0.99" stop-color="white"/>
</linearGradient>
<linearGradient id="paint1_linear_1203_16890" x1="159.694" y1="116.249" x2="202.378" y2="116.249" gradientUnits="userSpaceOnUse">
<stop/>
<stop offset="0.99" stop-color="white"/>
</linearGradient>
</defs>
</svg>
