<svg width="41" height="40" viewBox="0 0 41 40" fill="none" xmlns="http://www.w3.org/2000/svg">
<path d="M20.6652 0C9.61775 0 0.65625 3.09237 0.65625 6.90763V30.0402C0.65625 35.5422 9.6088 40 20.6652 40C31.7216 40 40.6563 35.5422 40.6563 30.0402V6.90763C40.6563 3.09237 31.7037 0 20.6652 0Z" fill="#030800"/>
<path d="M39.8055 6.90757C39.8055 3.47785 31.2379 0.69873 20.665 0.69873C10.092 0.69873 1.52441 3.47785 1.52441 6.90757C1.52441 10.3373 10.101 13.1164 20.665 13.1164C31.229 13.1164 39.8055 10.3373 39.8055 6.90757Z" fill="#FCFBE6"/>
<path d="M14.2727 5.10057C16.6988 4.16884 17.1554 1.83952 23.8519 3.70298C30.5484 5.56643 29.9128 5.56643 26.3317 8.12065C22.7507 10.6749 24.6039 9.29334 18.5341 9.05237C6.83309 8.58651 14.2727 5.10057 14.2727 5.10057Z" fill="#E61300"/>
<path d="M23.557 8.51383C23.2548 8.49593 22.9551 8.4529 22.6617 8.38532C21.3142 8.11529 19.9414 7.95932 18.5614 7.91946C12.6796 7.68652 12.4468 6.69054 12.4468 6.67448C12.4021 6.39335 13.3421 5.59014 14.4612 5.06805C15.0354 4.83176 15.5763 4.53518 16.0726 4.18452C17.0501 3.40989 18.3137 2.98904 19.6178 3.00379C21.0174 3.04991 22.4019 3.27994 23.7271 3.68652C25.625 4.21664 27.9616 4.85921 28.4361 5.29295C27.9172 5.79775 27.3412 6.25268 26.7172 6.65038L26.0726 7.10018C24.5417 8.19255 24.0583 8.51383 23.557 8.51383Z" fill="#F4493A"/>
<g style="mix-blend-mode:color-dodge" opacity="0.3">
<g style="mix-blend-mode:color-dodge">
<path d="M17.0926 7.57407C18.6856 5.93179 20.5518 4.52022 22.6253 3.38933C21.9368 3.23083 21.2368 3.11542 20.5304 3.04395C18.4734 4.3946 16.7257 6.0881 15.3827 8.0319C15.2126 8.26483 15.0604 8.50579 14.9082 8.74676L15.9198 8.8833C16.2958 8.41744 16.6898 7.98371 17.0926 7.57407Z" fill="white"/>
</g>
<g style="mix-blend-mode:color-dodge">
<path d="M14.6935 6.12043C15.4378 5.27406 16.239 4.46934 17.0928 3.71079L17.5673 3.34131C16.6392 3.75718 15.7578 4.25209 14.9353 4.81922C14.6756 5.10034 14.416 5.38147 14.1743 5.67063C13.5344 6.41694 12.9368 7.19168 12.3838 7.99191C12.5674 8.11097 12.7657 8.21069 12.9747 8.2891C13.5387 7.51802 14.1027 6.80316 14.6935 6.12043Z" fill="white"/>
</g>
<g style="mix-blend-mode:color-dodge">
<path d="M26.3323 8.12046C27.2724 7.44577 27.9975 6.95581 28.4541 6.5542C26.2397 7.12012 24.1937 8.12163 22.4648 9.48593C23.9957 9.77508 23.9778 9.82328 26.3323 8.12046Z" fill="white"/>
</g>
<g style="mix-blend-mode:color-dodge">
<path d="M26.0636 4.3291C23.3288 5.39205 20.9096 7.01508 19 9.06806L19.8326 9.12428C21.9528 7.18788 24.5195 5.69105 27.3527 4.73874L26.0636 4.3291Z" fill="white"/>
</g>
</g>
<g style="mix-blend-mode:multiply">
<g style="mix-blend-mode:multiply">
<path d="M23.7183 12.1287C23.7183 11.9681 23.5303 11.7994 23.2349 11.7512C22.9395 11.703 22.6619 11.7994 22.6351 11.9601C22.6082 12.1207 22.8231 12.2894 23.1185 12.3376C23.414 12.3858 23.6467 12.2894 23.7183 12.1287Z" fill="#E3E1BA"/>
</g>
<g style="mix-blend-mode:multiply">
<path d="M25.4366 2.40982C25.4366 2.24918 25.2486 2.08051 24.9532 2.03231C24.6578 1.98412 24.3892 2.03231 24.3534 2.24115C24.3176 2.44998 24.5414 2.57047 24.8368 2.61866C25.1322 2.66685 25.4366 2.5785 25.4366 2.40982Z" fill="#E3E1BA"/>
</g>
<g style="mix-blend-mode:multiply">
<path d="M17.5667 11.8315C17.5667 11.6628 17.3698 11.4781 17.0475 11.4299C16.7252 11.3817 16.4476 11.4781 16.4118 11.6468C16.376 11.8154 16.6088 12.0002 16.9311 12.0484C17.2534 12.0966 17.5309 12.0002 17.5667 11.8315Z" fill="#E3E1BA"/>
</g>
<g style="mix-blend-mode:multiply">
<path d="M16.9866 2.09656C16.9866 1.92789 16.7897 1.75118 16.4674 1.69496C16.1451 1.63873 15.8676 1.74315 15.8318 1.91986C15.796 2.09656 16.0287 2.26524 16.351 2.32146C16.6733 2.37769 16.9508 2.27327 16.9866 2.09656Z" fill="#E3E1BA"/>
</g>
<g style="mix-blend-mode:multiply">
<path d="M36.0011 4.73905C36.0011 4.61053 35.8579 4.47399 35.6251 4.44186C35.3923 4.40973 35.1775 4.44186 35.1596 4.6025C35.1417 4.76314 35.3028 4.85953 35.5356 4.89969C35.7683 4.93985 35.9832 4.85953 36.0011 4.73905Z" fill="#E3E1BA"/>
</g>
<g style="mix-blend-mode:multiply">
<path d="M30.5046 3.87945C30.5494 3.66258 30.245 3.42162 29.8332 3.35736C29.4213 3.2931 29.0453 3.42162 29.0006 3.64652C28.9558 3.87142 29.2512 4.10435 29.672 4.16861C30.0928 4.23286 30.4598 4.10435 30.5046 3.87945Z" fill="#E3E1BA"/>
</g>
<g style="mix-blend-mode:multiply">
<path d="M10.4234 9.75889C10.4234 9.53399 10.1728 9.30106 9.75199 9.2368C9.33122 9.17254 8.96417 9.30106 8.91941 9.51792C8.87464 9.73479 9.17903 9.98379 9.5998 10.048C10.0206 10.1123 10.3876 9.98379 10.4234 9.75889Z" fill="#E3E1BA"/>
</g>
<g style="mix-blend-mode:multiply">
<path d="M11.9451 4.30527C11.9898 4.08037 11.6855 3.84744 11.2647 3.78319C10.8439 3.71893 10.4769 3.84744 10.4321 4.06431C10.3873 4.28118 10.6917 4.53017 11.1125 4.59443C11.5333 4.65869 11.9003 4.53017 11.9451 4.30527Z" fill="#E3E1BA"/>
</g>
<g style="mix-blend-mode:multiply">
<path d="M29.4747 10.1204C29.5195 9.85532 29.1703 9.58223 28.6779 9.5019C28.1856 9.42158 27.7827 9.57419 27.7021 9.83925C27.6215 10.1043 28.0065 10.3774 28.4899 10.4497C28.9734 10.522 29.421 10.3774 29.4747 10.1204Z" fill="#E3E1BA"/>
</g>
<g style="mix-blend-mode:multiply">
<path d="M34.2553 7.26907C34.2553 7.0522 34.0046 6.81927 33.5928 6.74698C33.181 6.67469 32.805 6.81124 32.7602 7.03614C32.7155 7.26104 33.0199 7.48594 33.4317 7.5502C33.8435 7.61445 34.2105 7.49397 34.2553 7.26907Z" fill="#E3E1BA"/>
</g>
<g style="mix-blend-mode:multiply">
<path d="M6.43043 5.06034C6.43043 4.93182 6.28719 4.79528 6.04547 4.76315C5.80375 4.73102 5.6068 4.76315 5.57994 4.92379C5.55308 5.08443 5.72318 5.18082 5.95595 5.22098C6.18871 5.26114 6.40357 5.18082 6.43043 5.06034Z" fill="#E3E1BA"/>
</g>
<g style="mix-blend-mode:multiply">
<path d="M4.67615 7.59035C4.72092 7.37348 4.42548 7.14055 4.01366 7.07629C3.60185 7.01204 3.23479 7.13252 3.19003 7.35742C3.14527 7.58232 3.4407 7.80722 3.85252 7.87147C4.26434 7.93573 4.64034 7.81525 4.67615 7.59035Z" fill="#E3E1BA"/>
</g>
</g>
<g style="mix-blend-mode:color-dodge" opacity="0.3">
<path d="M4.05794 31.5018C2.83144 31.6062 2.59868 23.8391 2.22267 20.3773C1.84666 16.9155 1.26474 12.5701 2.48229 12.4657C3.69984 12.3612 2.09733 16.8592 2.96573 20.4978C4.34442 26.3532 5.28444 31.3893 4.05794 31.5018Z" fill="#A5A5A5"/>
</g>
</svg>
